<?xml version="1.0" encoding="utf-8"?>
<!-- Generator: Adobe Illustrator 24.0.0, SVG Export Plug-In . SVG Version: 6.00 Build 0)  -->
<svg version="1.1" id="圖層_1" xmlns="http://www.w3.org/2000/svg" xmlns:xlink="http://www.w3.org/1999/xlink" x="0px" y="0px"
	 viewBox="0 0 839.62 677.59" style="enable-background:new 0 0 839.62 677.59;" xml:space="preserve">
<style type="text/css">
	.st0{fill:none;stroke:#FFFFFF;stroke-width:0.5;stroke-miterlimit:10;}
	.st1{fill:#FFFFFF;}
	.st2{font-family:'NotoSansHant-Bold-B5pc-H';}
	.st3{font-size:21.4175px;}
	.st4{letter-spacing:1;}
	.st5{fill:#45456D;}
	.st6{fill:#42446A;}
	.st7{font-size:22.7758px;}
	.st8{font-family:'NotoSansHant-Medium-B5pc-H';}
	.st9{font-size:20.4737px;}
	.st10{font-size:21.2678px;}
	.st11{letter-spacing:2;}
	.st12{fill:#E32B89;}
	.st13{font-family:'NotoSansHant-Black-B5pc-H';}
	.st14{font-size:26.8167px;}
	.st15{fill:#212336;stroke:#FFFFFF;stroke-width:0.5;stroke-miterlimit:10;}
	.st16{font-size:24.7671px;}
	.st17{font-size:28.2464px;}
	.st18{opacity:0.5;clip-path:url(#XMLID_12_);}
	.st19{fill:none;stroke:#FFFFFF;stroke-width:0.3;stroke-miterlimit:10;}
</style>
<g id="XMLID_1_">
	<path id="XMLID_198_" class="st0" d="M393.77,414.78l20.12-6.98c0.23-0.08,0.48-0.1,0.72-0.04l19.44,4.29
		c0.54,0.12,0.96,0.57,1.03,1.12l1.37,10.47c0.08,0.64-0.3,1.24-0.91,1.44l-19.38,6.16c-0.21,0.07-0.44,0.08-0.66,0.04l-20.89-4.12
		c-0.59-0.12-1.03-0.61-1.07-1.21l-0.66-9.8C392.84,415.52,393.21,414.97,393.77,414.78z"/>
	<path id="XMLID_197_" class="st0" d="M394.03,445.74l23.83-6.17c0.24-0.06,0.49-0.06,0.72,0.02l21.94,6.73
		c0.56,0.17,0.95,0.7,0.94,1.29l-0.21,12.4c-0.01,0.6-0.43,1.13-1.02,1.27l-22.04,5.3c-0.22,0.05-0.45,0.05-0.67-0.01l-23.68-6.7
		c-0.58-0.16-0.97-0.69-0.96-1.29l0.16-11.56C393.05,446.41,393.45,445.89,394.03,445.74z"/>
	<path id="XMLID_196_" class="st0" d="M402.98,478.16l14.57-3.77c0.24-0.06,0.49-0.06,0.72,0.02l13.35,4.09
		c0.58,0.18,0.97,0.73,0.93,1.34l-0.39,7.1c-0.03,0.58-0.44,1.07-1.01,1.21l-13.13,3.23c-0.22,0.06-0.46,0.05-0.68-0.01l-14.48-4.09
		c-0.58-0.16-0.97-0.69-0.96-1.29l0.09-6.56C401.99,478.83,402.4,478.31,402.98,478.16z"/>
	<path id="XMLID_195_" class="st0" d="M394.79,505.35l23.05-5.97c0.24-0.06,0.49-0.06,0.72,0.02l21.22,6.51
		c0.57,0.17,0.95,0.7,0.94,1.29l-0.23,11.95c-0.01,0.6-0.43,1.12-1.01,1.26l-21.29,5.12c-0.22,0.05-0.45,0.05-0.67-0.01l-22.9-6.48
		c-0.58-0.16-0.97-0.69-0.96-1.29l0.15-11.14C393.8,506.02,394.21,505.5,394.79,505.35z"/>
	<path id="XMLID_194_" class="st0" d="M403.82,546.34l9.12-10.3c0.16-0.18,0.37-0.32,0.61-0.39l12.3-3.74
		c0.53-0.16,1.11,0.03,1.45,0.47l3.82,5.1c0.38,0.51,0.35,1.23-0.09,1.7l-8.94,9.57c-0.15,0.16-0.34,0.28-0.56,0.35l-13.08,4.29
		c-0.57,0.19-1.19-0.03-1.52-0.53l-3.22-4.93C403.37,547.45,403.42,546.79,403.82,546.34z"/>
	<g id="XMLID_182_">
		<path id="XMLID_192_" class="st0" d="M115.46,61.89l96.79,143.28c0.74,1.1,1.98,1.75,3.3,1.75h36.47c2.2,0,3.98,1.78,3.98,3.98
			v78.03c0,2.2,1.78,3.98,3.98,3.98h100.37c2.2,0,3.98,1.78,3.98,3.98v376.16c0,2.2,1.78,3.98,3.98,3.98h471.29"/>
		<path id="XMLID_191_" class="st0" d="M44.76,104.75l160.81,250.93c0.41,0.64,0.63,1.39,0.63,2.15v110.66
			c0,2.2-1.78,3.98-3.98,3.98H0"/>
		<path id="XMLID_190_" class="st0" d="M0,546.1h202.22c2.2,0,3.98,1.78,3.98,3.98v122.98c0,2.2-1.78,3.98-3.98,3.98H0"/>
		<g id="XMLID_183_">
			<path id="XMLID_189_" class="st0" d="M162.22,129.84h251.17c1.03,0,2.03-0.4,2.77-1.12L549.41,0.18"/>
			<path id="XMLID_188_" class="st0" d="M591.18,34.36L459.98,167.9c-1.52,1.55-1.52,4.02,0,5.57l32.7,33.45
				c1.55,1.58,4.08,1.6,5.65,0.05l171.07-167.3"/>
			<path id="XMLID_187_" class="st0" d="M712.7,74.61L524.05,260.06c-0.75,0.75-1.18,1.77-1.18,2.83v154.67
				c0,2.2,1.78,3.98,3.98,3.98h74.02c1.09,0,2.13-0.45,2.88-1.24l143.03-155.26"/>
			<path id="XMLID_186_" class="st0" d="M790.07,299.23L623.9,478.04c-0.75,0.8-1.81,1.26-2.91,1.26h-94.14
				c-2.2,0-3.98,1.78-3.98,3.98v96.16c0,2.2,1.78,3.98,3.98,3.98h312.77"/>
			<path id="XMLID_184_" class="st0" d="M192.37,177.96h216.71c1.15,0,2.24,0.49,2.99,1.35l61.72,70.27
				c0.64,0.73,0.99,1.66,0.99,2.63v383.14c0,2.2,1.78,3.98,3.98,3.98h360.85"/>
		</g>
	</g>
	<g id="XMLID_165_">
		<g id="XMLID_178_">
			<text transform="matrix(0.6776 -0.7354 0.7354 0.6776 617.4794 456.9878)"><tspan x="0" y="0" class="st1 st2 st3 st4">四維四路 </tspan><tspan x="95.89" y="0" class="st1 st2 st3">Siwei 4th Rd.</tspan></text>
		</g>
		<g id="XMLID_176_">
			<text transform="matrix(0.7094 -0.7048 0.7048 0.7094 502.8492 255.5228)"><tspan x="0" y="0" class="st1 st2 st3 st4">青年二路 </tspan><tspan x="95.89" y="0" class="st1 st2 st3">Qingnian 2nd Rd.</tspan></text>
		</g>
		<g id="XMLID_173_">
			<text transform="matrix(0.7092 -0.705 0.705 0.7092 441.08 158.6394)"><tspan x="0" y="0" class="st1 st2 st3 st4">新田路 </tspan><tspan x="73.4" y="0" class="st1 st2 st3">Xintian Rd.</tspan></text>
		</g>
		<g id="XMLID_171_">
			<text transform="matrix(1 0 0 1 212.1846 162.5538)"><tspan x="0" y="0" class="st1 st2 st3 st4">海邊路 </tspan><tspan x="73.4" y="0" class="st1 st2 st3">Hainian Rd.</tspan></text>
		</g>
		<g id="XMLID_169_">
			<text transform="matrix(0 1 -1 0 495.4185 392.7447)"><tspan x="0" y="0" class="st1 st2 st3 st4">海邊路 </tspan><tspan x="73.4" y="0" class="st1 st2 st3">Hainian Rd.</tspan></text>
		</g>
		<g id="XMLID_167_">
			<text transform="matrix(1 0 0 1 643.2496 621.3267)"><tspan x="0" y="0" class="st1 st2 st3 st4">海邊路 </tspan><tspan x="73.4" y="0" class="st1 st2 st3">Hainian Rd.</tspan></text>
		</g>
	</g>
	<g id="XMLID_159_">
		<g>
			<polygon id="XMLID_162_" class="st5" points="481.88,248.16 412.65,170.86 190.23,170.86 79.56,268.35 79.56,427.5 0,427.5 
				0,441.7 93.76,441.7 93.76,274.8 195.56,185.06 405.96,185.06 467.68,253.26 467.68,646.44 839.62,646.44 839.62,632.24 
				481.88,632.24 			"/>
		</g>
	</g>
	<g id="XMLID_153_">
		<path id="XMLID_158_" class="st6" d="M632.64,666.26H520.99c-0.91,0-1.66-0.75-1.66-1.66v-64.84c0-0.91,0.75-1.66,1.66-1.66
			h111.65c0.91,0,1.66,0.75,1.66,1.66v64.84C634.29,665.51,633.55,666.26,632.64,666.26z"/>
		<g id="XMLID_155_">
			<text transform="matrix(1 0 0 1 534.7339 626.8677)"><tspan x="0" y="0" class="st1 st2 st7">輕軌 C9</tspan><tspan x="0" y="29.28" class="st1 st8 st9 st4">旅運中心</tspan></text>
		</g>
	</g>
	<g id="XMLID_148_">
		<path id="XMLID_152_" class="st6" d="M587.02,373.15H475.37c-0.91,0-1.66-0.75-1.66-1.66v-64.84c0-0.91,0.75-1.66,1.66-1.66
			h111.65c0.91,0,1.66,0.75,1.66,1.66v64.84C588.68,372.41,587.93,373.15,587.02,373.15z"/>
		<g id="XMLID_149_">
			<text transform="matrix(1 0 0 1 485.8658 333.7701)"><tspan x="0" y="0" class="st1 st2 st7">輕軌 </tspan><tspan x="50.72" y="0" class="st1 st2 st10">C10</tspan><tspan x="0" y="29.28" class="st1 st8 st9 st11">光榮碼頭</tspan></text>
		</g>
	</g>
	<g id="XMLID_140_">
		<path id="XMLID_147_" class="st6" d="M113.61,317.2H1.96c-0.91,0-1.66-0.75-1.66-1.66v-64.84c0-0.91,0.75-1.66,1.66-1.66h111.65
			c0.91,0,1.66,0.75,1.66,1.66v64.84C115.27,316.46,114.52,317.2,113.61,317.2z"/>
		<g id="XMLID_144_">
			<text transform="matrix(1 0 0 1 13.0455 277.8111)"><tspan x="0" y="0" class="st1 st2 st7">輕軌 C11</tspan><tspan x="0" y="29.28" class="st1 st8 st9 st11">真愛碼頭</tspan></text>
		</g>
	</g>
	<g id="XMLID_135_">
		<path id="XMLID_139_" class="st12" d="M381.85,357.99l39.89-3.2c0.24-0.02,0.49,0.03,0.71,0.14l33.34,16.98
			c0.5,0.25,0.78,0.79,0.71,1.34l-2.59,20.79c-0.08,0.64-0.6,1.13-1.24,1.16l-38.26,2.04c-0.22,0.01-0.45-0.03-0.65-0.13
			l-36.02-17.36c-0.54-0.26-0.84-0.85-0.73-1.44l3.65-19.26C380.76,358.48,381.25,358.04,381.85,357.99z"/>
		<text id="XMLID_138_" transform="matrix(0.9981 0.0625 -0.0625 0.9981 399.9236 384.5772)" class="st1 st13 st14">01</text>
	</g>
	<g id="XMLID_125_">
		<path id="XMLID_134_" class="st15" d="M189.73,454.55H61.65c-1.11,0-2.02-0.91-2.02-2.02v-74.73c0-1.11,0.91-2.02,2.02-2.02
			h128.08c1.11,0,2.02,0.91,2.02,2.02v74.73C191.75,453.64,190.84,454.55,189.73,454.55z"/>
		<g id="XMLID_129_">
			<text id="XMLID_130_" transform="matrix(1 0 0 1 72.4742 410.7486)"><tspan x="0" y="0" class="st1 st2 st16 st11">高雄流行</tspan><tspan x="0" y="30.96" class="st1 st2 st16 st11">音樂中心</tspan></text>
		</g>
	</g>
	<g id="XMLID_90_">
		<path id="XMLID_124_" class="st15" d="M352.23,278.45h-80.95c-1.16,0-2.11-0.95-2.11-2.11v-55.96c0-1.16,0.95-2.11,2.11-2.11
			h80.96c1.16,0,2.11,0.95,2.11,2.11v55.96C354.34,277.5,353.39,278.45,352.23,278.45z"/>
		<g id="XMLID_91_">
			<text id="XMLID_110_" transform="matrix(1 0 0 1 282.8882 259.4693)" class="st1 st2 st17 st11">礁群</text>
		</g>
	</g>
	<g id="XMLID_86_">
		<path id="XMLID_87_" class="st12" d="M420.39,266.22c-12.37,0-22.36,10.23-22.4,23.9c-0.04,10.6,16.43,36.89,21.15,44.66
			c0.57,0.94,1.93,0.94,2.51,0c4.72-7.77,21.19-34.06,21.15-44.66C442.75,276.59,432.76,266.22,420.39,266.22z M420.39,299.71
			c-6.36,0-11.52-5.16-11.52-11.52c0-6.36,5.16-11.51,11.52-11.51c6.36,0,11.51,5.16,11.51,11.51
			C431.9,294.56,426.75,299.71,420.39,299.71z"/>
	</g>
	<g id="XMLID_20_">
		<defs>
			<path id="XMLID_21_" d="M368.33,677.05c-2.2,0-3.98-1.78-3.98-3.98V296.9c0-2.2-1.78-3.98-3.98-3.98H259.99
				c-2.2,0-3.98-1.78-3.98-3.98V210.9c0-2.2-1.78-3.98-3.98-3.98h-36.47c-1.32,0-2.56-0.66-3.3-1.75L115.46,61.89l-70.7,42.87
				l160.81,250.93c0.41,0.64,0.63,1.39,0.63,2.15v110.66c0,2.2-1.78,3.98-3.98,3.98H0v73.63h202.22c2.2,0,3.98,1.78,3.98,3.98
				v122.98c0,2.2-1.78,3.98-3.98,3.98H368.33z"/>
		</defs>
		<clipPath id="XMLID_12_">
			<use xlink:href="#XMLID_21_"  style="overflow:visible;"/>
		</clipPath>
		<g id="XMLID_22_" class="st18">
			<path id="XMLID_85_" class="st19" d="M-38.77,675.79c8.94,0,8.94,7.72,17.87,7.72c8.93,0,8.93-7.72,17.86-7.72
				c8.93,0,8.93,7.72,17.87,7.72c8.94,0,8.94-7.72,17.87-7.72c8.93,0,8.93,7.72,17.87,7.72c8.94,0,8.94-7.72,17.87-7.72
				c8.93,0,8.93,7.72,17.87,7.72c8.94,0,8.94-7.72,17.87-7.72c8.94,0,8.94,7.72,17.87,7.72c8.94,0,8.94-7.72,17.88-7.72
				c8.94,0,8.94,7.72,17.87,7.72c8.94,0,8.94-7.72,17.88-7.72c8.94,0,8.94,7.72,17.88,7.72c8.94,0,8.94-7.72,17.87-7.72
				c8.93,0,8.93,7.72,17.86,7.72c8.94,0,8.94-7.72,17.88-7.72c8.93,0,8.93,7.72,17.87,7.72c8.94,0,8.94-7.72,17.88-7.72
				c8.94,0,8.94,7.72,17.88,7.72c8.94,0,8.94-7.72,17.88-7.72c8.94,0,8.94,7.72,17.88,7.72c8.94,0,8.94-7.72,17.88-7.72
				c8.94,0,8.94,7.72,17.88,7.72c8.95,0,8.95-7.72,17.9-7.72c8.95,0,8.95,7.72,17.91,7.72c8.95,0,8.95-7.72,17.91-7.72"/>
			<path id="XMLID_84_" class="st19" d="M-38.77,659.7c8.94,0,8.94,7.72,17.87,7.72c8.93,0,8.93-7.72,17.86-7.72
				c8.93,0,8.93,7.72,17.87,7.72c8.94,0,8.94-7.72,17.87-7.72c8.93,0,8.93,7.72,17.87,7.72c8.94,0,8.94-7.72,17.87-7.72
				c8.93,0,8.93,7.72,17.87,7.72c8.94,0,8.94-7.72,17.87-7.72c8.94,0,8.94,7.72,17.87,7.72c8.94,0,8.94-7.72,17.88-7.72
				c8.94,0,8.94,7.72,17.87,7.72c8.94,0,8.94-7.72,17.88-7.72c8.94,0,8.94,7.72,17.88,7.72c8.94,0,8.94-7.72,17.87-7.72
				c8.93,0,8.93,7.72,17.86,7.72c8.94,0,8.94-7.72,17.88-7.72c8.93,0,8.93,7.72,17.87,7.72c8.94,0,8.94-7.72,17.88-7.72
				c8.94,0,8.94,7.72,17.88,7.72c8.94,0,8.94-7.72,17.88-7.72c8.94,0,8.94,7.72,17.88,7.72c8.94,0,8.94-7.72,17.88-7.72
				c8.94,0,8.94,7.72,17.88,7.72c8.95,0,8.95-7.72,17.9-7.72c8.95,0,8.95,7.72,17.91,7.72c8.95,0,8.95-7.72,17.91-7.72"/>
			<path id="XMLID_63_" class="st19" d="M-38.77,643.61c8.94,0,8.94,7.72,17.87,7.72c8.93,0,8.93-7.72,17.86-7.72
				c8.93,0,8.93,7.72,17.87,7.72c8.94,0,8.94-7.72,17.87-7.72c8.93,0,8.93,7.72,17.87,7.72c8.94,0,8.94-7.72,17.87-7.72
				c8.93,0,8.93,7.72,17.87,7.72c8.94,0,8.94-7.72,17.87-7.72c8.94,0,8.94,7.72,17.87,7.72c8.94,0,8.94-7.72,17.88-7.72
				c8.94,0,8.94,7.72,17.87,7.72c8.94,0,8.94-7.72,17.88-7.72c8.94,0,8.94,7.72,17.88,7.72c8.94,0,8.94-7.72,17.87-7.72
				c8.93,0,8.93,7.72,17.86,7.72c8.94,0,8.94-7.72,17.88-7.72c8.93,0,8.93,7.72,17.87,7.72c8.94,0,8.94-7.72,17.88-7.72
				c8.94,0,8.94,7.72,17.88,7.72c8.94,0,8.94-7.72,17.88-7.72c8.94,0,8.94,7.72,17.88,7.72c8.94,0,8.94-7.72,17.88-7.72
				c8.94,0,8.94,7.72,17.88,7.72c8.95,0,8.95-7.72,17.9-7.72c8.95,0,8.95,7.72,17.91,7.72c8.95,0,8.95-7.72,17.91-7.72"/>
			<path id="XMLID_62_" class="st19" d="M-38.77,627.52c8.94,0,8.94,7.72,17.87,7.72c8.93,0,8.93-7.72,17.86-7.72
				c8.93,0,8.93,7.72,17.87,7.72c8.94,0,8.94-7.72,17.87-7.72c8.93,0,8.93,7.72,17.87,7.72c8.94,0,8.94-7.72,17.87-7.72
				c8.93,0,8.93,7.72,17.87,7.72c8.94,0,8.94-7.72,17.87-7.72c8.94,0,8.94,7.72,17.87,7.72c8.94,0,8.94-7.72,17.88-7.72
				c8.94,0,8.94,7.72,17.87,7.72c8.94,0,8.94-7.72,17.88-7.72c8.94,0,8.94,7.72,17.88,7.72c8.94,0,8.94-7.72,17.87-7.72
				c8.93,0,8.93,7.72,17.86,7.72c8.94,0,8.94-7.72,17.88-7.72c8.93,0,8.93,7.72,17.87,7.72c8.94,0,8.94-7.72,17.88-7.72
				c8.94,0,8.94,7.72,17.88,7.72c8.94,0,8.94-7.72,17.88-7.72c8.94,0,8.94,7.72,17.88,7.72c8.94,0,8.94-7.72,17.88-7.72
				c8.94,0,8.94,7.72,17.88,7.72c8.95,0,8.95-7.72,17.9-7.72c8.95,0,8.95,7.72,17.91,7.72c8.95,0,8.95-7.72,17.91-7.72"/>
			<path id="XMLID_61_" class="st19" d="M-38.77,611.43c8.94,0,8.94,7.72,17.87,7.72c8.93,0,8.93-7.72,17.86-7.72
				c8.93,0,8.93,7.72,17.87,7.72c8.94,0,8.94-7.72,17.87-7.72c8.93,0,8.93,7.72,17.87,7.72c8.94,0,8.94-7.72,17.87-7.72
				c8.93,0,8.93,7.72,17.87,7.72c8.94,0,8.94-7.72,17.87-7.72c8.94,0,8.94,7.72,17.87,7.72c8.94,0,8.94-7.72,17.88-7.72
				c8.94,0,8.94,7.72,17.87,7.72c8.94,0,8.94-7.72,17.88-7.72c8.94,0,8.94,7.72,17.88,7.72c8.94,0,8.94-7.72,17.87-7.72
				c8.93,0,8.93,7.72,17.86,7.72c8.94,0,8.94-7.72,17.88-7.72c8.93,0,8.93,7.72,17.87,7.72c8.94,0,8.94-7.72,17.88-7.72
				c8.94,0,8.94,7.72,17.88,7.72c8.94,0,8.94-7.72,17.88-7.72c8.94,0,8.94,7.72,17.88,7.72c8.94,0,8.94-7.72,17.88-7.72
				c8.94,0,8.94,7.72,17.88,7.72c8.95,0,8.95-7.72,17.9-7.72c8.95,0,8.95,7.72,17.91,7.72c8.95,0,8.95-7.72,17.91-7.72"/>
			<path id="XMLID_60_" class="st19" d="M-38.77,595.34c8.94,0,8.94,7.72,17.87,7.72c8.93,0,8.93-7.72,17.86-7.72
				c8.93,0,8.93,7.72,17.87,7.72c8.94,0,8.94-7.72,17.87-7.72c8.93,0,8.93,7.72,17.87,7.72c8.94,0,8.94-7.72,17.87-7.72
				c8.93,0,8.93,7.72,17.87,7.72c8.94,0,8.94-7.72,17.87-7.72c8.94,0,8.94,7.72,17.87,7.72c8.94,0,8.94-7.72,17.88-7.72
				c8.94,0,8.94,7.72,17.87,7.72c8.94,0,8.94-7.72,17.88-7.72c8.94,0,8.94,7.72,17.88,7.72c8.94,0,8.94-7.72,17.87-7.72
				c8.93,0,8.93,7.72,17.86,7.72c8.94,0,8.94-7.72,17.88-7.72c8.93,0,8.93,7.72,17.87,7.72c8.94,0,8.94-7.72,17.88-7.72
				c8.94,0,8.94,7.72,17.88,7.72c8.94,0,8.94-7.72,17.88-7.72c8.94,0,8.94,7.72,17.88,7.72c8.94,0,8.94-7.72,17.88-7.72
				c8.94,0,8.94,7.72,17.88,7.72c8.95,0,8.95-7.72,17.9-7.72c8.95,0,8.95,7.72,17.91,7.72c8.95,0,8.95-7.72,17.91-7.72"/>
			<path id="XMLID_59_" class="st19" d="M-38.77,579.25c8.94,0,8.94,7.72,17.87,7.72c8.93,0,8.93-7.72,17.86-7.72
				c8.93,0,8.93,7.72,17.87,7.72c8.94,0,8.94-7.72,17.87-7.72c8.93,0,8.93,7.72,17.87,7.72c8.94,0,8.94-7.72,17.87-7.72
				c8.93,0,8.93,7.72,17.87,7.72c8.94,0,8.94-7.72,17.87-7.72c8.94,0,8.94,7.72,17.87,7.72c8.94,0,8.94-7.72,17.88-7.72
				c8.94,0,8.94,7.72,17.87,7.72c8.94,0,8.94-7.72,17.88-7.72c8.94,0,8.94,7.72,17.88,7.72c8.94,0,8.94-7.72,17.87-7.72
				c8.93,0,8.93,7.72,17.86,7.72c8.94,0,8.94-7.72,17.88-7.72c8.93,0,8.93,7.72,17.87,7.72c8.94,0,8.94-7.72,17.88-7.72
				c8.94,0,8.94,7.72,17.88,7.72c8.94,0,8.94-7.72,17.88-7.72c8.94,0,8.94,7.72,17.88,7.72c8.94,0,8.94-7.72,17.88-7.72
				c8.94,0,8.94,7.72,17.88,7.72c8.95,0,8.95-7.72,17.9-7.72c8.95,0,8.95,7.72,17.91,7.72c8.95,0,8.95-7.72,17.91-7.72"/>
			<path id="XMLID_58_" class="st19" d="M-38.77,563.16c8.94,0,8.94,7.72,17.87,7.72c8.93,0,8.93-7.72,17.86-7.72
				c8.93,0,8.93,7.72,17.87,7.72c8.94,0,8.94-7.72,17.87-7.72c8.93,0,8.93,7.72,17.87,7.72c8.94,0,8.94-7.72,17.87-7.72
				c8.93,0,8.93,7.72,17.87,7.72c8.94,0,8.94-7.72,17.87-7.72c8.94,0,8.94,7.72,17.87,7.72c8.94,0,8.94-7.72,17.88-7.72
				c8.94,0,8.94,7.72,17.87,7.72c8.94,0,8.94-7.72,17.88-7.72c8.94,0,8.94,7.72,17.88,7.72c8.94,0,8.94-7.72,17.87-7.72
				c8.93,0,8.93,7.72,17.86,7.72c8.94,0,8.94-7.72,17.88-7.72c8.93,0,8.93,7.72,17.87,7.72c8.94,0,8.94-7.72,17.88-7.72
				c8.94,0,8.94,7.72,17.88,7.72c8.94,0,8.94-7.72,17.88-7.72c8.94,0,8.94,7.72,17.88,7.72c8.94,0,8.94-7.72,17.88-7.72
				c8.94,0,8.94,7.72,17.88,7.72c8.95,0,8.95-7.72,17.9-7.72c8.95,0,8.95,7.72,17.91,7.72c8.95,0,8.95-7.72,17.91-7.72"/>
			<path id="XMLID_57_" class="st19" d="M-38.77,547.07c8.94,0,8.94,7.72,17.87,7.72c8.93,0,8.93-7.72,17.86-7.72
				c8.93,0,8.93,7.72,17.87,7.72c8.94,0,8.94-7.72,17.87-7.72c8.93,0,8.93,7.72,17.87,7.72c8.94,0,8.94-7.72,17.87-7.72
				c8.93,0,8.93,7.72,17.87,7.72c8.94,0,8.94-7.72,17.87-7.72c8.94,0,8.94,7.72,17.87,7.72c8.94,0,8.94-7.72,17.88-7.72
				c8.94,0,8.94,7.72,17.87,7.72c8.94,0,8.94-7.72,17.88-7.72c8.94,0,8.94,7.72,17.88,7.72c8.94,0,8.94-7.72,17.87-7.72
				c8.93,0,8.93,7.72,17.86,7.72c8.94,0,8.94-7.72,17.88-7.72c8.93,0,8.93,7.72,17.87,7.72c8.94,0,8.94-7.72,17.88-7.72
				c8.94,0,8.94,7.72,17.88,7.72c8.94,0,8.94-7.72,17.88-7.72c8.94,0,8.94,7.72,17.88,7.72c8.94,0,8.94-7.72,17.88-7.72
				c8.94,0,8.94,7.72,17.88,7.72c8.95,0,8.95-7.72,17.9-7.72c8.95,0,8.95,7.72,17.91,7.72c8.95,0,8.95-7.72,17.91-7.72"/>
			<path id="XMLID_56_" class="st19" d="M-38.77,530.98c8.94,0,8.94,7.72,17.87,7.72c8.93,0,8.93-7.72,17.86-7.72
				c8.93,0,8.93,7.72,17.87,7.72c8.94,0,8.94-7.72,17.87-7.72c8.93,0,8.93,7.72,17.87,7.72c8.94,0,8.94-7.72,17.87-7.72
				c8.93,0,8.93,7.72,17.87,7.72c8.94,0,8.94-7.72,17.87-7.72c8.94,0,8.94,7.72,17.87,7.72c8.94,0,8.94-7.72,17.88-7.72
				c8.94,0,8.94,7.72,17.87,7.72c8.94,0,8.94-7.72,17.88-7.72c8.94,0,8.94,7.72,17.88,7.72c8.94,0,8.94-7.72,17.87-7.72
				c8.93,0,8.93,7.72,17.86,7.72c8.94,0,8.94-7.72,17.88-7.72c8.93,0,8.93,7.72,17.87,7.72c8.94,0,8.94-7.72,17.88-7.72
				c8.94,0,8.94,7.72,17.88,7.72c8.94,0,8.94-7.72,17.88-7.72c8.94,0,8.94,7.72,17.88,7.72c8.94,0,8.94-7.72,17.88-7.72
				c8.94,0,8.94,7.72,17.88,7.72c8.95,0,8.95-7.72,17.9-7.72c8.95,0,8.95,7.72,17.91,7.72c8.95,0,8.95-7.72,17.91-7.72"/>
			<path id="XMLID_55_" class="st19" d="M-38.77,514.89c8.94,0,8.94,7.72,17.87,7.72c8.93,0,8.93-7.72,17.86-7.72
				c8.93,0,8.93,7.72,17.87,7.72c8.94,0,8.94-7.72,17.87-7.72c8.93,0,8.93,7.72,17.87,7.72c8.94,0,8.94-7.72,17.87-7.72
				c8.93,0,8.93,7.72,17.87,7.72c8.94,0,8.94-7.72,17.87-7.72c8.94,0,8.94,7.72,17.87,7.72c8.94,0,8.94-7.72,17.88-7.72
				c8.94,0,8.94,7.72,17.87,7.72c8.94,0,8.94-7.72,17.88-7.72c8.94,0,8.94,7.72,17.88,7.72c8.94,0,8.94-7.72,17.87-7.72
				c8.93,0,8.93,7.72,17.86,7.72c8.94,0,8.94-7.72,17.88-7.72c8.93,0,8.93,7.72,17.87,7.72c8.94,0,8.94-7.72,17.88-7.72
				c8.94,0,8.94,7.72,17.88,7.72c8.94,0,8.94-7.72,17.88-7.72c8.94,0,8.94,7.72,17.88,7.72c8.94,0,8.94-7.72,17.88-7.72
				c8.94,0,8.94,7.72,17.88,7.72c8.95,0,8.95-7.72,17.9-7.72c8.95,0,8.95,7.72,17.91,7.72c8.95,0,8.95-7.72,17.91-7.72"/>
			<path id="XMLID_54_" class="st19" d="M-38.77,498.8c8.94,0,8.94,7.72,17.87,7.72c8.93,0,8.93-7.72,17.86-7.72
				c8.93,0,8.93,7.72,17.87,7.72c8.94,0,8.94-7.72,17.87-7.72c8.93,0,8.93,7.72,17.87,7.72c8.94,0,8.94-7.72,17.87-7.72
				c8.93,0,8.93,7.72,17.87,7.72c8.94,0,8.94-7.72,17.87-7.72c8.94,0,8.94,7.72,17.87,7.72c8.94,0,8.94-7.72,17.88-7.72
				c8.94,0,8.94,7.72,17.87,7.72c8.94,0,8.94-7.72,17.88-7.72c8.94,0,8.94,7.72,17.88,7.72c8.94,0,8.94-7.72,17.87-7.72
				c8.93,0,8.93,7.72,17.86,7.72c8.94,0,8.94-7.72,17.88-7.72c8.93,0,8.93,7.72,17.87,7.72c8.94,0,8.94-7.72,17.88-7.72
				c8.94,0,8.94,7.72,17.88,7.72c8.94,0,8.94-7.72,17.88-7.72c8.94,0,8.94,7.72,17.88,7.72c8.94,0,8.94-7.72,17.88-7.72
				c8.94,0,8.94,7.72,17.88,7.72c8.95,0,8.95-7.72,17.9-7.72c8.95,0,8.95,7.72,17.91,7.72c8.95,0,8.95-7.72,17.91-7.72"/>
			<path id="XMLID_53_" class="st19" d="M-38.77,482.71c8.94,0,8.94,7.72,17.87,7.72c8.93,0,8.93-7.72,17.86-7.72
				c8.93,0,8.93,7.72,17.87,7.72c8.94,0,8.94-7.72,17.87-7.72c8.93,0,8.93,7.72,17.87,7.72c8.94,0,8.94-7.72,17.87-7.72
				c8.93,0,8.93,7.72,17.87,7.72c8.94,0,8.94-7.72,17.87-7.72c8.94,0,8.94,7.72,17.87,7.72c8.94,0,8.94-7.72,17.88-7.72
				c8.94,0,8.94,7.72,17.87,7.72c8.94,0,8.94-7.72,17.88-7.72c8.94,0,8.94,7.72,17.88,7.72c8.94,0,8.94-7.72,17.87-7.72
				c8.93,0,8.93,7.72,17.86,7.72c8.94,0,8.94-7.72,17.88-7.72c8.93,0,8.93,7.72,17.87,7.72c8.94,0,8.94-7.72,17.88-7.72
				c8.94,0,8.94,7.72,17.88,7.72c8.94,0,8.94-7.72,17.88-7.72c8.94,0,8.94,7.72,17.88,7.72c8.94,0,8.94-7.72,17.88-7.72
				c8.94,0,8.94,7.72,17.88,7.72c8.95,0,8.95-7.72,17.9-7.72c8.95,0,8.95,7.72,17.91,7.72c8.95,0,8.95-7.72,17.91-7.72"/>
			<path id="XMLID_52_" class="st19" d="M-38.77,466.62c8.94,0,8.94,7.72,17.87,7.72c8.93,0,8.93-7.72,17.86-7.72
				c8.93,0,8.93,7.72,17.87,7.72c8.94,0,8.94-7.72,17.87-7.72c8.93,0,8.93,7.72,17.87,7.72c8.94,0,8.94-7.72,17.87-7.72
				c8.93,0,8.93,7.72,17.87,7.72c8.94,0,8.94-7.72,17.87-7.72c8.94,0,8.94,7.72,17.87,7.72c8.94,0,8.94-7.72,17.88-7.72
				c8.94,0,8.94,7.72,17.87,7.72c8.94,0,8.94-7.72,17.88-7.72c8.94,0,8.94,7.72,17.88,7.72c8.94,0,8.94-7.72,17.87-7.72
				c8.93,0,8.93,7.72,17.86,7.72c8.94,0,8.94-7.72,17.88-7.72c8.93,0,8.93,7.72,17.87,7.72c8.94,0,8.94-7.72,17.88-7.72
				c8.94,0,8.94,7.72,17.88,7.72c8.94,0,8.94-7.72,17.88-7.72c8.94,0,8.94,7.72,17.88,7.72c8.94,0,8.94-7.72,17.88-7.72
				c8.94,0,8.94,7.72,17.88,7.72c8.95,0,8.95-7.72,17.9-7.72c8.95,0,8.95,7.72,17.91,7.72c8.95,0,8.95-7.72,17.91-7.72"/>
			<path id="XMLID_51_" class="st19" d="M-38.77,450.53c8.94,0,8.94,7.72,17.87,7.72c8.93,0,8.93-7.72,17.86-7.72
				c8.93,0,8.93,7.72,17.87,7.72c8.94,0,8.94-7.72,17.87-7.72c8.93,0,8.93,7.72,17.87,7.72c8.94,0,8.94-7.72,17.87-7.72
				c8.93,0,8.93,7.72,17.87,7.72c8.94,0,8.94-7.72,17.87-7.72c8.94,0,8.94,7.72,17.87,7.72c8.94,0,8.94-7.72,17.88-7.72
				c8.94,0,8.94,7.72,17.87,7.72c8.94,0,8.94-7.72,17.88-7.72c8.94,0,8.94,7.72,17.88,7.72c8.94,0,8.94-7.72,17.87-7.72
				c8.93,0,8.93,7.72,17.86,7.72c8.94,0,8.94-7.72,17.88-7.72c8.93,0,8.93,7.72,17.87,7.72c8.94,0,8.94-7.72,17.88-7.72
				c8.94,0,8.94,7.72,17.88,7.72c8.94,0,8.94-7.72,17.88-7.72c8.94,0,8.94,7.72,17.88,7.72c8.94,0,8.94-7.72,17.88-7.72
				c8.94,0,8.94,7.72,17.88,7.72c8.95,0,8.95-7.72,17.9-7.72c8.95,0,8.95,7.72,17.91,7.72c8.95,0,8.95-7.72,17.91-7.72"/>
			<path id="XMLID_50_" class="st19" d="M-38.77,434.44c8.94,0,8.94,7.72,17.87,7.72c8.93,0,8.93-7.72,17.86-7.72
				c8.93,0,8.93,7.72,17.87,7.72c8.94,0,8.94-7.72,17.87-7.72c8.93,0,8.93,7.72,17.87,7.72c8.94,0,8.94-7.72,17.87-7.72
				c8.93,0,8.93,7.72,17.87,7.72c8.94,0,8.94-7.72,17.87-7.72c8.94,0,8.94,7.72,17.87,7.72c8.94,0,8.94-7.72,17.88-7.72
				c8.94,0,8.94,7.72,17.87,7.72c8.94,0,8.94-7.72,17.88-7.72c8.94,0,8.94,7.72,17.88,7.72c8.94,0,8.94-7.72,17.87-7.72
				c8.93,0,8.93,7.72,17.86,7.72c8.94,0,8.94-7.72,17.88-7.72c8.93,0,8.93,7.72,17.87,7.72c8.94,0,8.94-7.72,17.88-7.72
				c8.94,0,8.94,7.72,17.88,7.72c8.94,0,8.94-7.72,17.88-7.72c8.94,0,8.94,7.72,17.88,7.72c8.94,0,8.94-7.72,17.88-7.72
				c8.94,0,8.94,7.72,17.88,7.72c8.95,0,8.95-7.72,17.9-7.72c8.95,0,8.95,7.72,17.91,7.72c8.95,0,8.95-7.72,17.91-7.72"/>
			<path id="XMLID_49_" class="st19" d="M-38.77,418.35c8.94,0,8.94,7.72,17.87,7.72c8.93,0,8.93-7.72,17.86-7.72
				c8.93,0,8.93,7.72,17.87,7.72c8.94,0,8.94-7.72,17.87-7.72c8.93,0,8.93,7.72,17.87,7.72c8.94,0,8.94-7.72,17.87-7.72
				c8.93,0,8.93,7.72,17.87,7.72c8.94,0,8.94-7.72,17.87-7.72c8.94,0,8.94,7.72,17.87,7.72c8.94,0,8.94-7.72,17.88-7.72
				c8.94,0,8.94,7.72,17.87,7.72c8.94,0,8.94-7.72,17.88-7.72c8.94,0,8.94,7.72,17.88,7.72c8.94,0,8.94-7.72,17.87-7.72
				c8.93,0,8.93,7.72,17.86,7.72c8.94,0,8.94-7.72,17.88-7.72c8.93,0,8.93,7.72,17.87,7.72c8.94,0,8.94-7.72,17.88-7.72
				c8.94,0,8.94,7.72,17.88,7.72c8.94,0,8.94-7.72,17.88-7.72c8.94,0,8.94,7.72,17.88,7.72c8.94,0,8.94-7.72,17.88-7.72
				c8.94,0,8.94,7.72,17.88,7.72c8.95,0,8.95-7.72,17.9-7.72c8.95,0,8.95,7.72,17.91,7.72c8.95,0,8.95-7.72,17.91-7.72"/>
			<path id="XMLID_48_" class="st19" d="M-38.77,402.26c8.94,0,8.94,7.72,17.87,7.72c8.93,0,8.93-7.72,17.86-7.72
				c8.93,0,8.93,7.72,17.87,7.72c8.94,0,8.94-7.72,17.87-7.72c8.93,0,8.93,7.72,17.87,7.72c8.94,0,8.94-7.72,17.87-7.72
				c8.93,0,8.93,7.72,17.87,7.72c8.94,0,8.94-7.72,17.87-7.72c8.94,0,8.94,7.72,17.87,7.72c8.94,0,8.94-7.72,17.88-7.72
				c8.94,0,8.94,7.72,17.87,7.72c8.94,0,8.94-7.72,17.88-7.72c8.94,0,8.94,7.72,17.88,7.72c8.94,0,8.94-7.72,17.87-7.72
				c8.93,0,8.93,7.72,17.86,7.72c8.94,0,8.94-7.72,17.88-7.72c8.93,0,8.93,7.72,17.87,7.72c8.94,0,8.94-7.72,17.88-7.72
				c8.94,0,8.94,7.72,17.88,7.72c8.94,0,8.94-7.72,17.88-7.72c8.94,0,8.94,7.72,17.88,7.72c8.94,0,8.94-7.72,17.88-7.72
				c8.94,0,8.94,7.72,17.88,7.72c8.95,0,8.95-7.72,17.9-7.72c8.95,0,8.95,7.72,17.91,7.72c8.95,0,8.95-7.72,17.91-7.72"/>
			<path id="XMLID_47_" class="st19" d="M-38.77,386.17c8.94,0,8.94,7.72,17.87,7.72c8.93,0,8.93-7.72,17.86-7.72
				c8.93,0,8.93,7.72,17.87,7.72c8.94,0,8.94-7.72,17.87-7.72c8.93,0,8.93,7.72,17.87,7.72c8.94,0,8.94-7.72,17.87-7.72
				c8.93,0,8.93,7.72,17.87,7.72c8.94,0,8.94-7.72,17.87-7.72c8.94,0,8.94,7.72,17.87,7.72c8.94,0,8.94-7.72,17.88-7.72
				c8.94,0,8.94,7.72,17.87,7.72c8.94,0,8.94-7.72,17.88-7.72c8.94,0,8.94,7.72,17.88,7.72c8.94,0,8.94-7.72,17.87-7.72
				c8.93,0,8.93,7.72,17.86,7.72c8.94,0,8.94-7.72,17.88-7.72c8.93,0,8.93,7.72,17.87,7.72c8.94,0,8.94-7.72,17.88-7.72
				c8.94,0,8.94,7.72,17.88,7.72c8.94,0,8.94-7.72,17.88-7.72c8.94,0,8.94,7.72,17.88,7.72c8.94,0,8.94-7.72,17.88-7.72
				c8.94,0,8.94,7.72,17.88,7.72c8.95,0,8.95-7.72,17.9-7.72c8.95,0,8.95,7.72,17.91,7.72c8.95,0,8.95-7.72,17.91-7.72"/>
			<path id="XMLID_46_" class="st19" d="M-38.77,370.08c8.94,0,8.94,7.72,17.87,7.72c8.93,0,8.93-7.72,17.86-7.72
				c8.93,0,8.93,7.72,17.87,7.72c8.94,0,8.94-7.72,17.87-7.72c8.93,0,8.93,7.72,17.87,7.72c8.94,0,8.94-7.72,17.87-7.72
				c8.93,0,8.93,7.72,17.87,7.72c8.94,0,8.94-7.72,17.87-7.72c8.94,0,8.94,7.72,17.87,7.72c8.94,0,8.94-7.72,17.88-7.72
				c8.94,0,8.94,7.72,17.87,7.72c8.94,0,8.94-7.72,17.88-7.72c8.94,0,8.94,7.72,17.88,7.72c8.94,0,8.94-7.72,17.87-7.72
				c8.93,0,8.93,7.72,17.86,7.72c8.94,0,8.94-7.72,17.88-7.72c8.93,0,8.93,7.72,17.87,7.72c8.94,0,8.94-7.72,17.88-7.72
				c8.94,0,8.94,7.72,17.88,7.72c8.94,0,8.94-7.72,17.88-7.72c8.94,0,8.94,7.72,17.88,7.72c8.94,0,8.94-7.72,17.88-7.72
				c8.94,0,8.94,7.72,17.88,7.72c8.95,0,8.95-7.72,17.9-7.72c8.95,0,8.95,7.72,17.91,7.72c8.95,0,8.95-7.72,17.91-7.72"/>
			<path id="XMLID_45_" class="st19" d="M-38.77,353.99c8.94,0,8.94,7.72,17.87,7.72c8.93,0,8.93-7.72,17.86-7.72
				c8.93,0,8.93,7.72,17.87,7.72c8.94,0,8.94-7.72,17.87-7.72c8.93,0,8.93,7.72,17.87,7.72c8.94,0,8.94-7.72,17.87-7.72
				c8.93,0,8.93,7.72,17.87,7.72c8.94,0,8.94-7.72,17.87-7.72c8.94,0,8.94,7.72,17.87,7.72c8.94,0,8.94-7.72,17.88-7.72
				c8.94,0,8.94,7.72,17.87,7.72c8.94,0,8.94-7.72,17.88-7.72c8.94,0,8.94,7.72,17.88,7.72c8.94,0,8.94-7.72,17.87-7.72
				c8.93,0,8.93,7.72,17.86,7.72c8.94,0,8.94-7.72,17.88-7.72c8.93,0,8.93,7.72,17.87,7.72c8.94,0,8.94-7.72,17.88-7.72
				c8.94,0,8.94,7.72,17.88,7.72c8.94,0,8.94-7.72,17.88-7.72c8.94,0,8.94,7.72,17.88,7.72c8.94,0,8.94-7.72,17.88-7.72
				c8.94,0,8.94,7.72,17.88,7.72c8.95,0,8.95-7.72,17.9-7.72c8.95,0,8.95,7.72,17.91,7.72c8.95,0,8.95-7.72,17.91-7.72"/>
			<path id="XMLID_44_" class="st19" d="M-38.77,337.9c8.94,0,8.94,7.72,17.87,7.72c8.93,0,8.93-7.72,17.86-7.72
				c8.93,0,8.93,7.72,17.87,7.72c8.94,0,8.94-7.72,17.87-7.72c8.93,0,8.93,7.72,17.87,7.72c8.94,0,8.94-7.72,17.87-7.72
				c8.93,0,8.93,7.72,17.87,7.72c8.94,0,8.94-7.72,17.87-7.72c8.94,0,8.94,7.72,17.87,7.72c8.94,0,8.94-7.72,17.88-7.72
				c8.94,0,8.94,7.72,17.87,7.72c8.94,0,8.94-7.72,17.88-7.72c8.94,0,8.94,7.72,17.88,7.72c8.94,0,8.94-7.72,17.87-7.72
				c8.93,0,8.93,7.72,17.86,7.72c8.94,0,8.94-7.72,17.88-7.72c8.93,0,8.93,7.72,17.87,7.72c8.94,0,8.94-7.72,17.88-7.72
				c8.94,0,8.94,7.72,17.88,7.72c8.94,0,8.94-7.72,17.88-7.72c8.94,0,8.94,7.72,17.88,7.72c8.94,0,8.94-7.72,17.88-7.72
				c8.94,0,8.94,7.72,17.88,7.72c8.95,0,8.95-7.72,17.9-7.72c8.95,0,8.95,7.72,17.91,7.72c8.95,0,8.95-7.72,17.91-7.72"/>
			<path id="XMLID_43_" class="st19" d="M-38.77,321.81c8.94,0,8.94,7.72,17.87,7.72c8.93,0,8.93-7.72,17.86-7.72
				c8.93,0,8.93,7.72,17.87,7.72c8.94,0,8.94-7.72,17.87-7.72c8.93,0,8.93,7.72,17.87,7.72c8.94,0,8.94-7.72,17.87-7.72
				c8.93,0,8.93,7.72,17.87,7.72c8.94,0,8.94-7.72,17.87-7.72c8.94,0,8.94,7.72,17.87,7.72c8.94,0,8.94-7.72,17.88-7.72
				c8.94,0,8.94,7.72,17.87,7.72c8.94,0,8.94-7.72,17.88-7.72c8.94,0,8.94,7.72,17.88,7.72c8.94,0,8.94-7.72,17.87-7.72
				c8.93,0,8.93,7.72,17.86,7.72c8.94,0,8.94-7.72,17.88-7.72c8.93,0,8.93,7.72,17.87,7.72c8.94,0,8.94-7.72,17.88-7.72
				c8.94,0,8.94,7.72,17.88,7.72c8.94,0,8.94-7.72,17.88-7.72c8.94,0,8.94,7.72,17.88,7.72c8.94,0,8.94-7.72,17.88-7.72
				c8.94,0,8.94,7.72,17.88,7.72c8.95,0,8.95-7.72,17.9-7.72c8.95,0,8.95,7.72,17.91,7.72c8.95,0,8.95-7.72,17.91-7.72"/>
			<path id="XMLID_42_" class="st19" d="M-38.77,305.72c8.94,0,8.94,7.72,17.87,7.72c8.93,0,8.93-7.72,17.86-7.72
				c8.93,0,8.93,7.72,17.87,7.72c8.94,0,8.94-7.72,17.87-7.72c8.93,0,8.93,7.72,17.87,7.72c8.94,0,8.94-7.72,17.87-7.72
				c8.93,0,8.93,7.72,17.87,7.72c8.94,0,8.94-7.72,17.87-7.72c8.94,0,8.94,7.72,17.87,7.72c8.94,0,8.94-7.72,17.88-7.72
				c8.94,0,8.94,7.72,17.87,7.72c8.94,0,8.94-7.72,17.88-7.72c8.94,0,8.94,7.72,17.88,7.72c8.94,0,8.94-7.72,17.87-7.72
				c8.93,0,8.93,7.72,17.86,7.72c8.94,0,8.94-7.72,17.88-7.72c8.93,0,8.93,7.72,17.87,7.72c8.94,0,8.94-7.72,17.88-7.72
				c8.94,0,8.94,7.72,17.88,7.72c8.94,0,8.94-7.72,17.88-7.72c8.94,0,8.94,7.72,17.88,7.72c8.94,0,8.94-7.72,17.88-7.72
				c8.94,0,8.94,7.72,17.88,7.72c8.95,0,8.95-7.72,17.9-7.72c8.95,0,8.95,7.72,17.91,7.72c8.95,0,8.95-7.72,17.91-7.72"/>
			<path id="XMLID_41_" class="st19" d="M-38.77,289.63c8.94,0,8.94,7.72,17.87,7.72c8.93,0,8.93-7.72,17.86-7.72
				c8.93,0,8.93,7.72,17.87,7.72c8.94,0,8.94-7.72,17.87-7.72c8.93,0,8.93,7.72,17.87,7.72c8.94,0,8.94-7.72,17.87-7.72
				c8.93,0,8.93,7.72,17.87,7.72c8.94,0,8.94-7.72,17.87-7.72c8.94,0,8.94,7.72,17.87,7.72c8.94,0,8.94-7.72,17.88-7.72
				c8.94,0,8.94,7.72,17.87,7.72c8.94,0,8.94-7.72,17.88-7.72c8.94,0,8.94,7.72,17.88,7.72c8.94,0,8.94-7.72,17.87-7.72
				c8.93,0,8.93,7.72,17.86,7.72c8.94,0,8.94-7.72,17.88-7.72c8.93,0,8.93,7.72,17.87,7.72c8.94,0,8.94-7.72,17.88-7.72
				c8.94,0,8.94,7.72,17.88,7.72c8.94,0,8.94-7.72,17.88-7.72c8.94,0,8.94,7.72,17.88,7.72c8.94,0,8.94-7.72,17.88-7.72
				c8.94,0,8.94,7.72,17.88,7.72c8.95,0,8.95-7.72,17.9-7.72c8.95,0,8.95,7.72,17.91,7.72c8.95,0,8.95-7.72,17.91-7.72"/>
			<path id="XMLID_40_" class="st19" d="M-38.77,273.54c8.94,0,8.94,7.72,17.87,7.72c8.93,0,8.93-7.72,17.86-7.72
				c8.93,0,8.93,7.72,17.87,7.72c8.94,0,8.94-7.72,17.87-7.72c8.93,0,8.93,7.72,17.87,7.72c8.94,0,8.94-7.72,17.87-7.72
				c8.93,0,8.93,7.72,17.87,7.72c8.94,0,8.94-7.72,17.87-7.72c8.94,0,8.94,7.72,17.87,7.72c8.94,0,8.94-7.72,17.88-7.72
				c8.94,0,8.94,7.72,17.87,7.72c8.94,0,8.94-7.72,17.88-7.72c8.94,0,8.94,7.72,17.88,7.72c8.94,0,8.94-7.72,17.87-7.72
				c8.93,0,8.93,7.72,17.86,7.72c8.94,0,8.94-7.72,17.88-7.72c8.93,0,8.93,7.72,17.87,7.72c8.94,0,8.94-7.72,17.88-7.72
				c8.94,0,8.94,7.72,17.88,7.72c8.94,0,8.94-7.72,17.88-7.72c8.94,0,8.94,7.72,17.88,7.72c8.94,0,8.94-7.72,17.88-7.72
				c8.94,0,8.94,7.72,17.88,7.72c8.95,0,8.95-7.72,17.9-7.72c8.95,0,8.95,7.72,17.91,7.72c8.95,0,8.95-7.72,17.91-7.72"/>
			<path id="XMLID_39_" class="st19" d="M-38.77,257.45c8.94,0,8.94,7.72,17.87,7.72c8.93,0,8.93-7.72,17.86-7.72
				c8.93,0,8.93,7.72,17.87,7.72c8.94,0,8.94-7.72,17.87-7.72c8.93,0,8.93,7.72,17.87,7.72c8.94,0,8.94-7.72,17.87-7.72
				c8.93,0,8.93,7.72,17.87,7.72c8.94,0,8.94-7.72,17.87-7.72c8.94,0,8.94,7.72,17.87,7.72c8.94,0,8.94-7.72,17.88-7.72
				c8.94,0,8.94,7.72,17.87,7.72c8.94,0,8.94-7.72,17.88-7.72c8.94,0,8.94,7.72,17.88,7.72c8.94,0,8.94-7.72,17.87-7.72
				c8.93,0,8.93,7.72,17.86,7.72c8.94,0,8.94-7.72,17.88-7.72c8.93,0,8.93,7.72,17.87,7.72c8.94,0,8.94-7.72,17.88-7.72
				c8.94,0,8.94,7.72,17.88,7.72c8.94,0,8.94-7.72,17.88-7.72c8.94,0,8.94,7.72,17.88,7.72c8.94,0,8.94-7.72,17.88-7.72
				c8.94,0,8.94,7.72,17.88,7.72c8.95,0,8.95-7.72,17.9-7.72c8.95,0,8.95,7.72,17.91,7.72c8.95,0,8.95-7.72,17.91-7.72"/>
			<path id="XMLID_38_" class="st19" d="M-38.77,241.36c8.94,0,8.94,7.72,17.87,7.72c8.93,0,8.93-7.72,17.86-7.72
				c8.93,0,8.93,7.72,17.87,7.72c8.94,0,8.94-7.72,17.87-7.72c8.93,0,8.93,7.72,17.87,7.72c8.94,0,8.94-7.72,17.87-7.72
				c8.93,0,8.93,7.72,17.87,7.72c8.94,0,8.94-7.72,17.87-7.72c8.94,0,8.94,7.72,17.87,7.72c8.94,0,8.94-7.72,17.88-7.72
				c8.94,0,8.94,7.72,17.87,7.72c8.94,0,8.94-7.72,17.88-7.72c8.94,0,8.94,7.72,17.88,7.72c8.94,0,8.94-7.72,17.87-7.72
				c8.93,0,8.93,7.72,17.86,7.72c8.94,0,8.94-7.72,17.88-7.72c8.93,0,8.93,7.72,17.87,7.72c8.94,0,8.94-7.72,17.88-7.72
				c8.94,0,8.94,7.72,17.88,7.72c8.94,0,8.94-7.72,17.88-7.72c8.94,0,8.94,7.72,17.88,7.72c8.94,0,8.94-7.72,17.88-7.72
				c8.94,0,8.94,7.72,17.88,7.72c8.95,0,8.95-7.72,17.9-7.72c8.95,0,8.95,7.72,17.91,7.72c8.95,0,8.95-7.72,17.91-7.72"/>
			<path id="XMLID_37_" class="st19" d="M-38.77,225.27c8.94,0,8.94,7.72,17.87,7.72c8.93,0,8.93-7.72,17.86-7.72
				c8.93,0,8.93,7.72,17.87,7.72c8.94,0,8.94-7.72,17.87-7.72c8.93,0,8.93,7.72,17.87,7.72c8.94,0,8.94-7.72,17.87-7.72
				c8.93,0,8.93,7.72,17.87,7.72c8.94,0,8.94-7.72,17.87-7.72c8.94,0,8.94,7.72,17.87,7.72c8.94,0,8.94-7.72,17.88-7.72
				c8.94,0,8.94,7.72,17.87,7.72c8.94,0,8.94-7.72,17.88-7.72c8.94,0,8.94,7.72,17.88,7.72c8.94,0,8.94-7.72,17.87-7.72
				c8.93,0,8.93,7.72,17.86,7.72c8.94,0,8.94-7.72,17.88-7.72c8.93,0,8.93,7.72,17.87,7.72c8.94,0,8.94-7.72,17.88-7.72
				c8.94,0,8.94,7.72,17.88,7.72c8.94,0,8.94-7.72,17.88-7.72c8.94,0,8.94,7.72,17.88,7.72c8.94,0,8.94-7.72,17.88-7.72
				c8.94,0,8.94,7.72,17.88,7.72c8.95,0,8.95-7.72,17.9-7.72c8.95,0,8.95,7.72,17.91,7.72c8.95,0,8.95-7.72,17.91-7.72"/>
			<path id="XMLID_36_" class="st19" d="M-38.77,209.18c8.94,0,8.94,7.72,17.87,7.72c8.93,0,8.93-7.72,17.86-7.72
				c8.93,0,8.93,7.72,17.87,7.72c8.94,0,8.94-7.72,17.87-7.72c8.93,0,8.93,7.72,17.87,7.72c8.94,0,8.94-7.72,17.87-7.72
				c8.93,0,8.93,7.72,17.87,7.72c8.94,0,8.94-7.72,17.87-7.72c8.94,0,8.94,7.72,17.87,7.72c8.94,0,8.94-7.72,17.88-7.72
				c8.94,0,8.94,7.72,17.87,7.72c8.94,0,8.94-7.72,17.88-7.72c8.94,0,8.94,7.72,17.88,7.72c8.94,0,8.94-7.72,17.87-7.72
				c8.93,0,8.93,7.72,17.86,7.72c8.94,0,8.94-7.72,17.88-7.72c8.93,0,8.93,7.72,17.87,7.72c8.94,0,8.94-7.72,17.88-7.72
				c8.94,0,8.94,7.72,17.88,7.72c8.94,0,8.94-7.72,17.88-7.72c8.94,0,8.94,7.72,17.88,7.72c8.94,0,8.94-7.72,17.88-7.72
				c8.94,0,8.94,7.72,17.88,7.72c8.95,0,8.95-7.72,17.9-7.72c8.95,0,8.95,7.72,17.91,7.72c8.95,0,8.95-7.72,17.91-7.72"/>
			<path id="XMLID_35_" class="st19" d="M-38.77,193.09c8.94,0,8.94,7.72,17.87,7.72c8.93,0,8.93-7.72,17.86-7.72
				c8.93,0,8.93,7.72,17.87,7.72c8.94,0,8.94-7.72,17.87-7.72c8.93,0,8.93,7.72,17.87,7.72c8.94,0,8.94-7.72,17.87-7.72
				c8.93,0,8.93,7.72,17.87,7.72c8.94,0,8.94-7.72,17.87-7.72c8.94,0,8.94,7.72,17.87,7.72c8.94,0,8.94-7.72,17.88-7.72
				c8.94,0,8.94,7.72,17.87,7.72c8.94,0,8.94-7.72,17.88-7.72c8.94,0,8.94,7.72,17.88,7.72c8.94,0,8.94-7.72,17.87-7.72
				c8.93,0,8.93,7.72,17.86,7.72c8.94,0,8.94-7.72,17.88-7.72c8.93,0,8.93,7.72,17.87,7.72c8.94,0,8.94-7.72,17.88-7.72
				c8.94,0,8.94,7.72,17.88,7.72c8.94,0,8.94-7.72,17.88-7.72c8.94,0,8.94,7.72,17.88,7.72c8.94,0,8.94-7.72,17.88-7.72
				c8.94,0,8.94,7.72,17.88,7.72c8.95,0,8.95-7.72,17.9-7.72c8.95,0,8.95,7.72,17.91,7.72c8.95,0,8.95-7.72,17.91-7.72"/>
			<path id="XMLID_34_" class="st19" d="M-38.77,177c8.94,0,8.94,7.72,17.87,7.72c8.93,0,8.93-7.72,17.86-7.72
				c8.93,0,8.93,7.72,17.87,7.72c8.94,0,8.94-7.72,17.87-7.72c8.93,0,8.93,7.72,17.87,7.72c8.94,0,8.94-7.72,17.87-7.72
				c8.93,0,8.93,7.72,17.87,7.72c8.94,0,8.94-7.72,17.87-7.72c8.94,0,8.94,7.72,17.87,7.72c8.94,0,8.94-7.72,17.88-7.72
				c8.94,0,8.94,7.72,17.87,7.72c8.94,0,8.94-7.72,17.88-7.72c8.94,0,8.94,7.72,17.88,7.72c8.94,0,8.94-7.72,17.87-7.72
				c8.93,0,8.93,7.72,17.86,7.72c8.94,0,8.94-7.72,17.88-7.72c8.93,0,8.93,7.72,17.87,7.72c8.94,0,8.94-7.72,17.88-7.72
				c8.94,0,8.94,7.72,17.88,7.72c8.94,0,8.94-7.72,17.88-7.72c8.94,0,8.94,7.72,17.88,7.72c8.94,0,8.94-7.72,17.88-7.72
				c8.94,0,8.94,7.72,17.88,7.72c8.95,0,8.95-7.72,17.9-7.72c8.95,0,8.95,7.72,17.91,7.72c8.95,0,8.95-7.72,17.91-7.72"/>
			<path id="XMLID_33_" class="st19" d="M-38.77,160.91c8.94,0,8.94,7.72,17.87,7.72c8.93,0,8.93-7.72,17.86-7.72
				c8.93,0,8.93,7.72,17.87,7.72c8.94,0,8.94-7.72,17.87-7.72c8.93,0,8.93,7.72,17.87,7.72c8.94,0,8.94-7.72,17.87-7.72
				c8.93,0,8.93,7.72,17.87,7.72c8.94,0,8.94-7.72,17.87-7.72c8.94,0,8.94,7.72,17.87,7.72c8.94,0,8.94-7.72,17.88-7.72
				c8.94,0,8.94,7.72,17.87,7.72c8.94,0,8.94-7.72,17.88-7.72c8.94,0,8.94,7.72,17.88,7.72c8.94,0,8.94-7.72,17.87-7.72
				c8.93,0,8.93,7.72,17.86,7.72c8.94,0,8.94-7.72,17.88-7.72c8.93,0,8.93,7.72,17.87,7.72c8.94,0,8.94-7.72,17.88-7.72
				c8.94,0,8.94,7.72,17.88,7.72c8.94,0,8.94-7.72,17.88-7.72c8.94,0,8.94,7.72,17.88,7.72c8.94,0,8.94-7.72,17.88-7.72
				c8.94,0,8.94,7.72,17.88,7.72c8.95,0,8.95-7.72,17.9-7.72c8.95,0,8.95,7.72,17.91,7.72c8.95,0,8.95-7.72,17.91-7.72"/>
			<path id="XMLID_31_" class="st19" d="M-38.77,144.82c8.94,0,8.94,7.72,17.87,7.72c8.93,0,8.93-7.72,17.86-7.72
				c8.93,0,8.93,7.72,17.87,7.72c8.94,0,8.94-7.72,17.87-7.72c8.93,0,8.93,7.72,17.87,7.72c8.94,0,8.94-7.72,17.87-7.72
				c8.93,0,8.93,7.72,17.87,7.72c8.94,0,8.94-7.72,17.87-7.72c8.94,0,8.94,7.72,17.87,7.72c8.94,0,8.94-7.72,17.88-7.72
				c8.94,0,8.94,7.72,17.87,7.72c8.94,0,8.94-7.72,17.88-7.72c8.94,0,8.94,7.72,17.88,7.72c8.94,0,8.94-7.72,17.87-7.72
				c8.93,0,8.93,7.72,17.86,7.72c8.94,0,8.94-7.72,17.88-7.72c8.93,0,8.93,7.72,17.87,7.72c8.94,0,8.94-7.72,17.88-7.72
				c8.94,0,8.94,7.72,17.88,7.72c8.94,0,8.94-7.72,17.88-7.72c8.94,0,8.94,7.72,17.88,7.72c8.94,0,8.94-7.72,17.88-7.72
				c8.94,0,8.94,7.72,17.88,7.72c8.95,0,8.95-7.72,17.9-7.72c8.95,0,8.95,7.72,17.91,7.72c8.95,0,8.95-7.72,17.91-7.72"/>
			<path id="XMLID_30_" class="st19" d="M-38.77,128.73c8.94,0,8.94,7.72,17.87,7.72c8.93,0,8.93-7.72,17.86-7.72
				c8.93,0,8.93,7.72,17.87,7.72c8.94,0,8.94-7.72,17.87-7.72c8.93,0,8.93,7.72,17.87,7.72c8.94,0,8.94-7.72,17.87-7.72
				c8.93,0,8.93,7.72,17.87,7.72c8.94,0,8.94-7.72,17.87-7.72c8.94,0,8.94,7.72,17.87,7.72c8.94,0,8.94-7.72,17.88-7.72
				c8.94,0,8.94,7.72,17.87,7.72c8.94,0,8.94-7.72,17.88-7.72c8.94,0,8.94,7.72,17.88,7.72c8.94,0,8.94-7.72,17.87-7.72
				c8.93,0,8.93,7.72,17.86,7.72c8.94,0,8.94-7.72,17.88-7.72c8.93,0,8.93,7.72,17.87,7.72c8.94,0,8.94-7.72,17.88-7.72
				c8.94,0,8.94,7.72,17.88,7.72c8.94,0,8.94-7.72,17.88-7.72c8.94,0,8.94,7.72,17.88,7.72c8.94,0,8.94-7.72,17.88-7.72
				c8.94,0,8.94,7.72,17.88,7.72c8.95,0,8.95-7.72,17.9-7.72c8.95,0,8.95,7.72,17.91,7.72c8.95,0,8.95-7.72,17.91-7.72"/>
			<path id="XMLID_29_" class="st19" d="M-38.77,112.64c8.94,0,8.94,7.72,17.87,7.72c8.93,0,8.93-7.72,17.86-7.72
				c8.93,0,8.93,7.72,17.87,7.72c8.94,0,8.94-7.72,17.87-7.72c8.93,0,8.93,7.72,17.87,7.72c8.94,0,8.94-7.72,17.87-7.72
				c8.93,0,8.93,7.72,17.87,7.72c8.94,0,8.94-7.72,17.87-7.72c8.94,0,8.94,7.72,17.87,7.72c8.94,0,8.94-7.72,17.88-7.72
				c8.94,0,8.94,7.72,17.87,7.72c8.94,0,8.94-7.72,17.88-7.72c8.94,0,8.94,7.72,17.88,7.72c8.94,0,8.94-7.72,17.87-7.72
				c8.93,0,8.93,7.72,17.86,7.72c8.94,0,8.94-7.72,17.88-7.72c8.93,0,8.93,7.72,17.87,7.72c8.94,0,8.94-7.72,17.88-7.72
				c8.94,0,8.94,7.72,17.88,7.72c8.94,0,8.94-7.72,17.88-7.72c8.94,0,8.94,7.72,17.88,7.72c8.94,0,8.94-7.72,17.88-7.72
				c8.94,0,8.94,7.72,17.88,7.72c8.95,0,8.95-7.72,17.9-7.72c8.95,0,8.95,7.72,17.91,7.72c8.95,0,8.95-7.72,17.91-7.72"/>
			<path id="XMLID_28_" class="st19" d="M-38.77,96.55c8.94,0,8.94,7.72,17.87,7.72c8.93,0,8.93-7.72,17.86-7.72
				c8.93,0,8.93,7.72,17.87,7.72c8.94,0,8.94-7.72,17.87-7.72c8.93,0,8.93,7.72,17.87,7.72c8.94,0,8.94-7.72,17.87-7.72
				c8.93,0,8.93,7.72,17.87,7.72c8.94,0,8.94-7.72,17.87-7.72c8.94,0,8.94,7.72,17.87,7.72c8.94,0,8.94-7.72,17.88-7.72
				c8.94,0,8.94,7.72,17.87,7.72c8.94,0,8.94-7.72,17.88-7.72c8.94,0,8.94,7.72,17.88,7.72c8.94,0,8.94-7.72,17.87-7.72
				c8.93,0,8.93,7.72,17.86,7.72c8.94,0,8.94-7.72,17.88-7.72c8.93,0,8.93,7.72,17.87,7.72c8.94,0,8.94-7.72,17.88-7.72
				c8.94,0,8.94,7.72,17.88,7.72c8.94,0,8.94-7.72,17.88-7.72c8.94,0,8.94,7.72,17.88,7.72c8.94,0,8.94-7.72,17.88-7.72
				c8.94,0,8.94,7.72,17.88,7.72c8.95,0,8.95-7.72,17.9-7.72c8.95,0,8.95,7.72,17.91,7.72c8.95,0,8.95-7.72,17.91-7.72"/>
			<path id="XMLID_25_" class="st19" d="M-38.77,80.46c8.94,0,8.94,7.72,17.87,7.72c8.93,0,8.93-7.72,17.86-7.72
				c8.93,0,8.93,7.72,17.87,7.72c8.94,0,8.94-7.72,17.87-7.72c8.93,0,8.93,7.72,17.87,7.72c8.94,0,8.94-7.72,17.87-7.72
				c8.93,0,8.93,7.72,17.87,7.72c8.94,0,8.94-7.72,17.87-7.72c8.94,0,8.94,7.72,17.87,7.72c8.94,0,8.94-7.72,17.88-7.72
				c8.94,0,8.94,7.72,17.87,7.72c8.94,0,8.94-7.72,17.88-7.72c8.94,0,8.94,7.72,17.88,7.72c8.94,0,8.94-7.72,17.87-7.72
				c8.93,0,8.93,7.72,17.86,7.72c8.94,0,8.94-7.72,17.88-7.72c8.93,0,8.93,7.72,17.87,7.72c8.94,0,8.94-7.72,17.88-7.72
				c8.94,0,8.94,7.72,17.88,7.72c8.94,0,8.94-7.72,17.88-7.72c8.94,0,8.94,7.72,17.88,7.72c8.94,0,8.94-7.72,17.88-7.72
				c8.94,0,8.94,7.72,17.88,7.72c8.95,0,8.95-7.72,17.9-7.72c8.95,0,8.95,7.72,17.91,7.72c8.95,0,8.95-7.72,17.91-7.72"/>
			<path id="XMLID_24_" class="st19" d="M-38.77,64.37c8.94,0,8.94,7.72,17.87,7.72c8.93,0,8.93-7.72,17.86-7.72
				c8.93,0,8.93,7.72,17.87,7.72c8.94,0,8.94-7.72,17.87-7.72c8.93,0,8.93,7.72,17.87,7.72c8.94,0,8.94-7.72,17.87-7.72
				c8.93,0,8.93,7.72,17.87,7.72c8.94,0,8.94-7.72,17.87-7.72c8.94,0,8.94,7.72,17.87,7.72c8.94,0,8.94-7.72,17.88-7.72
				c8.94,0,8.94,7.72,17.87,7.72c8.94,0,8.94-7.72,17.88-7.72c8.94,0,8.94,7.72,17.88,7.72c8.94,0,8.94-7.72,17.87-7.72
				c8.93,0,8.93,7.72,17.86,7.72c8.94,0,8.94-7.72,17.88-7.72c8.93,0,8.93,7.72,17.87,7.72c8.94,0,8.94-7.72,17.88-7.72
				c8.94,0,8.94,7.72,17.88,7.72c8.94,0,8.94-7.72,17.88-7.72c8.94,0,8.94,7.72,17.88,7.72c8.94,0,8.94-7.72,17.88-7.72
				c8.94,0,8.94,7.72,17.88,7.72c8.95,0,8.95-7.72,17.9-7.72c8.95,0,8.95,7.72,17.91,7.72c8.95,0,8.95-7.72,17.91-7.72"/>
			<path id="XMLID_23_" class="st19" d="M-38.77,48.28c8.94,0,8.94,7.72,17.87,7.72c8.93,0,8.93-7.72,17.86-7.72
				C5.9,48.28,5.9,56,14.83,56c8.94,0,8.94-7.72,17.87-7.72c8.93,0,8.93,7.72,17.87,7.72c8.94,0,8.94-7.72,17.87-7.72
				c8.93,0,8.93,7.72,17.87,7.72c8.94,0,8.94-7.72,17.87-7.72c8.94,0,8.94,7.72,17.87,7.72c8.94,0,8.94-7.72,17.88-7.72
				c8.94,0,8.94,7.72,17.87,7.72c8.94,0,8.94-7.72,17.88-7.72c8.94,0,8.94,7.72,17.88,7.72c8.94,0,8.94-7.72,17.87-7.72
				c8.93,0,8.93,7.72,17.86,7.72c8.94,0,8.94-7.72,17.88-7.72c8.93,0,8.93,7.72,17.87,7.72c8.94,0,8.94-7.72,17.88-7.72
				c8.94,0,8.94,7.72,17.88,7.72c8.94,0,8.94-7.72,17.88-7.72c8.94,0,8.94,7.72,17.88,7.72c8.94,0,8.94-7.72,17.88-7.72
				c8.94,0,8.94,7.72,17.88,7.72c8.95,0,8.95-7.72,17.9-7.72c8.95,0,8.95,7.72,17.91,7.72c8.95,0,8.95-7.72,17.91-7.72"/>
		</g>
	</g>
</g>
</svg>
