<?xml version="1.0" encoding="utf-8"?>
<!-- Generator: Adobe Illustrator 19.0.0, SVG Export Plug-In . SVG Version: 6.00 Build 0)  -->
<svg version="1.1" id="圖層_1" xmlns="http://www.w3.org/2000/svg" xmlns:xlink="http://www.w3.org/1999/xlink" x="0px" y="0px"
	 viewBox="91 -48.8 181.2 112.8" style="enable-background:new 91 -48.8 181.2 112.8;" xml:space="preserve">
<style type="text/css">
	.st0{fill:#FFFFFF;}
</style>
<g id="XMLID_954_">
	<g id="XMLID_1446_">
		<g id="XMLID_1463_">
			<polygon id="XMLID_1469_" class="st0" points="180.6,-18.4 135.5,-48.8 135.5,-35.4 135.5,-33.6 135.5,18.2 146.3,26.7 
				146.3,-25.8 180.6,-3.2 			"/>
			<polygon id="XMLID_1468_" class="st0" points="182.6,-18.4 227.7,-48.8 227.7,-35.4 227.7,-33.6 227.7,18.2 217.1,26.7 
				217.1,-25.8 182.6,-3.2 			"/>
			<polygon id="XMLID_1466_" class="st0" points="211.8,17.3 184.4,-1.7 193.5,-7.9 211.8,4.2 			"/>
			<polygon id="XMLID_1465_" class="st0" points="148.3,20.5 179.7,-1.7 170.6,-7.9 150.6,5.6 150.6,-21.1 148.3,-22.7 			"/>
			<polygon id="XMLID_1464_" class="st0" points="181.9,2.1 148.3,25.4 148.3,23.1 181.9,-0.6 213.3,20.9 213.3,-21.1 215.3,-22.6 
				215.3,25.2 			"/>
		</g>
	</g>
	<g id="XMLID_919_">
		<polygon id="XMLID_1176_" class="st0" points="91,43.8 91,63.7 93.9,63.7 93.9,50.7 100.8,57.6 107.7,50.7 107.7,63.7 110.6,63.7 
			110.6,43.8 100.8,53.6 		"/>
		<path id="XMLID_1027_" class="st0" d="M123.9,44.1c-5.4,0-9.8,4.4-9.8,9.8c0,5.4,4.4,9.8,9.8,9.8s9.8-4.4,9.8-9.8
			C133.6,48.5,129.2,44.1,123.9,44.1z M130.8,53.9c0,3.8-3.1,6.9-6.9,6.9s-6.9-3.1-6.9-6.9c0-3.8,3.1-6.9,6.9-6.9
			S130.8,50.1,130.8,53.9z"/>
		<path id="XMLID_1024_" class="st0" d="M145.8,44c-5.4,0-9.8,4.4-9.8,9.8c0,5.4,4.4,9.8,9.8,9.8c5.4,0,9.8-4.4,9.8-9.8
			C155.6,48.4,151.2,44,145.8,44z M152.7,53.8c0,3.8-3.1,6.9-6.9,6.9s-6.9-3.1-6.9-6.9c0-3.8,3.1-6.9,6.9-6.9S152.7,50,152.7,53.8z"
			/>
		<rect id="XMLID_1021_" x="224.5" y="44.1" class="st0" width="2.5" height="19.6"/>
		<polygon id="XMLID_1019_" class="st0" points="216.6,52.2 204.7,52.2 204.7,44.1 201.8,44.1 201.8,63.7 204.7,63.7 204.7,55.1 
			215.7,55.1 216.6,53.4 216.6,63.7 219.5,63.7 219.5,44.1 216.6,44.1 		"/>
		<polygon id="XMLID_1016_" class="st0" points="174,57.4 159.2,43.8 159.2,63.7 162.1,63.7 162,50.4 176.8,64 176.8,44.1 174,44.1 
					"/>
		<polygon id="XMLID_1013_" class="st0" points="246.9,57.4 232.1,43.8 232.1,63.7 234.9,63.7 234.9,50.4 249.7,64 249.7,44.1 
			246.9,44.1 		"/>
		<g id="XMLID_927_">
			<polygon id="XMLID_1012_" class="st0" points="268.3,55.1 269.8,52.2 259.5,52.2 258.2,55.1 			"/>
			<polygon id="XMLID_928_" class="st0" points="257.2,47 270.7,47 272.2,44.1 254.3,44.1 254.3,63.7 270.7,63.7 272.1,60.8 
				257.2,60.8 			"/>
		</g>
		<path id="XMLID_920_" class="st0" d="M186.5,47h10.9l1.5-2.8h-12.3c-3,0-5.5,2.5-5.5,5.5c0,3,2.5,5.5,5.5,5.5l6.4,0
			c1.6,0,2.9,1.3,2.9,2.9s-1.3,2.9-2.9,2.9h-10.7l-1.4,2.8H193c3.2,0,5.7-2.6,5.7-5.7c0-3.2-2.6-5.7-5.7-5.7h-6.4
			c-1.4,0-2.6-1.2-2.6-2.6C183.9,48.2,185.1,47,186.5,47z"/>
	</g>
</g>
</svg>
