<?xml version="1.0" encoding="utf-8"?>
<!-- Generator: Adobe Illustrator 24.2.3, SVG Export Plug-In . SVG Version: 6.00 Build 0)  -->
<svg version="1.1" id="Layer_1" xmlns="http://www.w3.org/2000/svg" xmlns:xlink="http://www.w3.org/1999/xlink" x="0px" y="0px"
	 viewBox="0 0 494 146" style="enable-background:new 0 0 494 146;" xml:space="preserve">
<style type="text/css">
	.st0{fill:#FFFFFF;}
</style>
<g>
	<g>
		<g>
			<g>
				<path class="st0" d="M218.4,76.5h-7.6c-1.2,0-2.1,0.9-2.1,2.1v18c0,1.2-0.9,2.1-2.1,2.1h-9c-1.2,0-2.1-0.9-2.1-2.1v-18
					c0-1.2-0.9-2.1-2.1-2.1h-9.2c-1.2,0-2.1,0.9-2.1,2.1l0,21.2c0,1.2,0.9,2.1,2.1,2.1h34.3c1.2,0,2.1-0.9,2.1-2.1v-1h0V78.6
					C220.5,77.5,219.6,76.5,218.4,76.5z"/>
				<path class="st0" d="M399.9,76.4c-0.2-0.4-0.6-0.6-1-0.6h-8.7h-4h-6.5c-0.4,0-0.8,0.2-1,0.6l-12.1,23.2c-0.4,0.8,0.2,1.7,1,1.7
					h8.6c0.4,0,0.8-0.2,1-0.6l2.6-5c0.2-0.4,0.6-0.6,1-0.6h14.3c0.4,0,0.8,0.2,1,0.6l2.5,5c0.2,0.4,0.6,0.6,1,0.6h10.8
					c0.9,0,1.4-0.9,1-1.7L399.9,76.4z M381.8,91.9l5.3-10.2c0.4-0.8,1.6-0.8,2,0l5.1,10.2H381.8z"/>
				<path class="st0" d="M347.4,90.1h5.3c1,0,1.7-0.8,1.7-1.7V87h0v-7.3h0v-1.4c0-1-0.8-1.7-1.7-1.7h-32.8c-1,0-1.7,0.8-1.7,1.7v1.4
					h0V87h0v3.1h0v9.4c0,1,0.8,1.7,1.7,1.7h8.7c1,0,1.7-0.8,1.7-1.7v-7.7c0-1,0.8-1.7,1.7-1.7l0,0c0.5,0,0.9,0.2,1.3,0.5l10,10.6
					c0.3,0.3,0.8,0.5,1.3,0.5h9.8c1.5,0,2.3-1.8,1.3-2.9L347.4,90.1z M339.3,87h-7.2c-1,0-1.7-0.8-1.7-1.7v-3.9c0-1,0.8-1.7,1.7-1.7
					h7.2c1,0,1.7,0.8,1.7,1.7v3.9C341,86.2,340.3,87,339.3,87z"/>
				<path class="st0" d="M239.8,101.9h24.8c0.7,0,1.3-0.6,1.3-1.3v-0.5c0-0.7-0.6-1.3-1.3-1.3h-12.7c-0.7,0-1.3-0.6-1.3-1.3V77.8
					c0-0.7-0.6-1.3-1.3-1.3h-10.8c-0.7,0-1.3,0.6-1.3,1.3l0,21.4C237.1,100.7,238.3,101.9,239.8,101.9z"/>
				<path class="st0" d="M183.5,146.2h30c0.9,0,1.6-0.7,1.6-1.6l0,0c0-0.9-0.7-1.6-1.6-1.6H197c-0.9,0-1.6-0.7-1.6-1.6v-15.8
					c0-0.9,0.7-1.6,1.6-1.6h16.6c0.9,0,1.6-0.7,1.6-1.6v0c0-0.9-0.7-1.6-1.6-1.6h-30c-0.9,0-1.6,0.7-1.6,1.6v22.1
					C182,145.5,182.7,146.2,183.5,146.2z"/>
				<path class="st0" d="M230.8,146.2H265c1.1,0,2.1-0.9,2.1-2.1v-21.1c0-1.1-0.9-2.1-2.1-2.1h-34.2c-1.1,0-2.1,0.9-2.1,2.1v21.1
					C228.7,145.3,229.6,146.2,230.8,146.2z M243,124.2h9.7c1.1,0,2.1,0.9,2.1,2.1V141c0,1.1-0.9,2.1-2.1,2.1H243
					c-1.1,0-2.1-0.9-2.1-2.1v-14.8C240.9,125.1,241.9,124.2,243,124.2z"/>
				<path class="st0" d="M408,146.2h34.2c1.1,0,2.1-0.9,2.1-2.1v-21.1c0-1.1-0.9-2.1-2.1-2.1H408c-1.1,0-2.1,0.9-2.1,2.1v21.1
					C405.9,145.3,406.8,146.2,408,146.2z M420.2,124.2h9.7c1.1,0,2.1,0.9,2.1,2.1V141c0,1.1-0.9,2.1-2.1,2.1h-9.7
					c-1.1,0-2.1-0.9-2.1-2.1v-14.8C418.1,125.1,419.1,124.2,420.2,124.2z"/>
				<path class="st0" d="M334.5,120.8h-50.6c-1,0-1.7,0.8-1.7,1.7v0h0v20.5c0,1,0.8,1.7,1.7,1.7h8c1,0,1.7-0.8,1.7-1.7v-17.4
					c0-1,0.8-1.7,1.7-1.7h4.4c1,0,1.7,0.8,1.7,1.7v17.4c0,1,0.8,1.7,1.7,1.7h9.9c1,0,1.7-0.8,1.7-1.7v-17.4c0-1,0.8-1.7,1.7-1.7h4.4
					c1,0,1.7,0.8,1.7,1.7v17.4c0,1,0.8,1.7,1.7,1.7h9.9c1,0,1.7-0.8,1.7-1.7v-20.5h0v0C336.2,121.6,335.5,120.8,334.5,120.8z"/>
				<path class="st0" d="M392,132.3h-2.4c-0.9,0-1.6-0.7-1.6-1.6V124h0v-1.6c0-0.9-0.7-1.6-1.6-1.6h-32.9c-0.9,0-1.6,0.7-1.6,1.6v0
					h0v22.2h0l0,0c0,0.9,0.7,1.6,1.6,1.6H392c0.9,0,1.6-0.7,1.6-1.6l0,0h0v-10.8h0v0C393.6,133,392.9,132.3,392,132.3z M367.9,124
					h6.5c0.9,0,1.6,0.7,1.6,1.6v5.2c0,0.9-0.7,1.6-1.6,1.6h-6.5c-0.9,0-1.6-0.7-1.6-1.6v-5.2C366.3,124.7,367,124,367.9,124z
					 M377.7,143.1h-9.9c-0.9,0-1.6-0.7-1.6-1.6V137c0-0.9,0.7-1.6,1.6-1.6h9.9c0.9,0,1.6,0.7,1.6,1.6v4.5
					C379.3,142.4,378.6,143.1,377.7,143.1z"/>
				<path class="st0" d="M494,133.5L494,133.5c0-0.9-0.7-1.6-1.6-1.6h-22.8c-0.9,0-1.6-0.7-1.6-1.6v-4.8c0-0.9,0.7-1.6,1.6-1.6h22.8
					c0.9,0,1.6-0.7,1.6-1.6v0c0-0.9-0.7-1.6-1.6-1.6h-33.3c-0.9,0-1.6,0.7-1.6,1.6v0h0v11.1h0v0c0,0.9,0.7,1.6,1.6,1.6h22.2
					c0.9,0,1.6,0.7,1.6,1.6v4.8c0,0.9-0.7,1.6-1.6,1.6h-22.2c-0.9,0-1.6,0.7-1.6,1.6v0c0,0.9,0.7,1.6,1.6,1.6h33.3
					c0.9,0,1.6-0.7,1.6-1.6l0,0h0L494,133.5L494,133.5z"/>
				<path class="st0" d="M284,101.9h10.3c0.9,0,1.6-0.7,1.6-1.6V81.2c0-0.9,0.7-1.6,1.6-1.6h9.4c0.9,0,1.6-0.7,1.6-1.6l0,0
					c0-0.9-0.7-1.6-1.6-1.6h-35.4c-0.9,0-1.6,0.7-1.6,1.6l0,0c0,0.9,0.7,1.6,1.6,1.6h9.4c0.9,0,1.6,0.7,1.6,1.6v19.1
					C282.4,101.2,283.1,101.9,284,101.9z"/>
			</g>
		</g>
	</g>
	<polygon class="st0" points="71.9,47.8 88.5,47.8 80.2,36 	"/>
	<path class="st0" d="M125,64.2L93,17.1l-8.1,11.6l18.3,25.7H57.8l30.9-44.2c0.1-0.1,0.1-0.2,0-0.2l-6.5-9.6C82,0,81.8,0,81.7,0
		c-0.1,0-0.3,0-0.4,0.2L38.6,63.3c-0.2,0.3-0.1,0.6,0,0.7c0.1,0.1,0.2,0.4,0.6,0.4H125l-0.1-0.2H125z"/>
	<polygon class="st0" points="96.5,96.3 66.7,96.3 59.3,106.4 104,106.4 	"/>
	<path class="st0" d="M104.8,135.9H58.5c-0.2,0-0.3,0.1-0.3,0.1l-7.7,10.5h62.4l-7.7-10.5C105.1,136,105,135.9,104.8,135.9z"/>
	<polygon class="st0" points="144.1,86 135.5,73.6 26.8,73.6 17.4,86 45.7,86 0.9,146.2 17.1,146.2 62,85.3 101.5,85.3 146.4,146.2 
		162.4,146.2 118.6,86 	"/>
	<path class="st0" d="M43.3,126h76.9l-7.4-10c0-0.1-0.1-0.1-0.3-0.1H51c-0.1,0-0.2,0.1-0.3,0.1L43.3,126z"/>
</g>
</svg>
