<?xml version="1.0" encoding="utf-8"?>
<!-- Generator: Adobe Illustrator 23.1.0, SVG Export Plug-In . SVG Version: 6.00 Build 0)  -->
<svg version="1.1" xmlns="http://www.w3.org/2000/svg" xmlns:xlink="http://www.w3.org/1999/xlink" x="0px" y="0px"
	 viewBox="0 0 878.39 683.66" style="enable-background:new 0 0 878.39 683.66;" xml:space="preserve">
<style type="text/css">
	.st0{fill:#424242;}
	.st1{fill:#212336;}
	.st2{fill:none;stroke:#FFFFFF;stroke-width:0.5;stroke-miterlimit:10;}
	.st3{fill:#FFFFFF;}
	.st4{fill:#45456D;}
	.st5{fill:#42446A;}
	.st6{fill:#E32B89;}
	.st7{opacity:0.5;clip-path:url(#XMLID_655_);}
	.st8{fill:none;stroke:#FFFFFF;stroke-width:0.3;stroke-miterlimit:10;}
	.st9{opacity:0.5;clip-path:url(#XMLID_679_);}
	.st10{opacity:0.5;clip-path:url(#XMLID_680_);}
	.st11{opacity:0.5;clip-path:url(#XMLID_681_);}
	.st12{opacity:0.5;clip-path:url(#XMLID_682_);}
	.st13{opacity:0.5;clip-path:url(#XMLID_683_);}
	.st14{display:none;fill:#424242;}
	.st15{font-family:'MicrosoftJhengHeiUIRegular';}
	.st16{font-size:21.4175px;}
	.st17{letter-spacing:1;}
	.st18{font-family:'MicrosoftJhengHeiBold';}
	.st19{font-size:22.7758px;}
	.st20{font-size:20.4737px;}
	.st21{font-size:21.2678px;}
	.st22{letter-spacing:2;}
	.st23{font-size:26.8167px;}
	.st24{font-size:28.2464px;}
	.st25{opacity:0.5;clip-path:url(#XMLID_684_);}
	.st26{font-size:24.7671px;}
	.st27{letter-spacing:2.06;}
</style>
<g id="圖層_2">
</g>
<g id="圖層_1">
	<rect x="380.52" y="572.79" class="st14" width="129" height="79"/>
	<g>
		<rect x="508.83" y="630.82" class="st4" width="357.24" height="14.2"/>
		<path id="XMLID_678_" class="st2" d="M420.43,416.04l20.12-6.98c0.23-0.08,0.48-0.1,0.72-0.04l19.44,4.29
			c0.54,0.12,0.96,0.57,1.03,1.12l1.37,10.47c0.08,0.64-0.3,1.24-0.91,1.44l-19.38,6.16c-0.21,0.07-0.44,0.08-0.66,0.04l-20.89-4.12
			c-0.59-0.12-1.03-0.61-1.07-1.21l-0.66-9.8C419.5,416.78,419.87,416.23,420.43,416.04z"/>
		<path id="XMLID_677_" class="st2" d="M420.69,447l23.83-6.17c0.24-0.06,0.49-0.06,0.72,0.02l21.94,6.73
			c0.56,0.17,0.95,0.7,0.94,1.29l-0.21,12.4c-0.01,0.6-0.43,1.13-1.02,1.27l-22.04,5.3c-0.22,0.05-0.45,0.05-0.67-0.01l-23.68-6.7
			c-0.58-0.16-0.97-0.69-0.96-1.29l0.16-11.56C419.71,447.67,420.12,447.15,420.69,447z"/>
		<path id="XMLID_671_" class="st2" d="M429.64,479.42l14.57-3.77c0.24-0.06,0.49-0.06,0.72,0.02l13.35,4.09
			c0.58,0.18,0.97,0.73,0.93,1.34l-0.39,7.1c-0.03,0.58-0.44,1.07-1.01,1.21l-13.13,3.23c-0.22,0.06-0.46,0.05-0.68-0.01
			l-14.48-4.09c-0.58-0.16-0.97-0.69-0.96-1.29l0.09-6.56C428.65,480.09,429.06,479.57,429.64,479.42z"/>
		<path id="XMLID_670_" class="st2" d="M421.45,506.61l23.05-5.97c0.24-0.06,0.49-0.06,0.72,0.02l21.22,6.51
			c0.57,0.17,0.95,0.7,0.94,1.29l-0.23,11.95c-0.01,0.6-0.43,1.12-1.01,1.26l-21.29,5.12c-0.22,0.05-0.45,0.05-0.67-0.01l-22.9-6.48
			c-0.58-0.16-0.97-0.69-0.96-1.29l0.15-11.14C420.46,507.28,420.87,506.76,421.45,506.61z"/>
		<path id="XMLID_669_" class="st2" d="M430.48,547.6l9.12-10.3c0.16-0.18,0.37-0.32,0.61-0.39l12.3-3.74
			c0.53-0.16,1.11,0.03,1.45,0.47l3.82,5.1c0.38,0.51,0.35,1.23-0.09,1.7l-8.94,9.57c-0.15,0.16-0.34,0.28-0.56,0.35l-13.08,4.29
			c-0.57,0.19-1.19-0.03-1.52-0.53l-3.22-4.93C430.03,548.71,430.08,548.05,430.48,547.6z"/>
		<g id="XMLID_656_">
			<path id="XMLID_668_" class="st2" d="M391,648.34v25.98c0,2.2,1.78,3.98,3.98,3.98h471.29"/>
			<path id="XMLID_667_" class="st2" d="M142.12,63.15l96.79,143.28c0.74,1.1,1.98,1.75,3.3,1.75h36.47c2.2,0,3.98,1.78,3.98,3.98
				v78.03c0,2.2,1.78,3.98,3.98,3.98h100.37c2.2,0,3.98,1.78,3.98,3.98V568.5"/>
			<path id="XMLID_666_" class="st2" d="M71.42,106.01l160.81,250.93c0.41,0.64,0.63,1.39,0.63,2.15v110.66
				c0,2.2-1.78,3.98-3.98,3.98H26.66"/>
			<path id="XMLID_665_" class="st2" d="M26.66,547.36h202.22c2.2,0,3.98,1.78,3.98,3.98v122.98c0,2.2-1.78,3.98-3.98,3.98H26.66"/>
			<g id="XMLID_657_">
				<path id="XMLID_664_" class="st2" d="M188.88,131.1h251.17c1.03,0,2.03-0.4,2.77-1.12L576.07,1.44"/>
				<path id="XMLID_663_" class="st2" d="M617.84,35.62l-131.2,133.55c-1.52,1.55-1.52,4.02,0,5.57l32.7,33.45
					c1.55,1.58,4.08,1.6,5.65,0.05l171.07-167.3"/>
				<path id="XMLID_662_" class="st2" d="M739.36,75.87L550.71,261.32c-0.75,0.75-1.18,1.77-1.18,2.83v154.67
					c0,2.2,1.78,3.98,3.98,3.98h74.02c1.09,0,2.13-0.45,2.88-1.24l143.03-155.26"/>
				<path id="XMLID_661_" class="st2" d="M816.73,300.49L650.56,479.31c-0.75,0.8-1.81,1.26-2.91,1.26h-94.14
					c-2.2,0-3.98,1.78-3.98,3.98v96.16c0,2.2,1.78,3.98,3.98,3.98h312.77"/>
				<path id="XMLID_658_" class="st2" d="M219.03,179.22h216.71c1.15,0,2.24,0.49,2.99,1.35l61.72,70.27
					c0.64,0.73,0.99,1.66,0.99,2.63"/>
			</g>
		</g>
		<g id="XMLID_643_">
			<g id="XMLID_654_">
				<text transform="matrix(0.6776 -0.7354 0.7354 0.6776 647.192 454.9365)"><tspan x="0" y="0" class="st3 st15 st16 st17">四維四路 </tspan><tspan x="96.38" y="0" class="st3 st15 st16">Siwei 4th Rd.</tspan></text>
			</g>
			<g id="XMLID_652_">
				<text transform="matrix(0.7094 -0.7048 0.7048 0.7094 531.621 254.6867)"><tspan x="0" y="0" class="st3 st15 st16 st17">青年二路 </tspan><tspan x="96.38" y="0" class="st3 st15 st16">Qingnian 2nd Rd.</tspan></text>
			</g>
			<g id="XMLID_650_">
				<text transform="matrix(0.7092 -0.705 0.705 0.7092 470.3857 157.2711)"><tspan x="0" y="0" class="st3 st15 st16 st17">新田路 </tspan><tspan x="73.89" y="0" class="st3 st15 st16">Xintian Rd.</tspan></text>
			</g>
			<g id="XMLID_648_">
				<text transform="matrix(1 0 0 1 242.1742 163.8147)"><tspan x="0" y="0" class="st3 st15 st16 st17">海邊路 </tspan><tspan x="73.89" y="0" class="st3 st15 st16">Haibian Rd.</tspan></text>
			</g>
			<g id="XMLID_646_">
				<text transform="matrix(0 1 -1 0 522.0795 397.3347)"><tspan x="0" y="0" class="st3 st15 st16 st17">海邊路 </tspan><tspan x="73.89" y="0" class="st3 st15 st16">Haibian Rd.</tspan></text>
			</g>
			<g id="XMLID_644_">
				<text transform="matrix(1 0 0 1 673.2396 622.5876)"><tspan x="0" y="0" class="st3 st15 st16 st17">海邊路 </tspan><tspan x="73.89" y="0" class="st3 st15 st16">Haibian Rd.</tspan></text>
			</g>
		</g>
		<g>
			<rect x="26.66" y="428.77" class="st4" width="59.62" height="14.2"/>
			<path class="st4" d="M508.06,569.5l0.48-317.36c0-1.75-0.65-3.43-1.81-4.74l-65.3-72.91c-1.35-1.5-3.27-2.36-5.29-2.36H219.57
				c-1.73,0-3.4,0.63-4.69,1.77l-106.25,93.59c-1.53,1.35-2.41,3.29-2.41,5.33v96.81c0,3.89,3,7.28,6.88,7.39
				c4.02,0.12,7.32-3.1,7.32-7.1v-90.66c0-2.04,0.88-3.98,2.4-5.33l97.38-85.84c1.3-1.14,2.97-1.77,4.69-1.77h204.57
				c2.01,0,3.92,0.85,5.26,2.34l57.77,63.84c1.18,1.31,1.84,3,1.84,4.76V569.5H508.06z"/>
		</g>
		<g id="XMLID_613_">
			<path id="XMLID_642_" class="st5" d="M659.3,667.52H547.65c-0.91,0-1.66-0.75-1.66-1.66v-64.84c0-0.91,0.75-1.66,1.66-1.66H659.3
				c0.91,0,1.66,0.75,1.66,1.66v64.84C660.96,666.77,660.21,667.52,659.3,667.52z"/>
			<g id="XMLID_614_">
				<text transform="matrix(1 0 0 1 561.3949 628.1287)"><tspan x="0" y="0" class="st3 st18 st19">輕軌 C9</tspan><tspan x="0" y="29.28" class="st3 st18 st20 st17">旅運中心</tspan></text>
			</g>
		</g>
		<g id="XMLID_609_">
			<path id="XMLID_612_" class="st5" d="M613.68,374.41H502.03c-0.91,0-1.66-0.75-1.66-1.66v-64.84c0-0.91,0.75-1.66,1.66-1.66
				h111.65c0.91,0,1.66,0.75,1.66,1.66v64.84C615.34,373.67,614.59,374.41,613.68,374.41z"/>
			<g id="XMLID_610_">
				<text transform="matrix(1 0 0 1 512.5267 335.031)"><tspan x="0" y="0" class="st3 st18 st19">輕軌 </tspan><tspan x="51.25" y="0" class="st3 st18 st21">C10</tspan><tspan x="0" y="29.28" class="st3 st18 st20 st22">光榮碼頭</tspan></text>
			</g>
		</g>
		<g id="XMLID_604_">
			<path id="XMLID_608_" class="st5" d="M140.27,318.46H28.62c-0.91,0-1.66-0.75-1.66-1.66v-64.84c0-0.91,0.75-1.66,1.66-1.66
				h111.65c0.91,0,1.66,0.75,1.66,1.66v64.84C141.93,317.72,141.19,318.46,140.27,318.46z"/>
			<g id="XMLID_605_">
				<text transform="matrix(1 0 0 1 39.7064 279.072)"><tspan x="0" y="0" class="st3 st18 st19">輕軌 C11</tspan><tspan x="0" y="29.28" class="st3 st18 st20 st22">真愛碼頭</tspan></text>
			</g>
		</g>
		<g id="XMLID_587_">
			<path id="XMLID_589_" class="st6" d="M408.51,359.25l39.89-3.2c0.24-0.02,0.49,0.03,0.71,0.14l33.34,16.98
				c0.5,0.25,0.78,0.79,0.71,1.34l-2.59,20.79c-0.08,0.64-0.6,1.13-1.24,1.16l-38.26,2.04c-0.22,0.01-0.45-0.03-0.65-0.13
				l-36.02-17.36c-0.54-0.26-0.84-0.85-0.73-1.44l3.65-19.26C407.42,359.74,407.91,359.3,408.51,359.25z"/>
			<text id="XMLID_588_" transform="matrix(0.9981 0.0625 -0.0625 0.9981 426.5846 385.8381)" class="st3 st18 st23">01</text>
		</g>
		<g id="XMLID_583_">
			<path id="XMLID_586_" class="st2" d="M378.89,279.71h-80.95c-1.16,0-2.11-0.95-2.11-2.11v-55.96c0-1.16,0.95-2.11,2.11-2.11
				h80.96c1.16,0,2.11,0.95,2.11,2.11v55.96C381,278.76,380.05,279.71,378.89,279.71z"/>
			<g id="XMLID_584_">
				<text id="XMLID_585_" transform="matrix(1 0 0 1 308.1366 260.7302)" class="st3 st15 st24 st22">礁群</text>
			</g>
		</g>
		<g id="XMLID_579_">
			<path id="XMLID_580_" class="st6" d="M447.05,267.48c-12.37,0-22.36,10.23-22.4,23.9c-0.04,10.6,16.43,36.89,21.15,44.66
				c0.57,0.94,1.93,0.94,2.51,0c4.72-7.77,21.19-34.06,21.15-44.66C469.41,277.85,459.42,267.48,447.05,267.48z M447.05,300.98
				c-6.36,0-11.52-5.16-11.52-11.52c0-6.36,5.16-11.51,11.52-11.51c6.36,0,11.51,5.16,11.51,11.51
				C458.57,295.82,453.41,300.98,447.05,300.98z"/>
		</g>
		<g id="XMLID_448_">
			<defs>
				<path id="XMLID_449_" d="M387.31,678.31c2.13,0,3.73-1.79,3.7-3.92c0-0.1-0.01-0.17-0.01-0.21c-0.55-4.98,1.16-22.63-4.93-25.68
					c-0.07-0.04-2.05-0.36-6-1l0,0l0,0v-79.08l11,1.08L391,301.87c0-4.25-3.44-7.69-7.69-7.69h-92.96c-4.25,0-7.69-3.44-7.69-7.69
					v-70.62c0-4.25-3.44-7.69-7.69-7.69h-32.76c-1.32,0-2.56-0.66-3.3-1.75L144.09,66.07c-1.11-1.64-3.3-2.12-4.99-1.09
					l-64.44,39.07c-1.78,1.08-2.32,3.41-1.2,5.17l158.76,247.73c0.41,0.64,0.63,1.39,0.63,2.15v106.95c0,4.25-3.44,7.69-7.69,7.69
					H30.37c-2.05,0-3.71,1.66-3.71,3.71v66.22c0,2.05,1.66,3.71,3.71,3.71h194.81c4.25,0,7.69,3.44,7.69,7.69v119.28
					c0,0.02,0,0.04,0,0.07c-0.03,2.13,1.57,3.92,3.7,3.92H387.31z"/>
			</defs>
			<clipPath id="XMLID_655_">
				<use xlink:href="#XMLID_449_"  style="overflow:visible;"/>
			</clipPath>
			<g id="XMLID_450_" class="st7">
				<path id="XMLID_578_" class="st8" d="M-12.11,677.05c8.94,0,8.94,7.72,17.87,7.72c8.93,0,8.93-7.72,17.86-7.72
					c8.93,0,8.93,7.72,17.87,7.72c8.94,0,8.94-7.72,17.87-7.72c8.93,0,8.93,7.72,17.87,7.72c8.94,0,8.94-7.72,17.87-7.72
					c8.93,0,8.93,7.72,17.87,7.72c8.94,0,8.94-7.72,17.87-7.72c8.94,0,8.94,7.72,17.87,7.72c8.94,0,8.94-7.72,17.88-7.72
					c8.94,0,8.94,7.72,17.87,7.72c8.94,0,8.94-7.72,17.88-7.72c8.94,0,8.94,7.72,17.88,7.72c8.94,0,8.94-7.72,17.87-7.72
					c8.93,0,8.93,7.72,17.86,7.72c8.94,0,8.94-7.72,17.88-7.72c8.93,0,8.93,7.72,17.87,7.72c8.94,0,8.94-7.72,17.88-7.72
					c8.94,0,8.94,7.72,17.88,7.72c8.94,0,8.94-7.72,17.88-7.72c8.94,0,8.94,7.72,17.88,7.72c8.94,0,8.94-7.72,17.88-7.72
					c8.94,0,8.94,7.72,17.88,7.72c8.95,0,8.95-7.72,17.9-7.72c8.95,0,8.95,7.72,17.91,7.72c8.95,0,8.95-7.72,17.91-7.72"/>
				<path id="XMLID_577_" class="st8" d="M-12.11,660.96c8.94,0,8.94,7.72,17.87,7.72c8.93,0,8.93-7.72,17.86-7.72
					c8.93,0,8.93,7.72,17.87,7.72c8.94,0,8.94-7.72,17.87-7.72c8.93,0,8.93,7.72,17.87,7.72c8.94,0,8.94-7.72,17.87-7.72
					c8.93,0,8.93,7.72,17.87,7.72c8.94,0,8.94-7.72,17.87-7.72c8.94,0,8.94,7.72,17.87,7.72c8.94,0,8.94-7.72,17.88-7.72
					c8.94,0,8.94,7.72,17.87,7.72c8.94,0,8.94-7.72,17.88-7.72c8.94,0,8.94,7.72,17.88,7.72c8.94,0,8.94-7.72,17.87-7.72
					c8.93,0,8.93,7.72,17.86,7.72c8.94,0,8.94-7.72,17.88-7.72c8.93,0,8.93,7.72,17.87,7.72c8.94,0,8.94-7.72,17.88-7.72
					c8.94,0,8.94,7.72,17.88,7.72c8.94,0,8.94-7.72,17.88-7.72c8.94,0,8.94,7.72,17.88,7.72c8.94,0,8.94-7.72,17.88-7.72
					c8.94,0,8.94,7.72,17.88,7.72c8.95,0,8.95-7.72,17.9-7.72c8.95,0,8.95,7.72,17.91,7.72c8.95,0,8.95-7.72,17.91-7.72"/>
				<path id="XMLID_576_" class="st8" d="M-12.11,644.87c8.94,0,8.94,7.72,17.87,7.72c8.93,0,8.93-7.72,17.86-7.72
					c8.93,0,8.93,7.72,17.87,7.72c8.94,0,8.94-7.72,17.87-7.72c8.93,0,8.93,7.72,17.87,7.72c8.94,0,8.94-7.72,17.87-7.72
					c8.93,0,8.93,7.72,17.87,7.72c8.94,0,8.94-7.72,17.87-7.72c8.94,0,8.94,7.72,17.87,7.72c8.94,0,8.94-7.72,17.88-7.72
					c8.94,0,8.94,7.72,17.87,7.72c8.94,0,8.94-7.72,17.88-7.72c8.94,0,8.94,7.72,17.88,7.72c8.94,0,8.94-7.72,17.87-7.72
					c8.93,0,8.93,7.72,17.86,7.72c8.94,0,8.94-7.72,17.88-7.72c8.93,0,8.93,7.72,17.87,7.72c8.94,0,8.94-7.72,17.88-7.72
					c8.94,0,8.94,7.72,17.88,7.72c8.94,0,8.94-7.72,17.88-7.72c8.94,0,8.94,7.72,17.88,7.72c8.94,0,8.94-7.72,17.88-7.72
					c8.94,0,8.94,7.72,17.88,7.72c8.95,0,8.95-7.72,17.9-7.72c8.95,0,8.95,7.72,17.91,7.72c8.95,0,8.95-7.72,17.91-7.72"/>
				<path id="XMLID_575_" class="st8" d="M-12.11,628.78c8.94,0,8.94,7.72,17.87,7.72c8.93,0,8.93-7.72,17.86-7.72
					c8.93,0,8.93,7.72,17.87,7.72c8.94,0,8.94-7.72,17.87-7.72c8.93,0,8.93,7.72,17.87,7.72c8.94,0,8.94-7.72,17.87-7.72
					c8.93,0,8.93,7.72,17.87,7.72c8.94,0,8.94-7.72,17.87-7.72c8.94,0,8.94,7.72,17.87,7.72c8.94,0,8.94-7.72,17.88-7.72
					c8.94,0,8.94,7.72,17.87,7.72c8.94,0,8.94-7.72,17.88-7.72c8.94,0,8.94,7.72,17.88,7.72c8.94,0,8.94-7.72,17.87-7.72
					c8.93,0,8.93,7.72,17.86,7.72c8.94,0,8.94-7.72,17.88-7.72c8.93,0,8.93,7.72,17.87,7.72c8.94,0,8.94-7.72,17.88-7.72
					c8.94,0,8.94,7.72,17.88,7.72c8.94,0,8.94-7.72,17.88-7.72c8.94,0,8.94,7.72,17.88,7.72c8.94,0,8.94-7.72,17.88-7.72
					c8.94,0,8.94,7.72,17.88,7.72c8.95,0,8.95-7.72,17.9-7.72c8.95,0,8.95,7.72,17.91,7.72c8.95,0,8.95-7.72,17.91-7.72"/>
				<path id="XMLID_574_" class="st8" d="M-12.11,612.69c8.94,0,8.94,7.72,17.87,7.72c8.93,0,8.93-7.72,17.86-7.72
					c8.93,0,8.93,7.72,17.87,7.72c8.94,0,8.94-7.72,17.87-7.72c8.93,0,8.93,7.72,17.87,7.72c8.94,0,8.94-7.72,17.87-7.72
					c8.93,0,8.93,7.72,17.87,7.72c8.94,0,8.94-7.72,17.87-7.72c8.94,0,8.94,7.72,17.87,7.72c8.94,0,8.94-7.72,17.88-7.72
					c8.94,0,8.94,7.72,17.87,7.72c8.94,0,8.94-7.72,17.88-7.72c8.94,0,8.94,7.72,17.88,7.72c8.94,0,8.94-7.72,17.87-7.72
					c8.93,0,8.93,7.72,17.86,7.72c8.94,0,8.94-7.72,17.88-7.72c8.93,0,8.93,7.72,17.87,7.72c8.94,0,8.94-7.72,17.88-7.72
					c8.94,0,8.94,7.72,17.88,7.72c8.94,0,8.94-7.72,17.88-7.72c8.94,0,8.94,7.72,17.88,7.72c8.94,0,8.94-7.72,17.88-7.72
					c8.94,0,8.94,7.72,17.88,7.72c8.95,0,8.95-7.72,17.9-7.72c8.95,0,8.95,7.72,17.91,7.72c8.95,0,8.95-7.72,17.91-7.72"/>
				<path id="XMLID_573_" class="st8" d="M-12.11,596.6c8.94,0,8.94,7.72,17.87,7.72c8.93,0,8.93-7.72,17.86-7.72
					c8.93,0,8.93,7.72,17.87,7.72c8.94,0,8.94-7.72,17.87-7.72c8.93,0,8.93,7.72,17.87,7.72c8.94,0,8.94-7.72,17.87-7.72
					c8.93,0,8.93,7.72,17.87,7.72c8.94,0,8.94-7.72,17.87-7.72c8.94,0,8.94,7.72,17.87,7.72c8.94,0,8.94-7.72,17.88-7.72
					c8.94,0,8.94,7.72,17.87,7.72c8.94,0,8.94-7.72,17.88-7.72c8.94,0,8.94,7.72,17.88,7.72c8.94,0,8.94-7.72,17.87-7.72
					c8.93,0,8.93,7.72,17.86,7.72c8.94,0,8.94-7.72,17.88-7.72c8.93,0,8.93,7.72,17.87,7.72c8.94,0,8.94-7.72,17.88-7.72
					c8.94,0,8.94,7.72,17.88,7.72c8.94,0,8.94-7.72,17.88-7.72c8.94,0,8.94,7.72,17.88,7.72c8.94,0,8.94-7.72,17.88-7.72
					c8.94,0,8.94,7.72,17.88,7.72c8.95,0,8.95-7.72,17.9-7.72c8.95,0,8.95,7.72,17.91,7.72c8.95,0,8.95-7.72,17.91-7.72"/>
				<path id="XMLID_572_" class="st8" d="M-12.11,580.51c8.94,0,8.94,7.72,17.87,7.72c8.93,0,8.93-7.72,17.86-7.72
					c8.93,0,8.93,7.72,17.87,7.72c8.94,0,8.94-7.72,17.87-7.72c8.93,0,8.93,7.72,17.87,7.72c8.94,0,8.94-7.72,17.87-7.72
					c8.93,0,8.93,7.72,17.87,7.72c8.94,0,8.94-7.72,17.87-7.72c8.94,0,8.94,7.72,17.87,7.72c8.94,0,8.94-7.72,17.88-7.72
					c8.94,0,8.94,7.72,17.87,7.72c8.94,0,8.94-7.72,17.88-7.72c8.94,0,8.94,7.72,17.88,7.72c8.94,0,8.94-7.72,17.87-7.72
					c8.93,0,8.93,7.72,17.86,7.72c8.94,0,8.94-7.72,17.88-7.72c8.93,0,8.93,7.72,17.87,7.72c8.94,0,8.94-7.72,17.88-7.72
					c8.94,0,8.94,7.72,17.88,7.72c8.94,0,8.94-7.72,17.88-7.72c8.94,0,8.94,7.72,17.88,7.72c8.94,0,8.94-7.72,17.88-7.72
					c8.94,0,8.94,7.72,17.88,7.72c8.95,0,8.95-7.72,17.9-7.72c8.95,0,8.95,7.72,17.91,7.72c8.95,0,8.95-7.72,17.91-7.72"/>
				<path id="XMLID_571_" class="st8" d="M-12.11,564.42c8.94,0,8.94,7.72,17.87,7.72c8.93,0,8.93-7.72,17.86-7.72
					c8.93,0,8.93,7.72,17.87,7.72c8.94,0,8.94-7.72,17.87-7.72c8.93,0,8.93,7.72,17.87,7.72c8.94,0,8.94-7.72,17.87-7.72
					c8.93,0,8.93,7.72,17.87,7.72c8.94,0,8.94-7.72,17.87-7.72c8.94,0,8.94,7.72,17.87,7.72c8.94,0,8.94-7.72,17.88-7.72
					c8.94,0,8.94,7.72,17.87,7.72c8.94,0,8.94-7.72,17.88-7.72c8.94,0,8.94,7.72,17.88,7.72c8.94,0,8.94-7.72,17.87-7.72
					c8.93,0,8.93,7.72,17.86,7.72c8.94,0,8.94-7.72,17.88-7.72c8.93,0,8.93,7.72,17.87,7.72c8.94,0,8.94-7.72,17.88-7.72
					c8.94,0,8.94,7.72,17.88,7.72c8.94,0,8.94-7.72,17.88-7.72c8.94,0,8.94,7.72,17.88,7.72c8.94,0,8.94-7.72,17.88-7.72
					c8.94,0,8.94,7.72,17.88,7.72c8.95,0,8.95-7.72,17.9-7.72c8.95,0,8.95,7.72,17.91,7.72c8.95,0,8.95-7.72,17.91-7.72"/>
				<path id="XMLID_570_" class="st8" d="M-12.11,548.33c8.94,0,8.94,7.72,17.87,7.72c8.93,0,8.93-7.72,17.86-7.72
					c8.93,0,8.93,7.72,17.87,7.72c8.94,0,8.94-7.72,17.87-7.72c8.93,0,8.93,7.72,17.87,7.72c8.94,0,8.94-7.72,17.87-7.72
					c8.93,0,8.93,7.72,17.87,7.72c8.94,0,8.94-7.72,17.87-7.72c8.94,0,8.94,7.72,17.87,7.72c8.94,0,8.94-7.72,17.88-7.72
					c8.94,0,8.94,7.72,17.87,7.72c8.94,0,8.94-7.72,17.88-7.72c8.94,0,8.94,7.72,17.88,7.72c8.94,0,8.94-7.72,17.87-7.72
					c8.93,0,8.93,7.72,17.86,7.72c8.94,0,8.94-7.72,17.88-7.72c8.93,0,8.93,7.72,17.87,7.72c8.94,0,8.94-7.72,17.88-7.72
					c8.94,0,8.94,7.72,17.88,7.72c8.94,0,8.94-7.72,17.88-7.72c8.94,0,8.94,7.72,17.88,7.72c8.94,0,8.94-7.72,17.88-7.72
					c8.94,0,8.94,7.72,17.88,7.72c8.95,0,8.95-7.72,17.9-7.72c8.95,0,8.95,7.72,17.91,7.72c8.95,0,8.95-7.72,17.91-7.72"/>
				<path id="XMLID_569_" class="st8" d="M-12.11,532.24c8.94,0,8.94,7.72,17.87,7.72c8.93,0,8.93-7.72,17.86-7.72
					c8.93,0,8.93,7.72,17.87,7.72c8.94,0,8.94-7.72,17.87-7.72c8.93,0,8.93,7.72,17.87,7.72c8.94,0,8.94-7.72,17.87-7.72
					c8.93,0,8.93,7.72,17.87,7.72c8.94,0,8.94-7.72,17.87-7.72c8.94,0,8.94,7.72,17.87,7.72c8.94,0,8.94-7.72,17.88-7.72
					c8.94,0,8.94,7.72,17.87,7.72c8.94,0,8.94-7.72,17.88-7.72c8.94,0,8.94,7.72,17.88,7.72c8.94,0,8.94-7.72,17.87-7.72
					c8.93,0,8.93,7.72,17.86,7.72c8.94,0,8.94-7.72,17.88-7.72c8.93,0,8.93,7.72,17.87,7.72c8.94,0,8.94-7.72,17.88-7.72
					c8.94,0,8.94,7.72,17.88,7.72c8.94,0,8.94-7.72,17.88-7.72c8.94,0,8.94,7.72,17.88,7.72c8.94,0,8.94-7.72,17.88-7.72
					c8.94,0,8.94,7.72,17.88,7.72c8.95,0,8.95-7.72,17.9-7.72c8.95,0,8.95,7.72,17.91,7.72c8.95,0,8.95-7.72,17.91-7.72"/>
				<path id="XMLID_568_" class="st8" d="M-12.11,516.15c8.94,0,8.94,7.72,17.87,7.72c8.93,0,8.93-7.72,17.86-7.72
					c8.93,0,8.93,7.72,17.87,7.72c8.94,0,8.94-7.72,17.87-7.72c8.93,0,8.93,7.72,17.87,7.72c8.94,0,8.94-7.72,17.87-7.72
					c8.93,0,8.93,7.72,17.87,7.72c8.94,0,8.94-7.72,17.87-7.72c8.94,0,8.94,7.72,17.87,7.72c8.94,0,8.94-7.72,17.88-7.72
					c8.94,0,8.94,7.72,17.87,7.72c8.94,0,8.94-7.72,17.88-7.72c8.94,0,8.94,7.72,17.88,7.72c8.94,0,8.94-7.72,17.87-7.72
					c8.93,0,8.93,7.72,17.86,7.72c8.94,0,8.94-7.72,17.88-7.72c8.93,0,8.93,7.72,17.87,7.72c8.94,0,8.94-7.72,17.88-7.72
					c8.94,0,8.94,7.72,17.88,7.72c8.94,0,8.94-7.72,17.88-7.72c8.94,0,8.94,7.72,17.88,7.72c8.94,0,8.94-7.72,17.88-7.72
					c8.94,0,8.94,7.72,17.88,7.72c8.95,0,8.95-7.72,17.9-7.72c8.95,0,8.95,7.72,17.91,7.72c8.95,0,8.95-7.72,17.91-7.72"/>
				<path id="XMLID_567_" class="st8" d="M-12.11,500.06c8.94,0,8.94,7.72,17.87,7.72c8.93,0,8.93-7.72,17.86-7.72
					c8.93,0,8.93,7.72,17.87,7.72c8.94,0,8.94-7.72,17.87-7.72c8.93,0,8.93,7.72,17.87,7.72c8.94,0,8.94-7.72,17.87-7.72
					c8.93,0,8.93,7.72,17.87,7.72c8.94,0,8.94-7.72,17.87-7.72c8.94,0,8.94,7.72,17.87,7.72c8.94,0,8.94-7.72,17.88-7.72
					c8.94,0,8.94,7.72,17.87,7.72c8.94,0,8.94-7.72,17.88-7.72c8.94,0,8.94,7.72,17.88,7.72c8.94,0,8.94-7.72,17.87-7.72
					c8.93,0,8.93,7.72,17.86,7.72c8.94,0,8.94-7.72,17.88-7.72c8.93,0,8.93,7.72,17.87,7.72c8.94,0,8.94-7.72,17.88-7.72
					c8.94,0,8.94,7.72,17.88,7.72c8.94,0,8.94-7.72,17.88-7.72c8.94,0,8.94,7.72,17.88,7.72c8.94,0,8.94-7.72,17.88-7.72
					c8.94,0,8.94,7.72,17.88,7.72c8.95,0,8.95-7.72,17.9-7.72c8.95,0,8.95,7.72,17.91,7.72c8.95,0,8.95-7.72,17.91-7.72"/>
				<path id="XMLID_566_" class="st8" d="M-12.11,483.97c8.94,0,8.94,7.72,17.87,7.72c8.93,0,8.93-7.72,17.86-7.72
					c8.93,0,8.93,7.72,17.87,7.72c8.94,0,8.94-7.72,17.87-7.72c8.93,0,8.93,7.72,17.87,7.72c8.94,0,8.94-7.72,17.87-7.72
					c8.93,0,8.93,7.72,17.87,7.72c8.94,0,8.94-7.72,17.87-7.72c8.94,0,8.94,7.72,17.87,7.72c8.94,0,8.94-7.72,17.88-7.72
					c8.94,0,8.94,7.72,17.87,7.72c8.94,0,8.94-7.72,17.88-7.72c8.94,0,8.94,7.72,17.88,7.72c8.94,0,8.94-7.72,17.87-7.72
					c8.93,0,8.93,7.72,17.86,7.72c8.94,0,8.94-7.72,17.88-7.72c8.93,0,8.93,7.72,17.87,7.72c8.94,0,8.94-7.72,17.88-7.72
					c8.94,0,8.94,7.72,17.88,7.72c8.94,0,8.94-7.72,17.88-7.72c8.94,0,8.94,7.72,17.88,7.72c8.94,0,8.94-7.72,17.88-7.72
					c8.94,0,8.94,7.72,17.88,7.72c8.95,0,8.95-7.72,17.9-7.72c8.95,0,8.95,7.72,17.91,7.72c8.95,0,8.95-7.72,17.91-7.72"/>
				<path id="XMLID_565_" class="st8" d="M-12.11,467.88c8.94,0,8.94,7.72,17.87,7.72c8.93,0,8.93-7.72,17.86-7.72
					c8.93,0,8.93,7.72,17.87,7.72c8.94,0,8.94-7.72,17.87-7.72c8.93,0,8.93,7.72,17.87,7.72c8.94,0,8.94-7.72,17.87-7.72
					c8.93,0,8.93,7.72,17.87,7.72c8.94,0,8.94-7.72,17.87-7.72c8.94,0,8.94,7.72,17.87,7.72c8.94,0,8.94-7.72,17.88-7.72
					c8.94,0,8.94,7.72,17.87,7.72c8.94,0,8.94-7.72,17.88-7.72c8.94,0,8.94,7.72,17.88,7.72c8.94,0,8.94-7.72,17.87-7.72
					c8.93,0,8.93,7.72,17.86,7.72c8.94,0,8.94-7.72,17.88-7.72c8.93,0,8.93,7.72,17.87,7.72c8.94,0,8.94-7.72,17.88-7.72
					c8.94,0,8.94,7.72,17.88,7.72c8.94,0,8.94-7.72,17.88-7.72c8.94,0,8.94,7.72,17.88,7.72c8.94,0,8.94-7.72,17.88-7.72
					c8.94,0,8.94,7.72,17.88,7.72c8.95,0,8.95-7.72,17.9-7.72c8.95,0,8.95,7.72,17.91,7.72c8.95,0,8.95-7.72,17.91-7.72"/>
				<path id="XMLID_564_" class="st8" d="M-12.11,451.79c8.94,0,8.94,7.72,17.87,7.72c8.93,0,8.93-7.72,17.86-7.72
					c8.93,0,8.93,7.72,17.87,7.72c8.94,0,8.94-7.72,17.87-7.72c8.93,0,8.93,7.72,17.87,7.72c8.94,0,8.94-7.72,17.87-7.72
					c8.93,0,8.93,7.72,17.87,7.72c8.94,0,8.94-7.72,17.87-7.72c8.94,0,8.94,7.72,17.87,7.72c8.94,0,8.94-7.72,17.88-7.72
					c8.94,0,8.94,7.72,17.87,7.72c8.94,0,8.94-7.72,17.88-7.72c8.94,0,8.94,7.72,17.88,7.72c8.94,0,8.94-7.72,17.87-7.72
					c8.93,0,8.93,7.72,17.86,7.72c8.94,0,8.94-7.72,17.88-7.72c8.93,0,8.93,7.72,17.87,7.72c8.94,0,8.94-7.72,17.88-7.72
					c8.94,0,8.94,7.72,17.88,7.72c8.94,0,8.94-7.72,17.88-7.72c8.94,0,8.94,7.72,17.88,7.72c8.94,0,8.94-7.72,17.88-7.72
					c8.94,0,8.94,7.72,17.88,7.72c8.95,0,8.95-7.72,17.9-7.72c8.95,0,8.95,7.72,17.91,7.72c8.95,0,8.95-7.72,17.91-7.72"/>
				<path id="XMLID_548_" class="st8" d="M-12.11,435.7c8.94,0,8.94,7.72,17.87,7.72c8.93,0,8.93-7.72,17.86-7.72
					c8.93,0,8.93,7.72,17.87,7.72c8.94,0,8.94-7.72,17.87-7.72c8.93,0,8.93,7.72,17.87,7.72c8.94,0,8.94-7.72,17.87-7.72
					c8.93,0,8.93,7.72,17.87,7.72c8.94,0,8.94-7.72,17.87-7.72c8.94,0,8.94,7.72,17.87,7.72c8.94,0,8.94-7.72,17.88-7.72
					c8.94,0,8.94,7.72,17.87,7.72c8.94,0,8.94-7.72,17.88-7.72c8.94,0,8.94,7.72,17.88,7.72c8.94,0,8.94-7.72,17.87-7.72
					c8.93,0,8.93,7.72,17.86,7.72c8.94,0,8.94-7.72,17.88-7.72c8.93,0,8.93,7.72,17.87,7.72c8.94,0,8.94-7.72,17.88-7.72
					c8.94,0,8.94,7.72,17.88,7.72c8.94,0,8.94-7.72,17.88-7.72c8.94,0,8.94,7.72,17.88,7.72c8.94,0,8.94-7.72,17.88-7.72
					c8.94,0,8.94,7.72,17.88,7.72c8.95,0,8.95-7.72,17.9-7.72c8.95,0,8.95,7.72,17.91,7.72c8.95,0,8.95-7.72,17.91-7.72"/>
				<path id="XMLID_547_" class="st8" d="M-12.11,419.61c8.94,0,8.94,7.72,17.87,7.72c8.93,0,8.93-7.72,17.86-7.72
					c8.93,0,8.93,7.72,17.87,7.72c8.94,0,8.94-7.72,17.87-7.72c8.93,0,8.93,7.72,17.87,7.72c8.94,0,8.94-7.72,17.87-7.72
					c8.93,0,8.93,7.72,17.87,7.72c8.94,0,8.94-7.72,17.87-7.72c8.94,0,8.94,7.72,17.87,7.72c8.94,0,8.94-7.72,17.88-7.72
					c8.94,0,8.94,7.72,17.87,7.72c8.94,0,8.94-7.72,17.88-7.72c8.94,0,8.94,7.72,17.88,7.72c8.94,0,8.94-7.72,17.87-7.72
					c8.93,0,8.93,7.72,17.86,7.72c8.94,0,8.94-7.72,17.88-7.72c8.93,0,8.93,7.72,17.87,7.72c8.94,0,8.94-7.72,17.88-7.72
					c8.94,0,8.94,7.72,17.88,7.72c8.94,0,8.94-7.72,17.88-7.72c8.94,0,8.94,7.72,17.88,7.72c8.94,0,8.94-7.72,17.88-7.72
					c8.94,0,8.94,7.72,17.88,7.72c8.95,0,8.95-7.72,17.9-7.72c8.95,0,8.95,7.72,17.91,7.72c8.95,0,8.95-7.72,17.91-7.72"/>
				<path id="XMLID_546_" class="st8" d="M-12.11,403.52c8.94,0,8.94,7.72,17.87,7.72c8.93,0,8.93-7.72,17.86-7.72
					c8.93,0,8.93,7.72,17.87,7.72c8.94,0,8.94-7.72,17.87-7.72c8.93,0,8.93,7.72,17.87,7.72c8.94,0,8.94-7.72,17.87-7.72
					c8.93,0,8.93,7.72,17.87,7.72c8.94,0,8.94-7.72,17.87-7.72c8.94,0,8.94,7.72,17.87,7.72c8.94,0,8.94-7.72,17.88-7.72
					c8.94,0,8.94,7.72,17.87,7.72c8.94,0,8.94-7.72,17.88-7.72c8.94,0,8.94,7.72,17.88,7.72c8.94,0,8.94-7.72,17.87-7.72
					c8.93,0,8.93,7.72,17.86,7.72c8.94,0,8.94-7.72,17.88-7.72c8.93,0,8.93,7.72,17.87,7.72c8.94,0,8.94-7.72,17.88-7.72
					c8.94,0,8.94,7.72,17.88,7.72c8.94,0,8.94-7.72,17.88-7.72c8.94,0,8.94,7.72,17.88,7.72c8.94,0,8.94-7.72,17.88-7.72
					c8.94,0,8.94,7.72,17.88,7.72c8.95,0,8.95-7.72,17.9-7.72c8.95,0,8.95,7.72,17.91,7.72c8.95,0,8.95-7.72,17.91-7.72"/>
				<path id="XMLID_545_" class="st8" d="M-12.11,387.43c8.94,0,8.94,7.72,17.87,7.72c8.93,0,8.93-7.72,17.86-7.72
					c8.93,0,8.93,7.72,17.87,7.72c8.94,0,8.94-7.72,17.87-7.72c8.93,0,8.93,7.72,17.87,7.72c8.94,0,8.94-7.72,17.87-7.72
					c8.93,0,8.93,7.72,17.87,7.72c8.94,0,8.94-7.72,17.87-7.72c8.94,0,8.94,7.72,17.87,7.72c8.94,0,8.94-7.72,17.88-7.72
					c8.94,0,8.94,7.72,17.87,7.72c8.94,0,8.94-7.72,17.88-7.72c8.94,0,8.94,7.72,17.88,7.72c8.94,0,8.94-7.72,17.87-7.72
					c8.93,0,8.93,7.72,17.86,7.72c8.94,0,8.94-7.72,17.88-7.72c8.93,0,8.93,7.72,17.87,7.72c8.94,0,8.94-7.72,17.88-7.72
					c8.94,0,8.94,7.72,17.88,7.72c8.94,0,8.94-7.72,17.88-7.72c8.94,0,8.94,7.72,17.88,7.72c8.94,0,8.94-7.72,17.88-7.72
					c8.94,0,8.94,7.72,17.88,7.72c8.95,0,8.95-7.72,17.9-7.72c8.95,0,8.95,7.72,17.91,7.72c8.95,0,8.95-7.72,17.91-7.72"/>
				<path id="XMLID_544_" class="st8" d="M-12.11,371.34c8.94,0,8.94,7.72,17.87,7.72c8.93,0,8.93-7.72,17.86-7.72
					c8.93,0,8.93,7.72,17.87,7.72c8.94,0,8.94-7.72,17.87-7.72c8.93,0,8.93,7.72,17.87,7.72c8.94,0,8.94-7.72,17.87-7.72
					c8.93,0,8.93,7.72,17.87,7.72c8.94,0,8.94-7.72,17.87-7.72c8.94,0,8.94,7.72,17.87,7.72c8.94,0,8.94-7.72,17.88-7.72
					c8.94,0,8.94,7.72,17.87,7.72c8.94,0,8.94-7.72,17.88-7.72c8.94,0,8.94,7.72,17.88,7.72c8.94,0,8.94-7.72,17.87-7.72
					c8.93,0,8.93,7.72,17.86,7.72c8.94,0,8.94-7.72,17.88-7.72c8.93,0,8.93,7.72,17.87,7.72c8.94,0,8.94-7.72,17.88-7.72
					c8.94,0,8.94,7.72,17.88,7.72c8.94,0,8.94-7.72,17.88-7.72c8.94,0,8.94,7.72,17.88,7.72c8.94,0,8.94-7.72,17.88-7.72
					c8.94,0,8.94,7.72,17.88,7.72c8.95,0,8.95-7.72,17.9-7.72c8.95,0,8.95,7.72,17.91,7.72c8.95,0,8.95-7.72,17.91-7.72"/>
				<path id="XMLID_543_" class="st8" d="M-12.11,355.25c8.94,0,8.94,7.72,17.87,7.72c8.93,0,8.93-7.72,17.86-7.72
					c8.93,0,8.93,7.72,17.87,7.72c8.94,0,8.94-7.72,17.87-7.72c8.93,0,8.93,7.72,17.87,7.72c8.94,0,8.94-7.72,17.87-7.72
					c8.93,0,8.93,7.72,17.87,7.72c8.94,0,8.94-7.72,17.87-7.72c8.94,0,8.94,7.72,17.87,7.72c8.94,0,8.94-7.72,17.88-7.72
					c8.94,0,8.94,7.72,17.87,7.72c8.94,0,8.94-7.72,17.88-7.72c8.94,0,8.94,7.72,17.88,7.72c8.94,0,8.94-7.72,17.87-7.72
					c8.93,0,8.93,7.72,17.86,7.72c8.94,0,8.94-7.72,17.88-7.72c8.93,0,8.93,7.72,17.87,7.72c8.94,0,8.94-7.72,17.88-7.72
					c8.94,0,8.94,7.72,17.88,7.72c8.94,0,8.94-7.72,17.88-7.72c8.94,0,8.94,7.72,17.88,7.72c8.94,0,8.94-7.72,17.88-7.72
					c8.94,0,8.94,7.72,17.88,7.72c8.95,0,8.95-7.72,17.9-7.72c8.95,0,8.95,7.72,17.91,7.72c8.95,0,8.95-7.72,17.91-7.72"/>
				<path id="XMLID_542_" class="st8" d="M-12.11,339.16c8.94,0,8.94,7.72,17.87,7.72c8.93,0,8.93-7.72,17.86-7.72
					c8.93,0,8.93,7.72,17.87,7.72c8.94,0,8.94-7.72,17.87-7.72c8.93,0,8.93,7.72,17.87,7.72c8.94,0,8.94-7.72,17.87-7.72
					c8.93,0,8.93,7.72,17.87,7.72c8.94,0,8.94-7.72,17.87-7.72c8.94,0,8.94,7.72,17.87,7.72c8.94,0,8.94-7.72,17.88-7.72
					c8.94,0,8.94,7.72,17.87,7.72c8.94,0,8.94-7.72,17.88-7.72c8.94,0,8.94,7.72,17.88,7.72c8.94,0,8.94-7.72,17.87-7.72
					c8.93,0,8.93,7.72,17.86,7.72c8.94,0,8.94-7.72,17.88-7.72c8.93,0,8.93,7.72,17.87,7.72c8.94,0,8.94-7.72,17.88-7.72
					c8.94,0,8.94,7.72,17.88,7.72c8.94,0,8.94-7.72,17.88-7.72c8.94,0,8.94,7.72,17.88,7.72c8.94,0,8.94-7.72,17.88-7.72
					c8.94,0,8.94,7.72,17.88,7.72c8.95,0,8.95-7.72,17.9-7.72c8.95,0,8.95,7.72,17.91,7.72c8.95,0,8.95-7.72,17.91-7.72"/>
				<path id="XMLID_541_" class="st8" d="M-12.11,323.07c8.94,0,8.94,7.72,17.87,7.72c8.93,0,8.93-7.72,17.86-7.72
					c8.93,0,8.93,7.72,17.87,7.72c8.94,0,8.94-7.72,17.87-7.72c8.93,0,8.93,7.72,17.87,7.72c8.94,0,8.94-7.72,17.87-7.72
					c8.93,0,8.93,7.72,17.87,7.72c8.94,0,8.94-7.72,17.87-7.72c8.94,0,8.94,7.72,17.87,7.72c8.94,0,8.94-7.72,17.88-7.72
					c8.94,0,8.94,7.72,17.87,7.72c8.94,0,8.94-7.72,17.88-7.72c8.94,0,8.94,7.72,17.88,7.72c8.94,0,8.94-7.72,17.87-7.72
					c8.93,0,8.93,7.72,17.86,7.72c8.94,0,8.94-7.72,17.88-7.72c8.93,0,8.93,7.72,17.87,7.72c8.94,0,8.94-7.72,17.88-7.72
					c8.94,0,8.94,7.72,17.88,7.72c8.94,0,8.94-7.72,17.88-7.72c8.94,0,8.94,7.72,17.88,7.72c8.94,0,8.94-7.72,17.88-7.72
					c8.94,0,8.94,7.72,17.88,7.72c8.95,0,8.95-7.72,17.9-7.72c8.95,0,8.95,7.72,17.91,7.72c8.95,0,8.95-7.72,17.91-7.72"/>
				<path id="XMLID_540_" class="st8" d="M-12.11,306.98c8.94,0,8.94,7.72,17.87,7.72c8.93,0,8.93-7.72,17.86-7.72
					c8.93,0,8.93,7.72,17.87,7.72c8.94,0,8.94-7.72,17.87-7.72c8.93,0,8.93,7.72,17.87,7.72c8.94,0,8.94-7.72,17.87-7.72
					c8.93,0,8.93,7.72,17.87,7.72c8.94,0,8.94-7.72,17.87-7.72c8.94,0,8.94,7.72,17.87,7.72c8.94,0,8.94-7.72,17.88-7.72
					c8.94,0,8.94,7.72,17.87,7.72c8.94,0,8.94-7.72,17.88-7.72c8.94,0,8.94,7.72,17.88,7.72c8.94,0,8.94-7.72,17.87-7.72
					c8.93,0,8.93,7.72,17.86,7.72c8.94,0,8.94-7.72,17.88-7.72c8.93,0,8.93,7.72,17.87,7.72c8.94,0,8.94-7.72,17.88-7.72
					c8.94,0,8.94,7.72,17.88,7.72c8.94,0,8.94-7.72,17.88-7.72c8.94,0,8.94,7.72,17.88,7.72c8.94,0,8.94-7.72,17.88-7.72
					c8.94,0,8.94,7.72,17.88,7.72c8.95,0,8.95-7.72,17.9-7.72c8.95,0,8.95,7.72,17.91,7.72c8.95,0,8.95-7.72,17.91-7.72"/>
				<path id="XMLID_539_" class="st8" d="M-12.11,290.89c8.94,0,8.94,7.72,17.87,7.72c8.93,0,8.93-7.72,17.86-7.72
					c8.93,0,8.93,7.72,17.87,7.72c8.94,0,8.94-7.72,17.87-7.72c8.93,0,8.93,7.72,17.87,7.72c8.94,0,8.94-7.72,17.87-7.72
					c8.93,0,8.93,7.72,17.87,7.72c8.94,0,8.94-7.72,17.87-7.72c8.94,0,8.94,7.72,17.87,7.72c8.94,0,8.94-7.72,17.88-7.72
					c8.94,0,8.94,7.72,17.87,7.72c8.94,0,8.94-7.72,17.88-7.72c8.94,0,8.94,7.72,17.88,7.72c8.94,0,8.94-7.72,17.87-7.72
					c8.93,0,8.93,7.72,17.86,7.72c8.94,0,8.94-7.72,17.88-7.72c8.93,0,8.93,7.72,17.87,7.72c8.94,0,8.94-7.72,17.88-7.72
					c8.94,0,8.94,7.72,17.88,7.72c8.94,0,8.94-7.72,17.88-7.72c8.94,0,8.94,7.72,17.88,7.72c8.94,0,8.94-7.72,17.88-7.72
					c8.94,0,8.94,7.72,17.88,7.72c8.95,0,8.95-7.72,17.9-7.72c8.95,0,8.95,7.72,17.91,7.72c8.95,0,8.95-7.72,17.91-7.72"/>
				<path id="XMLID_538_" class="st8" d="M-12.11,274.8c8.94,0,8.94,7.72,17.87,7.72c8.93,0,8.93-7.72,17.86-7.72
					c8.93,0,8.93,7.72,17.87,7.72c8.94,0,8.94-7.72,17.87-7.72c8.93,0,8.93,7.72,17.87,7.72c8.94,0,8.94-7.72,17.87-7.72
					c8.93,0,8.93,7.72,17.87,7.72c8.94,0,8.94-7.72,17.87-7.72c8.94,0,8.94,7.72,17.87,7.72c8.94,0,8.94-7.72,17.88-7.72
					c8.94,0,8.94,7.72,17.87,7.72c8.94,0,8.94-7.72,17.88-7.72c8.94,0,8.94,7.72,17.88,7.72c8.94,0,8.94-7.72,17.87-7.72
					c8.93,0,8.93,7.72,17.86,7.72c8.94,0,8.94-7.72,17.88-7.72c8.93,0,8.93,7.72,17.87,7.72c8.94,0,8.94-7.72,17.88-7.72
					c8.94,0,8.94,7.72,17.88,7.72c8.94,0,8.94-7.72,17.88-7.72c8.94,0,8.94,7.72,17.88,7.72c8.94,0,8.94-7.72,17.88-7.72
					c8.94,0,8.94,7.72,17.88,7.72c8.95,0,8.95-7.72,17.9-7.72c8.95,0,8.95,7.72,17.91,7.72c8.95,0,8.95-7.72,17.91-7.72"/>
				<path id="XMLID_537_" class="st8" d="M-12.11,258.71c8.94,0,8.94,7.72,17.87,7.72c8.93,0,8.93-7.72,17.86-7.72
					c8.93,0,8.93,7.72,17.87,7.72c8.94,0,8.94-7.72,17.87-7.72c8.93,0,8.93,7.72,17.87,7.72c8.94,0,8.94-7.72,17.87-7.72
					c8.93,0,8.93,7.72,17.87,7.72c8.94,0,8.94-7.72,17.87-7.72c8.94,0,8.94,7.72,17.87,7.72c8.94,0,8.94-7.72,17.88-7.72
					c8.94,0,8.94,7.72,17.87,7.72c8.94,0,8.94-7.72,17.88-7.72c8.94,0,8.94,7.72,17.88,7.72c8.94,0,8.94-7.72,17.87-7.72
					c8.93,0,8.93,7.72,17.86,7.72c8.94,0,8.94-7.72,17.88-7.72c8.93,0,8.93,7.72,17.87,7.72c8.94,0,8.94-7.72,17.88-7.72
					c8.94,0,8.94,7.72,17.88,7.72c8.94,0,8.94-7.72,17.88-7.72c8.94,0,8.94,7.72,17.88,7.72c8.94,0,8.94-7.72,17.88-7.72
					c8.94,0,8.94,7.72,17.88,7.72c8.95,0,8.95-7.72,17.9-7.72c8.95,0,8.95,7.72,17.91,7.72c8.95,0,8.95-7.72,17.91-7.72"/>
				<path id="XMLID_534_" class="st8" d="M-12.11,242.62c8.94,0,8.94,7.72,17.87,7.72c8.93,0,8.93-7.72,17.86-7.72
					c8.93,0,8.93,7.72,17.87,7.72c8.94,0,8.94-7.72,17.87-7.72c8.93,0,8.93,7.72,17.87,7.72c8.94,0,8.94-7.72,17.87-7.72
					c8.93,0,8.93,7.72,17.87,7.72c8.94,0,8.94-7.72,17.87-7.72c8.94,0,8.94,7.72,17.87,7.72c8.94,0,8.94-7.72,17.88-7.72
					c8.94,0,8.94,7.72,17.87,7.72c8.94,0,8.94-7.72,17.88-7.72c8.94,0,8.94,7.72,17.88,7.72c8.94,0,8.94-7.72,17.87-7.72
					c8.93,0,8.93,7.72,17.86,7.72c8.94,0,8.94-7.72,17.88-7.72c8.93,0,8.93,7.72,17.87,7.72c8.94,0,8.94-7.72,17.88-7.72
					c8.94,0,8.94,7.72,17.88,7.72c8.94,0,8.94-7.72,17.88-7.72c8.94,0,8.94,7.72,17.88,7.72c8.94,0,8.94-7.72,17.88-7.72
					c8.94,0,8.94,7.72,17.88,7.72c8.95,0,8.95-7.72,17.9-7.72c8.95,0,8.95,7.72,17.91,7.72c8.95,0,8.95-7.72,17.91-7.72"/>
				<path id="XMLID_533_" class="st8" d="M-12.11,226.53c8.94,0,8.94,7.72,17.87,7.72c8.93,0,8.93-7.72,17.86-7.72
					c8.93,0,8.93,7.72,17.87,7.72c8.94,0,8.94-7.72,17.87-7.72c8.93,0,8.93,7.72,17.87,7.72c8.94,0,8.94-7.72,17.87-7.72
					c8.93,0,8.93,7.72,17.87,7.72c8.94,0,8.94-7.72,17.87-7.72c8.94,0,8.94,7.72,17.87,7.72c8.94,0,8.94-7.72,17.88-7.72
					c8.94,0,8.94,7.72,17.87,7.72c8.94,0,8.94-7.72,17.88-7.72c8.94,0,8.94,7.72,17.88,7.72c8.94,0,8.94-7.72,17.87-7.72
					c8.93,0,8.93,7.72,17.86,7.72c8.94,0,8.94-7.72,17.88-7.72c8.93,0,8.93,7.72,17.87,7.72c8.94,0,8.94-7.72,17.88-7.72
					c8.94,0,8.94,7.72,17.88,7.72c8.94,0,8.94-7.72,17.88-7.72c8.94,0,8.94,7.72,17.88,7.72c8.94,0,8.94-7.72,17.88-7.72
					c8.94,0,8.94,7.72,17.88,7.72c8.95,0,8.95-7.72,17.9-7.72c8.95,0,8.95,7.72,17.91,7.72c8.95,0,8.95-7.72,17.91-7.72"/>
				<path id="XMLID_530_" class="st8" d="M-12.11,210.44c8.94,0,8.94,7.72,17.87,7.72c8.93,0,8.93-7.72,17.86-7.72
					c8.93,0,8.93,7.72,17.87,7.72c8.94,0,8.94-7.72,17.87-7.72c8.93,0,8.93,7.72,17.87,7.72c8.94,0,8.94-7.72,17.87-7.72
					c8.93,0,8.93,7.72,17.87,7.72c8.94,0,8.94-7.72,17.87-7.72c8.94,0,8.94,7.72,17.87,7.72c8.94,0,8.94-7.72,17.88-7.72
					c8.94,0,8.94,7.72,17.87,7.72c8.94,0,8.94-7.72,17.88-7.72c8.94,0,8.94,7.72,17.88,7.72c8.94,0,8.94-7.72,17.87-7.72
					c8.93,0,8.93,7.72,17.86,7.72c8.94,0,8.94-7.72,17.88-7.72c8.93,0,8.93,7.72,17.87,7.72c8.94,0,8.94-7.72,17.88-7.72
					c8.94,0,8.94,7.72,17.88,7.72c8.94,0,8.94-7.72,17.88-7.72c8.94,0,8.94,7.72,17.88,7.72c8.94,0,8.94-7.72,17.88-7.72
					c8.94,0,8.94,7.72,17.88,7.72c8.95,0,8.95-7.72,17.9-7.72c8.95,0,8.95,7.72,17.91,7.72c8.95,0,8.95-7.72,17.91-7.72"/>
				<path id="XMLID_529_" class="st8" d="M-12.11,194.35c8.94,0,8.94,7.72,17.87,7.72c8.93,0,8.93-7.72,17.86-7.72
					c8.93,0,8.93,7.72,17.87,7.72c8.94,0,8.94-7.72,17.87-7.72c8.93,0,8.93,7.72,17.87,7.72c8.94,0,8.94-7.72,17.87-7.72
					c8.93,0,8.93,7.72,17.87,7.72c8.94,0,8.94-7.72,17.87-7.72c8.94,0,8.94,7.72,17.87,7.72c8.94,0,8.94-7.72,17.88-7.72
					c8.94,0,8.94,7.72,17.87,7.72c8.94,0,8.94-7.72,17.88-7.72c8.94,0,8.94,7.72,17.88,7.72c8.94,0,8.94-7.72,17.87-7.72
					c8.93,0,8.93,7.72,17.86,7.72c8.94,0,8.94-7.72,17.88-7.72c8.93,0,8.93,7.72,17.87,7.72c8.94,0,8.94-7.72,17.88-7.72
					c8.94,0,8.94,7.72,17.88,7.72c8.94,0,8.94-7.72,17.88-7.72c8.94,0,8.94,7.72,17.88,7.72c8.94,0,8.94-7.72,17.88-7.72
					c8.94,0,8.94,7.72,17.88,7.72c8.95,0,8.95-7.72,17.9-7.72c8.95,0,8.95,7.72,17.91,7.72c8.95,0,8.95-7.72,17.91-7.72"/>
				<path id="XMLID_526_" class="st8" d="M-12.11,178.26c8.94,0,8.94,7.72,17.87,7.72c8.93,0,8.93-7.72,17.86-7.72
					c8.93,0,8.93,7.72,17.87,7.72c8.94,0,8.94-7.72,17.87-7.72c8.93,0,8.93,7.72,17.87,7.72c8.94,0,8.94-7.72,17.87-7.72
					c8.93,0,8.93,7.72,17.87,7.72c8.94,0,8.94-7.72,17.87-7.72c8.94,0,8.94,7.72,17.87,7.72c8.94,0,8.94-7.72,17.88-7.72
					c8.94,0,8.94,7.72,17.87,7.72c8.94,0,8.94-7.72,17.88-7.72c8.94,0,8.94,7.72,17.88,7.72c8.94,0,8.94-7.72,17.87-7.72
					c8.93,0,8.93,7.72,17.86,7.72c8.94,0,8.94-7.72,17.88-7.72c8.93,0,8.93,7.72,17.87,7.72c8.94,0,8.94-7.72,17.88-7.72
					c8.94,0,8.94,7.72,17.88,7.72c8.94,0,8.94-7.72,17.88-7.72c8.94,0,8.94,7.72,17.88,7.72c8.94,0,8.94-7.72,17.88-7.72
					c8.94,0,8.94,7.72,17.88,7.72c8.95,0,8.95-7.72,17.9-7.72c8.95,0,8.95,7.72,17.91,7.72c8.95,0,8.95-7.72,17.91-7.72"/>
				<path id="XMLID_524_" class="st8" d="M-12.11,162.17c8.94,0,8.94,7.72,17.87,7.72c8.93,0,8.93-7.72,17.86-7.72
					c8.93,0,8.93,7.72,17.87,7.72c8.94,0,8.94-7.72,17.87-7.72c8.93,0,8.93,7.72,17.87,7.72c8.94,0,8.94-7.72,17.87-7.72
					c8.93,0,8.93,7.72,17.87,7.72c8.94,0,8.94-7.72,17.87-7.72c8.94,0,8.94,7.72,17.87,7.72c8.94,0,8.94-7.72,17.88-7.72
					c8.94,0,8.94,7.72,17.87,7.72c8.94,0,8.94-7.72,17.88-7.72c8.94,0,8.94,7.72,17.88,7.72c8.94,0,8.94-7.72,17.87-7.72
					c8.93,0,8.93,7.72,17.86,7.72c8.94,0,8.94-7.72,17.88-7.72c8.93,0,8.93,7.72,17.87,7.72c8.94,0,8.94-7.72,17.88-7.72
					c8.94,0,8.94,7.72,17.88,7.72c8.94,0,8.94-7.72,17.88-7.72c8.94,0,8.94,7.72,17.88,7.72c8.94,0,8.94-7.72,17.88-7.72
					c8.94,0,8.94,7.72,17.88,7.72c8.95,0,8.95-7.72,17.9-7.72c8.95,0,8.95,7.72,17.91,7.72c8.95,0,8.95-7.72,17.91-7.72"/>
				<path id="XMLID_523_" class="st8" d="M-12.11,146.08c8.94,0,8.94,7.72,17.87,7.72c8.93,0,8.93-7.72,17.86-7.72
					c8.93,0,8.93,7.72,17.87,7.72c8.94,0,8.94-7.72,17.87-7.72c8.93,0,8.93,7.72,17.87,7.72c8.94,0,8.94-7.72,17.87-7.72
					c8.93,0,8.93,7.72,17.87,7.72c8.94,0,8.94-7.72,17.87-7.72c8.94,0,8.94,7.72,17.87,7.72c8.94,0,8.94-7.72,17.88-7.72
					c8.94,0,8.94,7.72,17.87,7.72c8.94,0,8.94-7.72,17.88-7.72c8.94,0,8.94,7.72,17.88,7.72c8.94,0,8.94-7.72,17.87-7.72
					c8.93,0,8.93,7.72,17.86,7.72c8.94,0,8.94-7.72,17.88-7.72c8.93,0,8.93,7.72,17.87,7.72c8.94,0,8.94-7.72,17.88-7.72
					c8.94,0,8.94,7.72,17.88,7.72c8.94,0,8.94-7.72,17.88-7.72c8.94,0,8.94,7.72,17.88,7.72c8.94,0,8.94-7.72,17.88-7.72
					c8.94,0,8.94,7.72,17.88,7.72c8.95,0,8.95-7.72,17.9-7.72c8.95,0,8.95,7.72,17.91,7.72c8.95,0,8.95-7.72,17.91-7.72"/>
				<path id="XMLID_522_" class="st8" d="M-12.11,129.99c8.94,0,8.94,7.72,17.87,7.72c8.93,0,8.93-7.72,17.86-7.72
					c8.93,0,8.93,7.72,17.87,7.72c8.94,0,8.94-7.72,17.87-7.72c8.93,0,8.93,7.72,17.87,7.72c8.94,0,8.94-7.72,17.87-7.72
					c8.93,0,8.93,7.72,17.87,7.72c8.94,0,8.94-7.72,17.87-7.72c8.94,0,8.94,7.72,17.87,7.72c8.94,0,8.94-7.72,17.88-7.72
					c8.94,0,8.94,7.72,17.87,7.72c8.94,0,8.94-7.72,17.88-7.72c8.94,0,8.94,7.72,17.88,7.72c8.94,0,8.94-7.72,17.87-7.72
					c8.93,0,8.93,7.72,17.86,7.72c8.94,0,8.94-7.72,17.88-7.72c8.93,0,8.93,7.72,17.87,7.72c8.94,0,8.94-7.72,17.88-7.72
					c8.94,0,8.94,7.72,17.88,7.72c8.94,0,8.94-7.72,17.88-7.72c8.94,0,8.94,7.72,17.88,7.72c8.94,0,8.94-7.72,17.88-7.72
					c8.94,0,8.94,7.72,17.88,7.72c8.95,0,8.95-7.72,17.9-7.72c8.95,0,8.95,7.72,17.91,7.72c8.95,0,8.95-7.72,17.91-7.72"/>
				<path id="XMLID_519_" class="st8" d="M-12.11,113.9c8.94,0,8.94,7.72,17.87,7.72c8.93,0,8.93-7.72,17.86-7.72
					c8.93,0,8.93,7.72,17.87,7.72c8.94,0,8.94-7.72,17.87-7.72c8.93,0,8.93,7.72,17.87,7.72c8.94,0,8.94-7.72,17.87-7.72
					c8.93,0,8.93,7.72,17.87,7.72c8.94,0,8.94-7.72,17.87-7.72c8.94,0,8.94,7.72,17.87,7.72c8.94,0,8.94-7.72,17.88-7.72
					c8.94,0,8.94,7.72,17.87,7.72c8.94,0,8.94-7.72,17.88-7.72c8.94,0,8.94,7.72,17.88,7.72c8.94,0,8.94-7.72,17.87-7.72
					c8.93,0,8.93,7.72,17.86,7.72c8.94,0,8.94-7.72,17.88-7.72c8.93,0,8.93,7.72,17.87,7.72c8.94,0,8.94-7.72,17.88-7.72
					c8.94,0,8.94,7.72,17.88,7.72c8.94,0,8.94-7.72,17.88-7.72c8.94,0,8.94,7.72,17.88,7.72c8.94,0,8.94-7.72,17.88-7.72
					c8.94,0,8.94,7.72,17.88,7.72c8.95,0,8.95-7.72,17.9-7.72c8.95,0,8.95,7.72,17.91,7.72c8.95,0,8.95-7.72,17.91-7.72"/>
				<path id="XMLID_454_" class="st8" d="M-12.11,97.81c8.94,0,8.94,7.72,17.87,7.72c8.93,0,8.93-7.72,17.86-7.72
					c8.93,0,8.93,7.72,17.87,7.72c8.94,0,8.94-7.72,17.87-7.72c8.93,0,8.93,7.72,17.87,7.72c8.94,0,8.94-7.72,17.87-7.72
					c8.93,0,8.93,7.72,17.87,7.72c8.94,0,8.94-7.72,17.87-7.72c8.94,0,8.94,7.72,17.87,7.72c8.94,0,8.94-7.72,17.88-7.72
					c8.94,0,8.94,7.72,17.87,7.72c8.94,0,8.94-7.72,17.88-7.72c8.94,0,8.94,7.72,17.88,7.72c8.94,0,8.94-7.72,17.87-7.72
					c8.93,0,8.93,7.72,17.86,7.72c8.94,0,8.94-7.72,17.88-7.72c8.93,0,8.93,7.72,17.87,7.72c8.94,0,8.94-7.72,17.88-7.72
					c8.94,0,8.94,7.72,17.88,7.72c8.94,0,8.94-7.72,17.88-7.72c8.94,0,8.94,7.72,17.88,7.72c8.94,0,8.94-7.72,17.88-7.72
					c8.94,0,8.94,7.72,17.88,7.72c8.95,0,8.95-7.72,17.9-7.72c8.95,0,8.95,7.72,17.91,7.72c8.95,0,8.95-7.72,17.91-7.72"/>
				<path id="XMLID_453_" class="st8" d="M-12.11,81.72c8.94,0,8.94,7.72,17.87,7.72c8.93,0,8.93-7.72,17.86-7.72
					c8.93,0,8.93,7.72,17.87,7.72c8.94,0,8.94-7.72,17.87-7.72c8.93,0,8.93,7.72,17.87,7.72c8.94,0,8.94-7.72,17.87-7.72
					c8.93,0,8.93,7.72,17.87,7.72c8.94,0,8.94-7.72,17.87-7.72c8.94,0,8.94,7.72,17.87,7.72c8.94,0,8.94-7.72,17.88-7.72
					c8.94,0,8.94,7.72,17.87,7.72c8.94,0,8.94-7.72,17.88-7.72c8.94,0,8.94,7.72,17.88,7.72c8.94,0,8.94-7.72,17.87-7.72
					c8.93,0,8.93,7.72,17.86,7.72c8.94,0,8.94-7.72,17.88-7.72c8.93,0,8.93,7.72,17.87,7.72c8.94,0,8.94-7.72,17.88-7.72
					c8.94,0,8.94,7.72,17.88,7.72c8.94,0,8.94-7.72,17.88-7.72c8.94,0,8.94,7.72,17.88,7.72c8.94,0,8.94-7.72,17.88-7.72
					c8.94,0,8.94,7.72,17.88,7.72c8.95,0,8.95-7.72,17.9-7.72c8.95,0,8.95,7.72,17.91,7.72c8.95,0,8.95-7.72,17.91-7.72"/>
				<path id="XMLID_452_" class="st8" d="M-12.11,65.63c8.94,0,8.94,7.72,17.87,7.72c8.93,0,8.93-7.72,17.86-7.72
					c8.93,0,8.93,7.72,17.87,7.72c8.94,0,8.94-7.72,17.87-7.72c8.93,0,8.93,7.72,17.87,7.72c8.94,0,8.94-7.72,17.87-7.72
					c8.93,0,8.93,7.72,17.87,7.72c8.94,0,8.94-7.72,17.87-7.72c8.94,0,8.94,7.72,17.87,7.72c8.94,0,8.94-7.72,17.88-7.72
					c8.94,0,8.94,7.72,17.87,7.72c8.94,0,8.94-7.72,17.88-7.72c8.94,0,8.94,7.72,17.88,7.72c8.94,0,8.94-7.72,17.87-7.72
					c8.93,0,8.93,7.72,17.86,7.72c8.94,0,8.94-7.72,17.88-7.72c8.93,0,8.93,7.72,17.87,7.72c8.94,0,8.94-7.72,17.88-7.72
					c8.94,0,8.94,7.72,17.88,7.72c8.94,0,8.94-7.72,17.88-7.72c8.94,0,8.94,7.72,17.88,7.72c8.94,0,8.94-7.72,17.88-7.72
					c8.94,0,8.94,7.72,17.88,7.72c8.95,0,8.95-7.72,17.9-7.72c8.95,0,8.95,7.72,17.91,7.72c8.95,0,8.95-7.72,17.91-7.72"/>
				<path id="XMLID_451_" class="st8" d="M-12.11,49.54c8.94,0,8.94,7.72,17.87,7.72c8.93,0,8.93-7.72,17.86-7.72
					c8.93,0,8.93,7.72,17.87,7.72c8.94,0,8.94-7.72,17.87-7.72c8.93,0,8.93,7.72,17.87,7.72c8.94,0,8.94-7.72,17.87-7.72
					c8.93,0,8.93,7.72,17.87,7.72c8.94,0,8.94-7.72,17.87-7.72c8.94,0,8.94,7.72,17.87,7.72c8.94,0,8.94-7.72,17.88-7.72
					c8.94,0,8.94,7.72,17.87,7.72c8.94,0,8.94-7.72,17.88-7.72c8.94,0,8.94,7.72,17.88,7.72c8.94,0,8.94-7.72,17.87-7.72
					c8.93,0,8.93,7.72,17.86,7.72c8.94,0,8.94-7.72,17.88-7.72c8.93,0,8.93,7.72,17.87,7.72c8.94,0,8.94-7.72,17.88-7.72
					c8.94,0,8.94,7.72,17.88,7.72c8.94,0,8.94-7.72,17.88-7.72c8.94,0,8.94,7.72,17.88,7.72c8.94,0,8.94-7.72,17.88-7.72
					c8.94,0,8.94,7.72,17.88,7.72c8.95,0,8.95-7.72,17.9-7.72c8.95,0,8.95,7.72,17.91,7.72c8.95,0,8.95-7.72,17.91-7.72"/>
			</g>
		</g>
		<g id="XMLID_354_">
			<path id="XMLID_375_" class="st2" d="M216.39,455.81H88.31c-1.11,0-2.02-0.91-2.02-2.02v-74.73c0-1.11,0.91-2.02,2.02-2.02
				h128.08c1.11,0,2.02,0.91,2.02,2.02v74.73C218.41,454.9,217.5,455.81,216.39,455.81z"/>
			<g id="XMLID_365_">
				<text id="XMLID_373_" transform="matrix(1 0 0 1 97.8969 412.0095)"><tspan x="0" y="0" class="st3 st15 st26 st22">高雄流行</tspan><tspan x="0" y="30.96" class="st3 st15 st26 st22">音樂中心</tspan></text>
			</g>
		</g>
		<g id="XMLID_167_">
			<path id="XMLID_353_" class="st2" d="M507.04,647.96H382.65c-1.11,0-2.02-0.91-2.02-2.02v-74.73c0-1.11,0.91-2.02,2.02-2.02
				h124.38c1.11,0,2.02,0.91,2.02,2.02v74.73C509.06,647.05,508.15,647.96,507.04,647.96z"/>
			<g id="XMLID_204_">
				<text id="XMLID_352_" transform="matrix(0.972 0 0 1 396.7309 604.1615)"><tspan x="0" y="0" class="st3 st15 st26 st27">海 邊 路</tspan><tspan x="-0.01" y="30.96" class="st3 st15 st26 st27">P停車場</tspan></text>
			</g>
		</g>
	</g>
</g>
</svg>
