<?xml version="1.0" encoding="utf-8"?>
<!-- Generator: Adobe Illustrator 23.1.0, SVG Export Plug-In . SVG Version: 6.00 Build 0)  -->
<svg version="1.1" xmlns="http://www.w3.org/2000/svg" xmlns:xlink="http://www.w3.org/1999/xlink" x="0px" y="0px"
	 viewBox="0 0 878.39 683.66" style="enable-background:new 0 0 878.39 683.66;" xml:space="preserve">
<style type="text/css">
	.st0{fill:#424242;}
	.st1{fill:#212336;}
	.st2{fill:none;stroke:#FFFFFF;stroke-width:0.5;stroke-miterlimit:10;}
	.st3{fill:#FFFFFF;}
	.st4{fill:#45456D;}
	.st5{fill:#42446A;}
	.st6{fill:#E32B89;}
	.st7{opacity:0.5;clip-path:url(#XMLID_769_);}
	.st8{fill:none;stroke:#FFFFFF;stroke-width:0.3;stroke-miterlimit:10;}
	.st9{opacity:0.5;clip-path:url(#XMLID_786_);}
	.st10{opacity:0.5;clip-path:url(#XMLID_787_);}
	.st11{opacity:0.5;clip-path:url(#XMLID_788_);}
	.st12{opacity:0.5;clip-path:url(#XMLID_789_);}
	.st13{opacity:0.5;clip-path:url(#XMLID_790_);}
	.st14{display:none;fill:#424242;}
	.st15{opacity:0.5;clip-path:url(#XMLID_792_);}
	.st16{opacity:0.5;clip-path:url(#XMLID_794_);}
</style>
<g id="圖層_2">
</g>
<g id="圖層_1">
	<rect x="380.52" y="572.79" class="st14" width="129" height="79"/>
	<rect x="522.88" y="634.72" class="st4" width="357.24" height="14.2"/>
	<path id="XMLID_785_" class="st2" d="M434.06,419.79l20.12-6.98c0.23-0.08,0.48-0.1,0.72-0.04l19.44,4.29
		c0.54,0.12,0.96,0.57,1.03,1.12l1.37,10.47c0.08,0.64-0.3,1.24-0.91,1.44l-19.38,6.16c-0.21,0.07-0.44,0.08-0.66,0.04l-20.89-4.12
		c-0.59-0.12-1.03-0.61-1.07-1.21l-0.66-9.8C433.13,420.53,433.5,419.99,434.06,419.79z"/>
	<path id="XMLID_784_" class="st2" d="M434.32,450.75l23.83-6.17c0.24-0.06,0.49-0.06,0.72,0.02l21.94,6.73
		c0.56,0.17,0.95,0.7,0.94,1.29l-0.21,12.4c-0.01,0.6-0.43,1.13-1.02,1.27l-22.04,5.3c-0.22,0.05-0.45,0.05-0.67-0.01l-23.68-6.7
		c-0.58-0.16-0.97-0.69-0.96-1.29l0.16-11.56C433.34,451.42,433.75,450.9,434.32,450.75z"/>
	<path id="XMLID_783_" class="st2" d="M443.27,483.18l14.57-3.77c0.24-0.06,0.49-0.06,0.72,0.02l13.35,4.09
		c0.58,0.18,0.97,0.73,0.93,1.34l-0.39,7.1c-0.03,0.58-0.44,1.07-1.01,1.21l-13.13,3.23c-0.22,0.06-0.46,0.05-0.68-0.01l-14.48-4.09
		c-0.58-0.16-0.97-0.69-0.96-1.29l0.09-6.56C442.28,483.84,442.69,483.33,443.27,483.18z"/>
	<path id="XMLID_782_" class="st2" d="M435.08,510.36l23.05-5.97c0.24-0.06,0.49-0.06,0.72,0.02l21.22,6.51
		c0.57,0.17,0.95,0.7,0.94,1.29l-0.23,11.95c-0.01,0.6-0.43,1.12-1.01,1.26l-21.29,5.12c-0.22,0.05-0.45,0.05-0.67-0.01l-22.9-6.48
		c-0.58-0.16-0.97-0.69-0.96-1.29l0.15-11.14C434.09,511.03,434.5,510.51,435.08,510.36z"/>
	<path id="XMLID_781_" class="st2" d="M444.11,551.36l9.12-10.3c0.16-0.18,0.37-0.32,0.61-0.39l12.3-3.74
		c0.53-0.16,1.11,0.03,1.45,0.47l3.82,5.1c0.38,0.51,0.35,1.23-0.09,1.7l-8.94,9.57c-0.15,0.16-0.34,0.28-0.56,0.35l-13.08,4.29
		c-0.57,0.19-1.19-0.03-1.52-0.53l-3.22-4.93C443.66,552.46,443.71,551.8,444.11,551.36z"/>
	<g id="XMLID_770_">
		<path id="XMLID_780_" class="st2" d="M404.63,651.25v26.83c0,2.2,1.78,3.98,3.98,3.98h471.29"/>
		<path id="XMLID_779_" class="st2" d="M155.75,66.9l96.79,143.28c0.74,1.1,1.98,1.75,3.3,1.75h36.47c2.2,0,3.98,1.78,3.98,3.98
			v78.03c0,2.2,1.78,3.98,3.98,3.98h100.37c2.2,0,3.98,1.78,3.98,3.98v270.33"/>
		<path id="XMLID_778_" class="st2" d="M85.05,109.77l160.81,250.93c0.41,0.64,0.63,1.39,0.63,2.15V473.5c0,2.2-1.78,3.98-3.98,3.98
			H40.29"/>
		<path id="XMLID_777_" class="st2" d="M40.29,551.11h202.22c2.2,0,3.98,1.78,3.98,3.98v122.98c0,2.2-1.78,3.98-3.98,3.98H40.29"/>
		<g id="XMLID_771_">
			<path id="XMLID_776_" class="st2" d="M202.51,134.86h251.17c1.03,0,2.03-0.4,2.77-1.12L589.7,5.19"/>
			<path id="XMLID_775_" class="st2" d="M631.47,39.37l-131.2,133.55c-1.52,1.55-1.52,4.02,0,5.57l32.7,33.45
				c1.55,1.58,4.08,1.6,5.65,0.05L709.7,44.69"/>
			<path id="XMLID_774_" class="st2" d="M752.99,79.62L564.34,265.08c-0.75,0.75-1.18,1.77-1.18,2.83v154.67
				c0,2.2,1.78,3.98,3.98,3.98h74.02c1.09,0,2.13-0.45,2.88-1.24l143.03-155.26"/>
			<path id="XMLID_773_" class="st2" d="M830.36,304.24L664.19,483.06c-0.75,0.8-1.81,1.26-2.91,1.26h-94.14
				c-2.2,0-3.98,1.78-3.98,3.98v96.16c0,2.2,1.78,3.98,3.98,3.98h312.77"/>
			<path id="XMLID_772_" class="st2" d="M232.66,182.98h216.71c1.15,0,2.24,0.49,2.99,1.35l61.72,70.27
				c0.64,0.73,0.99,1.66,0.99,2.63"/>
		</g>
	</g>
	<g id="XMLID_757_">
		<g id="XMLID_768_">
			<g>
				<path class="st3" d="M696.59,415.73c0.61-0.05,1.31-0.3,2.09-0.74s1.42-0.93,1.91-1.46c1.6-1.73,1.77-3.18,0.5-4.34
					c-0.35-0.33-0.75-0.53-1.19-0.6c-0.44-0.08-0.91-0.05-1.39,0.06s-1.37,0.41-2.66,0.89c-1.85,0.68-3.18,0.97-3.99,0.86
					s-1.52-0.45-2.14-1.02c-0.96-0.88-1.37-1.98-1.22-3.29c0.14-1.31,0.76-2.55,1.85-3.73c1.1-1.19,2.01-1.9,2.75-2.14l1.51,1.4
					c-1.13,0.25-2.19,0.93-3.21,2.03c-0.69,0.75-1.1,1.52-1.22,2.29c-0.12,0.77,0.11,1.42,0.69,1.96c0.36,0.33,0.75,0.53,1.17,0.61
					c0.42,0.08,0.86,0.06,1.32-0.05c0.46-0.11,1.28-0.39,2.46-0.83c1.66-0.63,2.97-0.93,3.96-0.89s1.81,0.38,2.49,1
					c1.02,0.94,1.46,2.03,1.33,3.28c-0.13,1.25-0.8,2.54-2.02,3.86c-0.37,0.41-0.93,0.87-1.66,1.4s-1.31,0.83-1.74,0.92
					L696.59,415.73z"/>
				<path class="st3" d="M695.56,397.77c-0.24-0.22-0.37-0.49-0.39-0.81s0.08-0.59,0.29-0.82c0.22-0.24,0.49-0.37,0.82-0.38
					c0.32-0.01,0.6,0.09,0.84,0.31c0.23,0.21,0.35,0.47,0.36,0.8c0.01,0.32-0.09,0.6-0.31,0.84c-0.22,0.24-0.49,0.36-0.8,0.37
					C696.07,398.09,695.8,397.99,695.56,397.77z M707.29,408.25l-8.51-7.84l1.18-1.28l8.51,7.84L707.29,408.25z"/>
				<path class="st3" d="M712.32,385.72l6.15,10.39l-1.23,1.33l-7.8-3.89c-0.29-0.15-0.59-0.34-0.89-0.58l-0.03,0.03
					c0.14,0.14,0.34,0.43,0.59,0.87l4.4,7.62l-1.18,1.28l-10.89-5.25l1.24-1.35l8.11,4.15c0.26,0.13,0.54,0.32,0.86,0.58l0.06-0.06
					c-0.22-0.24-0.43-0.53-0.63-0.86l-4.6-7.92l1.08-1.17l8.12,4.17c0.22,0.12,0.51,0.31,0.87,0.57l0.06-0.07
					c-0.21-0.2-0.42-0.48-0.63-0.83l-4.84-7.73L712.32,385.72z"/>
				<path class="st3" d="M724.53,381.64l-5.56,6.03c1,0.88,1.99,1.31,2.97,1.3c0.98-0.01,1.86-0.44,2.65-1.3
					c0.88-0.96,1.38-2.14,1.48-3.54l1.23,1.13c-0.13,1.25-0.76,2.49-1.89,3.72c-1.09,1.18-2.34,1.76-3.75,1.73
					c-1.4-0.03-2.81-0.69-4.21-1.98c-1.29-1.19-2.02-2.55-2.18-4.07c-0.16-1.52,0.27-2.84,1.29-3.95c1.01-1.09,2.15-1.61,3.43-1.56
					c1.28,0.05,2.56,0.67,3.84,1.85L724.53,381.64z M722.18,381.92c-0.8-0.73-1.6-1.11-2.4-1.14c-0.79-0.03-1.5,0.3-2.13,0.98
					c-0.57,0.62-0.85,1.37-0.84,2.25c0.01,0.88,0.36,1.75,1.04,2.6L722.18,381.92z"/>
				<path class="st3" d="M718.67,372.69c-0.24-0.22-0.37-0.49-0.39-0.81c-0.02-0.32,0.08-0.59,0.29-0.82
					c0.22-0.24,0.5-0.37,0.82-0.38c0.32-0.01,0.6,0.09,0.84,0.31c0.23,0.21,0.35,0.47,0.36,0.8c0.02,0.32-0.09,0.6-0.31,0.84
					c-0.22,0.24-0.49,0.36-0.8,0.37C719.18,373.01,718.91,372.91,718.67,372.69z M730.4,383.17l-8.51-7.84l1.18-1.28l8.51,7.84
					L730.4,383.17z"/>
				<path class="st3" d="M731.05,358.56l7.98,7.35l1.65-1.79l1.09,1.01l-1.65,1.79l2.85,2.62l-1.16,1.26l-2.85-2.62l-5.14,5.58
					l-1.08-0.99c-0.23-2.15-0.61-4.37-1.15-6.64c-0.54-2.28-1.15-4.33-1.83-6.16L731.05,358.56z M737.86,367.17l-5.89-5.43
					l-0.19,0.13c1,2.97,1.75,6.13,2.23,9.48L737.86,367.17z"/>
				<path class="st3" d="M749.68,362.08c-0.11,0.48-0.4,0.97-0.87,1.49c-1.35,1.46-2.84,1.43-4.49-0.08l-5.11-4.71l-1.36,1.48
					l-1.11-1.02l1.36-1.48l-2.09-1.93l0.76-1.66l2.51,2.31l1.98-2.15l1.11,1.02l-1.98,2.15l4.88,4.5c0.58,0.53,1.08,0.82,1.51,0.85
					c0.42,0.03,0.85-0.18,1.27-0.64c0.33-0.35,0.5-0.74,0.53-1.15L749.68,362.08z"/>
				<path class="st3" d="M757.9,353.32l-1.18,1.28l-4.91-4.52c-1.8-1.66-3.33-1.82-4.57-0.47c-0.63,0.68-0.89,1.49-0.79,2.44
					c0.1,0.94,0.56,1.79,1.38,2.55l4.81,4.44l-1.18,1.28l-12.59-11.6l1.18-1.28l5.51,5.07l0.04-0.04c-0.48-1.65-0.16-3.08,0.96-4.29
					c1.76-1.91,3.8-1.8,6.11,0.33L757.9,353.32z"/>
				<path class="st3" d="M771.87,338.16l-1.45,1.57l-5.2-1.09c-1.11-0.24-1.94-0.28-2.48-0.14c-0.54,0.14-1.03,0.45-1.46,0.91
					l-1.08,1.18l5.1,4.7l-1.2,1.31l-11.91-10.98l3.23-3.51c1.01-1.09,2.09-1.7,3.24-1.83c1.16-0.13,2.23,0.26,3.22,1.17
					c1.65,1.52,1.9,3.38,0.78,5.59l0.03,0.03c0.45-0.2,0.88-0.29,1.31-0.29s1.18,0.1,2.25,0.3L771.87,338.16z M754.6,335.43
					l4.38,4.04l1.79-1.95c0.67-0.72,1-1.51,1-2.35c0-0.85-0.36-1.59-1.06-2.24c-0.65-0.6-1.34-0.85-2.09-0.77
					c-0.75,0.08-1.49,0.52-2.22,1.31L754.6,335.43z"/>
				<path class="st3" d="M779.47,329.92l-1.18,1.28l-1.46-1.35l-0.03,0.03c0.53,1.65,0.18,3.14-1.05,4.47
					c-0.99,1.08-2.16,1.58-3.52,1.51c-1.35-0.07-2.68-0.71-3.98-1.91c-1.39-1.29-2.19-2.68-2.39-4.18c-0.2-1.5,0.24-2.83,1.32-4
					c1.08-1.17,2.33-1.6,3.76-1.29l0.03-0.03l-5.28-4.86l1.18-1.28L779.47,329.92z M773.17,326.48c-0.7-0.64-1.51-0.95-2.42-0.92
					c-0.92,0.03-1.7,0.39-2.33,1.08c-0.78,0.85-1.08,1.81-0.9,2.87c0.18,1.06,0.81,2.09,1.88,3.08c0.98,0.9,1.97,1.39,2.99,1.47
					c1.01,0.08,1.88-0.28,2.61-1.06c0.69-0.75,0.99-1.63,0.9-2.63c-0.1-1-0.57-1.9-1.43-2.69L773.17,326.48z"/>
				<path class="st3" d="M780.89,326.94c-0.25-0.23-0.38-0.52-0.39-0.86c-0.01-0.34,0.09-0.63,0.31-0.87
					c0.23-0.25,0.51-0.37,0.85-0.39c0.34-0.01,0.63,0.1,0.88,0.33c0.25,0.23,0.38,0.51,0.39,0.85c0.01,0.34-0.09,0.63-0.31,0.87
					c-0.22,0.24-0.5,0.36-0.83,0.39C781.44,327.28,781.15,327.17,780.89,326.94z"/>
			</g>
		</g>
		<g id="XMLID_766_">
			<g>
				<path class="st3" d="M587.14,216.91l5.54,0.02l-1.77,1.75l-5.02-0.26c-1.74,1.67-3.6,2.42-5.58,2.26
					c-1.98-0.16-3.8-1.09-5.48-2.78c-1.82-1.83-2.8-3.77-2.95-5.82c-0.15-2.05,0.69-3.98,2.5-5.77c1.66-1.65,3.48-2.4,5.46-2.25
					c1.99,0.14,3.83,1.08,5.54,2.79c1.58,1.59,2.55,3.25,2.92,4.98S588.28,215.25,587.14,216.91z M575.41,207.53
					c-1.3,1.29-1.87,2.74-1.72,4.36c0.15,1.62,0.93,3.14,2.36,4.58c1.43,1.44,2.94,2.24,4.52,2.41c1.58,0.17,3.01-0.38,4.28-1.64
					c1.32-1.31,1.91-2.75,1.79-4.33c-0.13-1.58-0.92-3.11-2.38-4.58c-1.5-1.51-3.02-2.36-4.54-2.53
					C578.18,205.62,576.75,206.2,575.41,207.53z"/>
				<path class="st3" d="M582.11,199.65c-0.23-0.23-0.35-0.51-0.35-0.82c0-0.32,0.11-0.58,0.33-0.81c0.23-0.23,0.51-0.34,0.83-0.34
					s0.6,0.12,0.82,0.35c0.22,0.22,0.32,0.49,0.33,0.81c0,0.32-0.11,0.6-0.35,0.83c-0.23,0.23-0.5,0.34-0.81,0.33
					C582.6,199.99,582.34,199.88,582.11,199.65z M593.37,210.64l-8.15-8.21l1.23-1.22l8.15,8.21L593.37,210.64z"/>
				<path class="st3" d="M604.04,200.03l-1.24,1.23l-4.66-4.69c-1.76-1.77-3.29-2.01-4.58-0.73c-0.68,0.67-0.98,1.48-0.91,2.42
					c0.07,0.94,0.48,1.79,1.24,2.55l4.65,4.68l-1.24,1.23l-8.15-8.21l1.24-1.23l1.36,1.37l0.04-0.04c-0.42-1.65-0.04-3.07,1.14-4.24
					c0.9-0.89,1.88-1.29,2.93-1.18c1.05,0.11,2.12,0.71,3.21,1.81L604.04,200.03z"/>
				<path class="st3" d="M612.84,190.01c2.99,3.01,3.06,5.93,0.21,8.76c-1.01,1-2.09,1.69-3.25,2.06l-1.25-1.26
					c1.44-0.4,2.58-1.03,3.42-1.87c2.03-2.02,1.97-4.12-0.2-6.3l-0.91-0.91l-0.03,0.03c0.41,1.7-0.01,3.16-1.26,4.4
					c-1.03,1.02-2.22,1.47-3.57,1.35c-1.35-0.12-2.63-0.79-3.83-2c-1.39-1.4-2.16-2.85-2.29-4.34c-0.14-1.5,0.37-2.81,1.51-3.95
					c1.11-1.11,2.38-1.48,3.81-1.12l0.03-0.03l-1.14-1.15l1.23-1.22L612.84,190.01z M607.34,186.94c-0.66-0.67-1.46-1.01-2.38-1.02
					c-0.92-0.01-1.71,0.31-2.36,0.95c-0.82,0.82-1.17,1.76-1.04,2.83c0.13,1.07,0.72,2.15,1.79,3.22c0.92,0.93,1.89,1.45,2.9,1.55
					s1.88-0.2,2.6-0.93c0.74-0.73,1.08-1.6,1.03-2.61c-0.05-1.01-0.48-1.93-1.3-2.75L607.34,186.94z"/>
				<path class="st3" d="M622.92,181.28l-1.24,1.23l-4.66-4.69c-1.76-1.77-3.29-2.01-4.58-0.73c-0.68,0.67-0.98,1.48-0.91,2.42
					c0.07,0.94,0.48,1.79,1.24,2.55l4.65,4.68l-1.24,1.23l-8.15-8.21l1.24-1.23l1.36,1.37l0.04-0.04c-0.42-1.65-0.04-3.07,1.14-4.24
					c0.9-0.89,1.87-1.29,2.93-1.18c1.05,0.11,2.12,0.71,3.21,1.81L622.92,181.28z"/>
				<path class="st3" d="M614.17,167.8c-0.23-0.23-0.35-0.51-0.35-0.82c0-0.31,0.11-0.58,0.33-0.8c0.23-0.23,0.51-0.35,0.83-0.34
					c0.32,0,0.6,0.12,0.82,0.35c0.22,0.22,0.33,0.49,0.33,0.81c0,0.32-0.11,0.6-0.35,0.83c-0.23,0.23-0.5,0.34-0.81,0.33
					C614.66,168.15,614.39,168.03,614.17,167.8z M625.42,178.79l-8.15-8.21l1.23-1.22l8.15,8.21L625.42,178.79z"/>
				<path class="st3" d="M621.98,167.07c0.29-1.32,0.95-2.5,1.99-3.53c1.9-1.89,3.86-1.83,5.87,0.2l5.33,5.36l-1.24,1.23l-1.28-1.29
					l-0.04,0.04c0.41,1.55,0.06,2.88-1.05,3.99c-0.81,0.81-1.67,1.22-2.56,1.26c-0.9,0.03-1.7-0.31-2.41-1.02
					c-1.51-1.52-1.49-3.3,0.05-5.35l2.13-2.82c-1.42-1.42-2.69-1.57-3.83-0.44c-0.99,0.99-1.55,2.21-1.66,3.67L621.98,167.07z
					 M628.05,168.45c-0.61,0.79-0.93,1.45-0.96,1.96c-0.03,0.52,0.21,1.03,0.71,1.54c0.41,0.41,0.89,0.6,1.44,0.56
					c0.55-0.03,1.06-0.29,1.54-0.76c0.66-0.65,0.97-1.43,0.94-2.33c-0.03-0.9-0.4-1.71-1.09-2.41l-0.83-0.83L628.05,168.45z"/>
				<path class="st3" d="M644.42,159.92l-1.24,1.23l-4.66-4.69c-1.76-1.77-3.29-2.01-4.58-0.72c-0.68,0.67-0.98,1.48-0.91,2.42
					c0.07,0.94,0.48,1.79,1.24,2.55l4.65,4.68l-1.24,1.23l-8.15-8.21l1.24-1.23l1.36,1.37l0.04-0.04c-0.42-1.65-0.04-3.07,1.14-4.24
					c0.9-0.89,1.88-1.29,2.93-1.18c1.05,0.11,2.12,0.71,3.21,1.81L644.42,159.92z"/>
				<path class="st3" d="M647.36,140.07c-0.65-0.66-1.37-0.97-2.15-0.93c-0.78,0.04-1.52,0.41-2.22,1.1
					c-0.5,0.49-0.86,1.09-1.09,1.79c-0.23,0.7-0.35,1.43-0.35,2.18l-1.17-1.18c0-0.74,0.13-1.44,0.39-2.1
					c0.26-0.66,0.7-1.3,1.32-1.92c1.02-1.01,2.11-1.55,3.27-1.61c1.16-0.06,2.21,0.38,3.13,1.32c0.8,0.81,1.32,1.73,1.56,2.76
					c0.24,1.04,0.23,2.31-0.03,3.83c-0.31,1.64-0.47,2.78-0.5,3.41c-0.02,0.63,0.04,1.16,0.19,1.59c0.15,0.43,0.43,0.84,0.83,1.24
					l5.73-5.7l1.13,1.14l-7.06,7.01l-0.49-0.5c-0.68-0.68-1.16-1.35-1.44-1.99c-0.28-0.64-0.43-1.4-0.44-2.26s0.11-2,0.36-3.43
					c0.26-1.53,0.32-2.72,0.18-3.55C648.39,141.46,648,140.72,647.36,140.07z"/>
				<path class="st3" d="M666.27,138.21l-1.24,1.23l-4.66-4.69c-1.76-1.77-3.29-2.01-4.58-0.72c-0.68,0.67-0.98,1.48-0.91,2.42
					c0.07,0.94,0.48,1.79,1.24,2.55l4.65,4.68l-1.24,1.23l-8.15-8.21l1.24-1.23l1.36,1.37l0.04-0.04c-0.42-1.65-0.04-3.07,1.14-4.24
					c0.9-0.89,1.88-1.29,2.93-1.18c1.05,0.11,2.12,0.71,3.21,1.81L666.27,138.21z"/>
				<path class="st3" d="M675.7,128.84l-1.23,1.22l-1.4-1.41l-0.03,0.03c0.45,1.67,0.04,3.15-1.24,4.42
					c-1.04,1.03-2.23,1.48-3.58,1.35c-1.35-0.13-2.64-0.82-3.89-2.08c-1.34-1.34-2.07-2.77-2.2-4.28c-0.13-1.51,0.37-2.82,1.5-3.94
					c1.13-1.12,2.4-1.49,3.81-1.12l0.03-0.03l-5.06-5.09l1.23-1.22L675.7,128.84z M669.56,125.12c-0.67-0.67-1.46-1.01-2.38-1.02
					c-0.92-0.01-1.71,0.31-2.37,0.97c-0.82,0.82-1.16,1.76-1.03,2.83c0.13,1.07,0.72,2.12,1.74,3.16c0.94,0.95,1.91,1.48,2.92,1.6
					c1.01,0.12,1.89-0.19,2.65-0.95c0.73-0.72,1.06-1.59,1.01-2.59c-0.05-1.01-0.49-1.92-1.31-2.75L669.56,125.12z"/>
				<path class="st3" d="M690.51,114.13l-1.51,1.5l-5.14-1.32c-1.1-0.28-1.92-0.37-2.47-0.25c-0.55,0.12-1.05,0.4-1.5,0.85
					l-1.13,1.13l4.89,4.92l-1.26,1.25l-11.42-11.49l3.38-3.36c1.05-1.05,2.16-1.61,3.32-1.69c1.16-0.08,2.21,0.36,3.16,1.32
					c1.58,1.59,1.75,3.46,0.53,5.62l0.03,0.03c0.46-0.18,0.89-0.25,1.32-0.24s1.17,0.15,2.24,0.4L690.51,114.13z M673.38,110.64
					l4.2,4.23l1.88-1.86c0.7-0.69,1.06-1.46,1.1-2.31s-0.29-1.61-0.96-2.29c-0.62-0.62-1.3-0.91-2.05-0.86
					c-0.75,0.05-1.51,0.45-2.27,1.21L673.38,110.64z"/>
				<path class="st3" d="M698.46,106.23l-1.23,1.22l-1.4-1.41l-0.03,0.03c0.45,1.67,0.04,3.15-1.24,4.42
					c-1.04,1.03-2.23,1.48-3.58,1.35c-1.35-0.13-2.64-0.82-3.89-2.08c-1.34-1.34-2.07-2.77-2.2-4.28c-0.13-1.51,0.37-2.82,1.5-3.94
					c1.13-1.12,2.4-1.49,3.81-1.12l0.03-0.03l-5.06-5.09l1.23-1.22L698.46,106.23z M692.32,102.51c-0.67-0.67-1.46-1.01-2.38-1.02
					s-1.71,0.31-2.37,0.97c-0.82,0.82-1.17,1.76-1.03,2.83s0.72,2.12,1.74,3.16c0.94,0.95,1.91,1.48,2.92,1.6
					c1.01,0.12,1.89-0.19,2.65-0.95c0.73-0.72,1.06-1.59,1.01-2.59s-0.49-1.92-1.31-2.75L692.32,102.51z"/>
				<path class="st3" d="M700.02,103.31c-0.24-0.24-0.36-0.53-0.36-0.88c0-0.34,0.12-0.63,0.35-0.85c0.24-0.24,0.53-0.35,0.86-0.35
					c0.34,0,0.63,0.13,0.87,0.37c0.24,0.24,0.35,0.53,0.35,0.87c0,0.34-0.12,0.63-0.35,0.86c-0.23,0.23-0.51,0.34-0.85,0.35
					C700.56,103.68,700.27,103.56,700.02,103.31z"/>
			</g>
		</g>
		<g id="XMLID_764_">
			<g>
				<path class="st3" d="M523.96,121.32l-1.54,1.53l-7.11-1.77c-0.2-0.05-0.47-0.15-0.82-0.29l-0.04,0.04
					c0.02,0.03,0.12,0.3,0.29,0.82l1.65,7.19l-1.56,1.56l-1.89-9.61l-9.23-2.18l1.56-1.55l6.44,1.71c0.43,0.11,0.83,0.24,1.21,0.38
					l0.03-0.03c-0.19-0.54-0.31-0.97-0.37-1.29l-1.54-6.5l1.46-1.45l2.04,9.29L523.96,121.32z"/>
				<path class="st3" d="M514.31,108.73c-0.23-0.23-0.35-0.51-0.35-0.82c0-0.32,0.1-0.58,0.33-0.81c0.23-0.23,0.51-0.35,0.83-0.34
					s0.6,0.12,0.82,0.35c0.22,0.22,0.33,0.49,0.33,0.81c0,0.32-0.11,0.6-0.35,0.83s-0.5,0.34-0.81,0.33
					C514.8,109.08,514.53,108.96,514.31,108.73z M525.57,119.72l-8.15-8.2l1.23-1.22l8.15,8.2L525.57,119.72z"/>
				<path class="st3" d="M536.24,109.11l-1.24,1.23l-4.66-4.69c-1.76-1.77-3.29-2.01-4.58-0.72c-0.68,0.67-0.98,1.48-0.91,2.42
					c0.07,0.94,0.48,1.79,1.24,2.55l4.65,4.68l-1.24,1.23l-8.15-8.2l1.24-1.23l1.36,1.37l0.04-0.04c-0.42-1.65-0.04-3.07,1.14-4.24
					c0.9-0.89,1.87-1.29,2.92-1.18c1.05,0.11,2.12,0.71,3.21,1.81L536.24,109.11z"/>
				<path class="st3" d="M542.39,102.83c-0.13,0.47-0.44,0.96-0.94,1.45c-1.41,1.4-2.9,1.31-4.48-0.28l-4.9-4.93l-1.42,1.42
					l-1.06-1.07l1.42-1.42L529,95.98l0.83-1.62l2.4,2.42l2.08-2.06l1.06,1.07l-2.08,2.06l4.68,4.71c0.56,0.56,1.05,0.86,1.47,0.91
					c0.42,0.05,0.86-0.14,1.3-0.58c0.34-0.34,0.54-0.71,0.58-1.12L542.39,102.83z"/>
				<path class="st3" d="M533,90.15c-0.23-0.23-0.35-0.51-0.35-0.82c0-0.32,0.1-0.58,0.33-0.81c0.23-0.23,0.51-0.35,0.83-0.34
					s0.6,0.12,0.82,0.35c0.22,0.22,0.33,0.49,0.33,0.81c0,0.32-0.11,0.6-0.35,0.83s-0.5,0.34-0.81,0.33
					C533.49,90.5,533.22,90.38,533,90.15z M544.26,101.14l-8.15-8.2l1.23-1.22l8.15,8.2L544.26,101.14z"/>
				<path class="st3" d="M540.81,89.42c0.29-1.32,0.95-2.5,1.99-3.53c1.9-1.89,3.86-1.83,5.87,0.19l5.33,5.36l-1.24,1.23l-1.28-1.29
					l-0.04,0.04c0.42,1.55,0.06,2.88-1.05,3.99c-0.81,0.81-1.66,1.23-2.56,1.26c-0.9,0.03-1.7-0.31-2.41-1.02
					c-1.51-1.52-1.49-3.3,0.05-5.35l2.12-2.82c-1.42-1.42-2.69-1.57-3.83-0.44c-0.99,0.99-1.55,2.21-1.66,3.67L540.81,89.42z
					 M546.87,90.79c-0.61,0.79-0.93,1.45-0.96,1.96s0.21,1.03,0.71,1.54c0.41,0.41,0.89,0.6,1.44,0.56
					c0.55-0.03,1.06-0.29,1.54-0.76c0.66-0.65,0.97-1.43,0.94-2.33c-0.03-0.9-0.4-1.7-1.09-2.41l-0.83-0.83L546.87,90.79z"/>
				<path class="st3" d="M563.24,82.26L562,83.49l-4.66-4.69c-1.76-1.77-3.29-2.01-4.58-0.72c-0.68,0.67-0.98,1.48-0.91,2.42
					c0.07,0.94,0.48,1.79,1.24,2.55l4.65,4.68l-1.24,1.23l-8.15-8.2l1.24-1.23l1.36,1.37l0.04-0.04c-0.42-1.65-0.04-3.07,1.14-4.24
					c0.9-0.89,1.87-1.29,2.92-1.18c1.05,0.11,2.12,0.71,3.21,1.81L563.24,82.26z"/>
				<path class="st3" d="M577.85,67.74l-1.51,1.5l-5.14-1.32c-1.1-0.28-1.92-0.37-2.47-0.25c-0.55,0.12-1.05,0.4-1.5,0.85
					l-1.13,1.13l4.89,4.92l-1.26,1.25L558.3,64.34l3.38-3.36c1.05-1.05,2.16-1.61,3.32-1.69s2.22,0.36,3.17,1.31
					c1.58,1.59,1.75,3.46,0.53,5.62l0.03,0.03c0.45-0.18,0.89-0.25,1.32-0.24c0.43,0.02,1.17,0.15,2.24,0.4L577.85,67.74z
					 M560.72,64.25l4.2,4.23l1.88-1.87c0.7-0.69,1.06-1.46,1.1-2.31c0.04-0.85-0.29-1.61-0.96-2.28c-0.62-0.62-1.3-0.91-2.05-0.86
					s-1.51,0.45-2.27,1.21L560.72,64.25z"/>
				<path class="st3" d="M585.8,59.83l-1.23,1.22l-1.4-1.41l-0.03,0.03c0.45,1.67,0.04,3.14-1.24,4.42
					c-1.04,1.03-2.23,1.48-3.58,1.35c-1.35-0.13-2.65-0.82-3.89-2.08c-1.34-1.34-2.07-2.77-2.2-4.28c-0.13-1.51,0.37-2.82,1.5-3.94
					c1.13-1.12,2.4-1.49,3.81-1.12l0.03-0.03l-5.06-5.09l1.23-1.22L585.8,59.83z M579.66,56.12c-0.67-0.67-1.46-1.01-2.38-1.02
					c-0.92-0.01-1.71,0.31-2.37,0.97c-0.82,0.82-1.16,1.76-1.03,2.83c0.14,1.07,0.72,2.12,1.74,3.16c0.94,0.94,1.91,1.48,2.92,1.6
					c1.01,0.12,1.89-0.19,2.65-0.95c0.73-0.72,1.06-1.59,1.01-2.59c-0.05-1.01-0.49-1.92-1.31-2.75L579.66,56.12z"/>
				<path class="st3" d="M587.36,56.92c-0.24-0.24-0.36-0.54-0.36-0.88c0-0.34,0.12-0.63,0.35-0.85c0.24-0.24,0.53-0.35,0.86-0.35
					s0.63,0.13,0.87,0.37c0.24,0.24,0.35,0.53,0.35,0.87c0,0.34-0.12,0.63-0.35,0.86c-0.23,0.23-0.51,0.34-0.85,0.35
					C587.89,57.28,587.6,57.16,587.36,56.92z"/>
			</g>
		</g>
		<g id="XMLID_762_">
			<g>
				<path class="st3" d="M307.24,167.57h-1.78v-7.44h-8.49v7.44h-1.78v-16.2h1.78v7.15h8.49v-7.15h1.78V167.57z"/>
				<path class="st3" d="M311.55,156.83c1.14-0.73,2.44-1.1,3.9-1.1c2.68,0,4.03,1.43,4.03,4.28v7.56h-1.75v-1.82h-0.06
					c-0.8,1.39-1.99,2.09-3.56,2.09c-1.14,0-2.04-0.3-2.7-0.92c-0.66-0.61-0.99-1.42-0.99-2.42c0-2.14,1.27-3.39,3.81-3.75l3.49-0.5
					c0-2.01-0.8-3.01-2.41-3.01c-1.4,0-2.66,0.48-3.77,1.43V156.83z M314.88,162.08c-0.99,0.13-1.68,0.37-2.07,0.72
					c-0.39,0.35-0.58,0.88-0.58,1.59c0,0.58,0.21,1.05,0.62,1.41c0.42,0.36,0.96,0.54,1.63,0.54c0.93,0,1.7-0.33,2.31-0.99
					c0.61-0.66,0.92-1.49,0.92-2.48v-1.17L314.88,162.08z"/>
				<path class="st3" d="M322.77,151.84c0-0.33,0.11-0.6,0.33-0.83c0.22-0.23,0.49-0.34,0.8-0.34c0.33,0,0.6,0.12,0.83,0.35
					c0.23,0.23,0.34,0.51,0.34,0.83c0,0.31-0.11,0.58-0.34,0.8c-0.23,0.23-0.5,0.35-0.83,0.35s-0.6-0.11-0.81-0.33
					C322.87,152.43,322.77,152.16,322.77,151.84z M323.01,167.57V156h1.74v11.57H323.01z"/>
				<path class="st3" d="M330.3,165.87v1.69h-1.75v-17.12h1.75v7.6h0.05c0.91-1.55,2.25-2.32,4.01-2.32c1.47,0,2.63,0.52,3.48,1.56
					s1.28,2.43,1.28,4.16c0,1.92-0.48,3.47-1.43,4.64c-0.95,1.17-2.24,1.75-3.86,1.75c-1.53,0-2.68-0.66-3.47-1.97H330.3z
					 M330.3,162.87c0,0.98,0.33,1.81,0.98,2.48c0.65,0.67,1.45,1,2.39,1c1.14,0,2.03-0.44,2.68-1.32c0.65-0.88,0.98-2.09,0.98-3.64
					c0-1.29-0.3-2.31-0.91-3.06c-0.61-0.75-1.43-1.12-2.46-1.12c-1.07,0-1.94,0.38-2.63,1.13c-0.69,0.76-1.03,1.71-1.03,2.87V162.87
					z"/>
				<path class="st3" d="M341.86,151.84c0-0.33,0.11-0.6,0.33-0.83c0.22-0.23,0.49-0.34,0.8-0.34c0.33,0,0.6,0.12,0.83,0.35
					c0.23,0.23,0.34,0.51,0.34,0.83c0,0.31-0.11,0.58-0.34,0.8c-0.23,0.23-0.5,0.35-0.83,0.35s-0.6-0.11-0.81-0.33
					C341.97,152.43,341.86,152.16,341.86,151.84z M342.1,167.57V156h1.74v11.57H342.1z"/>
				<path class="st3" d="M347.92,156.83c1.14-0.73,2.44-1.1,3.9-1.1c2.68,0,4.03,1.43,4.03,4.28v7.56h-1.75v-1.82h-0.06
					c-0.8,1.39-1.99,2.09-3.56,2.09c-1.14,0-2.04-0.3-2.7-0.92c-0.66-0.61-0.99-1.42-0.99-2.42c0-2.14,1.27-3.39,3.81-3.75l3.49-0.5
					c0-2.01-0.8-3.01-2.41-3.01c-1.4,0-2.66,0.48-3.77,1.43V156.83z M351.26,162.08c-0.99,0.13-1.68,0.37-2.07,0.72
					c-0.39,0.35-0.58,0.88-0.58,1.59c0,0.58,0.21,1.05,0.62,1.41c0.42,0.36,0.96,0.54,1.63,0.54c0.93,0,1.7-0.33,2.31-0.99
					c0.61-0.66,0.92-1.49,0.92-2.48v-1.17L351.26,162.08z"/>
				<path class="st3" d="M368.88,167.57h-1.75v-6.61c0-2.5-0.91-3.74-2.74-3.74c-0.96,0-1.74,0.36-2.35,1.07
					c-0.61,0.71-0.92,1.61-0.92,2.68v6.6h-1.75V156h1.75v1.93h0.05c0.86-1.47,2.13-2.21,3.8-2.21c1.27,0,2.24,0.41,2.91,1.22
					c0.67,0.82,1,2,1,3.55V167.57z"/>
				<path class="st3" d="M389.48,167.57h-2.13l-2.72-4.56c-0.58-0.98-1.1-1.62-1.58-1.92c-0.47-0.3-1.03-0.46-1.66-0.46h-1.6v6.93
					h-1.78v-16.2h4.77c1.48,0,2.67,0.38,3.54,1.15c0.88,0.76,1.32,1.82,1.32,3.16c0,2.24-1.2,3.69-3.59,4.36v0.04
					c0.45,0.2,0.81,0.45,1.1,0.76c0.29,0.31,0.72,0.93,1.3,1.86L389.48,167.57z M379.78,153.02v5.96h2.65
					c0.98,0,1.78-0.29,2.41-0.86s0.93-1.34,0.93-2.29c0-0.88-0.28-1.57-0.85-2.06c-0.56-0.5-1.39-0.74-2.47-0.74H379.78z"/>
				<path class="st3" d="M400.69,167.57h-1.74v-1.99h-0.04c-0.86,1.51-2.19,2.26-4,2.26c-1.46,0-2.63-0.52-3.49-1.56
					c-0.86-1.04-1.3-2.45-1.3-4.22c0-1.9,0.48-3.42,1.45-4.59c0.97-1.16,2.25-1.74,3.84-1.74c1.59,0,2.75,0.63,3.49,1.89h0.04v-7.17
					h1.74V167.57z M398.95,160.6c0-0.95-0.32-1.75-0.97-2.41c-0.64-0.66-1.43-0.98-2.37-0.98c-1.16,0-2.07,0.43-2.72,1.28
					s-0.99,2.01-0.99,3.47c0,1.33,0.32,2.4,0.95,3.19c0.63,0.8,1.48,1.2,2.55,1.2c1.02,0,1.87-0.38,2.55-1.13
					c0.67-0.75,1.01-1.71,1.01-2.87V160.6z"/>
				<path class="st3" d="M403.85,166.59c0-0.34,0.12-0.63,0.37-0.87c0.24-0.24,0.53-0.36,0.85-0.36c0.33,0,0.62,0.12,0.86,0.36
					c0.24,0.24,0.36,0.53,0.36,0.87c0,0.33-0.12,0.62-0.36,0.86c-0.24,0.24-0.52,0.36-0.85,0.36c-0.32,0-0.6-0.12-0.85-0.35
					C403.97,167.23,403.85,166.94,403.85,166.59z"/>
			</g>
		</g>
		<g id="XMLID_760_">
			<g>
				<path class="st3" d="M535.71,455.73v-1.78h7.44v-8.49h-7.44v-1.78h16.2v1.78h-7.15v8.49h7.15v1.78H535.71z"/>
				<path class="st3" d="M546.45,460.04c0.73,1.14,1.1,2.44,1.1,3.9c0,2.68-1.43,4.03-4.28,4.03h-7.56v-1.75h1.82v-0.06
					c-1.39-0.8-2.09-1.99-2.09-3.56c0-1.14,0.3-2.04,0.92-2.7c0.61-0.66,1.42-0.99,2.42-0.99c2.14,0,3.39,1.27,3.75,3.81l0.5,3.49
					c2.01,0,3.01-0.8,3.01-2.41c0-1.4-0.48-2.66-1.43-3.76H546.45z M541.2,463.38c-0.13-0.99-0.37-1.68-0.72-2.07
					c-0.35-0.39-0.88-0.58-1.6-0.58c-0.58,0-1.05,0.21-1.41,0.62c-0.36,0.41-0.54,0.96-0.54,1.63c0,0.93,0.33,1.7,0.99,2.31
					c0.66,0.61,1.49,0.92,2.48,0.92h1.17L541.2,463.38z"/>
				<path class="st3" d="M535.71,471.5h11.57v1.74h-11.57V471.5z M551.44,471.26c0.33,0,0.6,0.11,0.83,0.33s0.34,0.49,0.34,0.8
					c0,0.33-0.11,0.6-0.34,0.83c-0.23,0.23-0.51,0.34-0.83,0.34c-0.31,0-0.58-0.11-0.81-0.34c-0.23-0.23-0.34-0.5-0.34-0.83
					c0-0.33,0.11-0.6,0.33-0.81C550.85,471.37,551.12,471.26,551.44,471.26z"/>
				<path class="st3" d="M537.4,478.79h-1.69v-1.75h17.12v1.75h-7.6v0.05c1.55,0.91,2.32,2.25,2.32,4.01c0,1.47-0.52,2.63-1.56,3.48
					c-1.04,0.85-2.43,1.28-4.16,1.28c-1.92,0-3.47-0.48-4.64-1.43c-1.17-0.95-1.75-2.24-1.75-3.86c0-1.53,0.66-2.68,1.97-3.47
					V478.79z M540.4,478.79c-0.98,0-1.81,0.33-2.48,0.98c-0.67,0.65-1,1.45-1,2.39c0,1.14,0.44,2.03,1.32,2.68
					c0.88,0.65,2.09,0.98,3.64,0.98c1.29,0,2.31-0.3,3.06-0.91c0.75-0.61,1.13-1.43,1.13-2.46c0-1.07-0.38-1.94-1.13-2.63
					c-0.76-0.69-1.71-1.03-2.87-1.03H540.4z"/>
				<path class="st3" d="M535.71,490.6h11.57v1.74h-11.57V490.6z M551.44,490.36c0.33,0,0.6,0.11,0.83,0.33s0.34,0.49,0.34,0.8
					c0,0.33-0.11,0.6-0.34,0.83c-0.23,0.23-0.51,0.34-0.83,0.34c-0.31,0-0.58-0.11-0.81-0.34c-0.23-0.23-0.34-0.5-0.34-0.83
					c0-0.33,0.11-0.6,0.33-0.81C550.85,490.46,551.12,490.36,551.44,490.36z"/>
				<path class="st3" d="M546.45,496.41c0.73,1.14,1.1,2.44,1.1,3.9c0,2.68-1.43,4.03-4.28,4.03h-7.56v-1.75h1.82v-0.06
					c-1.39-0.8-2.09-1.99-2.09-3.56c0-1.14,0.3-2.04,0.92-2.7c0.61-0.66,1.42-0.99,2.42-0.99c2.14,0,3.39,1.27,3.75,3.81l0.5,3.49
					c2.01,0,3.01-0.8,3.01-2.41c0-1.4-0.48-2.66-1.43-3.76H546.45z M541.2,499.75c-0.13-0.99-0.37-1.68-0.72-2.07
					c-0.35-0.39-0.88-0.58-1.6-0.58c-0.58,0-1.05,0.21-1.41,0.62c-0.36,0.41-0.54,0.96-0.54,1.63c0,0.93,0.33,1.7,0.99,2.31
					c0.66,0.61,1.49,0.92,2.48,0.92h1.17L541.2,499.75z"/>
				<path class="st3" d="M535.71,517.37v-1.75h6.61c2.5,0,3.74-0.91,3.74-2.74c0-0.96-0.36-1.74-1.07-2.35s-1.61-0.92-2.68-0.92
					h-6.6v-1.75h11.57v1.75h-1.93v0.05c1.47,0.86,2.21,2.13,2.21,3.8c0,1.27-0.41,2.24-1.22,2.91c-0.82,0.67-2,1-3.54,1H535.71z"/>
				<path class="st3" d="M535.71,537.97v-2.13l4.56-2.72c0.98-0.58,1.62-1.11,1.92-1.58c0.3-0.47,0.46-1.03,0.46-1.66v-1.6h-6.93
					v-1.78h16.2v4.77c0,1.49-0.38,2.67-1.15,3.55c-0.76,0.88-1.82,1.32-3.16,1.32c-2.24,0-3.69-1.2-4.36-3.59h-0.04
					c-0.19,0.45-0.45,0.81-0.76,1.1c-0.31,0.29-0.93,0.72-1.86,1.3L535.71,537.97z M550.26,528.28h-5.96v2.65
					c0,0.98,0.29,1.79,0.86,2.41s1.34,0.93,2.3,0.93c0.88,0,1.57-0.28,2.06-0.85c0.49-0.57,0.74-1.39,0.74-2.47V528.28z"/>
				<path class="st3" d="M535.71,549.18v-1.74h1.99v-0.04c-1.51-0.86-2.26-2.19-2.26-3.99c0-1.46,0.52-2.63,1.56-3.49
					c1.04-0.86,2.45-1.3,4.22-1.3c1.9,0,3.42,0.48,4.58,1.45c1.16,0.97,1.74,2.25,1.74,3.84c0,1.59-0.63,2.75-1.89,3.49v0.04h7.17
					v1.74H535.71z M542.67,547.45c0.95,0,1.75-0.32,2.41-0.97c0.66-0.65,0.98-1.43,0.98-2.37c0-1.16-0.43-2.07-1.28-2.72
					c-0.85-0.66-2.01-0.99-3.47-0.99c-1.33,0-2.4,0.32-3.2,0.95c-0.8,0.63-1.2,1.48-1.2,2.55c0,1.03,0.38,1.87,1.12,2.55
					c0.75,0.67,1.71,1.01,2.87,1.01H542.67z"/>
				<path class="st3" d="M536.68,552.34c0.34,0,0.63,0.12,0.87,0.37s0.36,0.53,0.36,0.85c0,0.33-0.12,0.62-0.36,0.86
					c-0.24,0.24-0.53,0.36-0.87,0.36c-0.33,0-0.62-0.12-0.86-0.36c-0.24-0.24-0.36-0.52-0.36-0.85c0-0.32,0.12-0.6,0.35-0.85
					S536.33,552.34,536.68,552.34z"/>
			</g>
		</g>
		<g id="XMLID_758_">
			<g>
				<path class="st3" d="M738.3,626.34h-1.78v-7.44h-8.49v7.44h-1.78v-16.2h1.78v7.15h8.49v-7.15h1.78V626.34z"/>
				<path class="st3" d="M742.61,615.6c1.14-0.73,2.44-1.1,3.9-1.1c2.68,0,4.03,1.43,4.03,4.28v7.56h-1.75v-1.82h-0.06
					c-0.8,1.39-1.99,2.09-3.56,2.09c-1.14,0-2.04-0.3-2.7-0.92c-0.66-0.61-0.99-1.42-0.99-2.42c0-2.14,1.27-3.39,3.81-3.75l3.49-0.5
					c0-2.01-0.8-3.01-2.41-3.01c-1.4,0-2.66,0.48-3.76,1.43V615.6z M745.95,620.85c-0.99,0.13-1.68,0.37-2.07,0.72
					c-0.39,0.35-0.58,0.88-0.58,1.6c0,0.58,0.21,1.05,0.62,1.41c0.41,0.36,0.96,0.54,1.63,0.54c0.93,0,1.7-0.33,2.31-0.99
					c0.61-0.66,0.92-1.49,0.92-2.48v-1.17L745.95,620.85z"/>
				<path class="st3" d="M753.83,610.61c0-0.33,0.11-0.6,0.33-0.83s0.49-0.34,0.8-0.34c0.33,0,0.6,0.11,0.83,0.34
					c0.23,0.23,0.34,0.51,0.34,0.83c0,0.31-0.11,0.58-0.34,0.81c-0.23,0.23-0.5,0.34-0.83,0.34c-0.33,0-0.6-0.11-0.81-0.33
					C753.94,611.2,753.83,610.93,753.83,610.61z M754.07,626.34v-11.57h1.74v11.57H754.07z"/>
				<path class="st3" d="M761.36,624.65v1.69h-1.75v-17.12h1.75v7.6h0.05c0.91-1.55,2.25-2.32,4.01-2.32c1.47,0,2.63,0.52,3.48,1.56
					c0.85,1.04,1.28,2.43,1.28,4.16c0,1.92-0.48,3.47-1.43,4.64c-0.95,1.17-2.24,1.75-3.86,1.75c-1.53,0-2.68-0.66-3.47-1.97H761.36
					z M761.36,621.64c0,0.98,0.33,1.81,0.98,2.48c0.65,0.67,1.45,1,2.39,1c1.14,0,2.03-0.44,2.68-1.32
					c0.65-0.88,0.98-2.09,0.98-3.64c0-1.29-0.3-2.31-0.91-3.06c-0.61-0.75-1.43-1.13-2.46-1.13c-1.07,0-1.94,0.38-2.63,1.13
					c-0.69,0.76-1.03,1.71-1.03,2.87V621.64z"/>
				<path class="st3" d="M772.93,610.61c0-0.33,0.11-0.6,0.33-0.83s0.49-0.34,0.8-0.34c0.33,0,0.6,0.11,0.83,0.34
					c0.23,0.23,0.34,0.51,0.34,0.83c0,0.31-0.11,0.58-0.34,0.81c-0.23,0.23-0.5,0.34-0.83,0.34c-0.33,0-0.6-0.11-0.81-0.33
					C773.04,611.2,772.93,610.93,772.93,610.61z M773.17,626.34v-11.57h1.74v11.57H773.17z"/>
				<path class="st3" d="M778.98,615.6c1.14-0.73,2.44-1.1,3.9-1.1c2.68,0,4.03,1.43,4.03,4.28v7.56h-1.75v-1.82h-0.06
					c-0.8,1.39-1.99,2.09-3.56,2.09c-1.14,0-2.04-0.3-2.7-0.92c-0.66-0.61-0.99-1.42-0.99-2.42c0-2.14,1.27-3.39,3.81-3.75l3.49-0.5
					c0-2.01-0.8-3.01-2.41-3.01c-1.4,0-2.66,0.48-3.76,1.43V615.6z M782.32,620.85c-0.99,0.13-1.68,0.37-2.07,0.72
					c-0.39,0.35-0.58,0.88-0.58,1.6c0,0.58,0.21,1.05,0.62,1.41c0.41,0.36,0.96,0.54,1.63,0.54c0.93,0,1.7-0.33,2.31-0.99
					c0.61-0.66,0.92-1.49,0.92-2.48v-1.17L782.32,620.85z"/>
				<path class="st3" d="M799.94,626.34h-1.75v-6.61c0-2.5-0.91-3.74-2.74-3.74c-0.96,0-1.74,0.36-2.35,1.07s-0.92,1.61-0.92,2.68
					v6.6h-1.75v-11.57h1.75v1.93h0.05c0.86-1.47,2.13-2.21,3.8-2.21c1.27,0,2.24,0.41,2.91,1.22c0.67,0.82,1,2,1,3.54V626.34z"/>
				<path class="st3" d="M820.54,626.34h-2.13l-2.72-4.56c-0.58-0.98-1.11-1.62-1.58-1.92c-0.47-0.3-1.03-0.46-1.66-0.46h-1.6v6.93
					h-1.78v-16.2h4.77c1.49,0,2.67,0.38,3.55,1.15c0.88,0.76,1.32,1.82,1.32,3.16c0,2.24-1.2,3.69-3.59,4.36v0.04
					c0.45,0.19,0.81,0.45,1.1,0.76c0.29,0.31,0.72,0.93,1.3,1.86L820.54,626.34z M810.85,611.79v5.96h2.65
					c0.98,0,1.79-0.29,2.41-0.86s0.93-1.34,0.93-2.3c0-0.88-0.28-1.57-0.85-2.06c-0.57-0.49-1.39-0.74-2.47-0.74H810.85z"/>
				<path class="st3" d="M831.75,626.34h-1.74v-1.99h-0.04c-0.86,1.51-2.19,2.26-3.99,2.26c-1.46,0-2.63-0.52-3.49-1.56
					c-0.86-1.04-1.3-2.45-1.3-4.22c0-1.9,0.48-3.42,1.45-4.58c0.97-1.16,2.25-1.74,3.84-1.74c1.59,0,2.75,0.63,3.49,1.89h0.04v-7.17
					h1.74V626.34z M830.02,619.37c0-0.95-0.32-1.75-0.97-2.41c-0.65-0.66-1.43-0.98-2.37-0.98c-1.16,0-2.07,0.43-2.72,1.28
					c-0.66,0.85-0.99,2.01-0.99,3.47c0,1.33,0.32,2.4,0.95,3.2c0.63,0.8,1.48,1.2,2.55,1.2c1.03,0,1.87-0.38,2.55-1.12
					c0.67-0.75,1.01-1.71,1.01-2.87V619.37z"/>
				<path class="st3" d="M834.91,625.37c0-0.34,0.12-0.63,0.37-0.87s0.53-0.36,0.85-0.36c0.33,0,0.62,0.12,0.86,0.36
					c0.24,0.24,0.36,0.53,0.36,0.87c0,0.33-0.12,0.62-0.36,0.86c-0.24,0.24-0.52,0.36-0.85,0.36c-0.32,0-0.6-0.12-0.85-0.35
					S834.91,625.72,834.91,625.37z"/>
			</g>
		</g>
	</g>
	<g id="XMLID_754_">
		<polyline id="XMLID_756_" class="st4" points="134.05,390.25 134.05,279.81 235.85,190.08 446.25,190.08 507.97,258.28 
			507.69,572.25 521.69,572.25 522.17,253.18 452.94,175.88 230.52,175.88 119.86,273.36 119.86,389.71 		"/>
		<polyline id="XMLID_755_" class="st4" points="74.46,432.52 40.29,432.52 40.29,446.72 74.69,446.72 		"/>
	</g>
	<g id="XMLID_750_">
		<path id="XMLID_753_" class="st5" d="M646.03,376.25H515.66c-0.91,0-1.66-0.75-1.66-1.66v-62.92c0-0.91,0.75-1.66,1.66-1.66
			h130.37c0.91,0,1.66,0.75,1.66,1.66v62.92C647.69,375.5,646.94,376.25,646.03,376.25z"/>
		<g id="XMLID_751_">
			<g>
				<path class="st3" d="M550.12,344.78h-9.4v-17.23h2.67v14.94h6.73V344.78z"/>
				<path class="st3" d="M565.72,344.78h-3.13l-2.8-4.69c-0.55-0.92-1.05-1.55-1.5-1.88c-0.45-0.33-0.96-0.5-1.54-0.5h-1.45v7.07
					h-2.67v-17.23h5.48c1.79,0,3.17,0.4,4.14,1.21c0.98,0.8,1.46,1.94,1.46,3.42c0,1.16-0.34,2.15-1.01,2.97
					c-0.67,0.82-1.62,1.4-2.83,1.72v0.04c0.77,0.27,1.63,1.17,2.59,2.71L565.72,344.78z M555.31,329.76v5.74h2.37
					c0.99,0,1.77-0.29,2.36-0.86c0.59-0.57,0.88-1.3,0.88-2.18c0-1.8-1.07-2.7-3.2-2.7H555.31z"/>
				<path class="st3" d="M578.05,329.85h-4.95v14.94h-2.68v-14.94h-4.94v-2.29h12.57V329.85z"/>
				<path class="st3" d="M597.32,344.15c-1.19,0.6-2.69,0.9-4.5,0.9c-2.33,0-4.19-0.73-5.59-2.2c-1.4-1.46-2.1-3.4-2.1-5.8
					c0-2.51,0.78-4.57,2.33-6.19c1.55-1.62,3.56-2.43,6.01-2.43c1.54,0,2.83,0.21,3.85,0.64v2.52c-1.14-0.64-2.39-0.96-3.77-0.96
					c-1.75,0-3.16,0.58-4.22,1.73c-1.06,1.15-1.59,2.66-1.59,4.52c0,1.78,0.5,3.22,1.49,4.32c0.99,1.1,2.32,1.65,3.99,1.65
					c1.55,0,2.92-0.36,4.09-1.07V344.15z"/>
				<path class="st3" d="M609.83,344.78h-9.47v-2.04h3.52v-11.62l-3.61,0.98v-2.14l6.05-1.59v14.37h3.51V344.78z"/>
				<path class="st3" d="M611.98,337.05c0-2.83,0.48-4.97,1.45-6.43c0.97-1.46,2.37-2.19,4.2-2.19c3.5,0,5.24,2.75,5.24,8.23
					c0,2.69-0.48,4.76-1.43,6.21c-0.96,1.45-2.34,2.18-4.15,2.18c-1.75,0-3.07-0.68-3.97-2.06
					C612.43,341.63,611.98,339.64,611.98,337.05z M614.46,336.95c0,4.1,0.99,6.15,2.98,6.15c1.96,0,2.94-2.09,2.94-6.27
					c0-4.29-0.96-6.44-2.88-6.44C615.48,330.39,614.46,332.58,614.46,336.95z"/>
				<path class="st3" d="M555.68,363.07c-1.06,0.6-2.28,0.9-3.66,0.9c-1.58,0-2.85-0.48-3.79-1.44s-1.42-2.26-1.42-3.88
					c0-1.65,0.53-2.99,1.58-4.04c1.05-1.05,2.4-1.58,4.06-1.58c1.14,0,2.11,0.18,2.93,0.53v1.68c-0.83-0.51-1.84-0.77-3.03-0.77
					c-1.12,0-2.03,0.38-2.74,1.13s-1.07,1.74-1.07,2.96c0,1.26,0.33,2.24,0.98,2.94c0.65,0.71,1.54,1.06,2.66,1.06
					c0.74,0,1.36-0.14,1.87-0.41v-2.65h-2.25v-1.39h3.9V363.07z"/>
				<path class="st3" d="M557.79,363.78v-11.19h1.61v11.19H557.79z"/>
				<path class="st3" d="M561.18,360.07c0-1.24,0.35-2.23,1.06-2.95c0.71-0.72,1.67-1.08,2.89-1.08c1.15,0,2.06,0.35,2.73,1.05
					s1,1.65,1,2.86c0,1.22-0.35,2.19-1.06,2.92s-1.65,1.09-2.83,1.09c-1.16,0-2.08-0.35-2.77-1.06
					C561.52,362.2,561.18,361.25,561.18,360.07z M562.81,360.04c0,0.83,0.2,1.48,0.61,1.94c0.4,0.46,0.95,0.7,1.64,0.7
					c1.45,0,2.18-0.9,2.18-2.69c0-0.87-0.19-1.53-0.56-1.98c-0.37-0.45-0.91-0.68-1.62-0.68s-1.26,0.24-1.65,0.72
					S562.81,359.2,562.81,360.04z"/>
				<path class="st3" d="M574.95,357.75c-0.24-0.16-0.55-0.23-0.94-0.23c-0.52,0-0.94,0.23-1.26,0.68
					c-0.32,0.46-0.48,1.06-0.48,1.81v3.77h-1.61v-7.56h1.61v1.5h0.03c0.37-1.09,1.03-1.63,1.98-1.63c0.28,0,0.51,0.03,0.67,0.1
					V357.75z"/>
				<path class="st3" d="M583.22,356.22l-3.33,8.56c-0.66,1.7-1.62,2.56-2.87,2.56c-0.41,0-0.74-0.04-1-0.13v-1.35
					c0.26,0.12,0.54,0.18,0.82,0.18c0.6,0,1.05-0.33,1.33-1l0.53-1.26l-2.99-7.55h1.78l1.82,5.39c0.04,0.11,0.1,0.36,0.18,0.72h0.03
					c0.02-0.15,0.08-0.38,0.18-0.71l1.89-5.41H583.22z"/>
				<path class="st3" d="M589.72,359.91v3.88h-1.64v-10.59h3.2c1.2,0,2.12,0.28,2.75,0.83c0.64,0.55,0.96,1.36,0.96,2.41
					c0,1.06-0.38,1.92-1.14,2.56c-0.76,0.65-1.7,0.95-2.82,0.91H589.72z M589.72,354.57v3.97h1.18c1.58,0,2.37-0.68,2.37-2.04
					c0-1.29-0.76-1.93-2.28-1.93H589.72z"/>
				<path class="st3" d="M596.48,353.62c0-0.27,0.09-0.49,0.28-0.67c0.19-0.18,0.42-0.26,0.7-0.26c0.28,0,0.51,0.09,0.7,0.26
					c0.19,0.17,0.29,0.4,0.29,0.67s-0.1,0.49-0.29,0.67c-0.19,0.18-0.43,0.26-0.7,0.26s-0.51-0.09-0.7-0.27
					S596.48,353.89,596.48,353.62z M596.64,363.78v-7.56h1.61v7.56H596.64z"/>
				<path class="st3" d="M606.83,360.43h-5.2c0.07,1.53,0.85,2.29,2.33,2.29c0.84,0,1.6-0.25,2.29-0.75v1.33
					c-0.67,0.44-1.56,0.66-2.66,0.66c-1.12,0-2-0.34-2.63-1.03s-0.95-1.64-0.95-2.87c0-1.17,0.34-2.13,1.02-2.88
					c0.68-0.76,1.53-1.13,2.56-1.13c1.02,0,1.82,0.32,2.38,0.97c0.57,0.65,0.85,1.53,0.85,2.66V360.43z M605.28,359.26
					c0-0.65-0.15-1.14-0.44-1.49s-0.71-0.52-1.24-0.52c-0.49,0-0.91,0.18-1.27,0.55c-0.36,0.37-0.58,0.85-0.67,1.46H605.28z"/>
				<path class="st3" d="M612.8,357.75c-0.24-0.16-0.55-0.23-0.94-0.23c-0.52,0-0.94,0.23-1.26,0.68c-0.32,0.46-0.48,1.06-0.48,1.81
					v3.77h-1.61v-7.56h1.61v1.5h0.03c0.37-1.09,1.03-1.63,1.98-1.63c0.28,0,0.51,0.03,0.67,0.1V357.75z"/>
			</g>
		</g>
	</g>
	<g id="XMLID_746_">
		<path id="XMLID_749_" class="st5" d="M132.03,339.25H1.66c-0.91,0-1.66-0.75-1.66-1.66v-62.92c0-0.91,0.75-1.66,1.66-1.66h130.37
			c0.91,0,1.66,0.75,1.66,1.66v62.92C133.69,338.5,132.94,339.25,132.03,339.25z"/>
		<g id="XMLID_747_">
			<g>
				<path class="st3" d="M36.12,306.78h-9.4v-17.23h2.67v14.94h6.73V306.78z"/>
				<path class="st3" d="M51.72,306.78H48.6l-2.8-4.69c-0.55-0.92-1.05-1.55-1.5-1.88c-0.45-0.33-0.96-0.5-1.54-0.5h-1.45v7.07
					h-2.67v-17.23h5.48c1.79,0,3.17,0.4,4.14,1.21c0.98,0.8,1.46,1.94,1.46,3.42c0,1.16-0.34,2.15-1.01,2.97
					c-0.67,0.82-1.62,1.4-2.83,1.72v0.04c0.77,0.27,1.63,1.17,2.59,2.71L51.72,306.78z M41.31,291.76v5.74h2.37
					c0.99,0,1.77-0.29,2.36-0.86c0.59-0.57,0.88-1.3,0.88-2.18c0-1.8-1.07-2.7-3.2-2.7H41.31z"/>
				<path class="st3" d="M64.05,291.85H59.1v14.94h-2.68v-14.94h-4.94v-2.29h12.57V291.85z"/>
				<path class="st3" d="M83.32,306.15c-1.19,0.6-2.69,0.9-4.5,0.9c-2.33,0-4.19-0.73-5.59-2.2c-1.4-1.46-2.1-3.4-2.1-5.8
					c0-2.51,0.78-4.57,2.33-6.19c1.55-1.62,3.56-2.43,6.01-2.43c1.54,0,2.83,0.21,3.85,0.64v2.52c-1.14-0.64-2.39-0.96-3.77-0.96
					c-1.75,0-3.16,0.58-4.22,1.73c-1.06,1.15-1.59,2.66-1.59,4.52c0,1.78,0.5,3.22,1.49,4.32c0.99,1.1,2.32,1.65,3.99,1.65
					c1.55,0,2.92-0.36,4.09-1.07V306.15z"/>
				<path class="st3" d="M95.83,306.78h-9.47v-2.04h3.52v-11.62l-3.61,0.98v-2.14l6.05-1.59v14.37h3.51V306.78z"/>
				<path class="st3" d="M108.5,306.78h-9.47v-2.04h3.52v-11.62l-3.61,0.98v-2.14l6.05-1.59v14.37h3.51V306.78z"/>
				<path class="st3" d="M41.78,325.78h-5.78v-10.59h1.64v9.18h4.14V325.78z"/>
				<path class="st3" d="M42.66,322.07c0-1.24,0.35-2.23,1.06-2.95c0.71-0.72,1.67-1.08,2.89-1.08c1.15,0,2.06,0.35,2.73,1.05
					s1,1.65,1,2.86c0,1.22-0.35,2.19-1.06,2.92s-1.65,1.09-2.83,1.09c-1.16,0-2.08-0.35-2.77-1.06
					C43,324.2,42.66,323.25,42.66,322.07z M44.29,322.04c0,0.83,0.2,1.48,0.61,1.94c0.4,0.46,0.95,0.7,1.64,0.7
					c1.45,0,2.18-0.9,2.18-2.69c0-0.87-0.19-1.53-0.56-1.98c-0.37-0.45-0.91-0.68-1.62-0.68s-1.26,0.24-1.65,0.72
					S44.29,321.2,44.29,322.04z"/>
				<path class="st3" d="M58.53,318.22l-2.95,7.56h-1.7l-2.8-7.56h1.74l1.7,5.2c0.15,0.45,0.23,0.83,0.27,1.16h0.03
					c0.04-0.37,0.12-0.75,0.25-1.12l1.77-5.24H58.53z"/>
				<path class="st3" d="M65.95,322.43h-5.2c0.07,1.53,0.85,2.29,2.33,2.29c0.84,0,1.6-0.25,2.29-0.75v1.33
					c-0.67,0.44-1.56,0.66-2.66,0.66c-1.12,0-2-0.34-2.63-1.03s-0.95-1.64-0.95-2.87c0-1.17,0.34-2.13,1.02-2.88
					c0.68-0.76,1.53-1.13,2.56-1.13c1.02,0,1.82,0.32,2.38,0.97c0.57,0.65,0.85,1.53,0.85,2.66V322.43z M64.39,321.26
					c0-0.65-0.15-1.14-0.44-1.49c-0.29-0.35-0.71-0.52-1.24-0.52c-0.49,0-0.91,0.18-1.27,0.55c-0.36,0.37-0.58,0.85-0.67,1.46H64.39
					z"/>
				<path class="st3" d="M72.96,321.91v3.88h-1.64v-10.59h3.2c1.2,0,2.12,0.28,2.75,0.83c0.64,0.55,0.96,1.36,0.96,2.41
					c0,1.06-0.38,1.92-1.14,2.56c-0.76,0.65-1.7,0.95-2.82,0.91H72.96z M72.96,316.57v3.97h1.18c1.58,0,2.37-0.68,2.37-2.04
					c0-1.29-0.76-1.93-2.28-1.93H72.96z"/>
				<path class="st3" d="M79.71,315.62c0-0.27,0.09-0.49,0.28-0.67c0.19-0.18,0.42-0.26,0.7-0.26c0.28,0,0.51,0.09,0.7,0.26
					c0.19,0.17,0.29,0.4,0.29,0.67s-0.1,0.49-0.29,0.67c-0.19,0.18-0.43,0.26-0.7,0.26s-0.51-0.09-0.7-0.27
					S79.71,315.89,79.71,315.62z M79.87,325.78v-7.56h1.61v7.56H79.87z"/>
				<path class="st3" d="M90.07,322.43h-5.2c0.07,1.53,0.85,2.29,2.33,2.29c0.84,0,1.6-0.25,2.29-0.75v1.33
					c-0.67,0.44-1.56,0.66-2.66,0.66c-1.12,0-2-0.34-2.63-1.03s-0.95-1.64-0.95-2.87c0-1.17,0.34-2.13,1.02-2.88
					c0.68-0.76,1.53-1.13,2.56-1.13c1.02,0,1.82,0.32,2.38,0.97c0.57,0.65,0.85,1.53,0.85,2.66V322.43z M88.51,321.26
					c0-0.65-0.15-1.14-0.44-1.49s-0.71-0.52-1.24-0.52c-0.49,0-0.91,0.18-1.27,0.55c-0.36,0.37-0.58,0.85-0.67,1.46H88.51z"/>
				<path class="st3" d="M96.04,319.75c-0.24-0.16-0.55-0.23-0.94-0.23c-0.52,0-0.94,0.23-1.26,0.68c-0.32,0.46-0.48,1.06-0.48,1.81
					v3.77h-1.61v-7.56h1.61v1.5h0.03c0.37-1.09,1.03-1.63,1.98-1.63c0.28,0,0.51,0.03,0.67,0.1V319.75z"/>
			</g>
		</g>
	</g>
	<g id="XMLID_743_">
		<path id="XMLID_745_" class="st6" d="M422.14,363l39.89-3.2c0.24-0.02,0.49,0.03,0.71,0.14l33.34,16.98
			c0.5,0.25,0.78,0.79,0.71,1.34l-2.59,20.79c-0.08,0.64-0.6,1.13-1.24,1.16l-38.26,2.04c-0.22,0.01-0.45-0.03-0.65-0.13
			l-36.02-17.36c-0.54-0.26-0.84-0.85-0.73-1.44l3.65-19.26C421.05,363.49,421.54,363.05,422.14,363z"/>
		<g id="XMLID_744_">
			<path class="st3" d="M441.96,379.93c0.22-3.55,1-6.21,2.33-7.98c1.33-1.76,3.15-2.57,5.46-2.43c4.4,0.28,6.38,3.87,5.95,10.78
				c-0.21,3.38-0.98,5.95-2.29,7.7c-1.32,1.75-3.12,2.56-5.4,2.42c-2.2-0.14-3.81-1.1-4.83-2.9
				C442.16,385.72,441.76,383.19,441.96,379.93z M445.09,380c-0.32,5.16,0.77,7.82,3.27,7.97c2.47,0.15,3.86-2.4,4.19-7.66
				c0.34-5.4-0.7-8.18-3.11-8.33C446.89,371.82,445.44,374.5,445.09,380z"/>
			<path class="st3" d="M470.53,391.49l-11.92-0.75l0.16-2.56l4.43,0.28l0.92-14.62l-4.63,0.94l0.17-2.69l7.74-1.52l-1.13,18.09
				l4.42,0.28L470.53,391.49z"/>
		</g>
	</g>
	<path id="XMLID_742_" class="st2" d="M235.17,468.56H76.07c-1.11,0-2.02-0.91-2.02-2.02v-74.73c0-1.11,0.91-2.02,2.02-2.02h57.7
		h101.4c1.11,0,2.02,0.91,2.02,2.02v74.73C237.19,467.65,236.28,468.56,235.17,468.56z"/>
	<g id="XMLID_738_">
		<g>
			<g id="XMLID_791_">
				<path class="st3" d="M118.81,423.76h-2.71l-6.82-7.97c-0.23-0.28-0.39-0.47-0.46-0.58h-0.06v8.56h-1.91v-17.4h1.91v8.18h0.06
					c0.1-0.16,0.26-0.36,0.46-0.57l6.61-7.6h2.38l-7.55,8.34L118.81,423.76z"/>
				<path class="st3" d="M121.18,412.23c1.22-0.79,2.62-1.18,4.19-1.18c2.88,0,4.32,1.53,4.32,4.59v8.12h-1.88v-1.95h-0.07
					c-0.86,1.5-2.13,2.25-3.82,2.25c-1.23,0-2.2-0.33-2.9-0.98c-0.71-0.66-1.06-1.52-1.06-2.6c0-2.3,1.36-3.64,4.09-4.03l3.75-0.54
					c0-2.16-0.86-3.23-2.58-3.23c-1.5,0-2.85,0.51-4.04,1.54V412.23z M124.76,417.86c-1.06,0.14-1.8,0.4-2.22,0.77
					c-0.42,0.37-0.62,0.94-0.62,1.71c0,0.62,0.22,1.13,0.67,1.52c0.45,0.39,1.03,0.58,1.75,0.58c1,0,1.82-0.36,2.48-1.07
					s0.99-1.6,0.99-2.66v-1.26L124.76,417.86z"/>
				<path class="st3" d="M132.63,417.71c0-2.07,0.56-3.69,1.69-4.88c1.13-1.19,2.66-1.78,4.6-1.78c1.83,0,3.26,0.57,4.3,1.72
					c1.04,1.14,1.56,2.73,1.56,4.75c0,1.96-0.56,3.54-1.68,4.74s-2.61,1.8-4.46,1.8c-1.79,0-3.24-0.58-4.34-1.73
					C133.18,421.17,132.63,419.63,132.63,417.71z M134.54,417.63c0,1.47,0.38,2.64,1.15,3.51c0.77,0.88,1.79,1.31,3.07,1.31
					c1.3,0,2.31-0.43,3.03-1.28c0.72-0.85,1.07-2.05,1.07-3.59c0-1.58-0.35-2.8-1.06-3.66c-0.71-0.86-1.72-1.29-3.04-1.29
					c-1.29,0-2.31,0.44-3.08,1.33C134.92,414.86,134.54,416.08,134.54,417.63z"/>
				<path class="st3" d="M158.19,423.76h-1.86v-7.17c0-2.64-0.98-3.95-2.95-3.95c-1,0-1.83,0.38-2.5,1.15s-1.01,1.74-1.01,2.94v7.03
					h-1.88v-18.38h1.88v8.04h0.06c0.95-1.58,2.31-2.37,4.09-2.37c2.79,0,4.19,1.69,4.19,5.06V423.76z"/>
				<path class="st3" d="M161.21,421.23c1.09,0.8,2.28,1.2,3.57,1.2c1.77,0,2.65-0.59,2.65-1.79c0-0.52-0.19-0.95-0.58-1.28
					c-0.39-0.33-1.14-0.71-2.27-1.13c-1.35-0.53-2.24-1.07-2.68-1.61s-0.66-1.21-0.66-2.01c0-1.06,0.46-1.92,1.36-2.58
					c0.91-0.66,2.03-0.99,3.35-0.99c1.06,0,2.01,0.19,2.85,0.56v1.95c-0.91-0.6-1.97-0.9-3.16-0.9c-0.73,0-1.33,0.17-1.79,0.49
					c-0.46,0.33-0.69,0.76-0.69,1.3s0.16,0.95,0.48,1.24c0.32,0.28,1.03,0.66,2.15,1.11c1.42,0.54,2.36,1.08,2.85,1.63
					c0.48,0.55,0.72,1.23,0.72,2.03c0,1.11-0.46,1.98-1.36,2.62c-0.91,0.64-2.08,0.96-3.5,0.96c-1.28,0-2.38-0.25-3.29-0.75V421.23z
					"/>
				<path class="st3" d="M172.23,406.87c0-0.35,0.12-0.65,0.35-0.89c0.24-0.24,0.52-0.37,0.86-0.37c0.35,0,0.65,0.12,0.89,0.37
					c0.24,0.25,0.36,0.54,0.36,0.89c0,0.33-0.12,0.62-0.36,0.87c-0.24,0.25-0.54,0.37-0.89,0.37s-0.64-0.12-0.87-0.36
					C172.35,407.51,172.23,407.22,172.23,406.87z M172.49,423.76v-12.42h1.86v12.42H172.49z"/>
				<path class="st3" d="M188.38,423.76h-1.88v-1.96h-0.04c-0.82,1.5-2.09,2.26-3.83,2.26c-2.96,0-4.45-1.76-4.45-5.29v-7.42h1.85
					v7.11c0,2.67,1.02,4.01,3.05,4.01c1,0,1.82-0.37,2.46-1.11c0.64-0.74,0.95-1.69,0.95-2.85v-7.15h1.88V423.76z"/>
				<path class="st3" d="M202.64,423.76h-1.88v-7.1c0-2.68-0.98-4.02-2.94-4.02c-1.03,0-1.87,0.38-2.53,1.15s-0.99,1.73-0.99,2.88
					v7.09h-1.88v-12.42h1.88v2.08h0.06c0.93-1.58,2.29-2.37,4.08-2.37c1.36,0,2.4,0.44,3.12,1.31c0.72,0.88,1.08,2.14,1.08,3.81
					V423.76z"/>
				<path class="st3" d="M216.93,422.78c0,4.55-2.16,6.83-6.47,6.83c-1.53,0-2.87-0.3-4.03-0.89v-1.91c1.4,0.78,2.74,1.17,4.02,1.17
					c3.08,0,4.62-1.65,4.62-4.95v-1.38h-0.04c-0.97,1.6-2.4,2.4-4.29,2.4c-1.56,0-2.8-0.56-3.74-1.67c-0.94-1.12-1.4-2.59-1.4-4.43
					c0-2.12,0.51-3.8,1.54-5.04s2.41-1.86,4.14-1.86c1.68,0,2.94,0.68,3.75,2.03h0.04v-1.74h1.86V422.78z M215.06,416.28
					c0-1.01-0.35-1.87-1.04-2.58c-0.7-0.71-1.53-1.06-2.52-1.06c-1.24,0-2.22,0.46-2.94,1.37c-0.71,0.91-1.07,2.18-1.07,3.81
					c0,1.41,0.34,2.53,1.03,3.38c0.69,0.84,1.58,1.26,2.68,1.26c1.12,0,2.04-0.4,2.76-1.21s1.09-1.83,1.09-3.08V416.28z"/>
				<path class="st3" d="M103.09,451.74v-11.75c0-0.89,0.06-2.01,0.18-3.36h-0.06c-0.21,0.82-0.38,1.37-0.52,1.64l-6.06,13.46h-0.85
					l-6.05-13.38c-0.16-0.35-0.33-0.93-0.51-1.73h-0.06c0.07,0.61,0.1,1.72,0.1,3.32v11.78H87.4v-17.4h2.49l5.45,12.25
					c0.43,0.97,0.7,1.65,0.81,2.06h0.08c0.22-0.61,0.51-1.31,0.84-2.11l5.57-12.2H105v17.4H103.09z"/>
				<path class="st3" d="M119.27,451.74h-1.88v-1.96h-0.04c-0.82,1.5-2.09,2.26-3.83,2.26c-2.96,0-4.45-1.76-4.45-5.29v-7.42h1.85
					v7.11c0,2.67,1.02,4.01,3.05,4.01c1,0,1.82-0.37,2.46-1.11c0.64-0.74,0.95-1.69,0.95-2.85v-7.15h1.88V451.74z"/>
				<path class="st3" d="M122.55,449.21c1.09,0.8,2.28,1.2,3.57,1.2c1.77,0,2.65-0.59,2.65-1.79c0-0.52-0.19-0.95-0.58-1.28
					c-0.39-0.33-1.14-0.71-2.27-1.13c-1.35-0.53-2.24-1.07-2.68-1.61s-0.66-1.21-0.66-2.01c0-1.06,0.46-1.92,1.36-2.58
					c0.91-0.66,2.03-0.99,3.35-0.99c1.06,0,2.01,0.19,2.85,0.56v1.95c-0.91-0.6-1.97-0.9-3.16-0.9c-0.73,0-1.33,0.17-1.79,0.49
					c-0.46,0.33-0.69,0.76-0.69,1.3s0.16,0.95,0.48,1.24c0.32,0.28,1.03,0.66,2.15,1.11c1.42,0.54,2.36,1.08,2.85,1.63
					c0.48,0.55,0.72,1.23,0.72,2.03c0,1.11-0.46,1.98-1.36,2.62c-0.91,0.64-2.08,0.96-3.5,0.96c-1.28,0-2.38-0.25-3.29-0.75V449.21z
					"/>
				<path class="st3" d="M133.57,434.85c0-0.35,0.12-0.65,0.35-0.89c0.24-0.24,0.52-0.37,0.86-0.37c0.35,0,0.65,0.12,0.89,0.37
					c0.24,0.25,0.36,0.54,0.36,0.89c0,0.33-0.12,0.62-0.36,0.87c-0.24,0.25-0.54,0.37-0.89,0.37s-0.64-0.12-0.87-0.36
					C133.68,435.49,133.57,435.19,133.57,434.85z M133.83,451.74v-12.42h1.86v12.42H133.83z"/>
				<path class="st3" d="M148.19,451.16c-0.97,0.58-2.09,0.88-3.37,0.88c-1.76,0-3.18-0.57-4.26-1.72
					c-1.08-1.15-1.62-2.64-1.62-4.49c0-2.06,0.58-3.71,1.75-4.94c1.17-1.24,2.72-1.85,4.66-1.85c1.07,0,2.03,0.2,2.86,0.61v1.97
					c-0.93-0.65-1.92-0.98-2.98-0.98c-1.27,0-2.32,0.46-3.15,1.38c-0.83,0.92-1.24,2.14-1.24,3.66c0,1.48,0.39,2.65,1.16,3.5
					s1.81,1.28,3.11,1.28c1.1,0,2.13-0.36,3.08-1.09V451.16z"/>
				<path class="st3" d="M169.04,451c-1.28,0.69-2.88,1.03-4.8,1.03c-2.44,0-4.41-0.8-5.9-2.42c-1.49-1.61-2.24-3.69-2.24-6.24
					c0-2.68,0.82-4.9,2.46-6.67c1.64-1.77,3.77-2.65,6.39-2.65c1.65,0,3.01,0.24,4.09,0.72v2.07c-1.25-0.69-2.63-1.03-4.13-1.03
					c-2.07,0-3.72,0.7-4.95,2.09c-1.23,1.39-1.85,3.18-1.85,5.37c0,2.07,0.58,3.77,1.73,5.08c1.15,1.31,2.7,1.96,4.64,1.96
					c1.75,0,3.27-0.39,4.56-1.17V451z"/>
				<path class="st3" d="M182.24,445.99h-8.8c0.04,1.43,0.42,2.53,1.13,3.29s1.7,1.14,2.95,1.14c1.4,0,2.69-0.47,3.87-1.4v1.8
					c-1.09,0.81-2.52,1.21-4.31,1.21c-1.73,0-3.09-0.57-4.09-1.7c-1-1.13-1.5-2.72-1.5-4.77c0-1.89,0.54-3.45,1.62-4.68
					c1.08-1.24,2.44-1.85,4.06-1.85c1.59,0,2.84,0.52,3.73,1.57s1.34,2.51,1.34,4.38V445.99z M180.31,444.34
					c-0.01-1.17-0.29-2.08-0.84-2.72s-1.33-0.97-2.32-0.97c-0.91,0-1.7,0.33-2.39,0.98c-0.69,0.65-1.12,1.56-1.3,2.72H180.31z"/>
				<path class="st3" d="M195.51,451.74h-1.88v-7.1c0-2.68-0.98-4.02-2.94-4.02c-1.03,0-1.87,0.38-2.53,1.15s-0.99,1.73-0.99,2.88
					v7.09h-1.88v-12.42h1.88v2.08h0.06c0.93-1.58,2.29-2.37,4.08-2.37c1.36,0,2.4,0.44,3.12,1.31c0.72,0.88,1.08,2.14,1.08,3.81
					V451.74z"/>
				<path class="st3" d="M204.94,451.62c-0.46,0.26-1.06,0.39-1.81,0.39c-2.13,0-3.2-1.2-3.2-3.61v-7.47h-2.16v-1.62h2.16v-3.05
					l1.86-0.61v3.66h3.14v1.62h-3.14v7.13c0,0.85,0.14,1.45,0.43,1.81s0.76,0.54,1.43,0.54c0.52,0,0.95-0.14,1.29-0.42V451.62z"/>
				<path class="st3" d="M217.35,445.99h-8.8c0.04,1.43,0.42,2.53,1.13,3.29s1.7,1.14,2.95,1.14c1.4,0,2.69-0.47,3.87-1.4v1.8
					c-1.09,0.81-2.52,1.21-4.31,1.21c-1.73,0-3.09-0.57-4.09-1.7c-1-1.13-1.5-2.72-1.5-4.77c0-1.89,0.54-3.45,1.62-4.68
					c1.08-1.24,2.44-1.85,4.06-1.85c1.59,0,2.84,0.52,3.73,1.57s1.34,2.51,1.34,4.38V445.99z M215.42,444.34
					c-0.01-1.17-0.29-2.08-0.84-2.72s-1.33-0.97-2.32-0.97c-0.91,0-1.7,0.33-2.39,0.98c-0.69,0.65-1.12,1.56-1.3,2.72H215.42z"/>
				<path class="st3" d="M226.78,441.24c-0.34-0.26-0.84-0.39-1.49-0.39c-0.88,0-1.6,0.42-2.16,1.25c-0.56,0.83-0.85,1.93-0.85,3.29
					v6.36h-1.88v-12.42h1.88v2.57h0.06c0.28-0.88,0.72-1.57,1.3-2.05s1.23-0.73,1.93-0.73c0.53,0,0.94,0.06,1.21,0.17V441.24z"/>
			</g>
		</g>
	</g>
	<g id="XMLID_734_">
		<path id="XMLID_737_" class="st2" d="M401.58,289.42h-95.07c-1.16,0-2.11-0.95-2.11-2.11v-65.93c0-1.16,0.95-2.11,2.11-2.11h95.08
			c1.16,0,2.11,0.95,2.11,2.11v65.93C403.69,288.47,402.74,289.42,401.58,289.42z"/>
		<g id="XMLID_735_">
			<g id="XMLID_736_">
				<path class="st3" d="M338.8,249c-1.39,0.75-3.13,1.12-5.21,1.12c-2.65,0-4.79-0.87-6.41-2.62c-1.62-1.75-2.43-4.01-2.43-6.78
					c0-2.91,0.89-5.32,2.67-7.24c1.78-1.92,4.09-2.88,6.94-2.88c1.79,0,3.27,0.26,4.44,0.78v2.24c-1.36-0.75-2.85-1.12-4.49-1.12
					c-2.24,0-4.03,0.76-5.37,2.27s-2.01,3.45-2.01,5.83c0,2.25,0.63,4.09,1.88,5.51c1.25,1.42,2.93,2.13,5.04,2.13
					c1.9,0,3.55-0.42,4.95-1.27V249z"/>
				<path class="st3" d="M341.47,243.24c0-2.24,0.61-4.01,1.83-5.3c1.22-1.29,2.89-1.93,4.99-1.93c1.98,0,3.54,0.62,4.66,1.87
					c1.13,1.24,1.69,2.96,1.69,5.16c0,2.13-0.61,3.84-1.83,5.14c-1.22,1.3-2.83,1.95-4.84,1.95c-1.94,0-3.51-0.63-4.71-1.88
					C342.07,246.99,341.47,245.32,341.47,243.24z M343.54,243.15c0,1.59,0.42,2.86,1.25,3.82c0.83,0.95,1.94,1.43,3.33,1.43
					c1.41,0,2.51-0.46,3.29-1.39c0.78-0.93,1.16-2.23,1.16-3.9c0-1.71-0.38-3.04-1.15-3.97c-0.77-0.93-1.87-1.4-3.3-1.4
					c-1.4,0-2.51,0.48-3.34,1.44C343.96,240.15,343.54,241.47,343.54,243.15z"/>
				<path class="st3" d="M365.06,238.41c-0.37-0.28-0.91-0.43-1.62-0.43c-0.95,0-1.73,0.45-2.35,1.36c-0.61,0.91-0.92,2.1-0.92,3.57
					v6.9h-2.04v-13.48h2.04v2.79h0.06c0.31-0.96,0.78-1.7,1.41-2.23c0.63-0.53,1.33-0.79,2.1-0.79c0.58,0,1.02,0.06,1.32,0.18
					V238.41z"/>
				<path class="st3" d="M367.74,237.29c1.32-0.85,2.84-1.28,4.55-1.28c3.13,0,4.69,1.66,4.69,4.99v8.81h-2.04v-2.12h-0.07
					c-0.93,1.63-2.32,2.44-4.15,2.44c-1.33,0-2.38-0.36-3.15-1.07c-0.77-0.71-1.15-1.65-1.15-2.82c0-2.5,1.48-3.95,4.44-4.38
					l4.07-0.58c0-2.34-0.93-3.51-2.8-3.51c-1.63,0-3.1,0.56-4.39,1.67V237.29z M371.63,243.41c-1.15,0.15-1.96,0.43-2.41,0.83
					s-0.68,1.02-0.68,1.86c0,0.67,0.24,1.22,0.73,1.65c0.48,0.42,1.12,0.63,1.9,0.63c1.08,0,1.98-0.39,2.69-1.16
					c0.72-0.77,1.07-1.73,1.07-2.89v-1.37L371.63,243.41z"/>
				<path class="st3" d="M381.1,249.81v-19.96h2.02v19.96H381.1z"/>
				<path class="st3" d="M338.38,259.3l-11.16,16.58h10.88v1.9h-14.02v-0.5l11.03-16.48h-10.16v-1.9h13.42V259.3z"/>
				<path class="st3" d="M340.25,271.21c0-2.24,0.61-4.01,1.83-5.3c1.22-1.29,2.89-1.93,4.99-1.93c1.98,0,3.54,0.62,4.66,1.87
					s1.69,2.96,1.69,5.16c0,2.13-0.61,3.84-1.83,5.14c-1.22,1.3-2.83,1.95-4.84,1.95c-1.94,0-3.51-0.63-4.71-1.88
					C340.85,274.97,340.25,273.3,340.25,271.21z M342.32,271.13c0,1.59,0.42,2.86,1.25,3.82c0.83,0.95,1.94,1.43,3.33,1.43
					c1.41,0,2.51-0.46,3.29-1.39c0.78-0.93,1.16-2.23,1.16-3.9c0-1.71-0.38-3.04-1.15-3.97c-0.77-0.93-1.87-1.4-3.3-1.4
					c-1.4,0-2.51,0.48-3.34,1.44S342.32,269.45,342.32,271.13z"/>
				<path class="st3" d="M367.99,277.79h-2.04v-7.71c0-2.91-1.06-4.36-3.19-4.36c-1.11,0-2.03,0.42-2.74,1.25
					c-0.72,0.83-1.07,1.88-1.07,3.13v7.69h-2.04V264.3h2.04v2.25h0.06c1.01-1.71,2.48-2.57,4.43-2.57c1.48,0,2.61,0.48,3.39,1.43
					c0.78,0.95,1.17,2.33,1.17,4.13V277.79z"/>
				<path class="st3" d="M382.86,271.54h-9.56c0.04,1.55,0.45,2.74,1.23,3.57c0.78,0.83,1.85,1.24,3.21,1.24
					c1.52,0,2.92-0.51,4.21-1.52v1.95c-1.18,0.88-2.74,1.32-4.68,1.32c-1.88,0-3.36-0.61-4.44-1.84c-1.08-1.23-1.63-2.95-1.63-5.18
					c0-2.05,0.59-3.74,1.76-5.08c1.17-1.34,2.64-2.01,4.41-2.01c1.73,0,3.08,0.57,4.05,1.71c0.97,1.14,1.45,2.72,1.45,4.75V271.54z
					 M380.76,269.75c-0.01-1.27-0.31-2.25-0.91-2.96c-0.6-0.7-1.44-1.05-2.52-1.05c-0.98,0-1.85,0.35-2.59,1.06
					c-0.74,0.71-1.21,1.69-1.41,2.95H380.76z"/>
			</g>
		</g>
	</g>
	<g id="XMLID_730_">
		<path id="XMLID_731_" class="st6" d="M460.68,271.23c-12.37,0-22.36,10.23-22.4,23.9c-0.04,10.6,16.43,36.89,21.15,44.66
			c0.57,0.94,1.93,0.94,2.51,0c4.72-7.76,21.19-34.06,21.15-44.66C483.04,281.6,473.05,271.23,460.68,271.23z M460.68,304.73
			c-6.36,0-11.52-5.16-11.52-11.52c0-6.36,5.16-11.51,11.52-11.51c6.36,0,11.51,5.16,11.51,11.51
			C472.2,299.57,467.04,304.73,460.68,304.73z"/>
	</g>
	<g id="XMLID_686_">
		<defs>
			<path id="XMLID_688_" d="M408.62,682.06c-2.2,0-3.98-1.78-3.98-3.98l0.06-26.83h-9v-79h9l-0.06-270.33c0-2.2-1.78-3.98-3.98-3.98
				H300.28c-2.2,0-3.98-1.78-3.98-3.98v-78.03c0-2.2-1.78-3.98-3.98-3.98h-36.47c-1.32,0-2.56-0.66-3.3-1.75L155.75,66.9
				l-70.7,42.87l160.81,250.93c0.41,0.64,0.63,1.39,0.63,2.15V473.5c0,2.2-1.78,3.98-3.98,3.98H40.29v73.63h202.22
				c2.2,0,3.98,1.78,3.98,3.98v122.98c0,2.2-1.78,3.98-3.98,3.98H408.62z"/>
		</defs>
		<clipPath id="XMLID_769_">
			<use xlink:href="#XMLID_688_"  style="overflow:visible;"/>
		</clipPath>
		<g id="XMLID_689_" class="st7">
			<path id="XMLID_729_" class="st8" d="M1.52,680.8c8.94,0,8.94,7.72,17.87,7.72c8.93,0,8.93-7.72,17.86-7.72
				c8.93,0,8.93,7.72,17.87,7.72c8.94,0,8.94-7.72,17.87-7.72c8.93,0,8.93,7.72,17.87,7.72c8.94,0,8.94-7.72,17.87-7.72
				c8.93,0,8.93,7.72,17.87,7.72c8.94,0,8.94-7.72,17.87-7.72c8.94,0,8.94,7.72,17.87,7.72c8.94,0,8.94-7.72,17.88-7.72
				c8.94,0,8.94,7.72,17.87,7.72c8.94,0,8.94-7.72,17.88-7.72c8.94,0,8.94,7.72,17.88,7.72c8.94,0,8.94-7.72,17.87-7.72
				c8.93,0,8.93,7.72,17.86,7.72c8.94,0,8.94-7.72,17.88-7.72c8.93,0,8.93,7.72,17.87,7.72c8.94,0,8.94-7.72,17.88-7.72
				c8.94,0,8.94,7.72,17.88,7.72c8.94,0,8.94-7.72,17.88-7.72c8.94,0,8.94,7.72,17.88,7.72c8.94,0,8.94-7.72,17.88-7.72
				c8.94,0,8.94,7.72,17.88,7.72c8.95,0,8.95-7.72,17.9-7.72c8.95,0,8.95,7.72,17.91,7.72c8.95,0,8.95-7.72,17.91-7.72"/>
			<path id="XMLID_728_" class="st8" d="M1.52,664.71c8.94,0,8.94,7.72,17.87,7.72c8.93,0,8.93-7.72,17.86-7.72
				c8.93,0,8.93,7.72,17.87,7.72c8.94,0,8.94-7.72,17.87-7.72c8.93,0,8.93,7.72,17.87,7.72c8.94,0,8.94-7.72,17.87-7.72
				c8.93,0,8.93,7.72,17.87,7.72c8.94,0,8.94-7.72,17.87-7.72c8.94,0,8.94,7.72,17.87,7.72c8.94,0,8.94-7.72,17.88-7.72
				c8.94,0,8.94,7.72,17.87,7.72c8.94,0,8.94-7.72,17.88-7.72c8.94,0,8.94,7.72,17.88,7.72c8.94,0,8.94-7.72,17.87-7.72
				c8.93,0,8.93,7.72,17.86,7.72c8.94,0,8.94-7.72,17.88-7.72c8.93,0,8.93,7.72,17.87,7.72c8.94,0,8.94-7.72,17.88-7.72
				c8.94,0,8.94,7.72,17.88,7.72c8.94,0,8.94-7.72,17.88-7.72c8.94,0,8.94,7.72,17.88,7.72c8.94,0,8.94-7.72,17.88-7.72
				c8.94,0,8.94,7.72,17.88,7.72c8.95,0,8.95-7.72,17.9-7.72c8.95,0,8.95,7.72,17.91,7.72c8.95,0,8.95-7.72,17.91-7.72"/>
			<path id="XMLID_727_" class="st8" d="M1.52,648.62c8.94,0,8.94,7.72,17.87,7.72c8.93,0,8.93-7.72,17.86-7.72
				c8.93,0,8.93,7.72,17.87,7.72c8.94,0,8.94-7.72,17.87-7.72c8.93,0,8.93,7.72,17.87,7.72c8.94,0,8.94-7.72,17.87-7.72
				c8.93,0,8.93,7.72,17.87,7.72c8.94,0,8.94-7.72,17.87-7.72c8.94,0,8.94,7.72,17.87,7.72c8.94,0,8.94-7.72,17.88-7.72
				c8.94,0,8.94,7.72,17.87,7.72c8.94,0,8.94-7.72,17.88-7.72c8.94,0,8.94,7.72,17.88,7.72c8.94,0,8.94-7.72,17.87-7.72
				c8.93,0,8.93,7.72,17.86,7.72c8.94,0,8.94-7.72,17.88-7.72c8.93,0,8.93,7.72,17.87,7.72c8.94,0,8.94-7.72,17.88-7.72
				c8.94,0,8.94,7.72,17.88,7.72c8.94,0,8.94-7.72,17.88-7.72c8.94,0,8.94,7.72,17.88,7.72c8.94,0,8.94-7.72,17.88-7.72
				c8.94,0,8.94,7.72,17.88,7.72c8.95,0,8.95-7.72,17.9-7.72c8.95,0,8.95,7.72,17.91,7.72c8.95,0,8.95-7.72,17.91-7.72"/>
			<path id="XMLID_726_" class="st8" d="M1.52,632.53c8.94,0,8.94,7.72,17.87,7.72c8.93,0,8.93-7.72,17.86-7.72
				c8.93,0,8.93,7.72,17.87,7.72c8.94,0,8.94-7.72,17.87-7.72c8.93,0,8.93,7.72,17.87,7.72c8.94,0,8.94-7.72,17.87-7.72
				c8.93,0,8.93,7.72,17.87,7.72c8.94,0,8.94-7.72,17.87-7.72c8.94,0,8.94,7.72,17.87,7.72c8.94,0,8.94-7.72,17.88-7.72
				c8.94,0,8.94,7.72,17.87,7.72c8.94,0,8.94-7.72,17.88-7.72c8.94,0,8.94,7.72,17.88,7.72c8.94,0,8.94-7.72,17.87-7.72
				c8.93,0,8.93,7.72,17.86,7.72c8.94,0,8.94-7.72,17.88-7.72c8.93,0,8.93,7.72,17.87,7.72c8.94,0,8.94-7.72,17.88-7.72
				c8.94,0,8.94,7.72,17.88,7.72c8.94,0,8.94-7.72,17.88-7.72c8.94,0,8.94,7.72,17.88,7.72c8.94,0,8.94-7.72,17.88-7.72
				c8.94,0,8.94,7.72,17.88,7.72c8.95,0,8.95-7.72,17.9-7.72c8.95,0,8.95,7.72,17.91,7.72c8.95,0,8.95-7.72,17.91-7.72"/>
			<path id="XMLID_725_" class="st8" d="M1.52,616.44c8.94,0,8.94,7.72,17.87,7.72c8.93,0,8.93-7.72,17.86-7.72
				c8.93,0,8.93,7.72,17.87,7.72c8.94,0,8.94-7.72,17.87-7.72c8.93,0,8.93,7.72,17.87,7.72c8.94,0,8.94-7.72,17.87-7.72
				c8.93,0,8.93,7.72,17.87,7.72c8.94,0,8.94-7.72,17.87-7.72c8.94,0,8.94,7.72,17.87,7.72c8.94,0,8.94-7.72,17.88-7.72
				c8.94,0,8.94,7.72,17.87,7.72c8.94,0,8.94-7.72,17.88-7.72c8.94,0,8.94,7.72,17.88,7.72c8.94,0,8.94-7.72,17.87-7.72
				c8.93,0,8.93,7.72,17.86,7.72c8.94,0,8.94-7.72,17.88-7.72c8.93,0,8.93,7.72,17.87,7.72c8.94,0,8.94-7.72,17.88-7.72
				c8.94,0,8.94,7.72,17.88,7.72c8.94,0,8.94-7.72,17.88-7.72c8.94,0,8.94,7.72,17.88,7.72c8.94,0,8.94-7.72,17.88-7.72
				c8.94,0,8.94,7.72,17.88,7.72c8.95,0,8.95-7.72,17.9-7.72c8.95,0,8.95,7.72,17.91,7.72c8.95,0,8.95-7.72,17.91-7.72"/>
			<path id="XMLID_724_" class="st8" d="M1.52,600.35c8.94,0,8.94,7.72,17.87,7.72c8.93,0,8.93-7.72,17.86-7.72
				c8.93,0,8.93,7.72,17.87,7.72c8.94,0,8.94-7.72,17.87-7.72c8.93,0,8.93,7.72,17.87,7.72c8.94,0,8.94-7.72,17.87-7.72
				c8.93,0,8.93,7.72,17.87,7.72c8.94,0,8.94-7.72,17.87-7.72c8.94,0,8.94,7.72,17.87,7.72c8.94,0,8.94-7.72,17.88-7.72
				c8.94,0,8.94,7.72,17.87,7.72c8.94,0,8.94-7.72,17.88-7.72c8.94,0,8.94,7.72,17.88,7.72c8.94,0,8.94-7.72,17.87-7.72
				c8.93,0,8.93,7.72,17.86,7.72c8.94,0,8.94-7.72,17.88-7.72c8.93,0,8.93,7.72,17.87,7.72c8.94,0,8.94-7.72,17.88-7.72
				c8.94,0,8.94,7.72,17.88,7.72c8.94,0,8.94-7.72,17.88-7.72c8.94,0,8.94,7.72,17.88,7.72c8.94,0,8.94-7.72,17.88-7.72
				c8.94,0,8.94,7.72,17.88,7.72c8.95,0,8.95-7.72,17.9-7.72c8.95,0,8.95,7.72,17.91,7.72c8.95,0,8.95-7.72,17.91-7.72"/>
			<path id="XMLID_723_" class="st8" d="M1.52,584.26c8.94,0,8.94,7.72,17.87,7.72c8.93,0,8.93-7.72,17.86-7.72
				c8.93,0,8.93,7.72,17.87,7.72c8.94,0,8.94-7.72,17.87-7.72c8.93,0,8.93,7.72,17.87,7.72c8.94,0,8.94-7.72,17.87-7.72
				c8.93,0,8.93,7.72,17.87,7.72c8.94,0,8.94-7.72,17.87-7.72c8.94,0,8.94,7.72,17.87,7.72c8.94,0,8.94-7.72,17.88-7.72
				c8.94,0,8.94,7.72,17.87,7.72c8.94,0,8.94-7.72,17.88-7.72c8.94,0,8.94,7.72,17.88,7.72c8.94,0,8.94-7.72,17.87-7.72
				c8.93,0,8.93,7.72,17.86,7.72c8.94,0,8.94-7.72,17.88-7.72c8.93,0,8.93,7.72,17.87,7.72c8.94,0,8.94-7.72,17.88-7.72
				c8.94,0,8.94,7.72,17.88,7.72c8.94,0,8.94-7.72,17.88-7.72c8.94,0,8.94,7.72,17.88,7.72c8.94,0,8.94-7.72,17.88-7.72
				c8.94,0,8.94,7.72,17.88,7.72c8.95,0,8.95-7.72,17.9-7.72c8.95,0,8.95,7.72,17.91,7.72c8.95,0,8.95-7.72,17.91-7.72"/>
			<path id="XMLID_722_" class="st8" d="M1.52,568.17c8.94,0,8.94,7.72,17.87,7.72c8.93,0,8.93-7.72,17.86-7.72
				c8.93,0,8.93,7.72,17.87,7.72c8.94,0,8.94-7.72,17.87-7.72c8.93,0,8.93,7.72,17.87,7.72c8.94,0,8.94-7.72,17.87-7.72
				c8.93,0,8.93,7.72,17.87,7.72c8.94,0,8.94-7.72,17.87-7.72c8.94,0,8.94,7.72,17.87,7.72c8.94,0,8.94-7.72,17.88-7.72
				c8.94,0,8.94,7.72,17.87,7.72c8.94,0,8.94-7.72,17.88-7.72c8.94,0,8.94,7.72,17.88,7.72c8.94,0,8.94-7.72,17.87-7.72
				c8.93,0,8.93,7.72,17.86,7.72c8.94,0,8.94-7.72,17.88-7.72c8.93,0,8.93,7.72,17.87,7.72c8.94,0,8.94-7.72,17.88-7.72
				c8.94,0,8.94,7.72,17.88,7.72c8.94,0,8.94-7.72,17.88-7.72c8.94,0,8.94,7.72,17.88,7.72c8.94,0,8.94-7.72,17.88-7.72
				c4.47,0,6.71,1.93,8.94,3.86s4.47,3.86,8.94,3.86c8.95,0,8.95-7.72,17.9-7.72c8.95,0,8.95,7.72,17.91,7.72
				c8.95,0,8.95-7.72,17.91-7.72"/>
			<path id="XMLID_721_" class="st8" d="M1.52,552.08c8.94,0,8.94,7.72,17.87,7.72c8.93,0,8.93-7.72,17.86-7.72
				c8.93,0,8.93,7.72,17.87,7.72c8.94,0,8.94-7.72,17.87-7.72c8.93,0,8.93,7.72,17.87,7.72c8.94,0,8.94-7.72,17.87-7.72
				c8.93,0,8.93,7.72,17.87,7.72c8.94,0,8.94-7.72,17.87-7.72c8.94,0,8.94,7.72,17.87,7.72c8.94,0,8.94-7.72,17.88-7.72
				c8.94,0,8.94,7.72,17.87,7.72c8.94,0,8.94-7.72,17.88-7.72c8.94,0,8.94,7.72,17.88,7.72c8.94,0,8.94-7.72,17.87-7.72
				c8.93,0,8.93,7.72,17.86,7.72c8.94,0,8.94-7.72,17.88-7.72c8.93,0,8.93,7.72,17.87,7.72c8.94,0,8.94-7.72,17.88-7.72
				c8.94,0,8.94,7.72,17.88,7.72c8.94,0,8.94-7.72,17.88-7.72c8.94,0,8.94,7.72,17.88,7.72c8.94,0,8.94-7.72,17.88-7.72
				c8.94,0,8.94,7.72,17.88,7.72c8.95,0,8.95-7.72,17.9-7.72c8.95,0,8.95,7.72,17.91,7.72c8.95,0,8.95-7.72,17.91-7.72"/>
			<path id="XMLID_720_" class="st8" d="M1.52,535.99c8.94,0,8.94,7.72,17.87,7.72c8.93,0,8.93-7.72,17.86-7.72
				c8.93,0,8.93,7.72,17.87,7.72c8.94,0,8.94-7.72,17.87-7.72c8.93,0,8.93,7.72,17.87,7.72c8.94,0,8.94-7.72,17.87-7.72
				c8.93,0,8.93,7.72,17.87,7.72c8.94,0,8.94-7.72,17.87-7.72c8.94,0,8.94,7.72,17.87,7.72c8.94,0,8.94-7.72,17.88-7.72
				c8.94,0,8.94,7.72,17.87,7.72c8.94,0,8.94-7.72,17.88-7.72c8.94,0,8.94,7.72,17.88,7.72c8.94,0,8.94-7.72,17.87-7.72
				c8.93,0,8.93,7.72,17.86,7.72c8.94,0,8.94-7.72,17.88-7.72c8.93,0,8.93,7.72,17.87,7.72c8.94,0,8.94-7.72,17.88-7.72
				c8.94,0,8.94,7.72,17.88,7.72c8.94,0,8.94-7.72,17.88-7.72c8.94,0,8.94,7.72,17.88,7.72c8.94,0,8.94-7.72,17.88-7.72
				c8.94,0,8.94,7.72,17.88,7.72c8.95,0,8.95-7.72,17.9-7.72c8.95,0,8.95,7.72,17.91,7.72c8.95,0,8.95-7.72,17.91-7.72"/>
			<path id="XMLID_719_" class="st8" d="M1.52,519.91c8.94,0,8.94,7.72,17.87,7.72c8.93,0,8.93-7.72,17.86-7.72
				c8.93,0,8.93,7.72,17.87,7.72c8.94,0,8.94-7.72,17.87-7.72c8.93,0,8.93,7.72,17.87,7.72c8.94,0,8.94-7.72,17.87-7.72
				c8.93,0,8.93,7.72,17.87,7.72c8.94,0,8.94-7.72,17.87-7.72c8.94,0,8.94,7.72,17.87,7.72c8.94,0,8.94-7.72,17.88-7.72
				c8.94,0,8.94,7.72,17.87,7.72c8.94,0,8.94-7.72,17.88-7.72c8.94,0,8.94,7.72,17.88,7.72c8.94,0,8.94-7.72,17.87-7.72
				c8.93,0,8.93,7.72,17.86,7.72c8.94,0,8.94-7.72,17.88-7.72c8.93,0,8.93,7.72,17.87,7.72c8.94,0,8.94-7.72,17.88-7.72
				c8.94,0,8.94,7.72,17.88,7.72c8.94,0,8.94-7.72,17.88-7.72c8.94,0,8.94,7.72,17.88,7.72c8.94,0,8.94-7.72,17.88-7.72
				c8.94,0,8.94,7.72,17.88,7.72c8.95,0,8.95-7.72,17.9-7.72c8.95,0,8.95,7.72,17.91,7.72c8.95,0,8.95-7.72,17.91-7.72"/>
			<path id="XMLID_718_" class="st8" d="M1.52,503.82c8.94,0,8.94,7.72,17.87,7.72c8.93,0,8.93-7.72,17.86-7.72
				c8.93,0,8.93,7.72,17.87,7.72c8.94,0,8.94-7.72,17.87-7.72c8.93,0,8.93,7.72,17.87,7.72c8.94,0,8.94-7.72,17.87-7.72
				c8.93,0,8.93,7.72,17.87,7.72c8.94,0,8.94-7.72,17.87-7.72c8.94,0,8.94,7.72,17.87,7.72c8.94,0,8.94-7.72,17.88-7.72
				c8.94,0,8.94,7.72,17.87,7.72c8.94,0,8.94-7.72,17.88-7.72c8.94,0,8.94,7.72,17.88,7.72c8.94,0,8.94-7.72,17.87-7.72
				c8.93,0,8.93,7.72,17.86,7.72c8.94,0,8.94-7.72,17.88-7.72c8.93,0,8.93,7.72,17.87,7.72c8.94,0,8.94-7.72,17.88-7.72
				c8.94,0,8.94,7.72,17.88,7.72c8.94,0,8.94-7.72,17.88-7.72c8.94,0,8.94,7.72,17.88,7.72c8.94,0,8.94-7.72,17.88-7.72
				c8.94,0,8.94,7.72,17.88,7.72c8.95,0,8.95-7.72,17.9-7.72c8.95,0,8.95,7.72,17.91,7.72c8.95,0,8.95-7.72,17.91-7.72"/>
			<path id="XMLID_717_" class="st8" d="M1.52,487.73c8.94,0,8.94,7.72,17.87,7.72c8.93,0,8.93-7.72,17.86-7.72
				c8.93,0,8.93,7.72,17.87,7.72c8.94,0,8.94-7.72,17.87-7.72c8.93,0,8.93,7.72,17.87,7.72c8.94,0,8.94-7.72,17.87-7.72
				c8.93,0,8.93,7.72,17.87,7.72c8.94,0,8.94-7.72,17.87-7.72c8.94,0,8.94,7.72,17.87,7.72c8.94,0,8.94-7.72,17.88-7.72
				c8.94,0,8.94,7.72,17.87,7.72c8.94,0,8.94-7.72,17.88-7.72c8.94,0,8.94,7.72,17.88,7.72c8.94,0,8.94-7.72,17.87-7.72
				c8.93,0,8.93,7.72,17.86,7.72c8.94,0,8.94-7.72,17.88-7.72c8.93,0,8.93,7.72,17.87,7.72c8.94,0,8.94-7.72,17.88-7.72
				c8.94,0,8.94,7.72,17.88,7.72c8.94,0,8.94-7.72,17.88-7.72c8.94,0,8.94,7.72,17.88,7.72c8.94,0,8.94-7.72,17.88-7.72
				c8.94,0,8.94,7.72,17.88,7.72c8.95,0,8.95-7.72,17.9-7.72c8.95,0,8.95,7.72,17.91,7.72c8.95,0,8.95-7.72,17.91-7.72"/>
			<path id="XMLID_716_" class="st8" d="M1.52,471.64c8.94,0,8.94,7.72,17.87,7.72c8.93,0,8.93-7.72,17.86-7.72
				c8.93,0,8.93,7.72,17.87,7.72c8.94,0,8.94-7.72,17.87-7.72c8.93,0,8.93,7.72,17.87,7.72c8.94,0,8.94-7.72,17.87-7.72
				c8.93,0,8.93,7.72,17.87,7.72c8.94,0,8.94-7.72,17.87-7.72c8.94,0,8.94,7.72,17.87,7.72c8.94,0,8.94-7.72,17.88-7.72
				c8.94,0,8.94,7.72,17.87,7.72c8.94,0,8.94-7.72,17.88-7.72c8.94,0,8.94,7.72,17.88,7.72c8.94,0,8.94-7.72,17.87-7.72
				c8.93,0,8.93,7.72,17.86,7.72c8.94,0,8.94-7.72,17.88-7.72c8.93,0,8.93,7.72,17.87,7.72c8.94,0,8.94-7.72,17.88-7.72
				c8.94,0,8.94,7.72,17.88,7.72c8.94,0,8.94-7.72,17.88-7.72c8.94,0,8.94,7.72,17.88,7.72c8.94,0,8.94-7.72,17.88-7.72
				c8.94,0,8.94,7.72,17.88,7.72c8.95,0,8.95-7.72,17.9-7.72c8.95,0,8.95,7.72,17.91,7.72c8.95,0,8.95-7.72,17.91-7.72"/>
			<path id="XMLID_715_" class="st8" d="M1.52,455.55c8.94,0,8.94,7.72,17.87,7.72c8.93,0,8.93-7.72,17.86-7.72
				c8.93,0,8.93,7.72,17.87,7.72c8.94,0,8.94-7.72,17.87-7.72c8.93,0,8.93,7.72,17.87,7.72c8.94,0,8.94-7.72,17.87-7.72
				c8.93,0,8.93,7.72,17.87,7.72c8.94,0,8.94-7.72,17.87-7.72c8.94,0,8.94,7.72,17.87,7.72c8.94,0,8.94-7.72,17.88-7.72
				c8.94,0,8.94,7.72,17.87,7.72c8.94,0,8.94-7.72,17.88-7.72c8.94,0,8.94,7.72,17.88,7.72c8.94,0,8.94-7.72,17.87-7.72
				c8.93,0,8.93,7.72,17.86,7.72c8.94,0,8.94-7.72,17.88-7.72c8.93,0,8.93,7.72,17.87,7.72c8.94,0,8.94-7.72,17.88-7.72
				c8.94,0,8.94,7.72,17.88,7.72c8.94,0,8.94-7.72,17.88-7.72c8.94,0,8.94,7.72,17.88,7.72c8.94,0,8.94-7.72,17.88-7.72
				c8.94,0,8.94,7.72,17.88,7.72c8.95,0,8.95-7.72,17.9-7.72c8.95,0,8.95,7.72,17.91,7.72c8.95,0,8.95-7.72,17.91-7.72"/>
			<path id="XMLID_714_" class="st8" d="M1.52,439.46c8.94,0,8.94,7.72,17.87,7.72c8.93,0,8.93-7.72,17.86-7.72
				c8.93,0,8.93,7.72,17.87,7.72c8.94,0,8.94-7.72,17.87-7.72c8.93,0,8.93,7.72,17.87,7.72c8.94,0,8.94-7.72,17.87-7.72
				c8.93,0,8.93,7.72,17.87,7.72c8.94,0,8.94-7.72,17.87-7.72c8.94,0,8.94,7.72,17.87,7.72c8.94,0,8.94-7.72,17.88-7.72
				c8.94,0,8.94,7.72,17.87,7.72c8.94,0,8.94-7.72,17.88-7.72c8.94,0,8.94,7.72,17.88,7.72c8.94,0,8.94-7.72,17.87-7.72
				c8.93,0,8.93,7.72,17.86,7.72c8.94,0,8.94-7.72,17.88-7.72c8.93,0,8.93,7.72,17.87,7.72c8.94,0,8.94-7.72,17.88-7.72
				c8.94,0,8.94,7.72,17.88,7.72c8.94,0,8.94-7.72,17.88-7.72c8.94,0,8.94,7.72,17.88,7.72c8.94,0,8.94-7.72,17.88-7.72
				c8.94,0,8.94,7.72,17.88,7.72c8.95,0,8.95-7.72,17.9-7.72c8.95,0,8.95,7.72,17.91,7.72c8.95,0,8.95-7.72,17.91-7.72"/>
			<path id="XMLID_713_" class="st8" d="M1.52,423.37c8.94,0,8.94,7.72,17.87,7.72c8.93,0,8.93-7.72,17.86-7.72
				c8.93,0,8.93,7.72,17.87,7.72c8.94,0,8.94-7.72,17.87-7.72c8.93,0,8.93,7.72,17.87,7.72c8.94,0,8.94-7.72,17.87-7.72
				c8.93,0,8.93,7.72,17.87,7.72c8.94,0,8.94-7.72,17.87-7.72c8.94,0,8.94,7.72,17.87,7.72c8.94,0,8.94-7.72,17.88-7.72
				c8.94,0,8.94,7.72,17.87,7.72c8.94,0,8.94-7.72,17.88-7.72c8.94,0,8.94,7.72,17.88,7.72c8.94,0,8.94-7.72,17.87-7.72
				c8.93,0,8.93,7.72,17.86,7.72c8.94,0,8.94-7.72,17.88-7.72c8.93,0,8.93,7.72,17.87,7.72c8.94,0,8.94-7.72,17.88-7.72
				c8.94,0,8.94,7.72,17.88,7.72c8.94,0,8.94-7.72,17.88-7.72c8.94,0,8.94,7.72,17.88,7.72c8.94,0,8.94-7.72,17.88-7.72
				c8.94,0,8.94,7.72,17.88,7.72c8.95,0,8.95-7.72,17.9-7.72c8.95,0,8.95,7.72,17.91,7.72c8.95,0,8.95-7.72,17.91-7.72"/>
			<path id="XMLID_712_" class="st8" d="M1.52,407.28c8.94,0,8.94,7.72,17.87,7.72c8.93,0,8.93-7.72,17.86-7.72
				c8.93,0,8.93,7.72,17.87,7.72c8.94,0,8.94-7.72,17.87-7.72c8.93,0,8.93,7.72,17.87,7.72c8.94,0,8.94-7.72,17.87-7.72
				c8.93,0,8.93,7.72,17.87,7.72c8.94,0,8.94-7.72,17.87-7.72c8.94,0,8.94,7.72,17.87,7.72c8.94,0,8.94-7.72,17.88-7.72
				c8.94,0,8.94,7.72,17.87,7.72c8.94,0,8.94-7.72,17.88-7.72c8.94,0,8.94,7.72,17.88,7.72c8.94,0,8.94-7.72,17.87-7.72
				c8.93,0,8.93,7.72,17.86,7.72c8.94,0,8.94-7.72,17.88-7.72c8.93,0,8.93,7.72,17.87,7.72c8.94,0,8.94-7.72,17.88-7.72
				c8.94,0,8.94,7.72,17.88,7.72c8.94,0,8.94-7.72,17.88-7.72c8.94,0,8.94,7.72,17.88,7.72c8.94,0,8.94-7.72,17.88-7.72
				c8.94,0,8.94,7.72,17.88,7.72c8.95,0,8.95-7.72,17.9-7.72c8.95,0,8.95,7.72,17.91,7.72c8.95,0,8.95-7.72,17.91-7.72"/>
			<path id="XMLID_711_" class="st8" d="M1.52,391.19c8.94,0,8.94,7.72,17.87,7.72c8.93,0,8.93-7.72,17.86-7.72
				c8.93,0,8.93,7.72,17.87,7.72c8.94,0,8.94-7.72,17.87-7.72c8.93,0,8.93,7.72,17.87,7.72c8.94,0,8.94-7.72,17.87-7.72
				c8.93,0,8.93,7.72,17.87,7.72c8.94,0,8.94-7.72,17.87-7.72c8.94,0,8.94,7.72,17.87,7.72c8.94,0,8.94-7.72,17.88-7.72
				c8.94,0,8.94,7.72,17.87,7.72c8.94,0,8.94-7.72,17.88-7.72c8.94,0,8.94,7.72,17.88,7.72c8.94,0,8.94-7.72,17.87-7.72
				c8.93,0,8.93,7.72,17.86,7.72c8.94,0,8.94-7.72,17.88-7.72c8.93,0,8.93,7.72,17.87,7.72c8.94,0,8.94-7.72,17.88-7.72
				c8.94,0,8.94,7.72,17.88,7.72c8.94,0,8.94-7.72,17.88-7.72c8.94,0,8.94,7.72,17.88,7.72c8.94,0,8.94-7.72,17.88-7.72
				c8.94,0,8.94,7.72,17.88,7.72c8.95,0,8.95-7.72,17.9-7.72c8.95,0,8.95,7.72,17.91,7.72c8.95,0,8.95-7.72,17.91-7.72"/>
			<path id="XMLID_710_" class="st8" d="M1.52,375.1c8.94,0,8.94,7.72,17.87,7.72c8.93,0,8.93-7.72,17.86-7.72
				c8.93,0,8.93,7.72,17.87,7.72c8.94,0,8.94-7.72,17.87-7.72c8.93,0,8.93,7.72,17.87,7.72c8.94,0,8.94-7.72,17.87-7.72
				c8.93,0,8.93,7.72,17.87,7.72c8.94,0,8.94-7.72,17.87-7.72c8.94,0,8.94,7.72,17.87,7.72c8.94,0,8.94-7.72,17.88-7.72
				c8.94,0,8.94,7.72,17.87,7.72c8.94,0,8.94-7.72,17.88-7.72c8.94,0,8.94,7.72,17.88,7.72c8.94,0,8.94-7.72,17.87-7.72
				c8.93,0,8.93,7.72,17.86,7.72c8.94,0,8.94-7.72,17.88-7.72c8.93,0,8.93,7.72,17.87,7.72c8.94,0,8.94-7.72,17.88-7.72
				c8.94,0,8.94,7.72,17.88,7.72c8.94,0,8.94-7.72,17.88-7.72c8.94,0,8.94,7.72,17.88,7.72c8.94,0,8.94-7.72,17.88-7.72
				c8.94,0,8.94,7.72,17.88,7.72c8.95,0,8.95-7.72,17.9-7.72c8.95,0,8.95,7.72,17.91,7.72c8.95,0,8.95-7.72,17.91-7.72"/>
			<path id="XMLID_709_" class="st8" d="M1.52,359.01c8.94,0,8.94,7.72,17.87,7.72c8.93,0,8.93-7.72,17.86-7.72
				c8.93,0,8.93,7.72,17.87,7.72c8.94,0,8.94-7.72,17.87-7.72c8.93,0,8.93,7.72,17.87,7.72c8.94,0,8.94-7.72,17.87-7.72
				c8.93,0,8.93,7.72,17.87,7.72c8.94,0,8.94-7.72,17.87-7.72c8.94,0,8.94,7.72,17.87,7.72c8.94,0,8.94-7.72,17.88-7.72
				c8.94,0,8.94,7.72,17.87,7.72c8.94,0,8.94-7.72,17.88-7.72c8.94,0,8.94,7.72,17.88,7.72c8.94,0,8.94-7.72,17.87-7.72
				c8.93,0,8.93,7.72,17.86,7.72c8.94,0,8.94-7.72,17.88-7.72c8.93,0,8.93,7.72,17.87,7.72c8.94,0,8.94-7.72,17.88-7.72
				c8.94,0,8.94,7.72,17.88,7.72c8.94,0,8.94-7.72,17.88-7.72c8.94,0,8.94,7.72,17.88,7.72c8.94,0,8.94-7.72,17.88-7.72
				c8.94,0,8.94,7.72,17.88,7.72c8.95,0,8.95-7.72,17.9-7.72c8.95,0,8.95,7.72,17.91,7.72c8.95,0,8.95-7.72,17.91-7.72"/>
			<path id="XMLID_708_" class="st8" d="M1.52,342.92c8.94,0,8.94,7.72,17.87,7.72c8.93,0,8.93-7.72,17.86-7.72
				c8.93,0,8.93,7.72,17.87,7.72c8.94,0,8.94-7.72,17.87-7.72c8.93,0,8.93,7.72,17.87,7.72c8.94,0,8.94-7.72,17.87-7.72
				c8.93,0,8.93,7.72,17.87,7.72c8.94,0,8.94-7.72,17.87-7.72c8.94,0,8.94,7.72,17.87,7.72c8.94,0,8.94-7.72,17.88-7.72
				c8.94,0,8.94,7.72,17.87,7.72c8.94,0,8.94-7.72,17.88-7.72c8.94,0,8.94,7.72,17.88,7.72c8.94,0,8.94-7.72,17.87-7.72
				c8.93,0,8.93,7.72,17.86,7.72c8.94,0,8.94-7.72,17.88-7.72c8.93,0,8.93,7.72,17.87,7.72c8.94,0,8.94-7.72,17.88-7.72
				c8.94,0,8.94,7.72,17.88,7.72c8.94,0,8.94-7.72,17.88-7.72c8.94,0,8.94,7.72,17.88,7.72c8.94,0,8.94-7.72,17.88-7.72
				c8.94,0,8.94,7.72,17.88,7.72c8.95,0,8.95-7.72,17.9-7.72c8.95,0,8.95,7.72,17.91,7.72c8.95,0,8.95-7.72,17.91-7.72"/>
			<path id="XMLID_707_" class="st8" d="M1.52,326.83c8.94,0,8.94,7.72,17.87,7.72c8.93,0,8.93-7.72,17.86-7.72
				c8.93,0,8.93,7.72,17.87,7.72c8.94,0,8.94-7.72,17.87-7.72c8.93,0,8.93,7.72,17.87,7.72c8.94,0,8.94-7.72,17.87-7.72
				c8.93,0,8.93,7.72,17.87,7.72c8.94,0,8.94-7.72,17.87-7.72c8.94,0,8.94,7.72,17.87,7.72c8.94,0,8.94-7.72,17.88-7.72
				c8.94,0,8.94,7.72,17.87,7.72c8.94,0,8.94-7.72,17.88-7.72c8.94,0,8.94,7.72,17.88,7.72c8.94,0,8.94-7.72,17.87-7.72
				c8.93,0,8.93,7.72,17.86,7.72c8.94,0,8.94-7.72,17.88-7.72c8.93,0,8.93,7.72,17.87,7.72c8.94,0,8.94-7.72,17.88-7.72
				c8.94,0,8.94,7.72,17.88,7.72c8.94,0,8.94-7.72,17.88-7.72c8.94,0,8.94,7.72,17.88,7.72c8.94,0,8.94-7.72,17.88-7.72
				c8.94,0,8.94,7.72,17.88,7.72c8.95,0,8.95-7.72,17.9-7.72c8.95,0,8.95,7.72,17.91,7.72c8.95,0,8.95-7.72,17.91-7.72"/>
			<path id="XMLID_706_" class="st8" d="M1.52,310.74c8.94,0,8.94,7.72,17.87,7.72c8.93,0,8.93-7.72,17.86-7.72
				c8.93,0,8.93,7.72,17.87,7.72c8.94,0,8.94-7.72,17.87-7.72c8.93,0,8.93,7.72,17.87,7.72c8.94,0,8.94-7.72,17.87-7.72
				c8.93,0,8.93,7.72,17.87,7.72c8.94,0,8.94-7.72,17.87-7.72c8.94,0,8.94,7.72,17.87,7.72c8.94,0,8.94-7.72,17.88-7.72
				c8.94,0,8.94,7.72,17.87,7.72c8.94,0,8.94-7.72,17.88-7.72c8.94,0,8.94,7.72,17.88,7.72c8.94,0,8.94-7.72,17.87-7.72
				c8.93,0,8.93,7.72,17.86,7.72c8.94,0,8.94-7.72,17.88-7.72c8.93,0,8.93,7.72,17.87,7.72c8.94,0,8.94-7.72,17.88-7.72
				c8.94,0,8.94,7.72,17.88,7.72c8.94,0,8.94-7.72,17.88-7.72c8.94,0,8.94,7.72,17.88,7.72c8.94,0,8.94-7.72,17.88-7.72
				c8.94,0,8.94,7.72,17.88,7.72c8.95,0,8.95-7.72,17.9-7.72c8.95,0,8.95,7.72,17.91,7.72c8.95,0,8.95-7.72,17.91-7.72"/>
			<path id="XMLID_705_" class="st8" d="M1.52,294.65c8.94,0,8.94,7.72,17.87,7.72c8.93,0,8.93-7.72,17.86-7.72
				c8.93,0,8.93,7.72,17.87,7.72c8.94,0,8.94-7.72,17.87-7.72c8.93,0,8.93,7.72,17.87,7.72c8.94,0,8.94-7.72,17.87-7.72
				c8.93,0,8.93,7.72,17.87,7.72c8.94,0,8.94-7.72,17.87-7.72c8.94,0,8.94,7.72,17.87,7.72c8.94,0,8.94-7.72,17.88-7.72
				c8.94,0,8.94,7.72,17.87,7.72c8.94,0,8.94-7.72,17.88-7.72c8.94,0,8.94,7.72,17.88,7.72c8.94,0,8.94-7.72,17.87-7.72
				c8.93,0,8.93,7.72,17.86,7.72c8.94,0,8.94-7.72,17.88-7.72c8.93,0,8.93,7.72,17.87,7.72c8.94,0,8.94-7.72,17.88-7.72
				c8.94,0,8.94,7.72,17.88,7.72c8.94,0,8.94-7.72,17.88-7.72c8.94,0,8.94,7.72,17.88,7.72c8.94,0,8.94-7.72,17.88-7.72
				c8.94,0,8.94,7.72,17.88,7.72c8.95,0,8.95-7.72,17.9-7.72c8.95,0,8.95,7.72,17.91,7.72c8.95,0,8.95-7.72,17.91-7.72"/>
			<path id="XMLID_704_" class="st8" d="M1.52,278.56c8.94,0,8.94,7.72,17.87,7.72c8.93,0,8.93-7.72,17.86-7.72
				c8.93,0,8.93,7.72,17.87,7.72c8.94,0,8.94-7.72,17.87-7.72c8.93,0,8.93,7.72,17.87,7.72c8.94,0,8.94-7.72,17.87-7.72
				c8.93,0,8.93,7.72,17.87,7.72c8.94,0,8.94-7.72,17.87-7.72c8.94,0,8.94,7.72,17.87,7.72c8.94,0,8.94-7.72,17.88-7.72
				c8.94,0,8.94,7.72,17.87,7.72c8.94,0,8.94-7.72,17.88-7.72c8.94,0,8.94,7.72,17.88,7.72c8.94,0,8.94-7.72,17.87-7.72
				c8.93,0,8.93,7.72,17.86,7.72c8.94,0,8.94-7.72,17.88-7.72c8.93,0,8.93,7.72,17.87,7.72c8.94,0,8.94-7.72,17.88-7.72
				c8.94,0,8.94,7.72,17.88,7.72c8.94,0,8.94-7.72,17.88-7.72c8.94,0,8.94,7.72,17.88,7.72c8.94,0,8.94-7.72,17.88-7.72
				c8.94,0,8.94,7.72,17.88,7.72c8.95,0,8.95-7.72,17.9-7.72c8.95,0,8.95,7.72,17.91,7.72c8.95,0,8.95-7.72,17.91-7.72"/>
			<path id="XMLID_703_" class="st8" d="M1.52,262.47c8.94,0,8.94,7.72,17.87,7.72c8.93,0,8.93-7.72,17.86-7.72
				c8.93,0,8.93,7.72,17.87,7.72c8.94,0,8.94-7.72,17.87-7.72c8.93,0,8.93,7.72,17.87,7.72c8.94,0,8.94-7.72,17.87-7.72
				c8.93,0,8.93,7.72,17.87,7.72c8.94,0,8.94-7.72,17.87-7.72c8.94,0,8.94,7.72,17.87,7.72c8.94,0,8.94-7.72,17.88-7.72
				c8.94,0,8.94,7.72,17.87,7.72c8.94,0,8.94-7.72,17.88-7.72c8.94,0,8.94,7.72,17.88,7.72c8.94,0,8.94-7.72,17.87-7.72
				c8.93,0,8.93,7.72,17.86,7.72c8.94,0,8.94-7.72,17.88-7.72c8.93,0,8.93,7.72,17.87,7.72c8.94,0,8.94-7.72,17.88-7.72
				c8.94,0,8.94,7.72,17.88,7.72c8.94,0,8.94-7.72,17.88-7.72c8.94,0,8.94,7.72,17.88,7.72c8.94,0,8.94-7.72,17.88-7.72
				c8.94,0,8.94,7.72,17.88,7.72c8.95,0,8.95-7.72,17.9-7.72c8.95,0,8.95,7.72,17.91,7.72c8.95,0,8.95-7.72,17.91-7.72"/>
			<path id="XMLID_702_" class="st8" d="M1.52,246.38c8.94,0,8.94,7.72,17.87,7.72c8.93,0,8.93-7.72,17.86-7.72
				c8.93,0,8.93,7.72,17.87,7.72c8.94,0,8.94-7.72,17.87-7.72c8.93,0,8.93,7.72,17.87,7.72c8.94,0,8.94-7.72,17.87-7.72
				c8.93,0,8.93,7.72,17.87,7.72c8.94,0,8.94-7.72,17.87-7.72c8.94,0,8.94,7.72,17.87,7.72c8.94,0,8.94-7.72,17.88-7.72
				c8.94,0,8.94,7.72,17.87,7.72c8.94,0,8.94-7.72,17.88-7.72c8.94,0,8.94,7.72,17.88,7.72c8.94,0,8.94-7.72,17.87-7.72
				c8.93,0,8.93,7.72,17.86,7.72c8.94,0,8.94-7.72,17.88-7.72c8.93,0,8.93,7.72,17.87,7.72c8.94,0,8.94-7.72,17.88-7.72
				c8.94,0,8.94,7.72,17.88,7.72c8.94,0,8.94-7.72,17.88-7.72c8.94,0,8.94,7.72,17.88,7.72c8.94,0,8.94-7.72,17.88-7.72
				c8.94,0,8.94,7.72,17.88,7.72c8.95,0,8.95-7.72,17.9-7.72c8.95,0,8.95,7.72,17.91,7.72c8.95,0,8.95-7.72,17.91-7.72"/>
			<path id="XMLID_701_" class="st8" d="M1.52,230.29c8.94,0,8.94,7.72,17.87,7.72c8.93,0,8.93-7.72,17.86-7.72
				c8.93,0,8.93,7.72,17.87,7.72c8.94,0,8.94-7.72,17.87-7.72c8.93,0,8.93,7.72,17.87,7.72c8.94,0,8.94-7.72,17.87-7.72
				c8.93,0,8.93,7.72,17.87,7.72c8.94,0,8.94-7.72,17.87-7.72c8.94,0,8.94,7.72,17.87,7.72c8.94,0,8.94-7.72,17.88-7.72
				c8.94,0,8.94,7.72,17.87,7.72c8.94,0,8.94-7.72,17.88-7.72c8.94,0,8.94,7.72,17.88,7.72c8.94,0,8.94-7.72,17.87-7.72
				c8.93,0,8.93,7.72,17.86,7.72c8.94,0,8.94-7.72,17.88-7.72c8.93,0,8.93,7.72,17.87,7.72c8.94,0,8.94-7.72,17.88-7.72
				c8.94,0,8.94,7.72,17.88,7.72c8.94,0,8.94-7.72,17.88-7.72c8.94,0,8.94,7.72,17.88,7.72c8.94,0,8.94-7.72,17.88-7.72
				c8.94,0,8.94,7.72,17.88,7.72c8.95,0,8.95-7.72,17.9-7.72c8.95,0,8.95,7.72,17.91,7.72c8.95,0,8.95-7.72,17.91-7.72"/>
			<path id="XMLID_700_" class="st8" d="M1.52,214.2c8.94,0,8.94,7.72,17.87,7.72c8.93,0,8.93-7.72,17.86-7.72
				c8.93,0,8.93,7.72,17.87,7.72c8.94,0,8.94-7.72,17.87-7.72c8.93,0,8.93,7.72,17.87,7.72c8.94,0,8.94-7.72,17.87-7.72
				c8.93,0,8.93,7.72,17.87,7.72c8.94,0,8.94-7.72,17.87-7.72c8.94,0,8.94,7.72,17.87,7.72c8.94,0,8.94-7.72,17.88-7.72
				c8.94,0,8.94,7.72,17.87,7.72c8.94,0,8.94-7.72,17.88-7.72c8.94,0,8.94,7.72,17.88,7.72c8.94,0,8.94-7.72,17.87-7.72
				c8.93,0,8.93,7.72,17.86,7.72c8.94,0,8.94-7.72,17.88-7.72c8.93,0,8.93,7.72,17.87,7.72c8.94,0,8.94-7.72,17.88-7.72
				c8.94,0,8.94,7.72,17.88,7.72c8.94,0,8.94-7.72,17.88-7.72c8.94,0,8.94,7.72,17.88,7.72c8.94,0,8.94-7.72,17.88-7.72
				c8.94,0,8.94,7.72,17.88,7.72c8.95,0,8.95-7.72,17.9-7.72c8.95,0,8.95,7.72,17.91,7.72c8.95,0,8.95-7.72,17.91-7.72"/>
			<path id="XMLID_699_" class="st8" d="M1.52,198.11c8.94,0,8.94,7.72,17.87,7.72c8.93,0,8.93-7.72,17.86-7.72
				c8.93,0,8.93,7.72,17.87,7.72c8.94,0,8.94-7.72,17.87-7.72c8.93,0,8.93,7.72,17.87,7.72c8.94,0,8.94-7.72,17.87-7.72
				c8.93,0,8.93,7.72,17.87,7.72c8.94,0,8.94-7.72,17.87-7.72c8.94,0,8.94,7.72,17.87,7.72c8.94,0,8.94-7.72,17.88-7.72
				c8.94,0,8.94,7.72,17.87,7.72c8.94,0,8.94-7.72,17.88-7.72c8.94,0,8.94,7.72,17.88,7.72c8.94,0,8.94-7.72,17.87-7.72
				c8.93,0,8.93,7.72,17.86,7.72c8.94,0,8.94-7.72,17.88-7.72c8.93,0,8.93,7.72,17.87,7.72c8.94,0,8.94-7.72,17.88-7.72
				c8.94,0,8.94,7.72,17.88,7.72c8.94,0,8.94-7.72,17.88-7.72c8.94,0,8.94,7.72,17.88,7.72c8.94,0,8.94-7.72,17.88-7.72
				c8.94,0,8.94,7.72,17.88,7.72c8.95,0,8.95-7.72,17.9-7.72c8.95,0,8.95,7.72,17.91,7.72c8.95,0,8.95-7.72,17.91-7.72"/>
			<path id="XMLID_698_" class="st8" d="M1.52,182.02c8.94,0,8.94,7.72,17.87,7.72c8.93,0,8.93-7.72,17.86-7.72
				c8.93,0,8.93,7.72,17.87,7.72c8.94,0,8.94-7.72,17.87-7.72c8.93,0,8.93,7.72,17.87,7.72c8.94,0,8.94-7.72,17.87-7.72
				c8.93,0,8.93,7.72,17.87,7.72c8.94,0,8.94-7.72,17.87-7.72c8.94,0,8.94,7.72,17.87,7.72c8.94,0,8.94-7.72,17.88-7.72
				c8.94,0,8.94,7.72,17.87,7.72c8.94,0,8.94-7.72,17.88-7.72c8.94,0,8.94,7.72,17.88,7.72c8.94,0,8.94-7.72,17.87-7.72
				c8.93,0,8.93,7.72,17.86,7.72c8.94,0,8.94-7.72,17.88-7.72c8.93,0,8.93,7.72,17.87,7.72c8.94,0,8.94-7.72,17.88-7.72
				c8.94,0,8.94,7.72,17.88,7.72c8.94,0,8.94-7.72,17.88-7.72c8.94,0,8.94,7.72,17.88,7.72c8.94,0,8.94-7.72,17.88-7.72
				c8.94,0,8.94,7.72,17.88,7.72c8.95,0,8.95-7.72,17.9-7.72c8.95,0,8.95,7.72,17.91,7.72c8.95,0,8.95-7.72,17.91-7.72"/>
			<path id="XMLID_697_" class="st8" d="M1.52,165.93c8.94,0,8.94,7.72,17.87,7.72c8.93,0,8.93-7.72,17.86-7.72
				c8.93,0,8.93,7.72,17.87,7.72c8.94,0,8.94-7.72,17.87-7.72c8.93,0,8.93,7.72,17.87,7.72c8.94,0,8.94-7.72,17.87-7.72
				c8.93,0,8.93,7.72,17.87,7.72c8.94,0,8.94-7.72,17.87-7.72c8.94,0,8.94,7.72,17.87,7.72c8.94,0,8.94-7.72,17.88-7.72
				c8.94,0,8.94,7.72,17.87,7.72c8.94,0,8.94-7.72,17.88-7.72c8.94,0,8.94,7.72,17.88,7.72c8.94,0,8.94-7.72,17.87-7.72
				c8.93,0,8.93,7.72,17.86,7.72c8.94,0,8.94-7.72,17.88-7.72c8.93,0,8.93,7.72,17.87,7.72c8.94,0,8.94-7.72,17.88-7.72
				c8.94,0,8.94,7.72,17.88,7.72c8.94,0,8.94-7.72,17.88-7.72c8.94,0,8.94,7.72,17.88,7.72c8.94,0,8.94-7.72,17.88-7.72
				c8.94,0,8.94,7.72,17.88,7.72c8.95,0,8.95-7.72,17.9-7.72c8.95,0,8.95,7.72,17.91,7.72c8.95,0,8.95-7.72,17.91-7.72"/>
			<path id="XMLID_696_" class="st8" d="M1.52,149.84c8.94,0,8.94,7.72,17.87,7.72c8.93,0,8.93-7.72,17.86-7.72
				c8.93,0,8.93,7.72,17.87,7.72c8.94,0,8.94-7.72,17.87-7.72c8.93,0,8.93,7.72,17.87,7.72c8.94,0,8.94-7.72,17.87-7.72
				c8.93,0,8.93,7.72,17.87,7.72c8.94,0,8.94-7.72,17.87-7.72c8.94,0,8.94,7.72,17.87,7.72c8.94,0,8.94-7.72,17.88-7.72
				c8.94,0,8.94,7.72,17.87,7.72c8.94,0,8.94-7.72,17.88-7.72c8.94,0,8.94,7.72,17.88,7.72c8.94,0,8.94-7.72,17.87-7.72
				c8.93,0,8.93,7.72,17.86,7.72c8.94,0,8.94-7.72,17.88-7.72c8.93,0,8.93,7.72,17.87,7.72c8.94,0,8.94-7.72,17.88-7.72
				c8.94,0,8.94,7.72,17.88,7.72c8.94,0,8.94-7.72,17.88-7.72c8.94,0,8.94,7.72,17.88,7.72c8.94,0,8.94-7.72,17.88-7.72
				c8.94,0,8.94,7.72,17.88,7.72c8.95,0,8.95-7.72,17.9-7.72c8.95,0,8.95,7.72,17.91,7.72c8.95,0,8.95-7.72,17.91-7.72"/>
			<path id="XMLID_695_" class="st8" d="M1.52,133.75c8.94,0,8.94,7.72,17.87,7.72c8.93,0,8.93-7.72,17.86-7.72
				c8.93,0,8.93,7.72,17.87,7.72c8.94,0,8.94-7.72,17.87-7.72c8.93,0,8.93,7.72,17.87,7.72c8.94,0,8.94-7.72,17.87-7.72
				c8.93,0,8.93,7.72,17.87,7.72c8.94,0,8.94-7.72,17.87-7.72c8.94,0,8.94,7.72,17.87,7.72c8.94,0,8.94-7.72,17.88-7.72
				c8.94,0,8.94,7.72,17.87,7.72c8.94,0,8.94-7.72,17.88-7.72c8.94,0,8.94,7.72,17.88,7.72c8.94,0,8.94-7.72,17.87-7.72
				c8.93,0,8.93,7.72,17.86,7.72c8.94,0,8.94-7.72,17.88-7.72c8.93,0,8.93,7.72,17.87,7.72c8.94,0,8.94-7.72,17.88-7.72
				c8.94,0,8.94,7.72,17.88,7.72c8.94,0,8.94-7.72,17.88-7.72c8.94,0,8.94,7.72,17.88,7.72c8.94,0,8.94-7.72,17.88-7.72
				c8.94,0,8.94,7.72,17.88,7.72c8.95,0,8.95-7.72,17.9-7.72c8.95,0,8.95,7.72,17.91,7.72c8.95,0,8.95-7.72,17.91-7.72"/>
			<path id="XMLID_694_" class="st8" d="M1.52,117.66c8.94,0,8.94,7.72,17.87,7.72c8.93,0,8.93-7.72,17.86-7.72
				c8.93,0,8.93,7.72,17.87,7.72c8.94,0,8.94-7.72,17.87-7.72c8.93,0,8.93,7.72,17.87,7.72c8.94,0,8.94-7.72,17.87-7.72
				c8.93,0,8.93,7.72,17.87,7.72c8.94,0,8.94-7.72,17.87-7.72c8.94,0,8.94,7.72,17.87,7.72c8.94,0,8.94-7.72,17.88-7.72
				c8.94,0,8.94,7.72,17.87,7.72c8.94,0,8.94-7.72,17.88-7.72c8.94,0,8.94,7.72,17.88,7.72c8.94,0,8.94-7.72,17.87-7.72
				c8.93,0,8.93,7.72,17.86,7.72c8.94,0,8.94-7.72,17.88-7.72c8.93,0,8.93,7.72,17.87,7.72c8.94,0,8.94-7.72,17.88-7.72
				c8.94,0,8.94,7.72,17.88,7.72c8.94,0,8.94-7.72,17.88-7.72c8.94,0,8.94,7.72,17.88,7.72c8.94,0,8.94-7.72,17.88-7.72
				c8.94,0,8.94,7.72,17.88,7.72c8.95,0,8.95-7.72,17.9-7.72c8.95,0,8.95,7.72,17.91,7.72c8.95,0,8.95-7.72,17.91-7.72"/>
			<path id="XMLID_693_" class="st8" d="M1.52,101.57c8.94,0,8.94,7.72,17.87,7.72c8.93,0,8.93-7.72,17.86-7.72
				c8.93,0,8.93,7.72,17.87,7.72c8.94,0,8.94-7.72,17.87-7.72c8.93,0,8.93,7.72,17.87,7.72c8.94,0,8.94-7.72,17.87-7.72
				c8.93,0,8.93,7.72,17.87,7.72c8.94,0,8.94-7.72,17.87-7.72c8.94,0,8.94,7.72,17.87,7.72c8.94,0,8.94-7.72,17.88-7.72
				c8.94,0,8.94,7.72,17.87,7.72c8.94,0,8.94-7.72,17.88-7.72c8.94,0,8.94,7.72,17.88,7.72c8.94,0,8.94-7.72,17.87-7.72
				c8.93,0,8.93,7.72,17.86,7.72c8.94,0,8.94-7.72,17.88-7.72c8.93,0,8.93,7.72,17.87,7.72c8.94,0,8.94-7.72,17.88-7.72
				c8.94,0,8.94,7.72,17.88,7.72c8.94,0,8.94-7.72,17.88-7.72c8.94,0,8.94,7.72,17.88,7.72c8.94,0,8.94-7.72,17.88-7.72
				c8.94,0,8.94,7.72,17.88,7.72c8.95,0,8.95-7.72,17.9-7.72c8.95,0,8.95,7.72,17.91,7.72c8.95,0,8.95-7.72,17.91-7.72"/>
			<path id="XMLID_692_" class="st8" d="M1.52,85.48c8.94,0,8.94,7.72,17.87,7.72c8.93,0,8.93-7.72,17.86-7.72
				c8.93,0,8.93,7.72,17.87,7.72c8.94,0,8.94-7.72,17.87-7.72c8.93,0,8.93,7.72,17.87,7.72c8.94,0,8.94-7.72,17.87-7.72
				c8.93,0,8.93,7.72,17.87,7.72c8.94,0,8.94-7.72,17.87-7.72c8.94,0,8.94,7.72,17.87,7.72c8.94,0,8.94-7.72,17.88-7.72
				c8.94,0,8.94,7.72,17.87,7.72c8.94,0,8.94-7.72,17.88-7.72c8.94,0,8.94,7.72,17.88,7.72c8.94,0,8.94-7.72,17.87-7.72
				c8.93,0,8.93,7.72,17.86,7.72c8.94,0,8.94-7.72,17.88-7.72c8.93,0,8.93,7.72,17.87,7.72c8.94,0,8.94-7.72,17.88-7.72
				c8.94,0,8.94,7.72,17.88,7.72c8.94,0,8.94-7.72,17.88-7.72c8.94,0,8.94,7.72,17.88,7.72c8.94,0,8.94-7.72,17.88-7.72
				c8.94,0,8.94,7.72,17.88,7.72c8.95,0,8.95-7.72,17.9-7.72c8.95,0,8.95,7.72,17.91,7.72c8.95,0,8.95-7.72,17.91-7.72"/>
			<path id="XMLID_691_" class="st8" d="M1.52,69.39c8.94,0,8.94,7.72,17.87,7.72c8.93,0,8.93-7.72,17.86-7.72
				c8.93,0,8.93,7.72,17.87,7.72c8.94,0,8.94-7.72,17.87-7.72c8.93,0,8.93,7.72,17.87,7.72c8.94,0,8.94-7.72,17.87-7.72
				c8.93,0,8.93,7.72,17.87,7.72c8.94,0,8.94-7.72,17.87-7.72c8.94,0,8.94,7.72,17.87,7.72c8.94,0,8.94-7.72,17.88-7.72
				c8.94,0,8.94,7.72,17.87,7.72c8.94,0,8.94-7.72,17.88-7.72c8.94,0,8.94,7.72,17.88,7.72c8.94,0,8.94-7.72,17.87-7.72
				c8.93,0,8.93,7.72,17.86,7.72c8.94,0,8.94-7.72,17.88-7.72c8.93,0,8.93,7.72,17.87,7.72c8.94,0,8.94-7.72,17.88-7.72
				c8.94,0,8.94,7.72,17.88,7.72c8.94,0,8.94-7.72,17.88-7.72c8.94,0,8.94,7.72,17.88,7.72c8.94,0,8.94-7.72,17.88-7.72
				c8.94,0,8.94,7.72,17.88,7.72c8.95,0,8.95-7.72,17.9-7.72c8.95,0,8.95,7.72,17.91,7.72c8.95,0,8.95-7.72,17.91-7.72"/>
			<path id="XMLID_690_" class="st8" d="M1.52,53.3c8.94,0,8.94,7.72,17.87,7.72c8.93,0,8.93-7.72,17.86-7.72
				c8.93,0,8.93,7.72,17.87,7.72c8.94,0,8.94-7.72,17.87-7.72c8.93,0,8.93,7.72,17.87,7.72c8.94,0,8.94-7.72,17.87-7.72
				c8.93,0,8.93,7.72,17.87,7.72c8.94,0,8.94-7.72,17.87-7.72c8.94,0,8.94,7.72,17.87,7.72c8.94,0,8.94-7.72,17.88-7.72
				c8.94,0,8.94,7.72,17.87,7.72c8.94,0,8.94-7.72,17.88-7.72c8.94,0,8.94,7.72,17.88,7.72c8.94,0,8.94-7.72,17.87-7.72
				c8.93,0,8.93,7.72,17.86,7.72c8.94,0,8.94-7.72,17.88-7.72c8.93,0,8.93,7.72,17.87,7.72c8.94,0,8.94-7.72,17.88-7.72
				c8.94,0,8.94,7.72,17.88,7.72c8.94,0,8.94-7.72,17.88-7.72c8.94,0,8.94,7.72,17.88,7.72c8.94,0,8.94-7.72,17.88-7.72
				c8.94,0,8.94,7.72,17.88,7.72c8.95,0,8.95-7.72,17.9-7.72c8.95,0,8.95,7.72,17.91,7.72c8.95,0,8.95-7.72,17.91-7.72"/>
		</g>
	</g>
	<g id="XMLID_681_">
		<path id="XMLID_684_" class="st5" d="M692.03,670.25H561.66c-0.91,0-1.66-0.75-1.66-1.66v-62.92c0-0.91,0.75-1.66,1.66-1.66
			h130.37c0.91,0,1.66,0.75,1.66,1.66v62.92C693.69,669.5,692.94,670.25,692.03,670.25z"/>
		<g id="XMLID_682_">
			<g>
				<path class="st3" d="M596.12,637.78h-9.4v-17.23h2.67v14.94h6.73V637.78z"/>
				<path class="st3" d="M611.72,637.78h-3.13l-2.8-4.69c-0.55-0.92-1.05-1.55-1.5-1.88c-0.45-0.33-0.96-0.5-1.54-0.5h-1.45v7.07
					h-2.67v-17.23h5.48c1.79,0,3.17,0.4,4.14,1.21c0.98,0.8,1.46,1.94,1.46,3.42c0,1.16-0.34,2.15-1.01,2.97
					c-0.67,0.82-1.62,1.4-2.83,1.72v0.04c0.77,0.27,1.63,1.17,2.59,2.71L611.72,637.78z M601.31,622.76v5.74h2.37
					c0.99,0,1.77-0.29,2.36-0.86c0.59-0.57,0.88-1.3,0.88-2.18c0-1.8-1.07-2.7-3.2-2.7H601.31z"/>
				<path class="st3" d="M624.05,622.85h-4.95v14.94h-2.68v-14.94h-4.94v-2.29h12.57V622.85z"/>
				<path class="st3" d="M643.32,637.15c-1.19,0.6-2.69,0.9-4.5,0.9c-2.33,0-4.19-0.73-5.59-2.2c-1.4-1.46-2.1-3.4-2.1-5.8
					c0-2.51,0.78-4.57,2.33-6.19c1.55-1.62,3.56-2.43,6.01-2.43c1.54,0,2.83,0.21,3.85,0.64v2.52c-1.14-0.64-2.39-0.96-3.77-0.96
					c-1.75,0-3.16,0.58-4.22,1.73c-1.06,1.15-1.59,2.66-1.59,4.52c0,1.78,0.5,3.22,1.49,4.32c0.99,1.1,2.32,1.65,3.99,1.65
					c1.55,0,2.92-0.36,4.09-1.07V637.15z"/>
				<path class="st3" d="M655.83,637.78h-9.47v-2.04h3.52v-11.62l-3.61,0.98v-2.14l6.05-1.59v14.37h3.51V637.78z"/>
				<path class="st3" d="M657.98,630.05c0-2.83,0.48-4.97,1.45-6.43c0.97-1.46,2.37-2.19,4.2-2.19c3.5,0,5.24,2.75,5.24,8.23
					c0,2.69-0.48,4.76-1.43,6.21c-0.96,1.45-2.34,2.18-4.15,2.18c-1.75,0-3.07-0.68-3.97-2.06
					C658.43,634.63,657.98,632.64,657.98,630.05z M660.46,629.95c0,4.1,0.99,6.15,2.98,6.15c1.96,0,2.94-2.09,2.94-6.27
					c0-4.29-0.96-6.44-2.88-6.44C661.48,623.39,660.46,625.58,660.46,629.95z"/>
				<path class="st3" d="M584.09,656.37c-0.78,0.4-1.77,0.59-2.96,0.59c-1.53,0-2.76-0.48-3.68-1.45c-0.92-0.96-1.38-2.24-1.38-3.82
					c0-1.65,0.51-3.01,1.54-4.08c1.02-1.07,2.34-1.6,3.95-1.6c1.02,0,1.86,0.14,2.54,0.42v1.66c-0.75-0.42-1.57-0.63-2.48-0.63
					c-1.15,0-2.08,0.38-2.78,1.14c-0.7,0.76-1.05,1.75-1.05,2.98c0,1.17,0.33,2.12,0.98,2.84c0.65,0.72,1.53,1.09,2.63,1.09
					c1.02,0,1.92-0.23,2.69-0.7V656.37z"/>
				<path class="st3" d="M590.24,650.75c-0.24-0.16-0.55-0.23-0.94-0.23c-0.52,0-0.94,0.23-1.26,0.68
					c-0.32,0.46-0.48,1.06-0.48,1.81v3.77h-1.61v-7.56h1.61v1.5h0.03c0.37-1.09,1.03-1.63,1.98-1.63c0.28,0,0.51,0.03,0.67,0.1
					V650.75z"/>
				<path class="st3" d="M597.96,656.78h-1.6v-1.18h-0.03c-0.52,0.91-1.3,1.36-2.32,1.36c-1.78,0-2.67-1.07-2.67-3.21v-4.53h1.6
					v4.33c0,1.41,0.54,2.12,1.63,2.12c0.53,0,0.96-0.19,1.3-0.58s0.51-0.9,0.51-1.52v-4.35h1.6V656.78z"/>
				<path class="st3" d="M600.06,646.62c0-0.27,0.09-0.49,0.28-0.67c0.19-0.18,0.42-0.26,0.7-0.26c0.28,0,0.51,0.09,0.7,0.26
					c0.19,0.17,0.29,0.4,0.29,0.67s-0.1,0.49-0.29,0.67c-0.19,0.18-0.43,0.26-0.7,0.26s-0.51-0.09-0.7-0.27
					S600.06,646.89,600.06,646.62z M600.22,656.78v-7.56h1.61v7.56H600.22z"/>
				<path class="st3" d="M603.73,655.03c0.71,0.48,1.44,0.72,2.2,0.72c1,0,1.5-0.31,1.5-0.93c0-0.26-0.1-0.47-0.31-0.64
					c-0.21-0.17-0.68-0.39-1.42-0.66c-0.77-0.3-1.29-0.61-1.56-0.95c-0.27-0.33-0.4-0.75-0.4-1.26c0-0.7,0.29-1.25,0.88-1.65
					s1.31-0.61,2.17-0.61c0.66,0,1.28,0.11,1.85,0.33v1.42c-0.57-0.36-1.22-0.53-1.93-0.53c-0.41,0-0.73,0.08-0.98,0.25
					s-0.38,0.39-0.38,0.66c0,0.27,0.09,0.48,0.28,0.64c0.19,0.16,0.61,0.36,1.28,0.62c0.82,0.3,1.38,0.62,1.68,0.96
					c0.3,0.34,0.45,0.76,0.45,1.27c0,0.72-0.29,1.28-0.88,1.69s-1.35,0.62-2.3,0.62c-0.81,0-1.52-0.14-2.13-0.42V655.03z"/>
				<path class="st3" d="M617.03,653.43h-5.2c0.07,1.53,0.85,2.29,2.33,2.29c0.84,0,1.6-0.25,2.29-0.75v1.33
					c-0.67,0.44-1.56,0.66-2.66,0.66c-1.12,0-2-0.34-2.63-1.03s-0.95-1.64-0.95-2.87c0-1.17,0.34-2.13,1.02-2.88
					c0.68-0.76,1.53-1.13,2.56-1.13c1.02,0,1.82,0.32,2.38,0.97c0.57,0.65,0.85,1.53,0.85,2.66V653.43z M615.47,652.26
					c0-0.65-0.15-1.14-0.44-1.49s-0.71-0.52-1.24-0.52c-0.49,0-0.91,0.18-1.27,0.55c-0.36,0.37-0.58,0.85-0.67,1.46H615.47z"/>
				<path class="st3" d="M629.06,647.6h-3.04v9.18h-1.65v-9.18h-3.04v-1.41h7.72V647.6z"/>
				<path class="st3" d="M635.22,653.43h-5.2c0.07,1.53,0.85,2.29,2.33,2.29c0.84,0,1.6-0.25,2.29-0.75v1.33
					c-0.67,0.44-1.56,0.66-2.66,0.66c-1.12,0-2-0.34-2.63-1.03s-0.95-1.64-0.95-2.87c0-1.17,0.34-2.13,1.02-2.88
					c0.68-0.76,1.53-1.13,2.56-1.13c1.02,0,1.82,0.32,2.38,0.97c0.57,0.65,0.85,1.53,0.85,2.66V653.43z M633.66,652.26
					c0-0.65-0.15-1.14-0.44-1.49s-0.71-0.52-1.24-0.52c-0.49,0-0.91,0.18-1.27,0.55c-0.36,0.37-0.58,0.85-0.67,1.46H633.66z"/>
				<path class="st3" d="M641.19,650.75c-0.24-0.16-0.55-0.23-0.94-0.23c-0.52,0-0.94,0.23-1.26,0.68
					c-0.32,0.46-0.48,1.06-0.48,1.81v3.77h-1.61v-7.56h1.61v1.5h0.03c0.37-1.09,1.03-1.63,1.98-1.63c0.28,0,0.51,0.03,0.67,0.1
					V650.75z"/>
				<path class="st3" d="M653.58,656.78h-1.61v-4.33c0-0.75-0.12-1.29-0.36-1.62s-0.63-0.5-1.16-0.5c-0.46,0-0.85,0.21-1.18,0.63
					s-0.49,0.93-0.49,1.54v4.29h-1.6v-4.44c0-1.34-0.51-2.01-1.54-2.01c-0.47,0-0.87,0.2-1.18,0.61c-0.31,0.41-0.47,0.93-0.47,1.57
					v4.27h-1.61v-7.56H644v1.19h0.03c0.54-0.91,1.33-1.37,2.38-1.37c1.06,0,1.78,0.5,2.15,1.51c0.57-1.01,1.41-1.51,2.53-1.51
					c1.65,0,2.48,1.02,2.48,3.07V656.78z"/>
				<path class="st3" d="M655.53,646.62c0-0.27,0.09-0.49,0.28-0.67c0.19-0.18,0.42-0.26,0.7-0.26c0.28,0,0.51,0.09,0.7,0.26
					c0.19,0.17,0.29,0.4,0.29,0.67s-0.1,0.49-0.29,0.67c-0.19,0.18-0.43,0.26-0.7,0.26s-0.51-0.09-0.7-0.27
					S655.53,646.89,655.53,646.62z M655.69,656.78v-7.56h1.61v7.56H655.69z"/>
				<path class="st3" d="M666.2,656.78h-1.6v-4.27c0-1.45-0.53-2.18-1.59-2.18c-0.53,0-0.97,0.2-1.32,0.61
					c-0.35,0.4-0.52,0.91-0.52,1.53v4.31h-1.61v-7.56h1.61v1.24h0.03c0.56-0.94,1.38-1.42,2.46-1.42c1.69,0,2.54,1.04,2.54,3.12
					V656.78z"/>
				<path class="st3" d="M668.51,649.73c0.77-0.46,1.66-0.68,2.67-0.68c1.91,0,2.86,0.99,2.86,2.96v4.78h-1.56v-1.15h-0.03
					c-0.51,0.88-1.28,1.33-2.3,1.33c-0.74,0-1.33-0.2-1.75-0.6c-0.43-0.4-0.64-0.94-0.64-1.62c0-1.42,0.85-2.25,2.54-2.49l2.19-0.3
					c0-1.13-0.49-1.69-1.48-1.69c-0.91,0-1.74,0.29-2.5,0.88V649.73z M670.82,653.27c-0.55,0.07-0.93,0.21-1.16,0.42
					c-0.23,0.21-0.34,0.51-0.34,0.9c0,0.33,0.12,0.6,0.36,0.82c0.24,0.21,0.55,0.32,0.93,0.32c0.54,0,0.98-0.19,1.34-0.57
					c0.36-0.38,0.53-0.86,0.53-1.44v-0.67L670.82,653.27z"/>
				<path class="st3" d="M676.16,656.78v-11.19h1.61v11.19H676.16z"/>
			</g>
		</g>
	</g>
	<g id="XMLID_17_">
		<path id="XMLID_680_" class="st2" d="M521.96,651.09H397.58c-1.11,0-2.02-0.91-2.02-2.02v-74.73c0-1.11,0.91-2.02,2.02-2.02h6.1
			h118.29c1.11,0,2.02,0.91,2.02,2.02v74.73C523.99,650.18,523.08,651.09,521.96,651.09z"/>
		<g id="XMLID_655_">
			<g id="XMLID_679_">
				<path class="st3" d="M449.86,589.89l-5.74,10.96v6.44h-1.92v-6.4l-5.6-11h2.19l3.95,7.95c0.06,0.12,0.2,0.47,0.43,1.04h0.03
					c0.08-0.26,0.24-0.61,0.47-1.04l4.16-7.95H449.86z"/>
				<path class="st3" d="M451.33,601.23c0-2.07,0.56-3.69,1.69-4.88c1.13-1.19,2.66-1.78,4.6-1.78c1.83,0,3.26,0.57,4.3,1.72
					c1.04,1.14,1.56,2.73,1.56,4.75c0,1.96-0.56,3.54-1.68,4.74s-2.61,1.8-4.46,1.8c-1.79,0-3.24-0.58-4.34-1.73
					C451.88,604.69,451.33,603.16,451.33,601.23z M453.24,601.15c0,1.47,0.38,2.64,1.15,3.51c0.77,0.88,1.79,1.31,3.07,1.31
					c1.3,0,2.31-0.43,3.03-1.28c0.71-0.85,1.07-2.05,1.07-3.59c0-1.58-0.35-2.8-1.06-3.66s-1.72-1.29-3.04-1.29
					c-1.29,0-2.31,0.44-3.08,1.33C453.62,598.38,453.24,599.6,453.24,601.15z"/>
				<path class="st3" d="M478.92,607.28h-1.88v-1.96H477c-0.82,1.5-2.09,2.26-3.83,2.26c-2.96,0-4.45-1.76-4.45-5.29v-7.42h1.85
					v7.11c0,2.67,1.02,4.01,3.05,4.01c1,0,1.82-0.37,2.46-1.11c0.64-0.74,0.95-1.69,0.95-2.85v-7.15h1.88V607.28z"/>
				<path class="st3" d="M415.49,628.66v6.6h-1.91v-17.4h4.69c1.82,0,3.24,0.45,4.27,1.36c1.03,0.91,1.54,2.18,1.54,3.82
					c0,1.71-0.6,3.08-1.81,4.13c-1.21,1.05-2.69,1.54-4.46,1.48H415.49z M415.49,619.63v7.24h2.18c1.43,0,2.52-0.32,3.27-0.97
					s1.13-1.57,1.13-2.77c0-2.34-1.38-3.5-4.13-3.5H415.49z"/>
				<path class="st3" d="M428.94,623.73c1.22-0.79,2.62-1.18,4.19-1.18c2.88,0,4.32,1.53,4.32,4.59v8.12h-1.88v-1.95h-0.07
					c-0.86,1.5-2.13,2.25-3.82,2.25c-1.23,0-2.2-0.33-2.9-0.98s-1.06-1.52-1.06-2.6c0-2.3,1.36-3.64,4.09-4.03l3.75-0.54
					c0-2.16-0.86-3.23-2.58-3.23c-1.5,0-2.85,0.51-4.04,1.54V623.73z M432.52,629.37c-1.06,0.14-1.8,0.4-2.22,0.77
					c-0.42,0.37-0.62,0.94-0.62,1.71c0,0.62,0.22,1.13,0.67,1.52c0.45,0.39,1.03,0.58,1.75,0.58c1,0,1.82-0.36,2.48-1.07
					c0.66-0.71,0.99-1.6,0.99-2.66v-1.26L432.52,629.37z"/>
				<path class="st3" d="M449.91,624.77c-0.34-0.26-0.84-0.39-1.49-0.39c-0.88,0-1.6,0.42-2.16,1.25c-0.57,0.83-0.85,1.93-0.85,3.29
					v6.36h-1.88v-12.42h1.88v2.57h0.06c0.28-0.88,0.72-1.57,1.3-2.05s1.23-0.73,1.93-0.73c0.53,0,0.94,0.06,1.21,0.17V624.77z"/>
				<path class="st3" d="M464.56,635.27h-2.66l-5.58-5.95h-0.06v5.95h-1.88v-18.38h1.88v11.66h0.06l5.3-5.69h2.48l-5.84,6.01
					L464.56,635.27z"/>
				<path class="st3" d="M468.68,618.37c0-0.35,0.12-0.65,0.35-0.89s0.52-0.37,0.86-0.37c0.35,0,0.65,0.12,0.89,0.37
					c0.24,0.25,0.36,0.54,0.36,0.89c0,0.33-0.12,0.62-0.36,0.87c-0.24,0.25-0.54,0.37-0.89,0.37c-0.35,0-0.64-0.12-0.87-0.36
					C468.8,619.01,468.68,618.72,468.68,618.37z M468.94,635.27v-12.42h1.86v12.42H468.94z"/>
				<path class="st3" d="M487.4,635.27h-1.88v-7.1c0-2.68-0.98-4.02-2.94-4.02c-1.03,0-1.87,0.38-2.53,1.15
					c-0.66,0.77-0.99,1.73-0.99,2.88v7.09h-1.88v-12.42h1.88v2.08h0.06c0.93-1.58,2.29-2.37,4.08-2.37c1.36,0,2.4,0.44,3.12,1.31
					c0.72,0.88,1.08,2.14,1.08,3.81V635.27z"/>
				<path class="st3" d="M503.99,634.29c0,4.55-2.16,6.83-6.47,6.83c-1.53,0-2.87-0.3-4.03-0.89v-1.91c1.4,0.78,2.74,1.17,4.02,1.17
					c3.08,0,4.62-1.65,4.62-4.95v-1.38h-0.04c-0.97,1.6-2.4,2.4-4.29,2.4c-1.56,0-2.8-0.56-3.74-1.67c-0.94-1.12-1.4-2.59-1.4-4.43
					c0-2.12,0.51-3.8,1.54-5.04c1.03-1.24,2.41-1.86,4.14-1.86c1.68,0,2.93,0.68,3.75,2.03h0.04v-1.74h1.86V634.29z M502.12,627.79
					c0-1.01-0.35-1.87-1.04-2.58c-0.7-0.71-1.53-1.06-2.52-1.06c-1.24,0-2.22,0.46-2.94,1.37c-0.72,0.91-1.07,2.18-1.07,3.81
					c0,1.41,0.34,2.53,1.03,3.38c0.69,0.84,1.58,1.26,2.68,1.26c1.12,0,2.04-0.4,2.76-1.21c0.73-0.8,1.09-1.83,1.09-3.08V627.79z"/>
			</g>
		</g>
	</g>
</g>
</svg>
