<?xml version="1.0" encoding="utf-8"?>
<!-- Generator: Adobe Illustrator 24.0.0, SVG Export Plug-In . SVG Version: 6.00 Build 0)  -->
<svg version="1.1" xmlns="http://www.w3.org/2000/svg" xmlns:xlink="http://www.w3.org/1999/xlink" x="0px" y="0px"
	 viewBox="0 0 879.91 683.66" style="enable-background:new 0 0 879.91 683.66;" xml:space="preserve">
<style type="text/css">
	.st0{fill:#424242;}
	.st1{fill:#212336;}
	.st2{fill:none;stroke:#FFFFFF;stroke-width:0.5;stroke-miterlimit:10;}
	.st3{fill:#FFFFFF;}
	.st4{fill:#45456D;}
	.st5{fill:#42446A;}
	.st6{fill:#E32B89;}
	.st7{opacity:0.5;clip-path:url(#XMLID_328_);}
	.st8{fill:none;stroke:#FFFFFF;stroke-width:0.3;stroke-miterlimit:10;}
	.st9{opacity:0.5;clip-path:url(#XMLID_331_);}
	.st10{opacity:0.5;clip-path:url(#XMLID_335_);}
	.st11{opacity:0.5;clip-path:url(#XMLID_336_);}
	.st12{opacity:0.5;clip-path:url(#XMLID_339_);}
	.st13{opacity:0.5;clip-path:url(#XMLID_340_);}
</style>
<g id="圖層_2">
	<g>
		<path id="XMLID_563_" class="st2" d="M434.06,414.78l20.12-6.98c0.23-0.08,0.48-0.1,0.72-0.04l19.44,4.29
			c0.54,0.12,0.96,0.57,1.03,1.12l1.37,10.47c0.08,0.64-0.3,1.24-0.91,1.44l-19.38,6.16c-0.21,0.07-0.44,0.08-0.66,0.04l-20.89-4.12
			c-0.59-0.12-1.03-0.61-1.07-1.21l-0.66-9.8C433.13,415.52,433.49,414.97,434.06,414.78z"/>
		<path id="XMLID_562_" class="st2" d="M434.32,445.74l23.83-6.17c0.24-0.06,0.49-0.06,0.72,0.02l21.94,6.73
			c0.56,0.17,0.95,0.7,0.94,1.29l-0.21,12.4c-0.01,0.6-0.43,1.13-1.02,1.27l-22.04,5.3c-0.22,0.05-0.45,0.05-0.67-0.01l-23.68-6.7
			c-0.58-0.16-0.97-0.69-0.96-1.29l0.16-11.56C433.34,446.41,433.74,445.89,434.32,445.74z"/>
		<path id="XMLID_561_" class="st2" d="M443.27,478.16l14.57-3.77c0.24-0.06,0.49-0.06,0.72,0.02l13.35,4.09
			c0.58,0.18,0.97,0.73,0.93,1.34l-0.39,7.1c-0.03,0.58-0.44,1.07-1.01,1.21l-13.13,3.23c-0.22,0.06-0.46,0.05-0.68-0.01
			l-14.48-4.09c-0.58-0.16-0.97-0.69-0.96-1.29l0.09-6.56C442.28,478.83,442.69,478.31,443.27,478.16z"/>
		<path id="XMLID_560_" class="st2" d="M435.07,505.35l23.05-5.97c0.24-0.06,0.49-0.06,0.72,0.02l21.22,6.51
			c0.57,0.17,0.95,0.7,0.94,1.29l-0.23,11.95c-0.01,0.6-0.43,1.12-1.01,1.26l-21.29,5.12c-0.22,0.05-0.45,0.05-0.67-0.01l-22.9-6.48
			c-0.58-0.16-0.97-0.69-0.96-1.29l0.15-11.14C434.09,506.02,434.5,505.5,435.07,505.35z"/>
		<path id="XMLID_559_" class="st2" d="M444.1,546.34l9.12-10.3c0.16-0.18,0.37-0.32,0.61-0.39l12.3-3.74
			c0.53-0.16,1.11,0.03,1.45,0.47l3.82,5.1c0.38,0.51,0.35,1.23-0.09,1.7l-8.94,9.57c-0.15,0.16-0.34,0.28-0.56,0.35l-13.08,4.29
			c-0.57,0.19-1.19-0.03-1.52-0.53l-3.22-4.93C443.66,547.45,443.71,546.79,444.1,546.34z"/>
		<g id="XMLID_549_">
			<path id="XMLID_558_" class="st2" d="M155.75,61.89l96.79,143.28c0.74,1.1,1.98,1.75,3.3,1.75h36.47c2.2,0,3.98,1.78,3.98,3.98
				v78.03c0,2.2,1.78,3.98,3.98,3.98h100.37c2.2,0,3.98,1.78,3.98,3.98v376.16c0,2.2,1.78,3.98,3.98,3.98h471.29"/>
			<path id="XMLID_557_" class="st2" d="M85.04,104.75l160.81,250.93c0.41,0.64,0.63,1.39,0.63,2.15v110.66
				c0,2.2-1.78,3.98-3.98,3.98H40.29"/>
			<path id="XMLID_556_" class="st2" d="M40.29,546.1H242.5c2.2,0,3.98,1.78,3.98,3.98v122.98c0,2.2-1.78,3.98-3.98,3.98H40.29"/>
			<g id="XMLID_550_">
				<path id="XMLID_555_" class="st2" d="M202.51,129.84h251.17c1.03,0,2.03-0.4,2.77-1.12L589.7,0.18"/>
				<path id="XMLID_554_" class="st2" d="M631.47,34.36L500.27,167.9c-1.52,1.55-1.52,4.02,0,5.57l32.7,33.45
					c1.55,1.58,4.08,1.6,5.65,0.05l171.07-167.3"/>
				<path id="XMLID_553_" class="st2" d="M752.98,74.61L564.33,260.06c-0.75,0.75-1.18,1.77-1.18,2.83v154.67
					c0,2.2,1.78,3.98,3.98,3.98h74.02c1.09,0,2.13-0.45,2.88-1.24l143.03-155.26"/>
				<path id="XMLID_552_" class="st2" d="M830.36,299.23L664.18,478.04c-0.75,0.8-1.81,1.26-2.91,1.26h-94.14
					c-2.2,0-3.98,1.78-3.98,3.98v96.16c0,2.2,1.78,3.98,3.98,3.98h312.77"/>
				<path id="XMLID_551_" class="st2" d="M232.66,177.96h216.71c1.15,0,2.24,0.49,2.99,1.35l61.72,70.27
					c0.64,0.73,0.99,1.66,0.99,2.63v383.14c0,2.2,1.78,3.98,3.98,3.98h360.85"/>
			</g>
		</g>
		<g id="XMLID_536_">
			<g>
				<g>
					<path class="st3" d="M691.54,417.36l-0.37-2.82c1.54-0.12,3.08-0.75,4.02-1.77c1.12-1.21,1.19-2.34,0.37-3.09
						c-0.87-0.8-1.79-0.34-3.19,0.3l-2.1,0.95c-1.58,0.73-3.61,1.04-5.31-0.52c-1.91-1.76-1.83-4.78,0.34-7.14
						c1.25-1.35,3.03-2.22,4.87-2.28l0.38,2.53c-1.3,0.17-2.35,0.63-3.24,1.59c-0.94,1.02-1.1,2.11-0.32,2.82
						c0.83,0.77,1.9,0.21,3.21-0.42l2.05-0.93c1.89-0.88,3.64-0.98,5.33,0.57c1.91,1.76,2.06,4.84-0.42,7.54
						C695.72,416.24,693.67,417.23,691.54,417.36z"/>
					<path class="st3" d="M690.91,397.94c-0.76-0.7-0.72-1.74,0.02-2.55c0.73-0.79,1.77-0.91,2.52-0.21c0.72,0.67,0.72,1.75,0,2.53
						C692.7,398.52,691.63,398.61,690.91,397.94z M693.79,400.19l2.12-2.3l8.82,8.13l-2.12,2.3L693.79,400.19z"/>
					<path class="st3" d="M697.44,396.22l2.13-2.32l5.25,3.06c1.01,0.61,1.96,1.28,2.97,1.92l0.06-0.06
						c-0.71-0.97-1.43-1.93-2.06-2.92l-3.39-5.08l1.9-2.06l5.38,2.92c1.04,0.58,2.04,1.21,3.08,1.81l0.07-0.08
						c-0.72-0.96-1.47-1.85-2.16-2.81l-3.48-4.98l1.97-2.14l6.82,10.3l-2.51,2.73l-4.7-2.61c-1.01-0.58-1.94-1.18-3.03-1.86
						l-0.07,0.08c0.77,1.03,1.47,1.91,2.12,2.85l3.02,4.44l-2.44,2.65L697.44,396.22z"/>
					<path class="st3" d="M714.53,386.56c-2.87-2.64-2.8-6.28-0.86-8.39c2.24-2.43,5.18-2.05,7.62,0.2
						c0.43,0.39,0.81,0.83,0.95,1.08l-5.01,5.44c1.62,1.15,3.25,0.9,4.46-0.41c0.67-0.72,1.03-1.56,1.21-2.55l2.14,0.52
						c-0.2,1.42-0.85,2.88-1.87,3.99C720.91,388.89,717.42,389.23,714.53,386.56z M718.98,379.92c-1.2-1.1-2.45-1.26-3.49-0.13
						c-0.86,0.93-0.95,2.36,0.18,3.72L718.98,379.92z"/>
					<path class="st3" d="M716.16,370.53c-0.76-0.7-0.72-1.74,0.02-2.55c0.73-0.79,1.77-0.91,2.52-0.21c0.72,0.67,0.72,1.75,0,2.53
						C717.96,371.11,716.88,371.2,716.16,370.53z M719.04,372.78l2.12-2.3l8.82,8.13l-2.12,2.3L719.04,372.78z"/>
					<path class="st3" d="M739.54,362.17l-1.28,1.39l3.03,2.79l-1.99,2.16l-3.03-2.79l-4.57,4.96l-1.58-1.45l-3.05-10.85l2.55-2.77
						l6.87,6.33l1.28-1.39L739.54,362.17z M734.51,364.09l-2.38-2.19c-0.68-0.62-1.67-1.66-2.32-2.32l-0.06,0.06
						c0.35,0.85,0.71,1.76,1.03,2.67l1.23,4.48L734.51,364.09z"/>
					<path class="st3" d="M741.33,360.09l-3.91-3.6l-1.15,1.25l-1.72-1.58l1.14-1.46l-2.12-2.45l1.79-1.94l2.36,2.18l2-2.17
						l1.83,1.68l-2,2.17l3.91,3.6c1.01,0.93,1.86,0.95,2.58,0.17c0.26-0.28,0.49-0.72,0.61-1.04l2.03,1.18
						c-0.28,0.62-0.67,1.39-1.38,2.16C745.38,362.34,743.32,361.92,741.33,360.09z"/>
					<path class="st3" d="M737.64,345.07l2.12-2.3l3.17,2.92l1.57,1.62c-0.01-1.32,0.16-2.77,1.26-3.96
						c1.76-1.91,3.83-1.51,6.06,0.54l5.5,5.07l-2.13,2.32l-5.21-4.8c-1.36-1.25-2.19-1.32-2.99-0.45c-0.67,0.72-0.74,1.5-0.71,2.76
						l6.07,5.59l-2.12,2.3L737.64,345.07z"/>
					<path class="st3" d="M768.82,336.46l-6.62-1.67l-1.5,1.62l4.41,4.07l-2.15,2.33l-11.66-10.74l3.75-4.06
						c2.25-2.44,4.89-3.6,7.56-1.13c1.75,1.61,2.02,3.5,1.31,5.31l7.29,1.67L768.82,336.46z M758.86,334.72l1.39-1.51
						c1.38-1.5,1.5-2.9,0.26-4.04c-1.26-1.16-2.44-0.73-3.82,0.76l-1.39,1.51L758.86,334.72z"/>
					<path class="st3" d="M767.66,328.9c-2.88-2.66-2.99-6.08-1.24-7.98c0.91-0.99,1.86-1.26,3.02-1.35l-1.47-1.18l-3.1-2.86
						l2.13-2.32l12.57,11.58l-1.73,1.87l-1.09-0.65l-0.04,0.05c0.03,1.23-0.27,2.57-1.12,3.49
						C773.58,331.74,770.54,331.56,767.66,328.9z M774.84,324.71l-3.88-3.57c-0.98,0.09-1.66,0.48-2.17,1.03
						c-0.91,0.99-0.74,2.7,1.03,4.33c1.83,1.68,3.35,1.86,4.42,0.7C774.81,326.58,775.04,325.82,774.84,324.71z"/>
					<path class="st3" d="M780.45,321.24c-0.85-0.78-0.95-2.01-0.19-2.83c0.77-0.83,2-0.84,2.85-0.06c0.85,0.78,0.95,2.01,0.18,2.84
						C782.53,322.02,781.31,322.02,780.45,321.24z"/>
				</g>
			</g>
			<g>
				<g>
					<path class="st3" d="M590.31,212.07c-0.2,0.56-0.73,1.39-1.55,2.21c-2.29,2.28-5.11,2.63-7.58,1.7
						c-2.85,1.93-6.56,1.39-9.75-1.82c-3.64-3.66-3.7-7.83-0.72-10.79c2.98-2.96,7.16-2.85,10.78,0.79
						c3.05,3.07,3.64,6.59,1.98,9.38c1.36,0.34,2.73-0.32,3.75-1.34c0.49-0.48,0.84-0.98,1.05-1.4L590.31,212.07z M580.48,213.2
						c1.67-1.66,1.23-4.24-1.28-6.76c-2.4-2.42-4.9-2.8-6.57-1.14c-1.67,1.66-1.3,4.16,1.1,6.58
						C576.23,214.4,578.8,214.87,580.48,213.2z"/>
					<path class="st3" d="M577.9,196.94c-0.72-0.73-0.64-1.77,0.13-2.54c0.76-0.75,1.8-0.83,2.53-0.1c0.7,0.7,0.65,1.77-0.11,2.53
						C579.67,197.6,578.6,197.64,577.9,196.94z M580.68,199.32l2.22-2.2l8.46,8.51l-2.22,2.2L580.68,199.32z"/>
					<path class="st3" d="M585.3,194.73l1.82-1.81l1.27,0.97l0.06-0.06c0.02-1.47,0.28-2.94,1.44-4.08c1.84-1.83,3.9-1.34,6.03,0.81
						l5.27,5.3l-2.23,2.22l-5-5.03c-1.3-1.31-2.13-1.42-2.97-0.59c-0.7,0.7-0.81,1.47-0.83,2.72l5.81,5.85l-2.22,2.2L585.3,194.73z"
						/>
					<path class="st3" d="M604.43,195.63c-0.71-0.71-0.87-1.76-0.54-2.97l-0.08-0.08c-0.73,0.15-1.5,0.04-2.2-0.66
						c-0.63-0.64-0.78-1.67-0.64-2.53l-0.06-0.06c-1,0.15-2.35-0.11-3.33-1.1c-1.99-2.01-1.44-4.7,0.37-6.5
						c0.47-0.47,1.02-0.83,1.49-1.05l3.07-3.05l1.63,1.64l-1.46,1.45c0.52,0.06,1.15,0.37,1.68,0.9c1.9,1.92,1.41,4.34-0.41,6.15
						c-0.33,0.33-0.81,0.65-1.29,0.89c-0.05,0.44,0.03,0.76,0.36,1.09c0.45,0.46,1.03,0.37,2.03-0.63l1.44-1.43
						c2.05-2.04,3.8-2.5,5.28-1.01c1.71,1.72,1.23,4.79-1.62,7.61C608.15,196.28,605.93,197.13,604.43,195.63z M602.35,183.5
						c-1-1-2.12-1.01-2.88-0.25c-0.76,0.76-0.78,1.89,0.22,2.89c1,1,2.15,0.98,2.89,0.24C603.33,185.64,603.34,184.5,602.35,183.5z
						 M610.03,189.16c-0.6-0.61-1.26-0.26-2.17,0.64l-1.03,1.03c-0.52,0.51-0.93,0.83-1.31,1.06c-0.08,0.68,0.07,1.2,0.42,1.55
						c0.71,0.71,1.91,0.34,3.15-0.9C610.37,191.27,610.69,189.83,610.03,189.16z"/>
					<path class="st3" d="M604.11,176.04l1.82-1.81l1.27,0.97l0.06-0.06c0.02-1.47,0.28-2.94,1.44-4.08
						c1.84-1.83,3.9-1.34,6.03,0.81l5.27,5.3l-2.23,2.22l-5-5.03c-1.3-1.31-2.13-1.42-2.97-0.59c-0.7,0.7-0.81,1.47-0.83,2.72
						l5.81,5.85l-2.22,2.2L604.11,176.04z"/>
					<path class="st3" d="M611.07,163.99c-0.72-0.73-0.64-1.77,0.13-2.54c0.76-0.75,1.8-0.83,2.53-0.1c0.7,0.7,0.65,1.78-0.11,2.53
						C612.84,164.65,611.77,164.69,611.07,163.99z M613.85,166.37l2.22-2.21l8.46,8.51l-2.22,2.2L613.85,166.37z"/>
					<path class="st3" d="M624.21,168.4c-1.81-1.82-1.29-4.25,1.77-8.01c-0.86-0.81-1.86-1.08-2.91-0.04
						c-0.79,0.79-1.2,1.89-1.54,3.13l-2.27-0.67c0.38-1.62,1.1-3.33,2.44-4.66c2.16-2.14,4.55-1.95,7,0.51l4.94,4.97l-1.82,1.81
						l-1.07-0.75l-0.05,0.05c-0.11,1.38-0.48,2.71-1.45,3.68C627.72,169.93,625.64,169.84,624.21,168.4z M629.04,163.48l-1.71-1.72
						c-1.8,2.33-1.94,3.58-1.18,4.34c0.67,0.67,1.42,0.49,2.08-0.16C628.87,165.31,629.04,164.54,629.04,163.48z"/>
					<path class="st3" d="M627.45,152.86l1.82-1.81l1.27,0.97l0.06-0.06c0.02-1.47,0.28-2.94,1.44-4.09
						c1.84-1.83,3.9-1.34,6.03,0.81l5.27,5.3l-2.23,2.22l-5-5.03c-1.3-1.31-2.13-1.42-2.97-0.58c-0.7,0.69-0.81,1.47-0.83,2.72
						l5.81,5.85l-2.22,2.2L627.45,152.86z"/>
					<path class="st3" d="M647.26,147.52c0.34-5.77,0.05-9.68-1.67-11.41c-1.13-1.14-2.43-1.21-3.5-0.15
						c-0.82,0.82-0.98,2.03-0.92,3.21l-2.42-0.01c-0.05-2.12,0.34-3.73,1.88-5.25c2.13-2.11,4.9-2.15,6.98-0.05
						c2.02,2.04,2.51,5.9,2.45,9.94c0.5-0.62,1.19-1.42,1.7-1.93l2.45-2.43l1.87,1.88l-7.54,7.49L647.26,147.52z"/>
					<path class="st3" d="M649.59,130.86l1.82-1.81l1.27,0.97l0.06-0.06c0.02-1.47,0.28-2.94,1.44-4.08
						c1.84-1.83,3.9-1.34,6.03,0.81l5.27,5.3l-2.23,2.22l-5-5.03c-1.3-1.31-2.13-1.42-2.97-0.59c-0.7,0.7-0.81,1.47-0.83,2.72
						l5.81,5.85l-2.22,2.2L649.59,130.86z"/>
					<path class="st3" d="M663.08,125.94c-2.76-2.78-2.72-6.21-0.88-8.03c0.96-0.95,1.91-1.18,3.08-1.22l-1.42-1.25l-2.97-2.99
						l2.23-2.22l12.05,12.13l-1.81,1.8l-1.06-0.7l-0.05,0.04c-0.02,1.23-0.39,2.56-1.27,3.43
						C668.88,129.03,665.85,128.72,663.08,125.94z M670.44,122.07l-3.71-3.74c-0.99,0.04-1.68,0.4-2.22,0.93
						c-0.96,0.95-0.86,2.66,0.83,4.37c1.75,1.76,3.27,2.01,4.39,0.89C670.33,123.94,670.59,123.19,670.44,122.07z"/>
					<path class="st3" d="M687.32,110.28l-6.54-1.96l-1.57,1.56l4.23,4.25l-2.25,2.23l-11.17-11.25l3.92-3.9
						c2.36-2.34,5.04-3.38,7.61-0.79c1.68,1.69,1.87,3.58,1.07,5.37l7.21,1.99L687.32,110.28z M677.45,108.1l1.46-1.45
						c1.44-1.43,1.63-2.83,0.44-4.03c-1.21-1.22-2.41-0.84-3.85,0.59l-1.46,1.45L677.45,108.1z"/>
					<path class="st3" d="M686.5,102.68c-2.76-2.78-2.72-6.21-0.88-8.03c0.96-0.95,1.91-1.18,3.08-1.22l-1.42-1.25l-2.97-2.99
						l2.23-2.22l12.05,12.13l-1.81,1.8l-1.06-0.7l-0.05,0.05c-0.02,1.23-0.39,2.56-1.27,3.43
						C692.29,105.77,689.26,105.46,686.5,102.68z M693.86,98.81l-3.71-3.74c-0.99,0.04-1.68,0.4-2.21,0.93
						c-0.96,0.95-0.86,2.66,0.83,4.37c1.75,1.76,3.26,2.01,4.39,0.89C693.75,100.67,694,99.93,693.86,98.81z"/>
					<path class="st3" d="M699.62,95.59c-0.82-0.82-0.86-2.05-0.07-2.83c0.81-0.8,2.03-0.75,2.85,0.07
						c0.82,0.82,0.86,2.05,0.05,2.85C701.66,96.46,700.44,96.41,699.62,95.59z"/>
				</g>
			</g>
			<g>
				<g>
					<path class="st3" d="M503.19,125.43l-8.37-2.49l2.49-2.48l3.42,1.19c0.79,0.28,1.57,0.58,2.6,0.95l0.08-0.08
						c-0.42-0.97-0.74-1.74-1.02-2.52l-1.23-3.37l2.37-2.36l2.55,8.49l8.82,2.56l-2.49,2.48l-3.74-1.24
						c-0.86-0.29-1.71-0.63-2.72-0.98l-0.06,0.06c0.39,0.97,0.72,1.82,1.02,2.67l1.28,3.69l-2.39,2.37L503.19,125.43z"/>
					<path class="st3" d="M505.07,113.04c-0.72-0.73-0.65-1.78,0.13-2.54c0.76-0.76,1.8-0.83,2.53-0.1c0.69,0.7,0.65,1.77-0.11,2.53
						C506.84,113.7,505.77,113.74,505.07,113.04z M507.85,115.42l2.22-2.21l8.46,8.51l-2.22,2.21L507.85,115.42z"/>
					<path class="st3" d="M512.47,110.82l1.82-1.81l1.27,0.97l0.06-0.06c0.02-1.47,0.28-2.94,1.44-4.09c1.84-1.83,3.9-1.34,6.03,0.8
						l5.27,5.3l-2.23,2.22l-5-5.03c-1.3-1.31-2.13-1.42-2.97-0.58c-0.7,0.69-0.81,1.47-0.83,2.72l5.82,5.85l-2.22,2.21
						L512.47,110.82z"/>
					<path class="st3" d="M528.02,106.36l-3.75-3.77l-1.2,1.19l-1.65-1.66l1.2-1.41l-2.01-2.54l1.87-1.86l2.27,2.28l2.1-2.08
						l1.75,1.76l-2.1,2.08l3.75,3.77c0.97,0.97,1.81,1.04,2.57,0.28c0.27-0.27,0.52-0.69,0.66-1.01l1.98,1.26
						c-0.3,0.61-0.73,1.36-1.47,2.1C531.97,108.78,529.93,108.27,528.02,106.36z"/>
					<path class="st3" d="M525.81,92.43c-0.72-0.73-0.65-1.78,0.13-2.54c0.76-0.76,1.8-0.83,2.53-0.1c0.69,0.7,0.65,1.77-0.11,2.53
						C527.58,93.09,526.5,93.13,525.81,92.43z M528.59,94.8l2.22-2.21l8.46,8.51l-2.22,2.21L528.59,94.8z"/>
					<path class="st3" d="M538.94,96.84c-1.81-1.82-1.29-4.25,1.77-8.01c-0.86-0.8-1.86-1.08-2.91-0.04
						c-0.79,0.79-1.2,1.89-1.54,3.13l-2.27-0.67c0.38-1.62,1.1-3.33,2.44-4.66c2.16-2.14,4.55-1.96,7,0.5l4.94,4.97l-1.82,1.81
						l-1.07-0.74l-0.05,0.04c-0.11,1.38-0.48,2.71-1.45,3.68C542.45,98.36,540.38,98.28,538.94,96.84z M543.77,91.91l-1.71-1.72
						c-1.79,2.33-1.93,3.58-1.18,4.34c0.67,0.67,1.42,0.49,2.08-0.16C543.6,93.74,543.77,92.97,543.77,91.91z"/>
					<path class="st3" d="M542.18,81.29l1.82-1.81l1.27,0.97l0.06-0.06c0.02-1.47,0.28-2.94,1.44-4.09c1.84-1.83,3.9-1.34,6.03,0.8
						l5.27,5.3l-2.23,2.22l-5-5.03c-1.3-1.31-2.13-1.42-2.97-0.58c-0.7,0.69-0.81,1.47-0.83,2.72l5.82,5.85l-2.22,2.21L542.18,81.29
						z"/>
					<path class="st3" d="M570.13,70.42l-6.54-1.96l-1.57,1.56l4.23,4.25L564,76.51l-11.18-11.24l3.92-3.9
						c2.35-2.34,5.04-3.38,7.61-0.8c1.68,1.69,1.87,3.58,1.08,5.37l7.21,1.99L570.13,70.42z M560.26,68.24l1.46-1.45
						c1.44-1.43,1.63-2.83,0.44-4.03c-1.21-1.22-2.41-0.84-3.85,0.59l-1.46,1.45L560.26,68.24z"/>
					<path class="st3" d="M569.3,62.82c-2.76-2.78-2.72-6.2-0.88-8.03c0.96-0.95,1.91-1.18,3.08-1.22l-1.42-1.25l-2.98-2.99
						l2.23-2.22l12.05,12.13l-1.81,1.8l-1.06-0.7l-0.04,0.04c-0.02,1.23-0.39,2.56-1.27,3.44C575.09,65.91,572.06,65.6,569.3,62.82z
						 M576.66,58.95l-3.72-3.74c-0.98,0.04-1.68,0.4-2.21,0.93c-0.96,0.95-0.86,2.66,0.84,4.37c1.75,1.76,3.27,2.01,4.39,0.89
						C576.55,60.81,576.8,60.07,576.66,58.95z"/>
					<path class="st3" d="M582.42,55.73c-0.82-0.82-0.86-2.05-0.07-2.83c0.8-0.8,2.03-0.75,2.85,0.07c0.82,0.82,0.86,2.05,0.05,2.85
						C584.46,56.59,583.24,56.55,582.42,55.73z"/>
				</g>
			</g>
			<g>
				<g>
					<path class="st3" d="M291.22,146.7h3.17v6.23h6v-6.23h3.15v15.85h-3.15v-6.86h-6v6.86h-3.17V146.7z"/>
					<path class="st3" d="M306.57,159.3c0-2.57,2.08-3.92,6.9-4.43c-0.04-1.18-0.56-2.08-2.04-2.08c-1.11,0-2.19,0.49-3.3,1.13
						l-1.14-2.08c1.41-0.88,3.13-1.58,5.01-1.58c3.04,0,4.61,1.82,4.61,5.29v7.01h-2.57l-0.24-1.29h-0.06
						c-1.05,0.9-2.25,1.58-3.62,1.58C307.99,162.85,306.57,161.33,306.57,159.3z M313.47,159.21v-2.42c-2.91,0.39-3.9,1.18-3.9,2.25
						c0,0.94,0.66,1.35,1.59,1.35C312.06,160.39,312.72,159.96,313.47,159.21z"/>
					<path class="st3" d="M319.53,146.91c0-1.03,0.79-1.71,1.89-1.71c1.07,0,1.86,0.69,1.86,1.71c0,0.99-0.79,1.71-1.86,1.71
						C320.32,148.63,319.53,147.9,319.53,146.91z M319.83,150.56h3.13v12h-3.13V150.56z"/>
					<path class="st3" d="M329.15,161.29h-0.06l-0.28,1.26h-2.46v-17.1h3.13v4.31l-0.06,1.93c0.94-0.86,2.14-1.43,3.32-1.43
						c2.96,0,4.73,2.42,4.73,6.08c0,4.13-2.46,6.51-5.1,6.51C331.29,162.85,330.13,162.3,329.15,161.29z M334.22,156.41
						c0-2.29-0.73-3.56-2.38-3.56c-0.81,0-1.54,0.41-2.38,1.24v5.27c0.75,0.66,1.54,0.9,2.19,0.9
						C333.11,160.26,334.22,159.02,334.22,156.41z"/>
					<path class="st3" d="M339.83,146.91c0-1.03,0.79-1.71,1.89-1.71c1.07,0,1.86,0.69,1.86,1.71c0,0.99-0.79,1.71-1.86,1.71
						C340.63,148.63,339.83,147.9,339.83,146.91z M340.13,150.56h3.13v12h-3.13V150.56z"/>
					<path class="st3" d="M346.05,159.3c0-2.57,2.08-3.92,6.9-4.43c-0.04-1.18-0.56-2.08-2.04-2.08c-1.11,0-2.19,0.49-3.3,1.13
						l-1.14-2.08c1.41-0.88,3.13-1.58,5.01-1.58c3.04,0,4.61,1.82,4.61,5.29v7.01h-2.57l-0.24-1.29h-0.06
						c-1.05,0.9-2.25,1.58-3.62,1.58C347.46,162.85,346.05,161.33,346.05,159.3z M352.94,159.21v-2.42c-2.91,0.39-3.9,1.18-3.9,2.25
						c0,0.94,0.66,1.35,1.59,1.35C351.53,160.39,352.19,159.96,352.94,159.21z"/>
					<path class="st3" d="M359.3,150.56h2.57l0.21,1.59h0.09c1.05-1.03,2.27-1.88,3.9-1.88c2.59,0,3.71,1.8,3.71,4.82v7.48h-3.15
						v-7.09c0-1.84-0.51-2.51-1.69-2.51c-0.99,0-1.61,0.47-2.51,1.35v8.25h-3.13V150.56z"/>
					<path class="st3" d="M386.78,162.55l-3.26-6h-2.21v6h-3.17V146.7h5.53c3.32,0,5.96,1.16,5.96,4.8c0,2.38-1.2,3.86-3.02,4.56
						l3.71,6.49H386.78z M381.32,154.05h2.06c2.04,0,3.15-0.86,3.15-2.55c0-1.71-1.11-2.29-3.15-2.29h-2.06V154.05z"/>
					<path class="st3" d="M391.56,156.58c0-3.92,2.44-6.32,5.03-6.32c1.35,0,2.19,0.51,3.04,1.31l-0.13-1.89v-4.22h3.15v17.1h-2.55
						l-0.26-1.24h-0.06c-0.88,0.86-2.08,1.54-3.32,1.54C393.48,162.85,391.56,160.5,391.56,156.58z M399.5,159.02v-5.27
						c-0.73-0.66-1.48-0.9-2.23-0.9c-1.35,0-2.49,1.29-2.49,3.68c0,2.49,0.9,3.73,2.49,3.73
						C398.11,160.26,398.82,159.92,399.5,159.02z"/>
					<path class="st3" d="M405.86,160.8c0-1.16,0.84-2.06,1.95-2.06c1.14,0,1.97,0.9,1.97,2.06c0,1.16-0.84,2.06-1.97,2.06
						C406.7,162.85,405.86,161.95,405.86,160.8z"/>
				</g>
			</g>
			<g>
				<g>
					<path class="st3" d="M551.56,434.46v3.17h-6.23v6h6.23v3.15h-15.85v-3.15h6.86v-6h-6.86v-3.17H551.56z"/>
					<path class="st3" d="M538.96,449.81c2.57,0,3.92,2.08,4.44,6.9c1.18-0.04,2.08-0.56,2.08-2.04c0-1.11-0.49-2.19-1.14-3.3
						l2.08-1.13c0.88,1.41,1.58,3.13,1.58,5.01c0,3.04-1.82,4.61-5.29,4.61h-7.01v-2.57l1.29-0.24v-0.06
						c-0.9-1.05-1.58-2.25-1.58-3.62C535.41,451.23,536.93,449.81,538.96,449.81z M539.05,456.71h2.42c-0.39-2.91-1.18-3.9-2.25-3.9
						c-0.94,0-1.35,0.66-1.35,1.58C537.87,455.3,538.3,455.96,539.05,456.71z"/>
					<path class="st3" d="M547.7,463.07v3.13h-12v-3.13H547.7z M551.34,462.77c1.03,0,1.71,0.79,1.71,1.88
						c0,1.07-0.69,1.86-1.71,1.86c-0.99,0-1.71-0.79-1.71-1.86C549.63,463.56,550.36,462.77,551.34,462.77z"/>
					<path class="st3" d="M536.97,472.39v-0.06l-1.26-0.28v-2.46h17.1v3.13h-4.31l-1.93-0.06c0.86,0.94,1.44,2.14,1.44,3.32
						c0,2.96-2.42,4.74-6.08,4.74c-4.13,0-6.51-2.46-6.51-5.1C535.41,474.53,535.96,473.37,536.97,472.39z M541.85,477.46
						c2.29,0,3.56-0.73,3.56-2.38c0-0.81-0.41-1.54-1.24-2.38h-5.27c-0.66,0.75-0.9,1.54-0.9,2.19
						C538,476.35,539.24,477.46,541.85,477.46z"/>
					<path class="st3" d="M547.7,483.37v3.13h-12v-3.13H547.7z M551.34,483.07c1.03,0,1.71,0.79,1.71,1.88
						c0,1.07-0.69,1.86-1.71,1.86c-0.99,0-1.71-0.79-1.71-1.86C549.63,483.87,550.36,483.07,551.34,483.07z"/>
					<path class="st3" d="M538.96,489.28c2.57,0,3.92,2.08,4.44,6.9c1.18-0.04,2.08-0.56,2.08-2.04c0-1.11-0.49-2.19-1.14-3.3
						l2.08-1.13c0.88,1.41,1.58,3.13,1.58,5.01c0,3.04-1.82,4.61-5.29,4.61h-7.01v-2.57l1.29-0.24v-0.06
						c-0.9-1.05-1.58-2.25-1.58-3.62C535.41,490.7,536.93,489.28,538.96,489.28z M539.05,496.18h2.42c-0.39-2.91-1.18-3.9-2.25-3.9
						c-0.94,0-1.35,0.66-1.35,1.58C537.87,494.77,538.3,495.43,539.05,496.18z"/>
					<path class="st3" d="M547.7,502.54v2.57l-1.58,0.21v0.09c1.03,1.05,1.88,2.27,1.88,3.9c0,2.59-1.8,3.71-4.82,3.71h-7.48v-3.15
						h7.09c1.84,0,2.51-0.51,2.51-1.69c0-0.99-0.47-1.61-1.35-2.51h-8.25v-3.13H547.7z"/>
					<path class="st3" d="M535.71,530.02l6-3.26v-2.21h-6v-3.17h15.85v5.53c0,3.32-1.16,5.96-4.8,5.96c-2.38,0-3.86-1.2-4.56-3.02
						l-6.49,3.71V530.02z M544.21,524.56v2.06c0,2.04,0.86,3.15,2.55,3.15c1.71,0,2.29-1.11,2.29-3.15v-2.06H544.21z"/>
					<path class="st3" d="M541.68,534.79c3.92,0,6.32,2.44,6.32,5.03c0,1.35-0.51,2.19-1.31,3.04l1.88-0.13h4.22v3.15h-17.1v-2.55
						l1.24-0.26v-0.06c-0.86-0.88-1.54-2.08-1.54-3.32C535.41,536.72,537.76,534.79,541.68,534.79z M539.24,542.74h5.27
						c0.66-0.73,0.9-1.48,0.9-2.23c0-1.35-1.29-2.48-3.69-2.48c-2.48,0-3.73,0.9-3.73,2.48C538,541.35,538.34,542.06,539.24,542.74z
						"/>
					<path class="st3" d="M537.46,549.1c1.16,0,2.06,0.83,2.06,1.95c0,1.14-0.9,1.97-2.06,1.97s-2.06-0.83-2.06-1.97
						C535.41,549.94,536.31,549.1,537.46,549.1z"/>
				</g>
			</g>
			<g>
				<g>
					<path class="st3" d="M722.28,605.47h3.17v6.23h6v-6.23h3.15v15.85h-3.15v-6.86h-6v6.86h-3.17V605.47z"/>
					<path class="st3" d="M737.64,618.07c0-2.57,2.08-3.92,6.9-4.44c-0.04-1.18-0.56-2.08-2.04-2.08c-1.11,0-2.19,0.49-3.3,1.14
						l-1.13-2.08c1.41-0.88,3.13-1.58,5.01-1.58c3.04,0,4.61,1.82,4.61,5.29v7.01h-2.57l-0.24-1.29h-0.06
						c-1.05,0.9-2.25,1.58-3.62,1.58C739.05,621.63,737.64,620.11,737.64,618.07z M744.54,617.99v-2.42
						c-2.91,0.39-3.9,1.18-3.9,2.25c0,0.94,0.66,1.35,1.58,1.35C743.12,619.16,743.79,618.74,744.54,617.99z"/>
					<path class="st3" d="M750.59,605.69c0-1.03,0.79-1.71,1.88-1.71c1.07,0,1.86,0.69,1.86,1.71c0,0.99-0.79,1.71-1.86,1.71
						C751.39,607.4,750.59,606.67,750.59,605.69z M750.89,609.33h3.13v12h-3.13V609.33z"/>
					<path class="st3" d="M760.21,620.06h-0.06l-0.28,1.26h-2.46v-17.1h3.13v4.31l-0.06,1.93c0.94-0.86,2.14-1.44,3.32-1.44
						c2.96,0,4.74,2.42,4.74,6.08c0,4.13-2.46,6.51-5.1,6.51C762.35,621.63,761.2,621.07,760.21,620.06z M765.29,615.18
						c0-2.29-0.73-3.56-2.38-3.56c-0.81,0-1.54,0.41-2.38,1.24v5.27c0.75,0.66,1.54,0.9,2.19,0.9
						C764.17,619.03,765.29,617.79,765.29,615.18z"/>
					<path class="st3" d="M770.9,605.69c0-1.03,0.79-1.71,1.88-1.71c1.07,0,1.86,0.69,1.86,1.71c0,0.99-0.79,1.71-1.86,1.71
						C771.69,607.4,770.9,606.67,770.9,605.69z M771.2,609.33h3.13v12h-3.13V609.33z"/>
					<path class="st3" d="M777.11,618.07c0-2.57,2.08-3.92,6.9-4.44c-0.04-1.18-0.56-2.08-2.04-2.08c-1.11,0-2.19,0.49-3.3,1.14
						l-1.13-2.08c1.41-0.88,3.13-1.58,5.01-1.58c3.04,0,4.61,1.82,4.61,5.29v7.01h-2.57l-0.24-1.29h-0.06
						c-1.05,0.9-2.25,1.58-3.62,1.58C778.52,621.63,777.11,620.11,777.11,618.07z M784.01,617.99v-2.42
						c-2.91,0.39-3.9,1.18-3.9,2.25c0,0.94,0.66,1.35,1.58,1.35C782.59,619.16,783.26,618.74,784.01,617.99z"/>
					<path class="st3" d="M790.37,609.33h2.57l0.21,1.58h0.09c1.05-1.03,2.27-1.88,3.9-1.88c2.59,0,3.71,1.8,3.71,4.82v7.48h-3.15
						v-7.09c0-1.84-0.51-2.51-1.69-2.51c-0.99,0-1.61,0.47-2.51,1.35v8.25h-3.13V609.33z"/>
					<path class="st3" d="M817.85,621.33l-3.26-6h-2.21v6h-3.17v-15.85h5.53c3.32,0,5.96,1.16,5.96,4.8c0,2.38-1.2,3.86-3.02,4.56
						l3.71,6.49H817.85z M812.38,612.82h2.06c2.04,0,3.15-0.86,3.15-2.55c0-1.71-1.11-2.29-3.15-2.29h-2.06V612.82z"/>
					<path class="st3" d="M822.62,615.35c0-3.92,2.44-6.32,5.03-6.32c1.35,0,2.19,0.51,3.04,1.31l-0.13-1.88v-4.22h3.15v17.1h-2.55
						l-0.26-1.24h-0.06c-0.88,0.86-2.08,1.54-3.32,1.54C824.55,621.63,822.62,619.27,822.62,615.35z M830.57,617.79v-5.27
						c-0.73-0.66-1.48-0.9-2.23-0.9c-1.35,0-2.48,1.29-2.48,3.69c0,2.48,0.9,3.73,2.48,3.73
						C829.18,619.03,829.88,618.69,830.57,617.79z"/>
					<path class="st3" d="M836.93,619.57c0-1.16,0.83-2.06,1.95-2.06c1.14,0,1.97,0.9,1.97,2.06s-0.83,2.06-1.97,2.06
						C837.76,621.63,836.93,620.73,836.93,619.57z"/>
				</g>
			</g>
		</g>
		<g id="XMLID_532_">
			<path id="XMLID_535_" class="st5" d="M646.03,371.23H515.66c-0.91,0-1.66-0.75-1.66-1.66v-62.92c0-0.91,0.75-1.66,1.66-1.66
				h130.37c0.91,0,1.66,0.75,1.66,1.66v62.92C647.69,370.49,646.94,371.23,646.03,371.23z"/>
			<g>
				<g>
					<path class="st3" d="M539.89,322.91h3.37v14.03h6.83v2.83h-10.21V322.91z"/>
					<path class="st3" d="M562.21,339.77l-3.46-6.38h-2.35v6.38h-3.37v-16.86h5.88c3.53,0,6.33,1.23,6.33,5.1
						c0,2.53-1.28,4.1-3.21,4.85l3.94,6.9H562.21z M556.4,330.73h2.19c2.16,0,3.35-0.91,3.35-2.71c0-1.82-1.18-2.44-3.35-2.44h-2.19
						V330.73z"/>
					<path class="st3" d="M571.48,325.71h-4.74v-2.8h12.89v2.8h-4.78v14.06h-3.37V325.71z"/>
					<path class="st3" d="M586.61,331.96c0-5.19,3.34-8.23,7.32-8.23c2,0,3.59,0.96,4.62,2.02l-1.66,2
						c-0.79-0.77-1.7-1.32-2.89-1.32c-2.38,0-4.17,2.04-4.17,5.42c0,3.42,1.62,5.49,4.11,5.49c1.34,0,2.4-0.64,3.25-1.55l1.66,1.96
						c-1.3,1.51-2.98,2.32-5.02,2.32C589.85,340.07,586.61,337.22,586.61,331.96z"/>
					<path class="st3" d="M601.18,337.24h3.38v-9.96h-2.85v-1.94c1.57-0.3,2.66-0.7,3.66-1.32h2.32v13.21h2.96v2.53h-9.47V337.24z"
						/>
					<path class="st3" d="M612.9,331.84c0-5.45,2.13-8.1,5.34-8.1c3.19,0,5.32,2.68,5.32,8.1c0,5.42-2.13,8.23-5.32,8.23
						C615.03,340.07,612.9,337.26,612.9,331.84z M620.6,331.84c0-4.4-1.02-5.68-2.36-5.68c-1.36,0-2.38,1.28-2.38,5.68
						c0,4.42,1.02,5.79,2.38,5.79C619.58,337.62,620.6,336.26,620.6,331.84z"/>
					<path class="st3" d="M547.44,353.64c0-3.36,2.07-5.38,4.8-5.38c1.46,0,2.44,0.64,3.07,1.3l-0.88,1.04
						c-0.5-0.52-1.13-0.92-2.13-0.92c-1.92,0-3.19,1.48-3.19,3.91c0,2.45,1.13,3.95,3.26,3.95c0.63,0,1.26-0.18,1.62-0.5v-2.42
						h-2.04v-1.33h3.52v4.47c-0.69,0.69-1.85,1.2-3.26,1.2C549.45,358.95,547.44,357.02,547.44,353.64z"/>
					<path class="st3" d="M557.68,356.96v-9.36h1.6v9.44c0,0.43,0.2,0.59,0.39,0.59c0.07,0,0.13,0,0.27-0.03l0.21,1.22
						c-0.2,0.07-0.48,0.13-0.87,0.13C558.11,358.95,557.68,358.21,557.68,356.96z"/>
					<path class="st3" d="M561.3,354.93c0-2.58,1.72-4.06,3.63-4.06c1.9,0,3.63,1.49,3.63,4.06c0,2.55-1.72,4.02-3.63,4.02
						C563.03,358.95,561.3,357.48,561.3,354.93z M566.91,354.93c0-1.64-0.76-2.73-1.97-2.73c-1.21,0-1.96,1.09-1.96,2.73
						c0,1.63,0.76,2.7,1.96,2.7C566.15,357.64,566.91,356.56,566.91,354.93z"/>
					<path class="st3" d="M570.44,351.07h1.32l0.13,1.39h0.04c0.55-0.99,1.36-1.58,2.19-1.58c0.38,0,0.63,0.06,0.87,0.17l-0.29,1.4
						c-0.27-0.08-0.46-0.13-0.77-0.13c-0.63,0-1.39,0.43-1.88,1.65v4.8h-1.6V351.07z"/>
					<path class="st3" d="M579.87,359.23c-0.6,1.65-1.42,2.76-3.04,2.76c-0.39,0-0.7-0.06-0.97-0.15l0.31-1.26
						c0.14,0.04,0.36,0.11,0.56,0.11c0.84,0,1.33-0.62,1.61-1.44l0.15-0.53l-3.05-7.65h1.65l1.43,3.96c0.22,0.69,0.46,1.46,0.7,2.17
						h0.07l0.6-2.17l1.23-3.96h1.57L579.87,359.23z"/>
					<path class="st3" d="M587.38,348.46h3.12c2.3,0,3.94,0.78,3.94,3.11c0,2.26-1.64,3.29-3.88,3.29h-1.55v3.91h-1.63V348.46z
						 M590.41,353.56c1.65,0,2.44-0.63,2.44-1.99c0-1.36-0.85-1.81-2.49-1.81h-1.34v3.8H590.41z"/>
					<path class="st3" d="M596.08,348.67c0-0.57,0.43-0.95,1.02-0.95c0.59,0,1.04,0.38,1.04,0.95c0,0.56-0.45,0.95-1.04,0.95
						C596.51,349.62,596.08,349.23,596.08,348.67z M596.3,351.07h1.6v7.7h-1.6V351.07z"/>
					<path class="st3" d="M599.77,354.93c0-2.51,1.71-4.06,3.52-4.06c2.04,0,3.14,1.47,3.14,3.66c0,0.31-0.03,0.63-0.07,0.81h-5
						c0.13,1.47,1.05,2.35,2.38,2.35c0.69,0,1.27-0.21,1.83-0.58l0.56,1.02c-0.71,0.48-1.6,0.81-2.61,0.81
						C601.44,358.95,599.77,357.47,599.77,354.93z M605.04,354.23c0-1.33-0.6-2.1-1.72-2.1c-0.97,0-1.82,0.74-1.97,2.1H605.04z"/>
					<path class="st3" d="M608.23,351.07h1.32l0.13,1.39h0.04c0.55-0.99,1.36-1.58,2.19-1.58c0.38,0,0.63,0.06,0.87,0.17l-0.29,1.4
						c-0.27-0.08-0.46-0.13-0.77-0.13c-0.63,0-1.39,0.43-1.88,1.65v4.8h-1.6V351.07z"/>
				</g>
			</g>
		</g>
		<g id="XMLID_528_">
			<path id="XMLID_531_" class="st5" d="M132.03,337.23H1.66c-0.91,0-1.66-0.75-1.66-1.66v-62.92c0-0.91,0.75-1.66,1.66-1.66h130.37
				c0.91,0,1.66,0.75,1.66,1.66v62.92C133.69,336.49,132.94,337.23,132.03,337.23z"/>
			<g>
				<g>
					<path class="st3" d="M25.89,287.91h3.37v14.03h6.83v2.83H25.89V287.91z"/>
					<path class="st3" d="M48.21,304.77l-3.46-6.38H42.4v6.38h-3.37v-16.86h5.88c3.53,0,6.33,1.23,6.33,5.1
						c0,2.53-1.28,4.1-3.21,4.85l3.94,6.9H48.21z M42.4,295.73h2.19c2.16,0,3.35-0.91,3.35-2.71c0-1.82-1.18-2.44-3.35-2.44H42.4
						V295.73z"/>
					<path class="st3" d="M57.48,290.71h-4.74v-2.8h12.89v2.8h-4.78v14.06h-3.37V290.71z"/>
					<path class="st3" d="M72.61,296.96c0-5.19,3.34-8.23,7.32-8.23c2,0,3.59,0.96,4.62,2.02l-1.66,2c-0.79-0.77-1.7-1.32-2.89-1.32
						c-2.38,0-4.17,2.04-4.17,5.42c0,3.42,1.62,5.49,4.11,5.49c1.34,0,2.4-0.64,3.25-1.55l1.66,1.96c-1.3,1.51-2.98,2.32-5.02,2.32
						C75.85,305.07,72.61,302.22,72.61,296.96z"/>
					<path class="st3" d="M87.18,302.24h3.38v-9.96h-2.85v-1.94c1.57-0.3,2.66-0.7,3.66-1.32h2.32v13.21h2.96v2.53h-9.47V302.24z"/>
					<path class="st3" d="M99.71,302.24h3.38v-9.96h-2.85v-1.94c1.57-0.3,2.66-0.7,3.66-1.32h2.32v13.21h2.96v2.53h-9.47V302.24z"/>
					<path class="st3" d="M36.22,313.46h1.63v8.94h4.36v1.37h-5.98V313.46z"/>
					<path class="st3" d="M43.14,319.93c0-2.58,1.72-4.06,3.63-4.06c1.9,0,3.63,1.49,3.63,4.06c0,2.55-1.72,4.02-3.63,4.02
						C44.86,323.95,43.14,322.48,43.14,319.93z M48.74,319.93c0-1.64-0.76-2.73-1.97-2.73c-1.21,0-1.96,1.09-1.96,2.73
						c0,1.63,0.76,2.7,1.96,2.7C47.98,322.64,48.74,321.56,48.74,319.93z"/>
					<path class="st3" d="M51.16,316.07h1.65l1.32,4.15c0.21,0.76,0.45,1.54,0.67,2.3h0.06c0.22-0.76,0.46-1.54,0.67-2.3l1.32-4.15
						h1.57l-2.66,7.7h-1.86L51.16,316.07z"/>
					<path class="st3" d="M59.19,319.93c0-2.51,1.71-4.06,3.52-4.06c2.04,0,3.14,1.47,3.14,3.66c0,0.31-0.03,0.63-0.07,0.81h-5
						c0.13,1.47,1.05,2.35,2.38,2.35c0.69,0,1.27-0.21,1.83-0.58l0.56,1.02c-0.71,0.48-1.6,0.81-2.61,0.81
						C60.86,323.95,59.19,322.47,59.19,319.93z M64.46,319.23c0-1.33-0.6-2.1-1.72-2.1c-0.97,0-1.82,0.74-1.97,2.1H64.46z"/>
					<path class="st3" d="M70.94,313.46h3.12c2.3,0,3.94,0.78,3.94,3.11c0,2.26-1.64,3.29-3.88,3.29h-1.55v3.91h-1.63V313.46z
						 M73.97,318.56c1.65,0,2.44-0.63,2.44-1.99c0-1.36-0.85-1.81-2.49-1.81h-1.34v3.8H73.97z"/>
					<path class="st3" d="M79.63,313.67c0-0.57,0.43-0.95,1.02-0.95c0.59,0,1.04,0.38,1.04,0.95c0,0.56-0.45,0.95-1.04,0.95
						C80.07,314.62,79.63,314.23,79.63,313.67z M79.86,316.07h1.6v7.7h-1.6V316.07z"/>
					<path class="st3" d="M83.33,319.93c0-2.51,1.71-4.06,3.52-4.06c2.04,0,3.14,1.47,3.14,3.66c0,0.31-0.03,0.63-0.07,0.81h-5
						c0.13,1.47,1.05,2.35,2.38,2.35c0.69,0,1.27-0.21,1.83-0.58l0.56,1.02c-0.71,0.48-1.6,0.81-2.61,0.81
						C85,323.95,83.33,322.47,83.33,319.93z M88.6,319.23c0-1.33-0.6-2.1-1.72-2.1c-0.97,0-1.82,0.74-1.97,2.1H88.6z"/>
					<path class="st3" d="M91.79,316.07h1.32l0.13,1.39h0.04c0.55-0.99,1.36-1.58,2.19-1.58c0.38,0,0.63,0.06,0.87,0.17l-0.29,1.4
						c-0.27-0.08-0.46-0.13-0.77-0.13c-0.63,0-1.39,0.43-1.88,1.65v4.8h-1.6V316.07z"/>
				</g>
			</g>
		</g>
		<g id="XMLID_525_">
			<path id="XMLID_527_" class="st6" d="M422.13,357.99l39.89-3.2c0.24-0.02,0.49,0.03,0.71,0.14l33.34,16.98
				c0.5,0.25,0.78,0.79,0.71,1.34l-2.59,20.79c-0.08,0.64-0.6,1.13-1.24,1.16l-38.26,2.04c-0.22,0.01-0.45-0.03-0.65-0.13
				l-36.02-17.36c-0.54-0.26-0.84-0.85-0.73-1.44l3.65-19.26C421.05,358.48,421.54,358.04,422.13,357.99z"/>
			<g>
				<path class="st3" d="M441.94,374.59c0.43-6.85,3.48-10.04,7.68-9.78c4.2,0.26,6.85,3.87,6.42,10.66
					c-0.43,6.85-3.52,10.26-7.72,9.99C444.12,385.2,441.51,381.44,441.94,374.59z M451.54,375.19c0.34-5.43-0.74-6.63-2.16-6.72
					c-1.42-0.09-2.61,0.96-2.95,6.4c-0.34,5.46,0.7,6.81,2.12,6.9C449.97,381.86,451.2,380.65,451.54,375.19z"/>
				<path class="st3" d="M458.84,381.87l4.23,0.26l0.71-11.32l-3.67-0.23l0.18-2.94c2.17-0.27,3.59-0.71,5.03-1.48l3.51,0.22
					l-1,16.05l3.59,0.22l-0.24,3.85l-12.58-0.79L458.84,381.87z"/>
			</g>
		</g>
		<g>
			<rect x="40.29" y="427.5" class="st4" width="33.75" height="14.2"/>
			<polygon class="st4" points="522.17,632.24 522.17,248.16 452.94,170.86 230.52,170.86 119.85,268.35 119.85,384.77 
				134.05,384.77 134.05,274.8 235.85,185.06 446.25,185.06 507.97,253.26 507.97,646.44 879.91,646.44 879.91,632.24 			"/>
			<path class="st2" d="M235.16,384.77H134.05h-14.2H76.06c-1.11,0-2.02,0.91-2.02,2.02v40.71v14.2v19.82
				c0,1.11,0.91,2.02,2.02,2.02h159.1c1.11,0,2.02-0.91,2.02-2.02v-74.73C237.19,385.68,236.28,384.77,235.16,384.77z"/>
		</g>
		<g id="XMLID_521_">
			<g>
				<g>
					<path class="st3" d="M100.72,401.73h3.4v7.38h0.07l5.63-7.38h3.75l-5.2,6.69l6.12,10.33h-3.75l-4.39-7.63l-2.23,2.85v4.78h-3.4
						V401.73z"/>
					<path class="st3" d="M115.58,415.25c0-2.76,2.23-4.21,7.4-4.76c-0.05-1.26-0.6-2.23-2.18-2.23c-1.2,0-2.35,0.53-3.54,1.22
						l-1.22-2.23c1.52-0.94,3.36-1.7,5.38-1.7c3.27,0,4.94,1.96,4.94,5.68v7.52h-2.76l-0.25-1.38h-0.07
						c-1.13,0.97-2.41,1.7-3.89,1.7C117.1,419.07,115.58,417.44,115.58,415.25z M122.98,415.16v-2.6c-3.13,0.41-4.19,1.26-4.19,2.41
						c0,1.01,0.71,1.45,1.7,1.45C121.46,416.43,122.18,415.97,122.98,415.16z"/>
					<path class="st3" d="M129.01,412.33c0-4.3,2.97-6.78,6.19-6.78s6.19,2.48,6.19,6.78c0,4.25-2.97,6.74-6.19,6.74
						S129.01,416.59,129.01,412.33z M137.93,412.33c0-2.44-0.99-4.02-2.74-4.02s-2.74,1.59-2.74,4.02c0,2.42,0.99,3.98,2.74,3.98
						S137.93,414.75,137.93,412.33z"/>
					<path class="st3" d="M144.21,400.4h3.36v4.62l-0.14,2.41c1.03-0.97,2.3-1.89,4.05-1.89c2.78,0,3.98,1.93,3.98,5.17v8.03h-3.38
						v-7.61c0-1.98-0.55-2.69-1.82-2.69c-1.06,0-1.72,0.51-2.69,1.45v8.85h-3.36V400.4z"/>
					<path class="st3" d="M157.71,417.25l1.54-2.12c1.15,0.9,2.25,1.4,3.45,1.4c1.29,0,1.86-0.55,1.86-1.36
						c0-0.97-1.33-1.4-2.69-1.93c-1.63-0.62-3.52-1.61-3.52-3.75c0-2.32,1.89-3.96,4.78-3.96c1.89,0,3.31,0.78,4.39,1.59l-1.52,2.05
						c-0.92-0.64-1.82-1.1-2.78-1.1c-1.15,0-1.7,0.51-1.7,1.24c0,0.94,1.26,1.29,2.62,1.79c1.7,0.64,3.59,1.5,3.59,3.89
						c0,2.25-1.77,4.07-5.13,4.07C160.89,419.07,158.98,418.31,157.71,417.25z"/>
					<path class="st3" d="M170,401.96c0-1.1,0.85-1.84,2.02-1.84c1.15,0,2,0.74,2,1.84c0,1.06-0.85,1.84-2,1.84
						C170.85,403.8,170,403.02,170,401.96z M170.32,405.87h3.36v12.88h-3.36V405.87z"/>
					<path class="st3" d="M177.17,413.92v-8.05h3.38v7.61c0,2,0.55,2.69,1.79,2.69c1.06,0,1.75-0.46,2.62-1.61v-8.69h3.38v12.88
						h-2.76l-0.25-1.84h-0.09c-1.1,1.31-2.35,2.16-4.12,2.16C178.37,419.07,177.17,417.14,177.17,413.92z"/>
					<path class="st3" d="M191.96,405.87h2.76l0.23,1.7h0.09c1.13-1.1,2.44-2.02,4.19-2.02c2.78,0,3.98,1.93,3.98,5.17v8.03h-3.38
						v-7.61c0-1.98-0.55-2.69-1.82-2.69c-1.06,0-1.72,0.51-2.69,1.45v8.85h-3.36V405.87z"/>
					<path class="st3" d="M205.85,421.03c0-1.08,0.67-2,1.84-2.67v-0.12c-0.67-0.44-1.17-1.1-1.17-2.16c0-0.97,0.67-1.86,1.43-2.42
						v-0.09c-0.87-0.64-1.7-1.86-1.7-3.36c0-3.04,2.46-4.67,5.2-4.67c0.71,0,1.4,0.14,1.93,0.32h4.65v2.48h-2.21
						c0.34,0.44,0.6,1.15,0.6,1.95c0,2.9-2.21,4.37-4.97,4.37c-0.51,0-1.1-0.12-1.66-0.3c-0.37,0.3-0.55,0.6-0.55,1.1
						c0,0.69,0.51,1.06,2.02,1.06h2.18c3.1,0,4.78,0.96,4.78,3.22c0,2.6-2.69,4.58-6.99,4.58
						C208.2,424.34,205.85,423.3,205.85,421.03z M215,420.34c0-0.92-0.76-1.15-2.14-1.15h-1.56c-0.78,0-1.33-0.07-1.79-0.18
						c-0.58,0.46-0.85,0.97-0.85,1.5c0,1.08,1.2,1.7,3.08,1.7C213.67,422.2,215,421.35,215,420.34z M213.44,410.22
						c0-1.52-0.85-2.37-2-2.37c-1.15,0-2.02,0.85-2.02,2.37s0.9,2.37,2.02,2.37C212.57,412.59,213.44,411.74,213.44,410.22z"/>
					<path class="st3" d="M85.18,429.71h3.77l2.9,7.96c0.37,1.06,0.69,2.18,1.03,3.29H93c0.37-1.1,0.67-2.23,1.04-3.29l2.83-7.96
						h3.77v17.02h-3.1v-7.11c0-1.61,0.25-3.98,0.41-5.59h-0.09l-1.38,4l-2.62,7.15H91.9l-2.64-7.15l-1.36-4H87.8
						c0.16,1.61,0.44,3.98,0.44,5.59v7.11h-3.06V429.71z"/>
					<path class="st3" d="M104.41,441.9v-8.05h3.38v7.61c0,2,0.55,2.69,1.79,2.69c1.06,0,1.75-0.46,2.62-1.61v-8.69h3.38v12.88
						h-2.76l-0.25-1.84h-0.09c-1.1,1.31-2.35,2.16-4.12,2.16C105.61,447.05,104.41,445.12,104.41,441.9z"/>
					<path class="st3" d="M117.98,445.23l1.54-2.12c1.15,0.9,2.25,1.4,3.45,1.4c1.29,0,1.86-0.55,1.86-1.36
						c0-0.97-1.33-1.4-2.69-1.93c-1.63-0.62-3.52-1.61-3.52-3.75c0-2.32,1.89-3.96,4.78-3.96c1.89,0,3.31,0.78,4.39,1.59l-1.52,2.05
						c-0.92-0.64-1.82-1.1-2.78-1.1c-1.15,0-1.7,0.51-1.7,1.24c0,0.94,1.26,1.29,2.62,1.79c1.7,0.64,3.59,1.5,3.59,3.89
						c0,2.25-1.77,4.07-5.13,4.07C121.15,447.05,119.25,446.29,117.98,445.23z"/>
					<path class="st3" d="M130.26,429.94c0-1.1,0.85-1.84,2.02-1.84c1.15,0,2,0.74,2,1.84c0,1.06-0.85,1.84-2,1.84
						C131.11,431.78,130.26,431,130.26,429.94z M130.58,433.85h3.36v12.88h-3.36V433.85z"/>
					<path class="st3" d="M136.77,440.31c0-4.3,3.08-6.78,6.58-6.78c1.59,0,2.81,0.62,3.75,1.43l-1.61,2.18
						c-0.64-0.55-1.24-0.85-1.98-0.85c-1.95,0-3.29,1.59-3.29,4.02c0,2.42,1.33,3.98,3.2,3.98c0.92,0,1.79-0.44,2.51-1.04l1.33,2.23
						c-1.22,1.08-2.78,1.56-4.21,1.56C139.49,447.05,136.77,444.57,136.77,440.31z"/>
					<path class="st3" d="M154.34,438.29c0-5.61,3.61-8.9,7.91-8.9c2.16,0,3.89,1.03,4.99,2.18l-1.79,2.16
						c-0.85-0.83-1.84-1.43-3.13-1.43c-2.58,0-4.51,2.21-4.51,5.86c0,3.7,1.75,5.93,4.44,5.93c1.45,0,2.6-0.69,3.52-1.68l1.79,2.12
						c-1.4,1.63-3.22,2.51-5.43,2.51C157.84,447.05,154.34,443.97,154.34,438.29z"/>
					<path class="st3" d="M169.22,440.31c0-4.18,2.92-6.78,6-6.78c3.54,0,5.38,2.6,5.38,6.16c0,0.62-0.07,1.24-0.16,1.54h-7.93
						c0.28,2.12,1.66,3.22,3.56,3.22c1.06,0,1.98-0.32,2.9-0.9l1.15,2.07c-1.27,0.87-2.9,1.43-4.51,1.43
						C172.03,447.05,169.22,444.54,169.22,440.31z M177.71,439c0-1.75-0.78-2.85-2.44-2.85c-1.36,0-2.55,0.97-2.81,2.85H177.71z"/>
					<path class="st3" d="M183.39,433.85h2.76l0.23,1.7h0.09c1.13-1.1,2.44-2.02,4.19-2.02c2.78,0,3.98,1.93,3.98,5.17v8.03h-3.38
						v-7.61c0-1.98-0.55-2.69-1.82-2.69c-1.06,0-1.72,0.51-2.69,1.45v8.85h-3.36V433.85z"/>
					<path class="st3" d="M198.62,442.22v-5.7h-1.82v-2.51l1.98-0.16l0.39-3.45H202v3.45h3.17v2.67H202v5.7
						c0,1.47,0.6,2.16,1.75,2.16c0.41,0,0.92-0.14,1.26-0.28l0.55,2.46c-0.69,0.23-1.59,0.48-2.71,0.48
						C199.79,447.05,198.62,445.12,198.62,442.22z"/>
					<path class="st3" d="M206.55,440.31c0-4.18,2.92-6.78,6-6.78c3.54,0,5.38,2.6,5.38,6.16c0,0.62-0.07,1.24-0.16,1.54h-7.93
						c0.28,2.12,1.66,3.22,3.56,3.22c1.06,0,1.98-0.32,2.9-0.9l1.15,2.07c-1.27,0.87-2.9,1.43-4.51,1.43
						C209.36,447.05,206.55,444.54,206.55,440.31z M215.04,439c0-1.75-0.78-2.85-2.44-2.85c-1.36,0-2.55,0.97-2.81,2.85H215.04z"/>
					<path class="st3" d="M220.72,433.85h2.76l0.23,2.28h0.09c0.94-1.68,2.32-2.6,3.66-2.6c0.71,0,1.13,0.12,1.52,0.28l-0.6,2.92
						c-0.44-0.14-0.81-0.21-1.33-0.21c-1.01,0-2.23,0.67-2.97,2.53v7.68h-3.36V433.85z"/>
				</g>
			</g>
		</g>
		<g id="XMLID_517_">
			<path id="XMLID_520_" class="st2" d="M401.58,284.41H306.5c-1.16,0-2.11-0.95-2.11-2.11v-65.93c0-1.16,0.95-2.11,2.11-2.11h95.08
				c1.16,0,2.11,0.95,2.11,2.11v65.93C403.69,283.46,402.74,284.41,401.58,284.41z"/>
			<g id="XMLID_518_">
				<g>
					<path class="st3" d="M323.39,235.63c0-6.09,3.92-9.66,8.59-9.66c2.35,0,4.22,1.12,5.42,2.37l-1.95,2.35
						c-0.92-0.9-2-1.55-3.4-1.55c-2.8,0-4.89,2.4-4.89,6.37c0,4.02,1.9,6.44,4.82,6.44c1.57,0,2.82-0.75,3.82-1.82l1.95,2.3
						c-1.52,1.77-3.49,2.72-5.89,2.72C327.18,245.14,323.39,241.8,323.39,235.63z"/>
					<path class="st3" d="M339.54,237.83c0-4.67,3.22-7.36,6.72-7.36s6.72,2.7,6.72,7.36c0,4.62-3.22,7.31-6.72,7.31
						S339.54,242.45,339.54,237.83z M349.23,237.83c0-2.65-1.07-4.37-2.97-4.37s-2.97,1.72-2.97,4.37c0,2.62,1.07,4.32,2.97,4.32
						S349.23,240.45,349.23,237.83z"/>
					<path class="st3" d="M356.05,230.81h3l0.25,2.47h0.1c1.02-1.82,2.52-2.82,3.97-2.82c0.77,0,1.22,0.13,1.65,0.3l-0.65,3.17
						c-0.47-0.15-0.87-0.22-1.45-0.22c-1.1,0-2.42,0.72-3.22,2.75v8.34h-3.64V230.81z"/>
					<path class="st3" d="M365.46,241c0-3,2.42-4.57,8.04-5.17c-0.05-1.37-0.65-2.42-2.37-2.42c-1.3,0-2.55,0.57-3.84,1.32
						l-1.32-2.42c1.65-1.02,3.64-1.85,5.84-1.85c3.54,0,5.37,2.12,5.37,6.17v8.16h-3l-0.27-1.5h-0.07
						c-1.22,1.05-2.62,1.85-4.22,1.85C367.11,245.14,365.46,243.37,365.46,241z M373.5,240.9v-2.82c-3.4,0.45-4.54,1.37-4.54,2.62
						c0,1.1,0.77,1.57,1.85,1.57C371.85,242.27,372.62,241.77,373.5,240.9z"/>
					<path class="st3" d="M380.92,240.87v-16h3.64v16.18c0,0.82,0.4,1.1,0.75,1.1c0.15,0,0.25,0,0.5-0.05l0.45,2.72
						c-0.42,0.17-1.05,0.32-1.9,0.32C381.81,245.14,380.92,243.47,380.92,240.87z"/>
					<path class="st3" d="M324.38,270.55l8.61-13.18h-7.79v-3.07h12.31v2.2l-8.59,13.18h8.69v3.1h-13.23V270.55z"/>
					<path class="st3" d="M339.26,265.81c0-4.67,3.22-7.36,6.72-7.36s6.72,2.7,6.72,7.36c0,4.62-3.22,7.31-6.72,7.31
						S339.26,270.43,339.26,265.81z M348.94,265.81c0-2.65-1.07-4.37-2.97-4.37s-2.97,1.72-2.97,4.37c0,2.62,1.07,4.32,2.97,4.32
						S348.94,268.43,348.94,265.81z"/>
					<path class="st3" d="M355.76,258.79h3l0.25,1.85h0.1c1.22-1.2,2.65-2.2,4.54-2.2c3.02,0,4.32,2.1,4.32,5.62v8.71h-3.67v-8.26
						c0-2.15-0.6-2.92-1.97-2.92c-1.15,0-1.87,0.55-2.92,1.57v9.61h-3.64V258.79z"/>
					<path class="st3" d="M370.89,265.81c0-4.54,3.17-7.36,6.52-7.36c3.84,0,5.84,2.82,5.84,6.69c0,0.67-0.07,1.35-0.17,1.67h-8.61
						c0.3,2.3,1.8,3.49,3.87,3.49c1.15,0,2.15-0.35,3.15-0.97l1.25,2.25c-1.37,0.95-3.15,1.55-4.89,1.55
						C373.94,273.12,370.89,270.4,370.89,265.81z M380.1,264.38c0-1.9-0.85-3.1-2.65-3.1c-1.47,0-2.77,1.05-3.05,3.1H380.1z"/>
				</g>
			</g>
		</g>
		<g id="XMLID_513_">
			<path id="XMLID_514_" class="st6" d="M460.68,266.22c-12.37,0-22.36,10.23-22.4,23.9c-0.04,10.6,16.43,36.89,21.15,44.66
				c0.57,0.94,1.93,0.94,2.51,0c4.72-7.77,21.19-34.06,21.15-44.66C483.03,276.59,473.05,266.22,460.68,266.22z M460.68,299.71
				c-6.36,0-11.52-5.16-11.52-11.52c0-6.36,5.16-11.51,11.52-11.51c6.36,0,11.51,5.16,11.51,11.51
				C472.19,294.56,467.04,299.71,460.68,299.71z"/>
		</g>
		<g id="XMLID_470_">
			<defs>
				<path id="XMLID_471_" d="M408.61,677.05c-2.2,0-3.98-1.78-3.98-3.98V296.9c0-2.2-1.78-3.98-3.98-3.98H300.28
					c-2.2,0-3.98-1.78-3.98-3.98V210.9c0-2.2-1.78-3.98-3.98-3.98h-36.47c-1.32,0-2.56-0.66-3.3-1.75L155.75,61.89l-70.7,42.87
					l160.81,250.93c0.41,0.64,0.63,1.39,0.63,2.15v110.66c0,2.2-1.78,3.98-3.98,3.98H40.29v73.63H242.5c2.2,0,3.98,1.78,3.98,3.98
					v122.98c0,2.2-1.78,3.98-3.98,3.98H408.61z"/>
			</defs>
			<clipPath id="XMLID_328_">
				<use xlink:href="#XMLID_471_"  style="overflow:visible;"/>
			</clipPath>
			<g id="XMLID_472_" class="st7">
				<path id="XMLID_512_" class="st8" d="M1.52,675.79c8.94,0,8.94,7.72,17.87,7.72c8.93,0,8.93-7.72,17.86-7.72
					c8.93,0,8.93,7.72,17.87,7.72c8.94,0,8.94-7.72,17.87-7.72c8.93,0,8.93,7.72,17.87,7.72c8.94,0,8.94-7.72,17.87-7.72
					c8.93,0,8.93,7.72,17.87,7.72c8.94,0,8.94-7.72,17.87-7.72c8.94,0,8.94,7.72,17.87,7.72c8.94,0,8.94-7.72,17.88-7.72
					c8.94,0,8.94,7.72,17.87,7.72c8.94,0,8.94-7.72,17.88-7.72c8.94,0,8.94,7.72,17.88,7.72c8.94,0,8.94-7.72,17.87-7.72
					c8.93,0,8.93,7.72,17.86,7.72c8.94,0,8.94-7.72,17.88-7.72c8.93,0,8.93,7.72,17.87,7.72c8.94,0,8.94-7.72,17.88-7.72
					c8.94,0,8.94,7.72,17.88,7.72c8.94,0,8.94-7.72,17.88-7.72c8.94,0,8.94,7.72,17.88,7.72c8.94,0,8.94-7.72,17.88-7.72
					c8.94,0,8.94,7.72,17.88,7.72c8.95,0,8.95-7.72,17.9-7.72c8.95,0,8.95,7.72,17.91,7.72c8.95,0,8.95-7.72,17.91-7.72"/>
				<path id="XMLID_511_" class="st8" d="M1.52,659.7c8.94,0,8.94,7.72,17.87,7.72c8.93,0,8.93-7.72,17.86-7.72
					c8.93,0,8.93,7.72,17.87,7.72c8.94,0,8.94-7.72,17.87-7.72c8.93,0,8.93,7.72,17.87,7.72c8.94,0,8.94-7.72,17.87-7.72
					c8.93,0,8.93,7.72,17.87,7.72c8.94,0,8.94-7.72,17.87-7.72c8.94,0,8.94,7.72,17.87,7.72c8.94,0,8.94-7.72,17.88-7.72
					c8.94,0,8.94,7.72,17.87,7.72c8.94,0,8.94-7.72,17.88-7.72c8.94,0,8.94,7.72,17.88,7.72c8.94,0,8.94-7.72,17.87-7.72
					c8.93,0,8.93,7.72,17.86,7.72c8.94,0,8.94-7.72,17.88-7.72c8.93,0,8.93,7.72,17.87,7.72c8.94,0,8.94-7.72,17.88-7.72
					c8.94,0,8.94,7.72,17.88,7.72c8.94,0,8.94-7.72,17.88-7.72c8.94,0,8.94,7.72,17.88,7.72c8.94,0,8.94-7.72,17.88-7.72
					c8.94,0,8.94,7.72,17.88,7.72c8.95,0,8.95-7.72,17.9-7.72c8.95,0,8.95,7.72,17.91,7.72c8.95,0,8.95-7.72,17.91-7.72"/>
				<path id="XMLID_510_" class="st8" d="M1.52,643.61c8.94,0,8.94,7.72,17.87,7.72c8.93,0,8.93-7.72,17.86-7.72
					c8.93,0,8.93,7.72,17.87,7.72c8.94,0,8.94-7.72,17.87-7.72c8.93,0,8.93,7.72,17.87,7.72c8.94,0,8.94-7.72,17.87-7.72
					c8.93,0,8.93,7.72,17.87,7.72c8.94,0,8.94-7.72,17.87-7.72c8.94,0,8.94,7.72,17.87,7.72c8.94,0,8.94-7.72,17.88-7.72
					c8.94,0,8.94,7.72,17.87,7.72c8.94,0,8.94-7.72,17.88-7.72c8.94,0,8.94,7.72,17.88,7.72c8.94,0,8.94-7.72,17.87-7.72
					c8.93,0,8.93,7.72,17.86,7.72c8.94,0,8.94-7.72,17.88-7.72c8.93,0,8.93,7.72,17.87,7.72c8.94,0,8.94-7.72,17.88-7.72
					c8.94,0,8.94,7.72,17.88,7.72c8.94,0,8.94-7.72,17.88-7.72c8.94,0,8.94,7.72,17.88,7.72c8.94,0,8.94-7.72,17.88-7.72
					c8.94,0,8.94,7.72,17.88,7.72c8.95,0,8.95-7.72,17.9-7.72c8.95,0,8.95,7.72,17.91,7.72c8.95,0,8.95-7.72,17.91-7.72"/>
				<path id="XMLID_509_" class="st8" d="M1.52,627.52c8.94,0,8.94,7.72,17.87,7.72c8.93,0,8.93-7.72,17.86-7.72
					c8.93,0,8.93,7.72,17.87,7.72c8.94,0,8.94-7.72,17.87-7.72c8.93,0,8.93,7.72,17.87,7.72c8.94,0,8.94-7.72,17.87-7.72
					c8.93,0,8.93,7.72,17.87,7.72c8.94,0,8.94-7.72,17.87-7.72c8.94,0,8.94,7.72,17.87,7.72c8.94,0,8.94-7.72,17.88-7.72
					c8.94,0,8.94,7.72,17.87,7.72c8.94,0,8.94-7.72,17.88-7.72c8.94,0,8.94,7.72,17.88,7.72c8.94,0,8.94-7.72,17.87-7.72
					c8.93,0,8.93,7.72,17.86,7.72c8.94,0,8.94-7.72,17.88-7.72c8.93,0,8.93,7.72,17.87,7.72c8.94,0,8.94-7.72,17.88-7.72
					c8.94,0,8.94,7.72,17.88,7.72c8.94,0,8.94-7.72,17.88-7.72c8.94,0,8.94,7.72,17.88,7.72c8.94,0,8.94-7.72,17.88-7.72
					c8.94,0,8.94,7.72,17.88,7.72c8.95,0,8.95-7.72,17.9-7.72c8.95,0,8.95,7.72,17.91,7.72c8.95,0,8.95-7.72,17.91-7.72"/>
				<path id="XMLID_508_" class="st8" d="M1.52,611.43c8.94,0,8.94,7.72,17.87,7.72c8.93,0,8.93-7.72,17.86-7.72
					c8.93,0,8.93,7.72,17.87,7.72c8.94,0,8.94-7.72,17.87-7.72c8.93,0,8.93,7.72,17.87,7.72c8.94,0,8.94-7.72,17.87-7.72
					c8.93,0,8.93,7.72,17.87,7.72c8.94,0,8.94-7.72,17.87-7.72c8.94,0,8.94,7.72,17.87,7.72c8.94,0,8.94-7.72,17.88-7.72
					c8.94,0,8.94,7.72,17.87,7.72c8.94,0,8.94-7.72,17.88-7.72c8.94,0,8.94,7.72,17.88,7.72c8.94,0,8.94-7.72,17.87-7.72
					c8.93,0,8.93,7.72,17.86,7.72c8.94,0,8.94-7.72,17.88-7.72c8.93,0,8.93,7.72,17.87,7.72c8.94,0,8.94-7.72,17.88-7.72
					c8.94,0,8.94,7.72,17.88,7.72c8.94,0,8.94-7.72,17.88-7.72c8.94,0,8.94,7.72,17.88,7.72c8.94,0,8.94-7.72,17.88-7.72
					c8.94,0,8.94,7.72,17.88,7.72c8.95,0,8.95-7.72,17.9-7.72c8.95,0,8.95,7.72,17.91,7.72c8.95,0,8.95-7.72,17.91-7.72"/>
				<path id="XMLID_507_" class="st8" d="M1.52,595.34c8.94,0,8.94,7.72,17.87,7.72c8.93,0,8.93-7.72,17.86-7.72
					c8.93,0,8.93,7.72,17.87,7.72c8.94,0,8.94-7.72,17.87-7.72c8.93,0,8.93,7.72,17.87,7.72c8.94,0,8.94-7.72,17.87-7.72
					c8.93,0,8.93,7.72,17.87,7.72c8.94,0,8.94-7.72,17.87-7.72c8.94,0,8.94,7.72,17.87,7.72c8.94,0,8.94-7.72,17.88-7.72
					c8.94,0,8.94,7.72,17.87,7.72c8.94,0,8.94-7.72,17.88-7.72c8.94,0,8.94,7.72,17.88,7.72c8.94,0,8.94-7.72,17.87-7.72
					c8.93,0,8.93,7.72,17.86,7.72c8.94,0,8.94-7.72,17.88-7.72c8.93,0,8.93,7.72,17.87,7.72c8.94,0,8.94-7.72,17.88-7.72
					c8.94,0,8.94,7.72,17.88,7.72c8.94,0,8.94-7.72,17.88-7.72c8.94,0,8.94,7.72,17.88,7.72c8.94,0,8.94-7.72,17.88-7.72
					c8.94,0,8.94,7.72,17.88,7.72c8.95,0,8.95-7.72,17.9-7.72c8.95,0,8.95,7.72,17.91,7.72c8.95,0,8.95-7.72,17.91-7.72"/>
				<path id="XMLID_506_" class="st8" d="M1.52,579.25c8.94,0,8.94,7.72,17.87,7.72c8.93,0,8.93-7.72,17.86-7.72
					c8.93,0,8.93,7.72,17.87,7.72c8.94,0,8.94-7.72,17.87-7.72c8.93,0,8.93,7.72,17.87,7.72c8.94,0,8.94-7.72,17.87-7.72
					c8.93,0,8.93,7.72,17.87,7.72c8.94,0,8.94-7.72,17.87-7.72c8.94,0,8.94,7.72,17.87,7.72c8.94,0,8.94-7.72,17.88-7.72
					c8.94,0,8.94,7.72,17.87,7.72c8.94,0,8.94-7.72,17.88-7.72c8.94,0,8.94,7.72,17.88,7.72c8.94,0,8.94-7.72,17.87-7.72
					c8.93,0,8.93,7.72,17.86,7.72c8.94,0,8.94-7.72,17.88-7.72c8.93,0,8.93,7.72,17.87,7.72c8.94,0,8.94-7.72,17.88-7.72
					c8.94,0,8.94,7.72,17.88,7.72c8.94,0,8.94-7.72,17.88-7.72c8.94,0,8.94,7.72,17.88,7.72c8.94,0,8.94-7.72,17.88-7.72
					c8.94,0,8.94,7.72,17.88,7.72c8.95,0,8.95-7.72,17.9-7.72c8.95,0,8.95,7.72,17.91,7.72c8.95,0,8.95-7.72,17.91-7.72"/>
				<path id="XMLID_505_" class="st8" d="M1.52,563.16c8.94,0,8.94,7.72,17.87,7.72c8.93,0,8.93-7.72,17.86-7.72
					c8.93,0,8.93,7.72,17.87,7.72c8.94,0,8.94-7.72,17.87-7.72c8.93,0,8.93,7.72,17.87,7.72c8.94,0,8.94-7.72,17.87-7.72
					c8.93,0,8.93,7.72,17.87,7.72c8.94,0,8.94-7.72,17.87-7.72c8.94,0,8.94,7.72,17.87,7.72c8.94,0,8.94-7.72,17.88-7.72
					c8.94,0,8.94,7.72,17.87,7.72c8.94,0,8.94-7.72,17.88-7.72c8.94,0,8.94,7.72,17.88,7.72c8.94,0,8.94-7.72,17.87-7.72
					c8.93,0,8.93,7.72,17.86,7.72c8.94,0,8.94-7.72,17.88-7.72c8.93,0,8.93,7.72,17.87,7.72c8.94,0,8.94-7.72,17.88-7.72
					c8.94,0,8.94,7.72,17.88,7.72c8.94,0,8.94-7.72,17.88-7.72c8.94,0,8.94,7.72,17.88,7.72c8.94,0,8.94-7.72,17.88-7.72
					c8.94,0,8.94,7.72,17.88,7.72c8.95,0,8.95-7.72,17.9-7.72c8.95,0,8.95,7.72,17.91,7.72c8.95,0,8.95-7.72,17.91-7.72"/>
				<path id="XMLID_504_" class="st8" d="M1.52,547.07c8.94,0,8.94,7.72,17.87,7.72c8.93,0,8.93-7.72,17.86-7.72
					c8.93,0,8.93,7.72,17.87,7.72c8.94,0,8.94-7.72,17.87-7.72c8.93,0,8.93,7.72,17.87,7.72c8.94,0,8.94-7.72,17.87-7.72
					c8.93,0,8.93,7.72,17.87,7.72c8.94,0,8.94-7.72,17.87-7.72c8.94,0,8.94,7.72,17.87,7.72c8.94,0,8.94-7.72,17.88-7.72
					c8.94,0,8.94,7.72,17.87,7.72c8.94,0,8.94-7.72,17.88-7.72c8.94,0,8.94,7.72,17.88,7.72c8.94,0,8.94-7.72,17.87-7.72
					c8.93,0,8.93,7.72,17.86,7.72c8.94,0,8.94-7.72,17.88-7.72c8.93,0,8.93,7.72,17.87,7.72c8.94,0,8.94-7.72,17.88-7.72
					c8.94,0,8.94,7.72,17.88,7.72c8.94,0,8.94-7.72,17.88-7.72c8.94,0,8.94,7.72,17.88,7.72c8.94,0,8.94-7.72,17.88-7.72
					c8.94,0,8.94,7.72,17.88,7.72c8.95,0,8.95-7.72,17.9-7.72c8.95,0,8.95,7.72,17.91,7.72c8.95,0,8.95-7.72,17.91-7.72"/>
				<path id="XMLID_503_" class="st8" d="M1.52,530.98c8.94,0,8.94,7.72,17.87,7.72c8.93,0,8.93-7.72,17.86-7.72
					c8.93,0,8.93,7.72,17.87,7.72c8.94,0,8.94-7.72,17.87-7.72c8.93,0,8.93,7.72,17.87,7.72c8.94,0,8.94-7.72,17.87-7.72
					c8.93,0,8.93,7.72,17.87,7.72c8.94,0,8.94-7.72,17.87-7.72c8.94,0,8.94,7.72,17.87,7.72c8.94,0,8.94-7.72,17.88-7.72
					c8.94,0,8.94,7.72,17.87,7.72c8.94,0,8.94-7.72,17.88-7.72c8.94,0,8.94,7.72,17.88,7.72c8.94,0,8.94-7.72,17.87-7.72
					c8.93,0,8.93,7.72,17.86,7.72c8.94,0,8.94-7.72,17.88-7.72c8.93,0,8.93,7.72,17.87,7.72c8.94,0,8.94-7.72,17.88-7.72
					c8.94,0,8.94,7.72,17.88,7.72c8.94,0,8.94-7.72,17.88-7.72c8.94,0,8.94,7.72,17.88,7.72c8.94,0,8.94-7.72,17.88-7.72
					c8.94,0,8.94,7.72,17.88,7.72c8.95,0,8.95-7.72,17.9-7.72c8.95,0,8.95,7.72,17.91,7.72c8.95,0,8.95-7.72,17.91-7.72"/>
				<path id="XMLID_502_" class="st8" d="M1.52,514.89c8.94,0,8.94,7.72,17.87,7.72c8.93,0,8.93-7.72,17.86-7.72
					c8.93,0,8.93,7.72,17.87,7.72c8.94,0,8.94-7.72,17.87-7.72c8.93,0,8.93,7.72,17.87,7.72c8.94,0,8.94-7.72,17.87-7.72
					c8.93,0,8.93,7.72,17.87,7.72c8.94,0,8.94-7.72,17.87-7.72c8.94,0,8.94,7.72,17.87,7.72c8.94,0,8.94-7.72,17.88-7.72
					c8.94,0,8.94,7.72,17.87,7.72c8.94,0,8.94-7.72,17.88-7.72c8.94,0,8.94,7.72,17.88,7.72c8.94,0,8.94-7.72,17.87-7.72
					c8.93,0,8.93,7.72,17.86,7.72c8.94,0,8.94-7.72,17.88-7.72c8.93,0,8.93,7.72,17.87,7.72c8.94,0,8.94-7.72,17.88-7.72
					c8.94,0,8.94,7.72,17.88,7.72c8.94,0,8.94-7.72,17.88-7.72c8.94,0,8.94,7.72,17.88,7.72c8.94,0,8.94-7.72,17.88-7.72
					c8.94,0,8.94,7.72,17.88,7.72c8.95,0,8.95-7.72,17.9-7.72c8.95,0,8.95,7.72,17.91,7.72c8.95,0,8.95-7.72,17.91-7.72"/>
				<path id="XMLID_501_" class="st8" d="M1.52,498.8c8.94,0,8.94,7.72,17.87,7.72c8.93,0,8.93-7.72,17.86-7.72
					c8.93,0,8.93,7.72,17.87,7.72c8.94,0,8.94-7.72,17.87-7.72c8.93,0,8.93,7.72,17.87,7.72c8.94,0,8.94-7.72,17.87-7.72
					c8.93,0,8.93,7.72,17.87,7.72c8.94,0,8.94-7.72,17.87-7.72c8.94,0,8.94,7.72,17.87,7.72c8.94,0,8.94-7.72,17.88-7.72
					c8.94,0,8.94,7.72,17.87,7.72c8.94,0,8.94-7.72,17.88-7.72c8.94,0,8.94,7.72,17.88,7.72c8.94,0,8.94-7.72,17.87-7.72
					c8.93,0,8.93,7.72,17.86,7.72c8.94,0,8.94-7.72,17.88-7.72c8.93,0,8.93,7.72,17.87,7.72c8.94,0,8.94-7.72,17.88-7.72
					c8.94,0,8.94,7.72,17.88,7.72c8.94,0,8.94-7.72,17.88-7.72c8.94,0,8.94,7.72,17.88,7.72c8.94,0,8.94-7.72,17.88-7.72
					c8.94,0,8.94,7.72,17.88,7.72c8.95,0,8.95-7.72,17.9-7.72c8.95,0,8.95,7.72,17.91,7.72c8.95,0,8.95-7.72,17.91-7.72"/>
				<path id="XMLID_500_" class="st8" d="M1.52,482.71c8.94,0,8.94,7.72,17.87,7.72c8.93,0,8.93-7.72,17.86-7.72
					c8.93,0,8.93,7.72,17.87,7.72c8.94,0,8.94-7.72,17.87-7.72c8.93,0,8.93,7.72,17.87,7.72c8.94,0,8.94-7.72,17.87-7.72
					c8.93,0,8.93,7.72,17.87,7.72c8.94,0,8.94-7.72,17.87-7.72c8.94,0,8.94,7.72,17.87,7.72c8.94,0,8.94-7.72,17.88-7.72
					c8.94,0,8.94,7.72,17.87,7.72c8.94,0,8.94-7.72,17.88-7.72c8.94,0,8.94,7.72,17.88,7.72c8.94,0,8.94-7.72,17.87-7.72
					c8.93,0,8.93,7.72,17.86,7.72c8.94,0,8.94-7.72,17.88-7.72c8.93,0,8.93,7.72,17.87,7.72c8.94,0,8.94-7.72,17.88-7.72
					c8.94,0,8.94,7.72,17.88,7.72c8.94,0,8.94-7.72,17.88-7.72c8.94,0,8.94,7.72,17.88,7.72c8.94,0,8.94-7.72,17.88-7.72
					c8.94,0,8.94,7.72,17.88,7.72c8.95,0,8.95-7.72,17.9-7.72c8.95,0,8.95,7.72,17.91,7.72c8.95,0,8.95-7.72,17.91-7.72"/>
				<path id="XMLID_499_" class="st8" d="M1.52,466.62c8.94,0,8.94,7.72,17.87,7.72c8.93,0,8.93-7.72,17.86-7.72
					c8.93,0,8.93,7.72,17.87,7.72c8.94,0,8.94-7.72,17.87-7.72c8.93,0,8.93,7.72,17.87,7.72c8.94,0,8.94-7.72,17.87-7.72
					c8.93,0,8.93,7.72,17.87,7.72c8.94,0,8.94-7.72,17.87-7.72c8.94,0,8.94,7.72,17.87,7.72c8.94,0,8.94-7.72,17.88-7.72
					c8.94,0,8.94,7.72,17.87,7.72c8.94,0,8.94-7.72,17.88-7.72c8.94,0,8.94,7.72,17.88,7.72c8.94,0,8.94-7.72,17.87-7.72
					c8.93,0,8.93,7.72,17.86,7.72c8.94,0,8.94-7.72,17.88-7.72c8.93,0,8.93,7.72,17.87,7.72c8.94,0,8.94-7.72,17.88-7.72
					c8.94,0,8.94,7.72,17.88,7.72c8.94,0,8.94-7.72,17.88-7.72c8.94,0,8.94,7.72,17.88,7.72c8.94,0,8.94-7.72,17.88-7.72
					c8.94,0,8.94,7.72,17.88,7.72c8.95,0,8.95-7.72,17.9-7.72c8.95,0,8.95,7.72,17.91,7.72c8.95,0,8.95-7.72,17.91-7.72"/>
				<path id="XMLID_498_" class="st8" d="M1.52,450.53c8.94,0,8.94,7.72,17.87,7.72c8.93,0,8.93-7.72,17.86-7.72
					c8.93,0,8.93,7.72,17.87,7.72c8.94,0,8.94-7.72,17.87-7.72c8.93,0,8.93,7.72,17.87,7.72c8.94,0,8.94-7.72,17.87-7.72
					c8.93,0,8.93,7.72,17.87,7.72c8.94,0,8.94-7.72,17.87-7.72c8.94,0,8.94,7.72,17.87,7.72c8.94,0,8.94-7.72,17.88-7.72
					c8.94,0,8.94,7.72,17.87,7.72c8.94,0,8.94-7.72,17.88-7.72c8.94,0,8.94,7.72,17.88,7.72c8.94,0,8.94-7.72,17.87-7.72
					c8.93,0,8.93,7.72,17.86,7.72c8.94,0,8.94-7.72,17.88-7.72c8.93,0,8.93,7.72,17.87,7.72c8.94,0,8.94-7.72,17.88-7.72
					c8.94,0,8.94,7.72,17.88,7.72c8.94,0,8.94-7.72,17.88-7.72c8.94,0,8.94,7.72,17.88,7.72c8.94,0,8.94-7.72,17.88-7.72
					c8.94,0,8.94,7.72,17.88,7.72c8.95,0,8.95-7.72,17.9-7.72c8.95,0,8.95,7.72,17.91,7.72c8.95,0,8.95-7.72,17.91-7.72"/>
				<path id="XMLID_497_" class="st8" d="M1.52,434.44c8.94,0,8.94,7.72,17.87,7.72c8.93,0,8.93-7.72,17.86-7.72
					c8.93,0,8.93,7.72,17.87,7.72c8.94,0,8.94-7.72,17.87-7.72c8.93,0,8.93,7.72,17.87,7.72c8.94,0,8.94-7.72,17.87-7.72
					c8.93,0,8.93,7.72,17.87,7.72c8.94,0,8.94-7.72,17.87-7.72c8.94,0,8.94,7.72,17.87,7.72c8.94,0,8.94-7.72,17.88-7.72
					c8.94,0,8.94,7.72,17.87,7.72c8.94,0,8.94-7.72,17.88-7.72c8.94,0,8.94,7.72,17.88,7.72c8.94,0,8.94-7.72,17.87-7.72
					c8.93,0,8.93,7.72,17.86,7.72c8.94,0,8.94-7.72,17.88-7.72c8.93,0,8.93,7.72,17.87,7.72c8.94,0,8.94-7.72,17.88-7.72
					c8.94,0,8.94,7.72,17.88,7.72c8.94,0,8.94-7.72,17.88-7.72c8.94,0,8.94,7.72,17.88,7.72c8.94,0,8.94-7.72,17.88-7.72
					c8.94,0,8.94,7.72,17.88,7.72c8.95,0,8.95-7.72,17.9-7.72c8.95,0,8.95,7.72,17.91,7.72c8.95,0,8.95-7.72,17.91-7.72"/>
				<path id="XMLID_496_" class="st8" d="M1.52,418.35c8.94,0,8.94,7.72,17.87,7.72c8.93,0,8.93-7.72,17.86-7.72
					c8.93,0,8.93,7.72,17.87,7.72c8.94,0,8.94-7.72,17.87-7.72c8.93,0,8.93,7.72,17.87,7.72c8.94,0,8.94-7.72,17.87-7.72
					c8.93,0,8.93,7.72,17.87,7.72c8.94,0,8.94-7.72,17.87-7.72c8.94,0,8.94,7.72,17.87,7.72c8.94,0,8.94-7.72,17.88-7.72
					c8.94,0,8.94,7.72,17.87,7.72c8.94,0,8.94-7.72,17.88-7.72c8.94,0,8.94,7.72,17.88,7.72c8.94,0,8.94-7.72,17.87-7.72
					c8.93,0,8.93,7.72,17.86,7.72c8.94,0,8.94-7.72,17.88-7.72c8.93,0,8.93,7.72,17.87,7.72c8.94,0,8.94-7.72,17.88-7.72
					c8.94,0,8.94,7.72,17.88,7.72c8.94,0,8.94-7.72,17.88-7.72c8.94,0,8.94,7.72,17.88,7.72c8.94,0,8.94-7.72,17.88-7.72
					c8.94,0,8.94,7.72,17.88,7.72c8.95,0,8.95-7.72,17.9-7.72c8.95,0,8.95,7.72,17.91,7.72c8.95,0,8.95-7.72,17.91-7.72"/>
				<path id="XMLID_495_" class="st8" d="M1.52,402.26c8.94,0,8.94,7.72,17.87,7.72c8.93,0,8.93-7.72,17.86-7.72
					c8.93,0,8.93,7.72,17.87,7.72c8.94,0,8.94-7.72,17.87-7.72c8.93,0,8.93,7.72,17.87,7.72c8.94,0,8.94-7.72,17.87-7.72
					c8.93,0,8.93,7.72,17.87,7.72c8.94,0,8.94-7.72,17.87-7.72c8.94,0,8.94,7.72,17.87,7.72c8.94,0,8.94-7.72,17.88-7.72
					c8.94,0,8.94,7.72,17.87,7.72c8.94,0,8.94-7.72,17.88-7.72c8.94,0,8.94,7.72,17.88,7.72c8.94,0,8.94-7.72,17.87-7.72
					c8.93,0,8.93,7.72,17.86,7.72c8.94,0,8.94-7.72,17.88-7.72c8.93,0,8.93,7.72,17.87,7.72c8.94,0,8.94-7.72,17.88-7.72
					c8.94,0,8.94,7.72,17.88,7.72c8.94,0,8.94-7.72,17.88-7.72c8.94,0,8.94,7.72,17.88,7.72c8.94,0,8.94-7.72,17.88-7.72
					c8.94,0,8.94,7.72,17.88,7.72c8.95,0,8.95-7.72,17.9-7.72c8.95,0,8.95,7.72,17.91,7.72c8.95,0,8.95-7.72,17.91-7.72"/>
				<path id="XMLID_494_" class="st8" d="M1.52,386.17c8.94,0,8.94,7.72,17.87,7.72c8.93,0,8.93-7.72,17.86-7.72
					c8.93,0,8.93,7.72,17.87,7.72c8.94,0,8.94-7.72,17.87-7.72c8.93,0,8.93,7.72,17.87,7.72c8.94,0,8.94-7.72,17.87-7.72
					c8.93,0,8.93,7.72,17.87,7.72c8.94,0,8.94-7.72,17.87-7.72c8.94,0,8.94,7.72,17.87,7.72c8.94,0,8.94-7.72,17.88-7.72
					c8.94,0,8.94,7.72,17.87,7.72c8.94,0,8.94-7.72,17.88-7.72c8.94,0,8.94,7.72,17.88,7.72c8.94,0,8.94-7.72,17.87-7.72
					c8.93,0,8.93,7.72,17.86,7.72c8.94,0,8.94-7.72,17.88-7.72c8.93,0,8.93,7.72,17.87,7.72c8.94,0,8.94-7.72,17.88-7.72
					c8.94,0,8.94,7.72,17.88,7.72c8.94,0,8.94-7.72,17.88-7.72c8.94,0,8.94,7.72,17.88,7.72c8.94,0,8.94-7.72,17.88-7.72
					c8.94,0,8.94,7.72,17.88,7.72c8.95,0,8.95-7.72,17.9-7.72c8.95,0,8.95,7.72,17.91,7.72c8.95,0,8.95-7.72,17.91-7.72"/>
				<path id="XMLID_493_" class="st8" d="M1.52,370.08c8.94,0,8.94,7.72,17.87,7.72c8.93,0,8.93-7.72,17.86-7.72
					c8.93,0,8.93,7.72,17.87,7.72c8.94,0,8.94-7.72,17.87-7.72c8.93,0,8.93,7.72,17.87,7.72c8.94,0,8.94-7.72,17.87-7.72
					c8.93,0,8.93,7.72,17.87,7.72c8.94,0,8.94-7.72,17.87-7.72c8.94,0,8.94,7.72,17.87,7.72c8.94,0,8.94-7.72,17.88-7.72
					c8.94,0,8.94,7.72,17.87,7.72c8.94,0,8.94-7.72,17.88-7.72c8.94,0,8.94,7.72,17.88,7.72c8.94,0,8.94-7.72,17.87-7.72
					c8.93,0,8.93,7.72,17.86,7.72c8.94,0,8.94-7.72,17.88-7.72c8.93,0,8.93,7.72,17.87,7.72c8.94,0,8.94-7.72,17.88-7.72
					c8.94,0,8.94,7.72,17.88,7.72c8.94,0,8.94-7.72,17.88-7.72c8.94,0,8.94,7.72,17.88,7.72c8.94,0,8.94-7.72,17.88-7.72
					c8.94,0,8.94,7.72,17.88,7.72c8.95,0,8.95-7.72,17.9-7.72c8.95,0,8.95,7.72,17.91,7.72c8.95,0,8.95-7.72,17.91-7.72"/>
				<path id="XMLID_492_" class="st8" d="M1.52,353.99c8.94,0,8.94,7.72,17.87,7.72c8.93,0,8.93-7.72,17.86-7.72
					c8.93,0,8.93,7.72,17.87,7.72c8.94,0,8.94-7.72,17.87-7.72c8.93,0,8.93,7.72,17.87,7.72c8.94,0,8.94-7.72,17.87-7.72
					c8.93,0,8.93,7.72,17.87,7.72c8.94,0,8.94-7.72,17.87-7.72c8.94,0,8.94,7.72,17.87,7.72c8.94,0,8.94-7.72,17.88-7.72
					c8.94,0,8.94,7.72,17.87,7.72c8.94,0,8.94-7.72,17.88-7.72c8.94,0,8.94,7.72,17.88,7.72c8.94,0,8.94-7.72,17.87-7.72
					c8.93,0,8.93,7.72,17.86,7.72c8.94,0,8.94-7.72,17.88-7.72c8.93,0,8.93,7.72,17.87,7.72c8.94,0,8.94-7.72,17.88-7.72
					c8.94,0,8.94,7.72,17.88,7.72c8.94,0,8.94-7.72,17.88-7.72c8.94,0,8.94,7.72,17.88,7.72c8.94,0,8.94-7.72,17.88-7.72
					c8.94,0,8.94,7.72,17.88,7.72c8.95,0,8.95-7.72,17.9-7.72c8.95,0,8.95,7.72,17.91,7.72c8.95,0,8.95-7.72,17.91-7.72"/>
				<path id="XMLID_491_" class="st8" d="M1.52,337.9c8.94,0,8.94,7.72,17.87,7.72c8.93,0,8.93-7.72,17.86-7.72
					c8.93,0,8.93,7.72,17.87,7.72c8.94,0,8.94-7.72,17.87-7.72c8.93,0,8.93,7.72,17.87,7.72c8.94,0,8.94-7.72,17.87-7.72
					c8.93,0,8.93,7.72,17.87,7.72c8.94,0,8.94-7.72,17.87-7.72c8.94,0,8.94,7.72,17.87,7.72c8.94,0,8.94-7.72,17.88-7.72
					c8.94,0,8.94,7.72,17.87,7.72c8.94,0,8.94-7.72,17.88-7.72c8.94,0,8.94,7.72,17.88,7.72c8.94,0,8.94-7.72,17.87-7.72
					c8.93,0,8.93,7.72,17.86,7.72c8.94,0,8.94-7.72,17.88-7.72c8.93,0,8.93,7.72,17.87,7.72c8.94,0,8.94-7.72,17.88-7.72
					c8.94,0,8.94,7.72,17.88,7.72c8.94,0,8.94-7.72,17.88-7.72c8.94,0,8.94,7.72,17.88,7.72c8.94,0,8.94-7.72,17.88-7.72
					c8.94,0,8.94,7.72,17.88,7.72c8.95,0,8.95-7.72,17.9-7.72c8.95,0,8.95,7.72,17.91,7.72c8.95,0,8.95-7.72,17.91-7.72"/>
				<path id="XMLID_490_" class="st8" d="M1.52,321.81c8.94,0,8.94,7.72,17.87,7.72c8.93,0,8.93-7.72,17.86-7.72
					c8.93,0,8.93,7.72,17.87,7.72c8.94,0,8.94-7.72,17.87-7.72c8.93,0,8.93,7.72,17.87,7.72c8.94,0,8.94-7.72,17.87-7.72
					c8.93,0,8.93,7.72,17.87,7.72c8.94,0,8.94-7.72,17.87-7.72c8.94,0,8.94,7.72,17.87,7.72c8.94,0,8.94-7.72,17.88-7.72
					c8.94,0,8.94,7.72,17.87,7.72c8.94,0,8.94-7.72,17.88-7.72c8.94,0,8.94,7.72,17.88,7.72c8.94,0,8.94-7.72,17.87-7.72
					c8.93,0,8.93,7.72,17.86,7.72c8.94,0,8.94-7.72,17.88-7.72c8.93,0,8.93,7.72,17.87,7.72c8.94,0,8.94-7.72,17.88-7.72
					c8.94,0,8.94,7.72,17.88,7.72c8.94,0,8.94-7.72,17.88-7.72c8.94,0,8.94,7.72,17.88,7.72c8.94,0,8.94-7.72,17.88-7.72
					c8.94,0,8.94,7.72,17.88,7.72c8.95,0,8.95-7.72,17.9-7.72c8.95,0,8.95,7.72,17.91,7.72c8.95,0,8.95-7.72,17.91-7.72"/>
				<path id="XMLID_489_" class="st8" d="M1.52,305.72c8.94,0,8.94,7.72,17.87,7.72c8.93,0,8.93-7.72,17.86-7.72
					c8.93,0,8.93,7.72,17.87,7.72c8.94,0,8.94-7.72,17.87-7.72c8.93,0,8.93,7.72,17.87,7.72c8.94,0,8.94-7.72,17.87-7.72
					c8.93,0,8.93,7.72,17.87,7.72c8.94,0,8.94-7.72,17.87-7.72c8.94,0,8.94,7.72,17.87,7.72c8.94,0,8.94-7.72,17.88-7.72
					c8.94,0,8.94,7.72,17.87,7.72c8.94,0,8.94-7.72,17.88-7.72c8.94,0,8.94,7.72,17.88,7.72c8.94,0,8.94-7.72,17.87-7.72
					c8.93,0,8.93,7.72,17.86,7.72c8.94,0,8.94-7.72,17.88-7.72c8.93,0,8.93,7.72,17.87,7.72c8.94,0,8.94-7.72,17.88-7.72
					c8.94,0,8.94,7.72,17.88,7.72c8.94,0,8.94-7.72,17.88-7.72c8.94,0,8.94,7.72,17.88,7.72c8.94,0,8.94-7.72,17.88-7.72
					c8.94,0,8.94,7.72,17.88,7.72c8.95,0,8.95-7.72,17.9-7.72c8.95,0,8.95,7.72,17.91,7.72c8.95,0,8.95-7.72,17.91-7.72"/>
				<path id="XMLID_488_" class="st8" d="M1.52,289.63c8.94,0,8.94,7.72,17.87,7.72c8.93,0,8.93-7.72,17.86-7.72
					c8.93,0,8.93,7.72,17.87,7.72c8.94,0,8.94-7.72,17.87-7.72c8.93,0,8.93,7.72,17.87,7.72c8.94,0,8.94-7.72,17.87-7.72
					c8.93,0,8.93,7.72,17.87,7.72c8.94,0,8.94-7.72,17.87-7.72c8.94,0,8.94,7.72,17.87,7.72c8.94,0,8.94-7.72,17.88-7.72
					c8.94,0,8.94,7.72,17.87,7.72c8.94,0,8.94-7.72,17.88-7.72c8.94,0,8.94,7.72,17.88,7.72c8.94,0,8.94-7.72,17.87-7.72
					c8.93,0,8.93,7.72,17.86,7.72c8.94,0,8.94-7.72,17.88-7.72c8.93,0,8.93,7.72,17.87,7.72c8.94,0,8.94-7.72,17.88-7.72
					c8.94,0,8.94,7.72,17.88,7.72c8.94,0,8.94-7.72,17.88-7.72c8.94,0,8.94,7.72,17.88,7.72c8.94,0,8.94-7.72,17.88-7.72
					c8.94,0,8.94,7.72,17.88,7.72c8.95,0,8.95-7.72,17.9-7.72c8.95,0,8.95,7.72,17.91,7.72c8.95,0,8.95-7.72,17.91-7.72"/>
				<path id="XMLID_487_" class="st8" d="M1.52,273.54c8.94,0,8.94,7.72,17.87,7.72c8.93,0,8.93-7.72,17.86-7.72
					c8.93,0,8.93,7.72,17.87,7.72c8.94,0,8.94-7.72,17.87-7.72c8.93,0,8.93,7.72,17.87,7.72c8.94,0,8.94-7.72,17.87-7.72
					c8.93,0,8.93,7.72,17.87,7.72c8.94,0,8.94-7.72,17.87-7.72c8.94,0,8.94,7.72,17.87,7.72c8.94,0,8.94-7.72,17.88-7.72
					c8.94,0,8.94,7.72,17.87,7.72c8.94,0,8.94-7.72,17.88-7.72c8.94,0,8.94,7.72,17.88,7.72c8.94,0,8.94-7.72,17.87-7.72
					c8.93,0,8.93,7.72,17.86,7.72c8.94,0,8.94-7.72,17.88-7.72c8.93,0,8.93,7.72,17.87,7.72c8.94,0,8.94-7.72,17.88-7.72
					c8.94,0,8.94,7.72,17.88,7.72c8.94,0,8.94-7.72,17.88-7.72c8.94,0,8.94,7.72,17.88,7.72c8.94,0,8.94-7.72,17.88-7.72
					c8.94,0,8.94,7.72,17.88,7.72c8.95,0,8.95-7.72,17.9-7.72c8.95,0,8.95,7.72,17.91,7.72c8.95,0,8.95-7.72,17.91-7.72"/>
				<path id="XMLID_486_" class="st8" d="M1.52,257.45c8.94,0,8.94,7.72,17.87,7.72c8.93,0,8.93-7.72,17.86-7.72
					c8.93,0,8.93,7.72,17.87,7.72c8.94,0,8.94-7.72,17.87-7.72c8.93,0,8.93,7.72,17.87,7.72c8.94,0,8.94-7.72,17.87-7.72
					c8.93,0,8.93,7.72,17.87,7.72c8.94,0,8.94-7.72,17.87-7.72c8.94,0,8.94,7.72,17.87,7.72c8.94,0,8.94-7.72,17.88-7.72
					c8.94,0,8.94,7.72,17.87,7.72c8.94,0,8.94-7.72,17.88-7.72c8.94,0,8.94,7.72,17.88,7.72c8.94,0,8.94-7.72,17.87-7.72
					c8.93,0,8.93,7.72,17.86,7.72c8.94,0,8.94-7.72,17.88-7.72c8.93,0,8.93,7.72,17.87,7.72c8.94,0,8.94-7.72,17.88-7.72
					c8.94,0,8.94,7.72,17.88,7.72c8.94,0,8.94-7.72,17.88-7.72c8.94,0,8.94,7.72,17.88,7.72c8.94,0,8.94-7.72,17.88-7.72
					c8.94,0,8.94,7.72,17.88,7.72c8.95,0,8.95-7.72,17.9-7.72c8.95,0,8.95,7.72,17.91,7.72c8.95,0,8.95-7.72,17.91-7.72"/>
				<path id="XMLID_485_" class="st8" d="M1.52,241.36c8.94,0,8.94,7.72,17.87,7.72c8.93,0,8.93-7.72,17.86-7.72
					c8.93,0,8.93,7.72,17.87,7.72c8.94,0,8.94-7.72,17.87-7.72c8.93,0,8.93,7.72,17.87,7.72c8.94,0,8.94-7.72,17.87-7.72
					c8.93,0,8.93,7.72,17.87,7.72c8.94,0,8.94-7.72,17.87-7.72c8.94,0,8.94,7.72,17.87,7.72c8.94,0,8.94-7.72,17.88-7.72
					c8.94,0,8.94,7.72,17.87,7.72c8.94,0,8.94-7.72,17.88-7.72c8.94,0,8.94,7.72,17.88,7.72c8.94,0,8.94-7.72,17.87-7.72
					c8.93,0,8.93,7.72,17.86,7.72c8.94,0,8.94-7.72,17.88-7.72c8.93,0,8.93,7.72,17.87,7.72c8.94,0,8.94-7.72,17.88-7.72
					c8.94,0,8.94,7.72,17.88,7.72c8.94,0,8.94-7.72,17.88-7.72c8.94,0,8.94,7.72,17.88,7.72c8.94,0,8.94-7.72,17.88-7.72
					c8.94,0,8.94,7.72,17.88,7.72c8.95,0,8.95-7.72,17.9-7.72c8.95,0,8.95,7.72,17.91,7.72c8.95,0,8.95-7.72,17.91-7.72"/>
				<path id="XMLID_484_" class="st8" d="M1.52,225.27c8.94,0,8.94,7.72,17.87,7.72c8.93,0,8.93-7.72,17.86-7.72
					c8.93,0,8.93,7.72,17.87,7.72c8.94,0,8.94-7.72,17.87-7.72c8.93,0,8.93,7.72,17.87,7.72c8.94,0,8.94-7.72,17.87-7.72
					c8.93,0,8.93,7.72,17.87,7.72c8.94,0,8.94-7.72,17.87-7.72c8.94,0,8.94,7.72,17.87,7.72c8.94,0,8.94-7.72,17.88-7.72
					c8.94,0,8.94,7.72,17.87,7.72c8.94,0,8.94-7.72,17.88-7.72c8.94,0,8.94,7.72,17.88,7.72c8.94,0,8.94-7.72,17.87-7.72
					c8.93,0,8.93,7.72,17.86,7.72c8.94,0,8.94-7.72,17.88-7.72c8.93,0,8.93,7.72,17.87,7.72c8.94,0,8.94-7.72,17.88-7.72
					c8.94,0,8.94,7.72,17.88,7.72c8.94,0,8.94-7.72,17.88-7.72c8.94,0,8.94,7.72,17.88,7.72c8.94,0,8.94-7.72,17.88-7.72
					c8.94,0,8.94,7.72,17.88,7.72c8.95,0,8.95-7.72,17.9-7.72c8.95,0,8.95,7.72,17.91,7.72c8.95,0,8.95-7.72,17.91-7.72"/>
				<path id="XMLID_483_" class="st8" d="M1.52,209.18c8.94,0,8.94,7.72,17.87,7.72c8.93,0,8.93-7.72,17.86-7.72
					c8.93,0,8.93,7.72,17.87,7.72c8.94,0,8.94-7.72,17.87-7.72c8.93,0,8.93,7.72,17.87,7.72c8.94,0,8.94-7.72,17.87-7.72
					c8.93,0,8.93,7.72,17.87,7.72c8.94,0,8.94-7.72,17.87-7.72c8.94,0,8.94,7.72,17.87,7.72c8.94,0,8.94-7.72,17.88-7.72
					c8.94,0,8.94,7.72,17.87,7.72c8.94,0,8.94-7.72,17.88-7.72c8.94,0,8.94,7.72,17.88,7.72c8.94,0,8.94-7.72,17.87-7.72
					c8.93,0,8.93,7.72,17.86,7.72c8.94,0,8.94-7.72,17.88-7.72c8.93,0,8.93,7.72,17.87,7.72c8.94,0,8.94-7.72,17.88-7.72
					c8.94,0,8.94,7.72,17.88,7.72c8.94,0,8.94-7.72,17.88-7.72c8.94,0,8.94,7.72,17.88,7.72c8.94,0,8.94-7.72,17.88-7.72
					c8.94,0,8.94,7.72,17.88,7.72c8.95,0,8.95-7.72,17.9-7.72c8.95,0,8.95,7.72,17.91,7.72c8.95,0,8.95-7.72,17.91-7.72"/>
				<path id="XMLID_482_" class="st8" d="M1.52,193.09c8.94,0,8.94,7.72,17.87,7.72c8.93,0,8.93-7.72,17.86-7.72
					c8.93,0,8.93,7.72,17.87,7.72c8.94,0,8.94-7.72,17.87-7.72c8.93,0,8.93,7.72,17.87,7.72c8.94,0,8.94-7.72,17.87-7.72
					c8.93,0,8.93,7.72,17.87,7.72c8.94,0,8.94-7.72,17.87-7.72c8.94,0,8.94,7.72,17.87,7.72c8.94,0,8.94-7.72,17.88-7.72
					c8.94,0,8.94,7.72,17.87,7.72c8.94,0,8.94-7.72,17.88-7.72c8.94,0,8.94,7.72,17.88,7.72c8.94,0,8.94-7.72,17.87-7.72
					c8.93,0,8.93,7.72,17.86,7.72c8.94,0,8.94-7.72,17.88-7.72c8.93,0,8.93,7.72,17.87,7.72c8.94,0,8.94-7.72,17.88-7.72
					c8.94,0,8.94,7.72,17.88,7.72c8.94,0,8.94-7.72,17.88-7.72c8.94,0,8.94,7.72,17.88,7.72c8.94,0,8.94-7.72,17.88-7.72
					c8.94,0,8.94,7.72,17.88,7.72c8.95,0,8.95-7.72,17.9-7.72c8.95,0,8.95,7.72,17.91,7.72c8.95,0,8.95-7.72,17.91-7.72"/>
				<path id="XMLID_481_" class="st8" d="M1.52,177c8.94,0,8.94,7.72,17.87,7.72c8.93,0,8.93-7.72,17.86-7.72
					c8.93,0,8.93,7.72,17.87,7.72c8.94,0,8.94-7.72,17.87-7.72c8.93,0,8.93,7.72,17.87,7.72c8.94,0,8.94-7.72,17.87-7.72
					c8.93,0,8.93,7.72,17.87,7.72c8.94,0,8.94-7.72,17.87-7.72c8.94,0,8.94,7.72,17.87,7.72c8.94,0,8.94-7.72,17.88-7.72
					c8.94,0,8.94,7.72,17.87,7.72c8.94,0,8.94-7.72,17.88-7.72c8.94,0,8.94,7.72,17.88,7.72c8.94,0,8.94-7.72,17.87-7.72
					c8.93,0,8.93,7.72,17.86,7.72c8.94,0,8.94-7.72,17.88-7.72c8.93,0,8.93,7.72,17.87,7.72c8.94,0,8.94-7.72,17.88-7.72
					c8.94,0,8.94,7.72,17.88,7.72c8.94,0,8.94-7.72,17.88-7.72c8.94,0,8.94,7.72,17.88,7.72c8.94,0,8.94-7.72,17.88-7.72
					c8.94,0,8.94,7.72,17.88,7.72c8.95,0,8.95-7.72,17.9-7.72c8.95,0,8.95,7.72,17.91,7.72c8.95,0,8.95-7.72,17.91-7.72"/>
				<path id="XMLID_480_" class="st8" d="M1.52,160.91c8.94,0,8.94,7.72,17.87,7.72c8.93,0,8.93-7.72,17.86-7.72
					c8.93,0,8.93,7.72,17.87,7.72c8.94,0,8.94-7.72,17.87-7.72c8.93,0,8.93,7.72,17.87,7.72c8.94,0,8.94-7.72,17.87-7.72
					c8.93,0,8.93,7.72,17.87,7.72c8.94,0,8.94-7.72,17.87-7.72c8.94,0,8.94,7.72,17.87,7.72c8.94,0,8.94-7.72,17.88-7.72
					c8.94,0,8.94,7.72,17.87,7.72c8.94,0,8.94-7.72,17.88-7.72c8.94,0,8.94,7.72,17.88,7.72c8.94,0,8.94-7.72,17.87-7.72
					c8.93,0,8.93,7.72,17.86,7.72c8.94,0,8.94-7.72,17.88-7.72c8.93,0,8.93,7.72,17.87,7.72c8.94,0,8.94-7.72,17.88-7.72
					c8.94,0,8.94,7.72,17.88,7.72c8.94,0,8.94-7.72,17.88-7.72c8.94,0,8.94,7.72,17.88,7.72c8.94,0,8.94-7.72,17.88-7.72
					c8.94,0,8.94,7.72,17.88,7.72c8.95,0,8.95-7.72,17.9-7.72c8.95,0,8.95,7.72,17.91,7.72c8.95,0,8.95-7.72,17.91-7.72"/>
				<path id="XMLID_479_" class="st8" d="M1.52,144.82c8.94,0,8.94,7.72,17.87,7.72c8.93,0,8.93-7.72,17.86-7.72
					c8.93,0,8.93,7.72,17.87,7.72c8.94,0,8.94-7.72,17.87-7.72c8.93,0,8.93,7.72,17.87,7.72c8.94,0,8.94-7.72,17.87-7.72
					c8.93,0,8.93,7.72,17.87,7.72c8.94,0,8.94-7.72,17.87-7.72c8.94,0,8.94,7.72,17.87,7.72c8.94,0,8.94-7.72,17.88-7.72
					c8.94,0,8.94,7.72,17.87,7.72c8.94,0,8.94-7.72,17.88-7.72c8.94,0,8.94,7.72,17.88,7.72c8.94,0,8.94-7.72,17.87-7.72
					c8.93,0,8.93,7.72,17.86,7.72c8.94,0,8.94-7.72,17.88-7.72c8.93,0,8.93,7.72,17.87,7.72c8.94,0,8.94-7.72,17.88-7.72
					c8.94,0,8.94,7.72,17.88,7.72c8.94,0,8.94-7.72,17.88-7.72c8.94,0,8.94,7.72,17.88,7.72c8.94,0,8.94-7.72,17.88-7.72
					c8.94,0,8.94,7.72,17.88,7.72c8.95,0,8.95-7.72,17.9-7.72c8.95,0,8.95,7.72,17.91,7.72c8.95,0,8.95-7.72,17.91-7.72"/>
				<path id="XMLID_478_" class="st8" d="M1.52,128.73c8.94,0,8.94,7.72,17.87,7.72c8.93,0,8.93-7.72,17.86-7.72
					c8.93,0,8.93,7.72,17.87,7.72c8.94,0,8.94-7.72,17.87-7.72c8.93,0,8.93,7.72,17.87,7.72c8.94,0,8.94-7.72,17.87-7.72
					c8.93,0,8.93,7.72,17.87,7.72c8.94,0,8.94-7.72,17.87-7.72c8.94,0,8.94,7.72,17.87,7.72c8.94,0,8.94-7.72,17.88-7.72
					c8.94,0,8.94,7.72,17.87,7.72c8.94,0,8.94-7.72,17.88-7.72c8.94,0,8.94,7.72,17.88,7.72c8.94,0,8.94-7.72,17.87-7.72
					c8.93,0,8.93,7.72,17.86,7.72c8.94,0,8.94-7.72,17.88-7.72c8.93,0,8.93,7.72,17.87,7.72c8.94,0,8.94-7.72,17.88-7.72
					c8.94,0,8.94,7.72,17.88,7.72c8.94,0,8.94-7.72,17.88-7.72c8.94,0,8.94,7.72,17.88,7.72c8.94,0,8.94-7.72,17.88-7.72
					c8.94,0,8.94,7.72,17.88,7.72c8.95,0,8.95-7.72,17.9-7.72c8.95,0,8.95,7.72,17.91,7.72c8.95,0,8.95-7.72,17.91-7.72"/>
				<path id="XMLID_477_" class="st8" d="M1.52,112.64c8.94,0,8.94,7.72,17.87,7.72c8.93,0,8.93-7.72,17.86-7.72
					c8.93,0,8.93,7.72,17.87,7.72c8.94,0,8.94-7.72,17.87-7.72c8.93,0,8.93,7.72,17.87,7.72c8.94,0,8.94-7.72,17.87-7.72
					c8.93,0,8.93,7.72,17.87,7.72c8.94,0,8.94-7.72,17.87-7.72c8.94,0,8.94,7.72,17.87,7.72c8.94,0,8.94-7.72,17.88-7.72
					c8.94,0,8.94,7.72,17.87,7.72c8.94,0,8.94-7.72,17.88-7.72c8.94,0,8.94,7.72,17.88,7.72c8.94,0,8.94-7.72,17.87-7.72
					c8.93,0,8.93,7.72,17.86,7.72c8.94,0,8.94-7.72,17.88-7.72c8.93,0,8.93,7.72,17.87,7.72c8.94,0,8.94-7.72,17.88-7.72
					c8.94,0,8.94,7.72,17.88,7.72c8.94,0,8.94-7.72,17.88-7.72c8.94,0,8.94,7.72,17.88,7.72c8.94,0,8.94-7.72,17.88-7.72
					c8.94,0,8.94,7.72,17.88,7.72c8.95,0,8.95-7.72,17.9-7.72c8.95,0,8.95,7.72,17.91,7.72c8.95,0,8.95-7.72,17.91-7.72"/>
				<path id="XMLID_476_" class="st8" d="M1.52,96.55c8.94,0,8.94,7.72,17.87,7.72c8.93,0,8.93-7.72,17.86-7.72
					c8.93,0,8.93,7.72,17.87,7.72c8.94,0,8.94-7.72,17.87-7.72c8.93,0,8.93,7.72,17.87,7.72c8.94,0,8.94-7.72,17.87-7.72
					c8.93,0,8.93,7.72,17.87,7.72c8.94,0,8.94-7.72,17.87-7.72c8.94,0,8.94,7.72,17.87,7.72c8.94,0,8.94-7.72,17.88-7.72
					c8.94,0,8.94,7.72,17.87,7.72c8.94,0,8.94-7.72,17.88-7.72c8.94,0,8.94,7.72,17.88,7.72c8.94,0,8.94-7.72,17.87-7.72
					c8.93,0,8.93,7.72,17.86,7.72c8.94,0,8.94-7.72,17.88-7.72c8.93,0,8.93,7.72,17.87,7.72c8.94,0,8.94-7.72,17.88-7.72
					c8.94,0,8.94,7.72,17.88,7.72c8.94,0,8.94-7.72,17.88-7.72c8.94,0,8.94,7.72,17.88,7.72c8.94,0,8.94-7.72,17.88-7.72
					c8.94,0,8.94,7.72,17.88,7.72c8.95,0,8.95-7.72,17.9-7.72c8.95,0,8.95,7.72,17.91,7.72c8.95,0,8.95-7.72,17.91-7.72"/>
				<path id="XMLID_475_" class="st8" d="M1.52,80.46c8.94,0,8.94,7.72,17.87,7.72c8.93,0,8.93-7.72,17.86-7.72
					c8.93,0,8.93,7.72,17.87,7.72c8.94,0,8.94-7.72,17.87-7.72c8.93,0,8.93,7.72,17.87,7.72c8.94,0,8.94-7.72,17.87-7.72
					c8.93,0,8.93,7.72,17.87,7.72c8.94,0,8.94-7.72,17.87-7.72c8.94,0,8.94,7.72,17.87,7.72c8.94,0,8.94-7.72,17.88-7.72
					c8.94,0,8.94,7.72,17.87,7.72c8.94,0,8.94-7.72,17.88-7.72c8.94,0,8.94,7.72,17.88,7.72c8.94,0,8.94-7.72,17.87-7.72
					c8.93,0,8.93,7.72,17.86,7.72c8.94,0,8.94-7.72,17.88-7.72c8.93,0,8.93,7.72,17.87,7.72c8.94,0,8.94-7.72,17.88-7.72
					c8.94,0,8.94,7.72,17.88,7.72c8.94,0,8.94-7.72,17.88-7.72c8.94,0,8.94,7.72,17.88,7.72c8.94,0,8.94-7.72,17.88-7.72
					c8.94,0,8.94,7.72,17.88,7.72c8.95,0,8.95-7.72,17.9-7.72c8.95,0,8.95,7.72,17.91,7.72c8.95,0,8.95-7.72,17.91-7.72"/>
				<path id="XMLID_474_" class="st8" d="M1.52,64.37c8.94,0,8.94,7.72,17.87,7.72c8.93,0,8.93-7.72,17.86-7.72
					c8.93,0,8.93,7.72,17.87,7.72c8.94,0,8.94-7.72,17.87-7.72c8.93,0,8.93,7.72,17.87,7.72c8.94,0,8.94-7.72,17.87-7.72
					c8.93,0,8.93,7.72,17.87,7.72c8.94,0,8.94-7.72,17.87-7.72c8.94,0,8.94,7.72,17.87,7.72c8.94,0,8.94-7.72,17.88-7.72
					c8.94,0,8.94,7.72,17.87,7.72c8.94,0,8.94-7.72,17.88-7.72c8.94,0,8.94,7.72,17.88,7.72c8.94,0,8.94-7.72,17.87-7.72
					c8.93,0,8.93,7.72,17.86,7.72c8.94,0,8.94-7.72,17.88-7.72c8.93,0,8.93,7.72,17.87,7.72c8.94,0,8.94-7.72,17.88-7.72
					c8.94,0,8.94,7.72,17.88,7.72c8.94,0,8.94-7.72,17.88-7.72c8.94,0,8.94,7.72,17.88,7.72c8.94,0,8.94-7.72,17.88-7.72
					c8.94,0,8.94,7.72,17.88,7.72c8.95,0,8.95-7.72,17.9-7.72c8.95,0,8.95,7.72,17.91,7.72c8.95,0,8.95-7.72,17.91-7.72"/>
				<path id="XMLID_473_" class="st8" d="M1.52,48.28c8.94,0,8.94,7.72,17.87,7.72c8.93,0,8.93-7.72,17.86-7.72
					c8.93,0,8.93,7.72,17.87,7.72c8.94,0,8.94-7.72,17.87-7.72c8.93,0,8.93,7.72,17.87,7.72c8.94,0,8.94-7.72,17.87-7.72
					c8.93,0,8.93,7.72,17.87,7.72c8.94,0,8.94-7.72,17.87-7.72c8.94,0,8.94,7.72,17.87,7.72c8.94,0,8.94-7.72,17.88-7.72
					c8.94,0,8.94,7.72,17.87,7.72c8.94,0,8.94-7.72,17.88-7.72c8.94,0,8.94,7.72,17.88,7.72c8.94,0,8.94-7.72,17.87-7.72
					c8.93,0,8.93,7.72,17.86,7.72c8.94,0,8.94-7.72,17.88-7.72c8.93,0,8.93,7.72,17.87,7.72c8.94,0,8.94-7.72,17.88-7.72
					c8.94,0,8.94,7.72,17.88,7.72c8.94,0,8.94-7.72,17.88-7.72c8.94,0,8.94,7.72,17.88,7.72c8.94,0,8.94-7.72,17.88-7.72
					c8.94,0,8.94,7.72,17.88,7.72c8.95,0,8.95-7.72,17.9-7.72c8.95,0,8.95,7.72,17.91,7.72c8.95,0,8.95-7.72,17.91-7.72"/>
			</g>
		</g>
		<g id="XMLID_32_">
			<path id="XMLID_274_" class="st5" d="M692.03,665.23H561.66c-0.91,0-1.66-0.75-1.66-1.66v-62.92c0-0.91,0.75-1.66,1.66-1.66
				h130.37c0.91,0,1.66,0.75,1.66,1.66v62.92C693.69,664.49,692.94,665.23,692.03,665.23z"/>
			<g>
				<g>
					<path class="st3" d="M585.89,615.91h3.37v14.03h6.83v2.83h-10.21V615.91z"/>
					<path class="st3" d="M608.21,632.77l-3.46-6.38h-2.35v6.38h-3.37v-16.86h5.88c3.53,0,6.33,1.23,6.33,5.1
						c0,2.53-1.28,4.1-3.21,4.85l3.94,6.9H608.21z M602.4,623.73h2.19c2.16,0,3.35-0.91,3.35-2.71c0-1.82-1.18-2.44-3.35-2.44h-2.19
						V623.73z"/>
					<path class="st3" d="M617.48,618.71h-4.74v-2.8h12.89v2.8h-4.78v14.06h-3.37V618.71z"/>
					<path class="st3" d="M632.61,624.96c0-5.19,3.34-8.23,7.32-8.23c2,0,3.59,0.96,4.62,2.02l-1.66,2
						c-0.79-0.77-1.7-1.32-2.89-1.32c-2.38,0-4.17,2.04-4.17,5.42c0,3.42,1.62,5.49,4.11,5.49c1.34,0,2.4-0.64,3.25-1.55l1.66,1.96
						c-1.3,1.51-2.98,2.32-5.02,2.32C635.85,633.07,632.61,630.22,632.61,624.96z"/>
					<path class="st3" d="M647.18,630.24h3.38v-9.96h-2.85v-1.94c1.57-0.3,2.66-0.7,3.66-1.32h2.32v13.21h2.96v2.53h-9.47V630.24z"
						/>
					<path class="st3" d="M658.9,624.84c0-5.45,2.13-8.1,5.34-8.1c3.19,0,5.32,2.68,5.32,8.1c0,5.42-2.13,8.23-5.32,8.23
						C661.03,633.07,658.9,630.26,658.9,624.84z M666.6,624.84c0-4.4-1.02-5.68-2.36-5.68c-1.36,0-2.38,1.28-2.38,5.68
						c0,4.42,1.02,5.79,2.38,5.79C665.58,630.62,666.6,629.26,666.6,624.84z"/>
					<path class="st3" d="M575.71,646.64c0-3.36,2.04-5.38,4.65-5.38c1.29,0,2.3,0.62,2.93,1.3l-0.88,1.04
						c-0.53-0.55-1.18-0.92-2.02-0.92c-1.78,0-3.01,1.48-3.01,3.91c0,2.45,1.15,3.95,2.97,3.95c0.94,0,1.67-0.42,2.28-1.09
						l0.87,1.02c-0.83,0.95-1.88,1.48-3.21,1.48C577.69,651.95,575.71,650.02,575.71,646.64z"/>
					<path class="st3" d="M585.17,644.07h1.32l0.13,1.39h0.04c0.55-0.99,1.36-1.58,2.19-1.58c0.38,0,0.63,0.06,0.87,0.17l-0.29,1.4
						c-0.27-0.08-0.46-0.13-0.77-0.13c-0.63,0-1.39,0.43-1.88,1.65v4.8h-1.6V644.07z"/>
					<path class="st3" d="M590.8,648.91v-4.85h1.61v4.65c0,1.33,0.38,1.85,1.29,1.85c0.71,0,1.2-0.34,1.85-1.15v-5.35h1.61v7.7
						h-1.32l-0.13-1.16h-0.04c-0.7,0.81-1.46,1.34-2.52,1.34C591.51,651.95,590.8,650.87,590.8,648.91z"/>
					<path class="st3" d="M599.35,641.67c0-0.57,0.43-0.95,1.02-0.95c0.59,0,1.04,0.38,1.04,0.95c0,0.56-0.45,0.95-1.04,0.95
						C599.78,642.62,599.35,642.23,599.35,641.67z M599.57,644.07h1.6v7.7h-1.6V644.07z"/>
					<path class="st3" d="M602.78,650.89l0.76-1.04c0.69,0.55,1.36,0.88,2.18,0.88c0.92,0,1.36-0.45,1.36-1.04
						c0-0.7-0.87-1.01-1.71-1.33c-1.02-0.39-2.2-0.94-2.2-2.24c0-1.29,1.04-2.25,2.73-2.25c1.04,0,1.88,0.42,2.51,0.91l-0.76,1
						c-0.53-0.39-1.08-0.67-1.72-0.67c-0.84,0-1.23,0.42-1.23,0.95c0,0.66,0.8,0.91,1.64,1.22c1.08,0.41,2.27,0.88,2.27,2.34
						c0,1.29-1.02,2.34-2.93,2.34C604.61,651.95,603.52,651.5,602.78,650.89z"/>
					<path class="st3" d="M609.76,647.93c0-2.51,1.71-4.06,3.52-4.06c2.04,0,3.14,1.47,3.14,3.66c0,0.31-0.03,0.63-0.07,0.81h-5
						c0.13,1.47,1.05,2.35,2.38,2.35c0.69,0,1.27-0.21,1.83-0.58l0.56,1.02c-0.71,0.48-1.6,0.81-2.61,0.81
						C611.43,651.95,609.76,650.47,609.76,647.93z M615.03,647.23c0-1.33-0.6-2.1-1.72-2.1c-0.97,0-1.82,0.74-1.97,2.1H615.03z"/>
					<path class="st3" d="M623.61,642.82h-3.03v-1.36h7.69v1.36h-3.04v8.95h-1.63V642.82z"/>
					<path class="st3" d="M628.27,647.93c0-2.51,1.71-4.06,3.52-4.06c2.04,0,3.14,1.47,3.14,3.66c0,0.31-0.03,0.63-0.07,0.81h-5
						c0.13,1.47,1.05,2.35,2.38,2.35c0.69,0,1.27-0.21,1.83-0.58l0.56,1.02c-0.71,0.48-1.6,0.81-2.61,0.81
						C629.94,651.95,628.27,650.47,628.27,647.93z M633.54,647.23c0-1.33-0.6-2.1-1.72-2.1c-0.97,0-1.82,0.74-1.97,2.1H633.54z"/>
					<path class="st3" d="M636.73,644.07h1.32l0.13,1.39h0.04c0.55-0.99,1.36-1.58,2.19-1.58c0.38,0,0.63,0.06,0.87,0.17l-0.29,1.4
						c-0.27-0.08-0.46-0.13-0.77-0.13c-0.63,0-1.39,0.43-1.88,1.65v4.8h-1.6V644.07z"/>
					<path class="st3" d="M642.46,644.07h1.32l0.13,1.08h0.04c0.66-0.7,1.43-1.27,2.38-1.27c1.15,0,1.79,0.53,2.13,1.42
						c0.76-0.81,1.54-1.42,2.51-1.42c1.61,0,2.37,1.09,2.37,3.05v4.85h-1.61v-4.65c0-1.33-0.42-1.86-1.29-1.86
						c-0.53,0-1.09,0.35-1.74,1.05v5.46h-1.61v-4.65c0-1.33-0.41-1.86-1.29-1.86c-0.52,0-1.09,0.35-1.74,1.05v5.46h-1.6V644.07z"/>
					<path class="st3" d="M655.42,641.67c0-0.57,0.43-0.95,1.02-0.95c0.59,0,1.04,0.38,1.04,0.95c0,0.56-0.45,0.95-1.04,0.95
						C655.85,642.62,655.42,642.23,655.42,641.67z M655.64,644.07h1.6v7.7h-1.6V644.07z"/>
					<path class="st3" d="M659.66,644.07h1.32l0.13,1.06h0.04c0.71-0.69,1.5-1.26,2.55-1.26c1.64,0,2.37,1.09,2.37,3.05v4.85h-1.61
						v-4.65c0-1.33-0.39-1.86-1.3-1.86c-0.71,0-1.2,0.36-1.89,1.05v5.46h-1.6V644.07z"/>
					<path class="st3" d="M667.95,649.73c0-1.65,1.4-2.51,4.61-2.86c-0.01-0.9-0.34-1.68-1.47-1.68c-0.81,0-1.57,0.36-2.23,0.79
						l-0.6-1.09c0.8-0.5,1.88-1.01,3.11-1.01c1.92,0,2.8,1.22,2.8,3.26v4.64h-1.32l-0.14-0.88h-0.04c-0.7,0.6-1.53,1.06-2.45,1.06
						C668.89,651.95,667.95,651.08,667.95,649.73z M672.56,649.78v-1.89c-2.28,0.28-3.05,0.85-3.05,1.72c0,0.76,0.52,1.06,1.21,1.06
						C671.38,650.68,671.93,650.36,672.56,649.78z"/>
					<path class="st3" d="M676.45,649.96v-9.36h1.6v9.44c0,0.43,0.2,0.59,0.39,0.59c0.07,0,0.13,0,0.27-0.03l0.21,1.22
						c-0.2,0.07-0.48,0.13-0.87,0.13C676.88,651.95,676.45,651.21,676.45,649.96z"/>
				</g>
			</g>
		</g>
	</g>
</g>
<g id="圖層_1">
</g>
</svg>
