<?xml version="1.0" encoding="utf-8"?>
<!-- Generator: Adobe Illustrator 24.2.3, SVG Export Plug-In . SVG Version: 6.00 Build 0)  -->
<svg version="1.1" id="圖層_1" xmlns="http://www.w3.org/2000/svg" xmlns:xlink="http://www.w3.org/1999/xlink" x="0px" y="0px"
	 viewBox="0 0 39.4 44" style="enable-background:new 0 0 39.4 44;" xml:space="preserve">
<style type="text/css">
	.st0{fill:#FFFFFF;}
</style>
<g id="XMLID_119_">
	<path id="XMLID_128_" class="st0" d="M39,12.7c0-1.2-0.6-2.3-1.7-2.9L21.2,0.5C20.7,0.2,20.1,0,19.5,0s-1.2,0.2-1.7,0.5L1.7,9.8
		c-1,0.6-1.7,1.7-1.7,2.9v18.6c0,1,0.4,1.9,1.2,2.6c0,0,0,0,0,0c0,0,0,0,0,0c0.1,0.1,0.3,0.2,0.5,0.3l16.1,9.3
		c0.5,0.3,1.1,0.5,1.7,0.5c0,0,0,0,0,0c0.6,0,1.2-0.2,1.7-0.5l16.1-9.3c0.2-0.1,0.3-0.2,0.5-0.3c0,0,0,0,0,0c0,0,0,0,0,0
		c0.7-0.6,1.2-1.6,1.2-2.6V12.7z M17.3,24.9v7.4c0,0.2-0.3,0.4-0.5,0.3l-1.3-0.8c-0.1-0.1-0.1-0.2-0.1-0.3v-9c0-0.3-0.1-0.7-0.3-0.9
		c-0.2-0.2-0.3,0.1-0.4,0.3c-0.7,1.9-1,4.2-1.5,6.2c-0.1,0.4-0.3,0.8-0.5,1.1c-0.4,0.4-1,0.3-1.6,0c-0.6-0.4-1.3-1-1.7-2
		c-0.2-0.5-0.4-1.1-0.5-1.7c-0.5-2.6-0.8-5.2-1.4-7.8c0-0.2-0.1-0.4-0.2-0.6c-0.1-0.2-0.3-0.3-0.3-0.3C7,16.9,7,17.2,7,17.4v8.5
		c0,0.2-0.3,0.4-0.4,0.3l-1.1-0.7c-0.1-0.1-0.1-0.2-0.1-0.3v-8.7c0-0.8,0-1.6,0.3-2c0.3-0.4,0.8-0.4,1.3-0.3
		c0.4,0.1,0.8,0.4,1.2,0.9c0.6,0.7,1,1.8,1.3,2.9c0.7,2.5,0.8,5,1.3,7.5c0.1,0.4,0.2,0.9,0.5,1.1c0.3,0.2,0.4-0.2,0.5-0.5
		c0.4-1.8,0.6-3.8,1.2-5.5c0.2-0.7,0.5-1.4,1-1.7c0.5-0.3,1.2-0.1,1.9,0.4c0.3,0.3,0.6,0.7,0.9,1.1c0.3,0.4,0.5,0.9,0.6,1.3
		C17.5,22.6,17.3,23.9,17.3,24.9z M29.8,33.6l-1.2,0.7c-0.2,0.1-0.4,0-0.5-0.1l-2-3.9l-2.5,1.6c-0.2,0.1-0.2,0.3-0.2,0.5v4.7
		c0,0.1-0.1,0.2-0.2,0.3L22.1,38c-0.2,0.1-0.5,0-0.5-0.3v-4.8c0-0.8,0.1-1.4,0.4-1.9c0.2-0.5,0.6-0.9,1.2-1.2l3.8-2.3
		c0.2-0.1,0.4-0.3,0.6-0.5c0.2-0.2,0.3-0.4,0.4-0.7c0.1-0.2,0.2-0.5,0.2-0.7c0.1-0.3,0.1-0.5,0.1-0.7c0-0.5-0.1-0.8-0.3-1
		c-0.2-0.2-0.6-0.2-1,0.1l-4,2.4L21.6,27v-2.4l5.3-3.1c0.5-0.3,1-0.5,1.4-0.5c0.4,0,0.7,0.1,1,0.3c0.2,0.2,0.4,0.5,0.5,0.9
		c0.1,0.4,0.2,0.9,0.2,1.4c0,0.4,0,0.9-0.1,1.3c-0.1,0.5-0.2,0.9-0.3,1.4c-0.2,0.5-0.4,0.9-0.6,1.3c-0.3,0.4-0.6,0.8-0.9,1.2
		l2.1,4.2C30.1,33.3,30,33.5,29.8,33.6z"/>
</g>
</svg>
